# Blender 3.4.1
# www.blender.org
mtllib bed80x190.mtl
o Куб
v -0.400000 0.001569 0.602295
v -0.400000 0.401630 0.602295
v -0.400000 0.001569 -0.400000
v -0.400000 0.401630 -0.400000
v -0.299574 0.001569 -0.400000
v -0.299574 0.001569 0.602295
v -0.313754 0.180131 0.500000
v -0.313754 0.180131 -0.300000
v -0.400000 0.767486 0.602295
v -0.400000 0.800316 0.569464
v -0.400000 0.790700 0.592679
v -0.400000 0.800316 -0.367170
v -0.400000 0.767486 -0.400000
v -0.400000 0.790700 -0.390384
v -0.299574 0.800316 0.569464
v -0.299574 0.767486 0.602295
v -0.299574 0.790700 0.592679
v -0.299574 0.767486 -0.400000
v -0.299574 0.800316 -0.367170
v -0.299574 0.790700 -0.390384
v 1.669821 0.401630 0.575180
v 1.688995 0.393688 0.594353
v 1.669821 0.401630 -0.372885
v 1.688995 0.393688 -0.392058
v -0.299574 0.401630 -0.372885
v -0.299574 0.374515 -0.400000
v -0.326689 0.401630 -0.400000
v -0.299574 0.428745 -0.400000
v -0.299574 0.393688 -0.392058
v -0.299574 0.374515 0.602295
v -0.299574 0.401630 0.575180
v -0.299574 0.428745 0.602295
v -0.326689 0.401630 0.602295
v -0.299574 0.393688 0.594353
v 1.696936 0.001569 0.575833
v 1.670475 0.001569 0.602295
v 1.689186 0.001569 0.594544
v 1.670475 0.001569 -0.400000
v 1.696936 0.001569 -0.373539
v 1.689186 0.001569 -0.392250
v 1.670475 0.374515 0.602295
v 1.696936 0.374515 0.575833
v 1.689012 0.393645 0.594371
v 1.689186 0.374515 0.594544
v 1.696936 0.374515 -0.373539
v 1.670475 0.374515 -0.400000
v 1.689012 0.393645 -0.392076
v 1.689186 0.374515 -0.392250
v -0.313754 0.484660 0.500000
v -0.313754 0.501389 0.483270
v -0.313754 0.496489 0.495100
v -0.313754 0.501389 -0.283270
v -0.313754 0.484660 -0.300000
v -0.313754 0.496489 -0.295100
v 1.604972 0.180131 0.483270
v 1.588243 0.180131 0.500000
v 1.600073 0.180131 0.495100
v 1.588243 0.501389 0.483270
v 1.588243 0.484660 0.500000
v 1.604972 0.484660 0.483270
v 1.588243 0.496489 0.495100
v 1.597902 0.494319 0.492929
v 1.600073 0.484660 0.495100
v 1.600073 0.496489 0.483270
v 1.588243 0.180131 -0.300000
v 1.604972 0.180131 -0.283270
v 1.600073 0.180131 -0.295100
v 1.588243 0.501389 -0.283270
v 1.604972 0.484660 -0.283270
v 1.588243 0.484660 -0.300000
v 1.600073 0.496489 -0.283270
v 1.597902 0.494319 -0.292929
v 1.600073 0.484660 -0.295100
v 1.588243 0.496489 -0.295100
vn -1.0000 -0.0000 -0.0000
vn -0.0000 -0.0000 -1.0000
vn -0.0000 -0.0000 1.0000
vn -0.0000 -1.0000 -0.0000
vn -0.0000 0.3827 0.9239
vn 1.0000 -0.0000 -0.0000
vn -0.0000 1.0000 -0.0000
vn -0.0000 0.9239 0.3827
vn -0.0000 0.9239 -0.3827
vn -0.0000 0.3827 -0.9239
vn 0.6213 -0.0000 -0.7836
vn 0.6213 -0.0000 0.7836
vn 0.3827 0.9239 -0.0000
vn 0.9239 0.3827 -0.0000
vn 0.3827 0.0119 0.9238
vn 0.9238 0.0118 0.3827
vn 0.9238 0.0118 -0.3827
vn 0.3827 0.0119 -0.9238
vn 0.3827 -0.0000 -0.9239
vn 0.9239 -0.0000 -0.3827
vn 0.3827 -0.0000 0.9239
vn 0.9239 -0.0000 0.3827
vn 0.3251 0.8881 0.3251
vn 0.3251 0.3251 0.8881
vn 0.8881 0.3251 0.3251
vn 0.3251 0.8881 -0.3251
vn 0.8881 0.3251 -0.3251
vn 0.3251 0.3251 -0.8881
vt 0.375000 0.000000
vt 0.125000 0.750000
vt 0.375000 1.000000
vt 0.625000 1.000000
vt 0.625000 0.000000
vt 0.125000 0.500000
vt 0.375000 0.250000
vt 0.625000 0.250000
vt 0.136973 0.500000
vt 0.375000 0.261973
vt 0.136973 0.750000
vt 0.375000 0.988027
vt 0.125000 0.750000
vt 0.375000 0.000000
vt 0.375000 1.000000
vt 0.125000 0.500000
vt 0.375000 0.250000
vt 0.625000 1.000000
vt 0.625000 0.000000
vt 0.875000 0.741811
vt 0.625000 0.008189
vt 0.875000 0.750000
vt 0.625000 1.000000
vt 0.625000 0.002398
vt 0.875000 0.508189
vt 0.625000 0.241811
vt 0.625000 0.250000
vt 0.875000 0.500000
vt 0.625000 0.250000
vt 0.625000 0.247602
vt 0.863027 0.741811
vt 0.863027 0.750000
vt 0.625000 0.988027
vt 0.863027 0.747602
vt 0.863027 0.750000
vt 0.625000 0.988027
vt 0.863027 0.500000
vt 0.625000 0.261973
vt 0.863027 0.508189
vt 0.863027 0.502398
vt 0.863027 0.500000
vt 0.625000 0.261973
vt 0.628233 0.743237
vt 0.625000 0.750947
vt 0.625947 0.750000
vt 0.625000 0.748019
vt 0.628233 0.506763
vt 0.625947 0.500000
vt 0.625000 0.499053
vt 0.625000 0.501981
vt 0.625000 0.261973
vt 0.863027 0.506763
vt 0.617468 0.261973
vt 0.625000 0.258740
vt 0.863027 0.500000
vt 0.625000 0.261973
vt 0.622794 0.261973
vt 0.863027 0.500000
vt 0.625000 0.261973
vt 0.617468 0.988027
vt 0.625000 0.988027
vt 0.863027 0.743237
vt 0.863027 0.750000
vt 0.625000 0.988027
vt 0.625000 0.991260
vt 0.625000 0.988027
vt 0.622794 0.988027
vt 0.863027 0.750000
vt 0.375000 0.743400
vt 0.371845 0.750000
vt 0.375000 0.753155
vt 0.374076 0.748067
vt 0.375000 0.750000
vt 0.371845 0.500000
vt 0.375000 0.496845
vt 0.375000 0.506600
vt 0.374076 0.501933
vt 0.375000 0.500000
vt 0.617468 0.753155
vt 0.617468 0.750000
vt 0.617468 0.743400
vt 0.624983 0.750945
vt 0.624983 0.748024
vt 0.617468 0.750924
vt 0.617468 0.750000
vt 0.617468 0.506600
vt 0.617468 0.500000
vt 0.617468 0.496845
vt 0.624983 0.501976
vt 0.624983 0.499055
vt 0.617468 0.501933
vt 0.617468 0.500000
vt 0.619772 0.000000
vt 0.619772 1.000000
vt 0.625000 0.005228
vt 0.875000 0.744772
vt 0.623469 0.001531
vt 0.875000 0.750000
vt 0.625000 1.000000
vt 0.625000 0.244772
vt 0.875000 0.505228
vt 0.619772 0.250000
vt 0.623469 0.248469
vt 0.875000 0.500000
vt 0.625000 0.250000
vt 0.375000 0.744772
vt 0.372914 0.750000
vt 0.375000 0.752086
vt 0.374389 0.748469
vt 0.375000 0.750000
vt 0.627086 0.744772
vt 0.619772 0.752086
vt 0.619772 0.744772
vt 0.627086 0.750000
vt 0.625000 0.752086
vt 0.624557 0.749263
vt 0.619772 0.750000
vt 0.625000 0.744772
vt 0.372914 0.500000
vt 0.375000 0.497914
vt 0.375000 0.505228
vt 0.374389 0.501531
vt 0.375000 0.500000
vt 0.627086 0.505228
vt 0.619772 0.505228
vt 0.619772 0.497914
vt 0.625000 0.505228
vt 0.624263 0.500443
vt 0.619772 0.500000
vt 0.627086 0.500000
vt 0.625000 0.497914
s 0
f 1/1/1 2/5/1 4/8/1 3/7/1
f 28/56/2 27/54/2 4/8/2 13/27/2 18/38/2
f 5/10/2 26/53/2 46/88/2 38/75/2
f 36/71/3 41/79/3 30/60/3 6/12/3
f 5/9/4 38/74/4 40/77/4 39/76/4 35/69/4 37/72/4 36/70/4 6/11/4
f 3/6/4 5/9/4 6/11/4 1/2/4
f 22/44/5 34/66/5 30/60/5 41/79/5 43/82/5
f 32/63/6 31/62/6 25/52/6 28/55/6 18/37/6 20/40/6 19/39/6 15/31/6 17/34/6 16/32/6
f 6/12/3 30/60/3 33/65/3 2/4/3 1/3/3
f 19/39/7 12/25/7 10/20/7 15/31/7
f 2/4/3 33/65/3 32/64/3 16/33/3 9/18/3
f 3/7/2 4/8/2 27/54/2 26/53/2 5/10/2
f 68/124/7 52/101/7 50/96/7 58/111/7
f 8/16/4 65/119/4 67/122/4 66/121/4 55/106/4 57/109/4 56/107/4 7/13/4
f 7/14/1 49/93/1 51/97/1 50/95/1 52/100/1 54/103/1 53/102/1 8/17/1
f 66/121/6 69/125/6 60/113/6 55/106/6
f 8/17/2 53/102/2 70/126/2 65/120/2
f 15/31/8 10/20/8 11/22/8 17/35/8
f 17/36/5 11/23/5 9/18/5 16/33/5
f 12/25/9 19/39/9 20/41/9 14/28/9
f 14/29/10 20/42/10 18/38/10 13/27/10
f 4/8/1 2/5/1 9/19/1 11/24/1 10/21/1 12/26/1 14/30/1 13/27/1
f 25/51/11 29/57/11 26/53/11 27/54/11 28/56/11
f 30/60/12 34/67/12 31/61/12 32/64/12 33/65/12
f 25/52/9 23/47/9 24/48/9 29/58/9
f 23/47/13 21/43/13 22/46/13 24/50/13
f 29/59/10 24/49/10 47/90/10 46/88/10 26/53/10
f 21/43/8 31/62/8 34/68/8 22/45/8
f 24/50/14 22/46/14 43/83/14 42/81/14 45/86/14 47/89/14
f 23/47/7 25/52/7 31/62/7 21/43/7
f 41/79/15 44/84/15 43/83/15
f 44/84/16 42/80/16 43/83/16
f 45/86/17 48/91/17 47/90/17
f 48/91/18 46/87/18 47/90/18
f 38/75/19 46/88/19 48/92/19 40/78/19
f 40/78/20 48/92/20 45/86/20 39/76/20
f 41/79/21 36/71/21 37/73/21 44/85/21
f 44/85/22 37/73/22 35/69/22 42/81/22
f 39/76/6 45/86/6 42/81/6 35/69/6
f 58/111/23 61/114/23 62/116/23 64/118/23
f 59/112/24 63/117/24 62/116/24 61/115/24
f 60/113/25 64/118/25 62/116/25 63/117/25
f 68/124/26 71/127/26 72/128/26 74/130/26
f 69/125/27 73/129/27 72/128/27 71/127/27
f 70/126/28 74/131/28 72/128/28 73/129/28
f 52/101/9 68/124/9 74/130/9 54/104/9
f 54/105/10 74/131/10 70/126/10 53/102/10
f 69/125/20 66/121/20 67/123/20 73/129/20
f 73/129/19 67/123/19 65/120/19 70/126/19
f 68/124/13 58/111/13 64/118/13 71/127/13
f 71/127/14 64/118/14 60/113/14 69/125/14
f 59/112/21 56/108/21 57/110/21 63/117/21
f 63/117/22 57/110/22 55/106/22 60/113/22
f 58/111/8 50/96/8 51/98/8 61/114/8
f 61/115/5 51/99/5 49/94/5 59/112/5
f 56/108/3 59/112/3 49/94/3 7/15/3
