# Blender 3.4.1
# www.blender.org
mtllib door601_.mtl
g Cube_Cube
v 0.035020 2.000000 -0.400471
v 0.035020 0.000000 -0.400471
v 0.035020 2.000000 0.299899
v 0.035020 0.000000 0.299899
v -0.035020 2.000000 -0.400471
v -0.035020 0.000000 -0.400471
v -0.035020 2.000000 0.299899
v -0.035020 0.000000 0.299899
v -0.045000 0.964963 0.254265
v -0.045000 1.035037 0.254265
v -0.045000 0.964963 0.184297
v -0.045000 1.035037 0.184297
v 0.045000 0.964963 0.254265
v 0.045000 1.035037 0.254265
v 0.045000 0.964963 0.184297
v 0.045000 1.035037 0.184297
v -0.045000 1.015008 0.204273
v -0.045000 1.015008 0.234289
v -0.045000 0.984992 0.234289
v -0.045000 0.984992 0.204273
v -0.095002 0.984992 0.234289
v -0.095002 1.015008 0.234289
v -0.095002 1.015008 0.204273
v -0.095002 0.984992 0.204273
v -0.074978 0.984992 0.234289
v -0.074978 0.984992 0.204273
v -0.074978 1.015008 0.234289
v -0.074978 1.015008 0.204273
v -0.095002 1.015008 0.114292
v -0.095002 0.984992 0.114292
v -0.074978 1.015008 0.114292
v -0.074978 0.984992 0.114292
v 0.045000 1.015015 0.204289
v 0.045000 0.984985 0.204289
v 0.045000 0.984985 0.234273
v 0.045000 1.015015 0.234273
v 0.095018 1.015015 0.204289
v 0.095018 0.984985 0.204289
v 0.095018 0.984985 0.234273
v 0.095018 1.015015 0.234273
v 0.074985 1.015015 0.204289
v 0.074985 0.984985 0.204289
v 0.074985 0.984985 0.234273
v 0.074985 1.015015 0.234273
v 0.095018 1.015015 0.114297
v 0.095018 0.984985 0.114297
v 0.074985 1.015015 0.114297
v 0.074985 0.984985 0.114297
vn -0.0000 1.0000 -0.0000
vn -0.0000 -0.0000 1.0000
vn -1.0000 -0.0000 -0.0000
vn -0.0000 -1.0000 -0.0000
vn 1.0000 -0.0000 -0.0000
vn -0.0000 -0.0000 -1.0000
vt 0.625000 0.500000
vt 0.375000 0.500000
vt 0.625000 0.750000
vt 0.375000 0.750000
vt 0.875000 0.500000
vt 0.625000 0.250000
vt 0.125000 0.500000
vt 0.375000 0.250000
vt 0.875000 0.750000
vt 0.625000 1.000000
vt 0.625000 0.000000
vt 0.375000 1.000000
vt 0.375000 0.000000
vt 0.125000 0.750000
vt 0.375000 1.000000
vt 0.125000 0.750000
vt 0.625000 1.000000
vt 0.875000 0.750000
vt 0.375000 0.250000
vt 0.125000 0.500000
vt 0.875000 0.500000
vt 0.625000 0.250000
vt 0.375000 0.750000
vt 0.625000 0.750000
vt 0.375000 0.500000
vt 0.625000 0.500000
vt 0.625000 0.250000
vt 0.875000 0.500000
vt 0.875000 0.750000
vt 0.625000 1.000000
vt 0.375000 1.000000
vt 0.125000 0.750000
vt 0.375000 0.250000
vt 0.125000 0.500000
vt 0.125000 0.750000
vt 0.375000 1.000000
vt 0.625000 1.000000
vt 0.875000 0.750000
vt 0.875000 0.500000
vt 0.625000 0.250000
vt 0.125000 0.500000
vt 0.375000 0.250000
vt 0.375000 1.000000
vt 0.125000 0.750000
vt 0.125000 0.500000
vt 0.375000 0.250000
vt 0.875000 0.750000
vt 0.625000 1.000000
vt 0.875000 0.500000
vt 0.625000 0.250000
vt 0.875000 0.500000
vt 0.625000 0.250000
vt 0.125000 0.500000
vt 0.375000 0.250000
vt 0.875000 0.500000
vt 0.625000 0.250000
vt 0.125000 0.500000
vt 0.375000 0.250000
vt 0.625000 0.500000
vt 0.375000 0.500000
vt 0.375000 0.750000
vt 0.625000 0.750000
vt 0.625000 0.500000
vt 0.375000 0.500000
vt 0.375000 0.750000
vt 0.625000 0.750000
vt 0.625000 0.500000
vt 0.375000 0.500000
vt 0.375000 0.750000
vt 0.625000 0.750000
vt 0.625000 0.500000
vt 0.375000 0.500000
vt 0.625000 0.500000
vt 0.375000 0.500000
s 0
usemtl white
f 1/1/1 5/5/1 7/9/1 3/3/1
f 4/4/2 3/3/2 7/10/2 8/12/2
f 8/13/3 7/11/3 5/6/3 6/8/3
f 6/7/4 2/2/4 4/4/4 8/14/4
f 2/2/5 1/1/5 3/3/5 4/4/5
f 6/8/6 5/6/6 1/1/6 2/2/6
f 9/15/3 10/17/3 18/30/3 19/31/3
f 11/19/6 12/22/6 16/26/6 15/25/6
f 13/23/2 14/24/2 10/17/2 9/15/2
f 11/20/4 15/25/4 13/23/4 9/16/4
f 16/26/1 12/21/1 10/18/1 14/24/1
f 14/24/5 13/23/5 35/61/5 36/62/5
f 10/18/3 12/21/3 17/28/3 18/29/3
f 12/22/3 11/19/3 20/33/3 17/27/3
f 11/20/3 9/16/3 19/32/3 20/34/3
f 26/45/4 25/44/4 21/35/4 24/41/4
f 24/42/3 21/36/3 22/38/3 23/40/3
f 25/43/2 27/48/2 22/37/2 21/36/2
f 27/47/1 28/49/1 23/39/1 22/38/1
f 26/45/4 24/41/4 30/53/4 32/57/4
f 17/27/6 20/33/6 26/46/6 28/50/6
f 18/29/1 17/28/1 28/49/1 27/47/1
f 19/31/2 18/30/2 27/48/2 25/43/2
f 20/34/4 19/32/4 25/44/4 26/45/4
f 31/56/6 32/58/6 30/54/6 29/52/6
f 23/39/1 28/49/1 31/55/1 29/51/1
f 24/42/3 23/40/3 29/52/3 30/54/3
f 28/50/5 26/46/5 32/58/5 31/56/5
f 41/67/1 37/63/1 45/71/1 47/73/1
f 13/23/5 15/25/5 34/60/5 35/61/5
f 16/26/5 14/24/5 36/62/5 33/59/5
f 15/25/5 16/26/5 33/59/5 34/60/5
f 38/64/5 37/63/5 40/66/5 39/65/5
f 44/70/2 43/69/2 39/65/2 40/66/2
f 43/69/4 42/68/4 38/64/4 39/65/4
f 41/67/1 44/70/1 40/66/1 37/63/1
f 33/59/1 36/62/1 44/70/1 41/67/1
f 35/61/4 34/60/4 42/68/4 43/69/4
f 36/62/2 35/61/2 43/69/2 44/70/2
f 34/60/6 33/59/6 41/67/6 42/68/6
f 48/74/6 47/73/6 45/71/6 46/72/6
f 42/68/3 41/67/3 47/73/3 48/74/3
f 37/63/5 38/64/5 46/72/5 45/71/5
f 38/64/4 42/68/4 48/74/4 46/72/4
