# Blender 3.4.1
# www.blender.org
mtllib door701_black.mtl
o Cube
v 0.034978 2.000000 -0.399777
v 0.034978 0.000000 -0.399777
v 0.034978 2.000000 0.299935
v 0.034978 0.000000 0.299935
v -0.034978 2.000000 -0.399777
v -0.034978 0.000000 -0.399777
v -0.034978 2.000000 0.299935
v -0.034978 0.000000 0.299935
v 0.044928 1.033722 0.199538
v 0.044928 0.963772 0.199538
v 0.044928 1.033722 0.269489
v 0.044928 0.963772 0.269489
v 0.034916 1.033722 0.199538
v 0.034916 0.963772 0.199538
v 0.034916 1.033722 0.269489
v 0.034916 0.963772 0.269489
v 0.044928 1.013758 0.249525
v 0.044928 1.013758 0.219502
v 0.044928 0.983736 0.219502
v 0.044928 0.983736 0.249525
v 0.094953 1.013758 0.249525
v 0.094953 1.013758 0.219502
v 0.094953 0.983736 0.219502
v 0.094953 0.983736 0.249525
v 0.074931 1.013758 0.249525
v 0.074931 0.983736 0.249525
v 0.074931 0.983736 0.219502
v 0.074931 1.013758 0.219502
v 0.094953 1.013758 0.129522
v 0.094953 0.983736 0.129522
v 0.074931 0.983736 0.129522
v 0.074931 1.013758 0.129522
v -0.034978 2.000000 -0.399777
v -0.034978 0.000000 -0.399777
v -0.034978 2.000000 0.299935
v -0.034978 0.000000 0.299935
v 0.034978 2.000000 -0.399777
v 0.034978 0.000000 -0.399777
v 0.034978 2.000000 0.299935
v 0.034978 0.000000 0.299935
v -0.044928 1.033722 0.199538
v -0.044928 0.963772 0.199538
v -0.044928 1.033722 0.269489
v -0.044928 0.963772 0.269489
v -0.034916 1.033722 0.199538
v -0.034916 0.963772 0.199538
v -0.034916 1.033722 0.269489
v -0.034916 0.963772 0.269489
v -0.044928 1.013758 0.249525
v -0.044928 1.013758 0.219502
v -0.044928 0.983736 0.219502
v -0.044928 0.983736 0.249525
v -0.094953 1.013758 0.249525
v -0.094953 1.013758 0.219502
v -0.094953 0.983736 0.219502
v -0.094953 0.983736 0.249525
v -0.074931 1.013758 0.249525
v -0.074931 0.983736 0.249525
v -0.074931 0.983736 0.219502
v -0.074931 1.013758 0.219502
v -0.094953 1.013758 0.129522
v -0.094953 0.983736 0.129522
v -0.074931 0.983736 0.129522
v -0.074931 1.013758 0.129522
vn -0.0000 1.0000 -0.0000
vn -0.0000 -0.0000 1.0000
vn -1.0000 -0.0000 -0.0000
vn -0.0000 -1.0000 -0.0000
vn 1.0000 -0.0000 -0.0000
vn -0.0000 -0.0000 -1.0000
vt 0.625000 0.500000
vt 0.375000 0.500000
vt 0.625000 0.750000
vt 0.375000 0.750000
vt 0.875000 0.500000
vt 0.625000 0.250000
vt 0.125000 0.500000
vt 0.375000 0.250000
vt 0.875000 0.750000
vt 0.625000 1.000000
vt 0.625000 0.000000
vt 0.375000 1.000000
vt 0.375000 0.000000
vt 0.125000 0.750000
vt 0.375000 1.000000
vt 0.125000 0.750000
vt 0.625000 1.000000
vt 0.875000 0.750000
vt 0.375000 0.250000
vt 0.125000 0.500000
vt 0.625000 0.250000
vt 0.875000 0.500000
vt 0.375000 0.750000
vt 0.625000 0.750000
vt 0.375000 0.500000
vt 0.625000 0.500000
vt 0.125000 0.500000
vt 0.375000 0.250000
vt 0.125000 0.750000
vt 0.375000 1.000000
vt 0.875000 0.750000
vt 0.625000 1.000000
vt 0.875000 0.500000
vt 0.625000 0.250000
vt 0.375000 0.250000
vt 0.125000 0.500000
vt 0.125000 0.750000
vt 0.375000 0.000000
vt 0.625000 0.000000
vt 0.875000 0.750000
vt 0.625000 0.250000
vt 0.875000 0.500000
vt 0.125000 0.500000
vt 0.375000 0.250000
vt 0.875000 0.500000
vt 0.625000 0.250000
vt 0.625000 1.000000
vt 0.875000 0.750000
vt 0.125000 0.750000
vt 0.375000 1.000000
vt 0.125000 0.750000
vt 0.375000 1.000000
vt 0.375000 0.000000
vt 0.625000 1.000000
vt 0.625000 0.000000
vt 0.875000 0.750000
vt 0.625000 1.000000
vt 0.875000 0.750000
vt 0.125000 0.750000
vt 0.375000 1.000000
vt 0.625000 0.500000
vt 0.375000 0.500000
vt 0.625000 0.750000
vt 0.375000 0.750000
vt 0.875000 0.500000
vt 0.625000 0.250000
vt 0.125000 0.500000
vt 0.375000 0.250000
vt 0.875000 0.750000
vt 0.625000 1.000000
vt 0.625000 0.000000
vt 0.375000 1.000000
vt 0.375000 0.000000
vt 0.125000 0.750000
vt 0.375000 1.000000
vt 0.125000 0.750000
vt 0.625000 1.000000
vt 0.875000 0.750000
vt 0.375000 0.250000
vt 0.125000 0.500000
vt 0.625000 0.250000
vt 0.875000 0.500000
vt 0.375000 0.750000
vt 0.625000 0.750000
vt 0.375000 0.500000
vt 0.625000 0.500000
vt 0.125000 0.500000
vt 0.375000 0.250000
vt 0.125000 0.750000
vt 0.375000 1.000000
vt 0.875000 0.750000
vt 0.625000 1.000000
vt 0.875000 0.500000
vt 0.625000 0.250000
vt 0.375000 0.250000
vt 0.125000 0.500000
vt 0.125000 0.750000
vt 0.375000 0.000000
vt 0.625000 0.000000
vt 0.875000 0.750000
vt 0.625000 0.250000
vt 0.875000 0.500000
vt 0.125000 0.500000
vt 0.375000 0.250000
vt 0.875000 0.500000
vt 0.625000 0.250000
vt 0.625000 1.000000
vt 0.875000 0.750000
vt 0.125000 0.750000
vt 0.375000 1.000000
vt 0.125000 0.750000
vt 0.375000 1.000000
vt 0.375000 0.000000
vt 0.625000 1.000000
vt 0.625000 0.000000
vt 0.875000 0.750000
vt 0.625000 1.000000
vt 0.875000 0.750000
vt 0.125000 0.750000
vt 0.375000 1.000000
s 0
usemtl handle_black
f 12/21/3 11/19/3 17/28/3 20/34/3
f 11/19/6 12/21/6 16/26/6 15/25/6
f 15/25/5 16/26/5 14/24/5 13/23/5
f 13/23/2 14/24/2 10/17/2 9/15/2
f 11/20/4 15/25/4 13/23/4 9/16/4
f 16/26/1 12/22/1 10/18/1 14/24/1
f 26/46/6 25/44/6 21/35/6 24/41/6
f 9/15/3 10/17/3 19/32/3 18/30/3
f 10/18/3 12/22/3 20/33/3 19/31/3
f 11/20/3 9/16/3 18/29/3 17/27/3
f 22/38/3 23/39/3 24/41/3 21/35/3
f 22/37/4 28/49/4 32/59/4 29/51/4
f 27/48/1 26/45/1 24/42/1 23/40/1
f 25/43/4 28/49/4 22/37/4 21/36/4
f 17/27/4 18/29/4 28/49/4 25/43/4
f 19/31/1 20/33/1 26/45/1 27/48/1
f 18/30/2 19/32/2 27/47/2 28/50/2
f 20/34/6 17/28/6 25/44/6 26/46/6
f 32/60/2 31/57/2 30/54/2 29/52/2
f 28/50/5 27/47/5 31/57/5 32/60/5
f 23/39/3 22/38/3 29/53/3 30/55/3
f 27/48/1 23/40/1 30/56/1 31/58/1
f 44/81/5 52/94/5 49/88/5 43/79/5
f 43/79/6 47/85/6 48/86/6 44/81/6
f 47/85/3 45/83/3 46/84/3 48/86/3
f 45/83/2 41/75/2 42/77/2 46/84/2
f 43/80/4 41/76/4 45/83/4 47/85/4
f 48/86/1 46/84/1 42/78/1 44/82/1
f 58/106/6 56/101/6 53/95/6 57/104/6
f 41/75/5 50/90/5 51/92/5 42/77/5
f 42/78/5 51/91/5 52/93/5 44/82/5
f 43/80/5 49/87/5 50/89/5 41/76/5
f 54/98/5 53/95/5 56/101/5 55/99/5
f 54/97/4 61/111/4 64/119/4 60/109/4
f 59/108/1 55/100/1 56/102/1 58/105/1
f 57/103/4 53/96/4 54/97/4 60/109/4
f 49/87/4 57/103/4 60/109/4 50/89/4
f 51/91/1 59/108/1 58/105/1 52/93/1
f 50/90/2 60/110/2 59/107/2 51/92/2
f 52/94/6 58/106/6 57/104/6 49/88/6
f 64/120/2 61/112/2 62/114/2 63/117/2
f 60/110/3 64/120/3 63/117/3 59/107/3
f 55/99/5 62/115/5 61/113/5 54/98/5
f 59/108/1 63/118/1 62/116/1 55/100/1
usemtl door_black
f 1/1/1 5/5/1 7/9/1 3/3/1
f 4/4/2 3/3/2 7/10/2 8/12/2
f 8/13/3 7/11/3 5/6/3 6/8/3
f 6/7/4 2/2/4 4/4/4 8/14/4
f 2/2/5 1/1/5 3/3/5 4/4/5
f 6/8/6 5/6/6 1/1/6 2/2/6
f 33/61/1 35/63/1 39/69/1 37/65/1
f 36/64/2 40/72/2 39/70/2 35/63/2
f 40/73/5 38/68/5 37/66/5 39/71/5
f 38/67/4 40/74/4 36/64/4 34/62/4
f 34/62/3 36/64/3 35/63/3 33/61/3
f 38/68/6 34/62/6 33/61/6 37/66/6
