# Blender 3.4.1
# www.blender.org
mtllib door702_.mtl
g Cube_Cube
v 0.035020 2.000000 -0.399926
v 0.035020 0.000000 -0.399926
v 0.035020 2.000000 0.299899
v 0.035020 0.000000 0.299899
v -0.035020 2.000000 -0.399926
v -0.035020 0.000000 -0.399926
v -0.035020 2.000000 0.299899
v -0.035020 0.000000 0.299899
v -0.045000 0.964963 0.254265
v -0.045000 1.035037 0.254265
v -0.045000 0.964963 0.184297
v -0.045000 1.035037 0.184297
v 0.045000 0.964963 0.254265
v 0.045000 1.035037 0.254265
v 0.045000 0.964963 0.184297
v 0.045000 1.035037 0.184297
v -0.045000 1.015008 0.204273
v -0.045000 1.015008 0.234289
v -0.045000 0.984992 0.234289
v -0.045000 0.984992 0.204273
v -0.095002 0.984992 0.234289
v -0.095002 1.015008 0.234289
v -0.095002 1.015008 0.204273
v -0.095002 0.984992 0.204273
v -0.074978 0.984992 0.234289
v -0.074978 0.984992 0.204273
v -0.074978 1.015008 0.234289
v -0.074978 1.015008 0.204273
v -0.095002 1.015008 0.114292
v -0.095002 0.984992 0.114292
v -0.074978 1.015008 0.114292
v -0.074978 0.984992 0.114292
v 0.045000 1.015015 0.204289
v 0.045000 0.984985 0.204289
v 0.045000 0.984985 0.234273
v 0.045000 1.015015 0.234273
v 0.095018 1.015015 0.204289
v 0.095018 0.984985 0.204289
v 0.095018 0.984985 0.234273
v 0.095018 1.015015 0.234273
v 0.074985 1.015015 0.204289
v 0.074985 0.984985 0.204289
v 0.074985 0.984985 0.234273
v 0.074985 1.015015 0.234273
v 0.095018 1.015015 0.114297
v 0.095018 0.984985 0.114297
v 0.074985 1.015015 0.114297
v 0.074985 0.984985 0.114297
v 0.035020 1.879192 -0.280123
v 0.035020 0.120808 -0.280123
v 0.035020 1.879192 0.180095
v 0.035020 0.120808 0.180095
v 0.035020 1.858752 -0.260066
v 0.035020 0.141248 -0.260066
v 0.035020 1.858752 0.160039
v 0.035020 0.141248 0.160039
v 0.033507 1.879192 -0.280123
v 0.033507 0.120808 -0.280123
v 0.033507 1.879192 0.180095
v 0.033507 0.120808 0.180095
v 0.033507 1.858752 -0.260066
v 0.033507 0.141248 -0.260066
v 0.033507 1.858752 0.160039
v 0.033507 0.141248 0.160039
v -0.035020 0.122113 -0.280318
v -0.035020 0.122113 0.180290
v -0.035020 1.877887 0.180290
v -0.035020 1.877887 -0.280318
v -0.035020 0.140908 -0.260041
v -0.035020 0.140908 0.160013
v -0.035020 1.859092 0.160013
v -0.035020 1.859092 -0.260041
v -0.033513 0.122113 -0.280318
v -0.033513 0.122113 0.180290
v -0.033513 1.877887 0.180290
v -0.033513 1.877887 -0.280318
v -0.033513 0.140908 -0.260041
v -0.033513 0.140908 0.160013
v -0.033513 1.859092 0.160013
v -0.033513 1.859092 -0.260041
vn -0.0000 1.0000 -0.0000
vn -0.0000 -0.0000 1.0000
vn -1.0000 -0.0000 -0.0000
vn -0.0000 -1.0000 -0.0000
vn 1.0000 -0.0000 -0.0000
vn -0.0000 -0.0000 -1.0000
vt 0.625000 0.500000
vt 0.375000 0.500000
vt 0.625000 0.750000
vt 0.375000 0.750000
vt 0.875000 0.500000
vt 0.625000 0.250000
vt 0.125000 0.500000
vt 0.375000 0.250000
vt 0.875000 0.750000
vt 0.625000 1.000000
vt 0.125000 0.750000
vt 0.375000 1.000000
vt 0.375000 1.000000
vt 0.125000 0.750000
vt 0.625000 1.000000
vt 0.875000 0.750000
vt 0.375000 0.250000
vt 0.125000 0.500000
vt 0.875000 0.500000
vt 0.625000 0.250000
vt 0.375000 0.750000
vt 0.625000 0.750000
vt 0.375000 0.500000
vt 0.625000 0.500000
vt 0.625000 0.250000
vt 0.875000 0.500000
vt 0.875000 0.750000
vt 0.625000 1.000000
vt 0.375000 1.000000
vt 0.125000 0.750000
vt 0.375000 0.250000
vt 0.125000 0.500000
vt 0.125000 0.750000
vt 0.375000 1.000000
vt 0.625000 1.000000
vt 0.875000 0.750000
vt 0.875000 0.500000
vt 0.625000 0.250000
vt 0.125000 0.500000
vt 0.375000 0.250000
vt 0.375000 1.000000
vt 0.125000 0.750000
vt 0.125000 0.500000
vt 0.375000 0.250000
vt 0.875000 0.750000
vt 0.625000 1.000000
vt 0.875000 0.500000
vt 0.625000 0.250000
vt 0.875000 0.500000
vt 0.625000 0.250000
vt 0.125000 0.500000
vt 0.375000 0.250000
vt 0.875000 0.500000
vt 0.625000 0.250000
vt 0.125000 0.500000
vt 0.375000 0.250000
vt 0.625000 0.500000
vt 0.375000 0.500000
vt 0.375000 0.750000
vt 0.625000 0.750000
vt 0.625000 0.500000
vt 0.375000 0.500000
vt 0.375000 0.750000
vt 0.625000 0.750000
vt 0.625000 0.500000
vt 0.375000 0.500000
vt 0.375000 0.750000
vt 0.625000 0.750000
vt 0.625000 0.500000
vt 0.375000 0.500000
vt 0.625000 0.500000
vt 0.375000 0.500000
vt 0.625000 0.500000
vt 0.375000 0.500000
vt 0.625000 0.750000
vt 0.375000 0.750000
vt 0.625000 0.500000
vt 0.375000 0.500000
vt 0.625000 0.750000
vt 0.375000 0.750000
vt 0.625000 0.500000
vt 0.375000 0.500000
vt 0.625000 0.750000
vt 0.375000 0.750000
vt 0.625000 0.500000
vt 0.375000 0.500000
vt 0.625000 0.750000
vt 0.375000 0.750000
vt 0.125000 0.500000
vt 0.375000 0.250000
vt 0.125000 0.750000
vt 0.375000 1.000000
vt 0.875000 0.750000
vt 0.625000 1.000000
vt 0.875000 0.500000
vt 0.625000 0.250000
vt 0.375000 0.250000
vt 0.375000 0.000000
vt 0.625000 0.000000
vt 0.625000 0.250000
vt 0.125000 0.500000
vt 0.375000 0.250000
vt 0.125000 0.750000
vt 0.375000 1.000000
vt 0.875000 0.750000
vt 0.625000 1.000000
vt 0.875000 0.500000
vt 0.625000 0.250000
vt 0.125000 0.500000
vt 0.375000 0.250000
vt 0.125000 0.750000
vt 0.375000 1.000000
vt 0.375000 0.000000
vt 0.625000 0.000000
vt 0.875000 0.750000
vt 0.625000 1.000000
vt 0.875000 0.500000
vt 0.625000 0.250000
s 0
usemtl white
f 1/1/1 5/5/1 7/9/1 3/3/1
f 4/4/2 3/3/2 7/10/2 8/12/2
f 6/7/3 8/11/3 66/91/3 65/89/3
f 6/7/4 2/2/4 4/4/4 8/11/4
f 3/3/5 4/4/5 52/76/5 51/75/5
f 6/8/6 5/6/6 1/1/6 2/2/6
f 9/13/3 10/15/3 18/28/3 19/29/3
f 11/17/6 12/20/6 16/24/6 15/23/6
f 13/21/2 14/22/2 10/15/2 9/13/2
f 11/18/4 15/23/4 13/21/4 9/14/4
f 16/24/1 12/19/1 10/16/1 14/22/1
f 14/22/5 13/21/5 35/59/5 36/60/5
f 10/16/3 12/19/3 17/26/3 18/27/3
f 12/20/3 11/17/3 20/31/3 17/25/3
f 11/18/3 9/14/3 19/30/3 20/32/3
f 26/43/4 25/42/4 21/33/4 24/39/4
f 24/40/3 21/34/3 22/36/3 23/38/3
f 25/41/2 27/46/2 22/35/2 21/34/2
f 27/45/1 28/47/1 23/37/1 22/36/1
f 26/43/4 24/39/4 30/51/4 32/55/4
f 17/25/6 20/31/6 26/44/6 28/48/6
f 18/27/1 17/26/1 28/47/1 27/45/1
f 19/29/2 18/28/2 27/46/2 25/41/2
f 20/32/4 19/30/4 25/42/4 26/43/4
f 31/54/6 32/56/6 30/52/6 29/50/6
f 23/37/1 28/47/1 31/53/1 29/49/1
f 24/40/3 23/38/3 29/50/3 30/52/3
f 28/48/5 26/44/5 32/56/5 31/54/5
f 41/65/1 37/61/1 45/69/1 47/71/1
f 13/21/5 15/23/5 34/58/5 35/59/5
f 16/24/5 14/22/5 36/60/5 33/57/5
f 15/23/5 16/24/5 33/57/5 34/58/5
f 38/62/5 37/61/5 40/64/5 39/63/5
f 44/68/2 43/67/2 39/63/2 40/64/2
f 43/67/4 42/66/4 38/62/4 39/63/4
f 41/65/1 44/68/1 40/64/1 37/61/1
f 33/57/1 36/60/1 44/68/1 41/65/1
f 35/59/4 34/58/4 42/66/4 43/67/4
f 36/60/2 35/59/2 43/67/2 44/68/2
f 34/58/6 33/57/6 41/65/6 42/66/6
f 48/72/6 47/71/6 45/69/6 46/70/6
f 42/66/3 41/65/3 47/71/3 48/72/3
f 37/61/5 38/62/5 46/70/5 45/69/5
f 38/62/4 42/66/4 48/72/4 46/70/4
f 54/78/4 56/80/4 64/88/4 62/86/4
f 2/2/5 1/1/5 49/73/5 50/74/5
f 4/4/5 2/2/5 50/74/5 52/76/5
f 1/1/5 3/3/5 51/75/5 49/73/5
f 54/78/5 53/77/5 55/79/5 56/80/5
f 49/73/4 51/75/4 59/83/4 57/81/4
f 53/77/6 54/78/6 62/86/6 61/85/6
f 55/79/1 53/77/1 61/85/1 63/87/1
f 57/81/5 59/83/5 63/87/5 61/85/5
f 58/82/5 57/81/5 61/85/5 62/86/5
f 60/84/5 58/82/5 62/86/5 64/88/5
f 59/83/5 60/84/5 64/88/5 63/87/5
f 50/74/2 49/73/2 57/81/2 58/82/2
f 56/80/2 55/79/2 63/87/2 64/88/2
f 52/76/1 50/74/1 58/82/1 60/84/1
f 51/75/6 52/76/6 60/84/6 59/83/6
f 67/93/4 68/95/4 76/107/4 75/105/4
f 7/9/3 5/5/3 68/95/3 67/93/3
f 5/6/3 6/8/3 65/90/3 68/96/3
f 8/12/3 7/10/3 67/94/3 66/92/3
f 70/98/3 71/99/3 72/100/3 69/97/3
f 71/99/2 70/98/2 78/113/2 79/114/2
f 65/89/1 66/91/1 74/103/1 73/101/1
f 72/100/1 71/99/1 79/114/1 80/118/1
f 73/101/3 74/103/3 78/111/3 77/109/3
f 75/105/3 76/107/3 80/117/3 79/115/3
f 74/104/3 75/106/3 79/116/3 78/112/3
f 76/108/3 73/102/3 77/110/3 80/118/3
f 66/92/6 67/94/6 75/106/6 74/104/6
f 69/97/6 72/100/6 80/118/6 77/110/6
f 70/98/4 69/97/4 77/110/4 78/113/4
f 68/96/2 65/90/2 73/102/2 76/108/2
