# Blender 3.4.1
# www.blender.org
mtllib sofa4.mtl
o Куб
v -0.250000 0.000000 0.250000
v -0.250000 0.000000 -0.420045
v -0.250000 0.400237 -0.420045
v 1.961909 0.000000 0.250000
v 1.961909 0.000000 -0.420045
v 1.961909 0.400237 -0.420045
v 1.961895 0.000000 0.250000
v 1.961895 0.000000 -0.420030
v 1.961895 0.549851 -0.420030
v 2.062049 0.000000 0.250000
v 2.062049 0.000000 -0.420030
v 2.062049 0.549851 -0.420030
v -0.350234 0.000000 0.249957
v -0.350234 0.000000 -0.420043
v -0.350234 0.550109 -0.420043
v -0.249975 0.000000 0.249957
v -0.249975 0.000000 -0.420043
v -0.249975 0.550109 -0.420043
v -0.350000 0.000000 -0.418795
v -0.350000 0.000000 -0.518931
v 2.061909 0.000000 -0.418795
v 2.061909 0.000000 -0.518931
v 1.961895 0.497425 0.250000
v 1.961895 0.549851 0.197575
v 1.961895 0.517488 0.246010
v 1.961895 0.534496 0.234645
v 1.961895 0.545860 0.217637
v 2.062049 0.549851 0.197575
v 2.062049 0.497425 0.250000
v 2.062049 0.545860 0.217637
v 2.062049 0.534496 0.234645
v 2.062049 0.517488 0.246010
v -0.350234 0.497684 0.249957
v -0.350234 0.550109 0.197531
v -0.350234 0.517746 0.245966
v -0.350234 0.534754 0.234602
v -0.350234 0.546118 0.217594
v -0.249975 0.550109 0.197531
v -0.249975 0.497684 0.249957
v -0.249975 0.546118 0.217594
v -0.249975 0.534754 0.234602
v -0.249975 0.517746 0.245966
v -0.250000 0.377538 0.250000
v -0.250000 0.400237 0.227301
v -0.250000 0.393589 0.243351
v 1.961909 0.400237 0.227301
v 1.961909 0.377538 0.250000
v 1.961909 0.393589 0.243351
v -0.315831 0.700000 -0.418795
v -0.350000 0.665831 -0.418795
v -0.339992 0.689992 -0.418795
v -0.350000 0.665831 -0.518931
v -0.315831 0.700000 -0.518931
v -0.339992 0.689992 -0.518931
v 2.061909 0.665831 -0.418795
v 2.027741 0.700000 -0.418795
v 2.051902 0.689992 -0.418795
v 2.027741 0.700000 -0.518931
v 2.061909 0.665831 -0.518931
v 2.051902 0.689992 -0.518931
vn -0.0000 1.0000 -0.0000
vn -0.0000 -0.0000 -1.0000
vn -1.0000 -0.0000 -0.0000
vn -0.0000 -1.0000 -0.0000
vn 1.0000 -0.0000 -0.0000
vn -0.0000 -0.0000 1.0000
vn -0.0000 0.9808 0.1951
vn -0.0000 0.8315 0.5556
vn -0.0000 0.5556 0.8315
vn -0.0000 0.1951 0.9808
vn -0.0000 0.9239 0.3827
vn -0.0000 0.3827 0.9239
vn -0.3827 0.9239 -0.0000
vn -0.9239 0.3827 -0.0000
vn 0.3827 0.9239 -0.0000
vn 0.9239 0.3827 -0.0000
vt 0.375000 0.000000
vt 0.125000 0.750000
vt 0.375000 1.000000
vt 0.375000 0.250000
vt 0.125000 0.500000
vt 0.875000 0.500000
vt 0.625000 0.250000
vt 0.375000 0.750000
vt 0.375000 0.500000
vt 0.625000 0.500000
vt 0.375000 0.000000
vt 0.125000 0.750000
vt 0.375000 1.000000
vt 0.375000 0.250000
vt 0.125000 0.500000
vt 0.875000 0.500000
vt 0.625000 0.250000
vt 0.375000 0.750000
vt 0.375000 0.500000
vt 0.625000 0.500000
vt 0.375000 1.000000
vt 0.375000 0.000000
vt 0.125000 0.750000
vt 0.375000 0.250000
vt 0.125000 0.500000
vt 0.875000 0.500000
vt 0.625000 0.250000
vt 0.375000 0.750000
vt 0.375000 0.500000
vt 0.625000 0.500000
vt 0.375000 0.000000
vt 0.125000 0.750000
vt 0.375000 1.000000
vt 0.125000 0.500000
vt 0.375000 0.250000
vt 0.375000 0.750000
vt 0.375000 0.500000
vt 0.601164 0.000000
vt 0.601164 1.000000
vt 0.625000 0.019561
vt 0.875000 0.730439
vt 0.610286 0.001489
vt 0.610286 1.000000
vt 0.618019 0.005729
vt 0.875000 0.750000
vt 0.625000 1.000000
vt 0.623186 0.012075
vt 0.875000 0.737925
vt 0.625000 0.730439
vt 0.601164 0.750000
vt 0.623186 0.737925
vt 0.625000 0.737925
vt 0.618019 0.744271
vt 0.625000 0.750000
vt 0.610286 0.748511
vt 0.610286 0.750000
vt 0.601175 0.000000
vt 0.601175 1.000000
vt 0.625000 0.019562
vt 0.875000 0.730438
vt 0.610292 0.001489
vt 0.610292 1.000000
vt 0.618022 0.005729
vt 0.875000 0.750000
vt 0.625000 1.000000
vt 0.623187 0.012076
vt 0.875000 0.737924
vt 0.625000 0.730438
vt 0.601175 0.750000
vt 0.623187 0.737924
vt 0.625000 0.737924
vt 0.618022 0.744271
vt 0.625000 0.750000
vt 0.610292 0.748511
vt 0.610292 0.750000
vt 0.610821 0.000000
vt 0.610821 1.000000
vt 0.625000 0.008469
vt 0.875000 0.741531
vt 0.620847 0.002481
vt 0.875000 0.750000
vt 0.625000 1.000000
vt 0.625000 0.741531
vt 0.610821 0.750000
vt 0.620847 0.747519
vt 0.625000 0.750000
vt 0.862797 0.750000
vt 0.625000 0.987797
vt 0.612797 0.000000
vt 0.612797 1.000000
vt 0.875000 0.750000
vt 0.625000 0.000000
vt 0.621426 0.996426
vt 0.612797 0.250000
vt 0.625000 0.262203
vt 0.862797 0.500000
vt 0.621426 0.253574
vt 0.875000 0.500000
vt 0.625000 0.250000
vt 0.612797 0.750000
vt 0.637203 0.750000
vt 0.625000 0.762203
vt 0.625000 0.750000
vt 0.621426 0.753574
vt 0.625000 0.487797
vt 0.637203 0.500000
vt 0.612797 0.500000
vt 0.621426 0.496426
vt 0.625000 0.500000
s 0
f 6/10/1 3/6/1 44/79/1 46/83/1
f 2/4/2 3/7/2 6/10/2 5/9/2
f 1/1/3 43/76/3 45/80/3 44/78/3 3/7/3 2/4/3
f 2/5/4 5/9/4 4/8/4 1/2/4
f 5/9/5 6/10/5 46/83/5 48/85/5 47/84/5 4/8/5
f 12/20/1 9/16/1 24/41/1 28/49/1
f 8/14/2 9/17/2 12/20/2 11/19/2
f 16/28/6 39/69/6 33/58/6 13/21/6
f 7/11/3 23/38/3 25/42/3 26/44/3 27/47/3 24/40/3 9/17/3 8/14/3
f 8/15/4 11/19/4 10/18/4 7/12/4
f 11/19/5 12/20/5 28/49/5 30/51/5 31/53/5 32/55/5 29/50/5 10/18/5
f 18/30/1 15/26/1 34/60/1 38/68/1
f 14/24/2 15/27/2 18/30/2 17/29/2
f 13/22/3 33/57/3 35/61/3 36/63/3 37/66/3 34/59/3 15/27/3 14/24/3
f 14/25/4 17/29/4 16/28/4 13/23/4
f 17/29/5 18/30/5 38/68/5 40/70/5 41/72/5 42/74/5 39/69/5 16/28/5
f 58/106/1 53/96/1 49/87/1 56/101/1
f 22/37/5 59/107/5 55/100/5 21/36/5
f 19/31/3 50/89/3 52/94/3 20/35/3
f 20/34/4 22/37/4 21/36/4 19/32/4
f 20/35/2 52/94/2 54/97/2 53/95/2 58/105/2 60/108/2 59/107/2 22/37/2
f 28/49/7 24/41/7 27/48/7 30/52/7
f 30/52/8 27/48/8 26/45/8 31/54/8
f 31/54/9 26/46/9 25/43/9 32/56/9
f 32/56/10 25/43/10 23/39/10 29/50/10
f 38/68/7 34/60/7 37/67/7 40/71/7
f 40/71/8 37/67/8 36/64/8 41/73/8
f 41/73/9 36/65/9 35/62/9 42/75/9
f 42/75/10 35/62/10 33/58/10 39/69/10
f 10/18/6 29/50/6 23/39/6 7/13/6
f 46/83/11 44/79/11 45/81/11 48/86/11
f 48/86/12 45/82/12 43/77/12 47/84/12
f 4/8/6 47/84/6 43/77/6 1/3/6
f 49/87/13 53/96/13 54/98/13 51/91/13
f 51/92/14 54/99/14 52/94/14 50/89/14
f 58/106/15 56/101/15 57/103/15 60/109/15
f 60/109/16 57/103/16 55/100/16 59/107/16
f 21/36/6 55/100/6 57/104/6 56/102/6 49/88/6 51/93/6 50/90/6 19/33/6
