# Blender 3.4.1
# www.blender.org
mtllib table_rectangle220.mtl
g Cube_Меш
v -0.927441 0.674845 0.377728
v -0.927441 0.004357 0.377728
v -0.927441 0.674845 0.448064
v -0.927441 0.004357 0.448064
v -0.997778 0.674845 0.377728
v -0.997778 0.004357 0.377728
v -0.997778 0.674845 0.448064
v -0.997778 0.004357 0.448064
v -1.096574 0.671393 0.551557
v -1.096574 0.741738 0.551557
v -1.096574 0.671393 -0.551557
v -1.096574 0.741738 -0.551557
v 1.096574 0.671393 0.551557
v 1.096574 0.741738 0.551557
v 1.096574 0.671393 -0.551557
v 1.096574 0.741738 -0.551557
v -1.000000 0.674785 0.448295
v 1.000000 0.674785 0.448295
v -1.000000 0.674785 -0.448295
v 1.000000 0.674785 -0.448295
v -0.997609 0.004356 -0.377896
v -0.997609 0.674846 -0.377896
v -0.997609 0.004356 -0.447896
v -0.997609 0.674846 -0.447896
v -0.927609 0.004356 -0.377896
v -0.927609 0.674846 -0.377896
v -0.927609 0.004356 -0.447896
v -0.927609 0.674846 -0.447896
v 0.930053 0.003803 -0.377896
v 0.930053 0.674134 -0.377896
v 0.930053 0.003803 -0.447896
v 0.930053 0.674134 -0.447896
v 1.000053 0.003803 -0.377896
v 1.000053 0.674134 -0.377896
v 1.000053 0.003803 -0.447896
v 1.000053 0.674134 -0.447896
v 0.929964 0.004578 0.448198
v 0.929964 0.674320 0.448198
v 0.929964 0.004578 0.378198
v 0.929964 0.674320 0.378198
v 0.999965 0.004578 0.448198
v 0.999965 0.674320 0.448198
v 0.999965 0.004578 0.378198
v 0.999965 0.674320 0.378198
vn -0.0000 1.0000 -0.0000
vn -0.0000 -0.0000 1.0000
vn -1.0000 -0.0000 -0.0000
vn -0.0000 -1.0000 -0.0000
vn 1.0000 -0.0000 -0.0000
vn -0.0000 -0.0000 -1.0000
vt 0.625000 0.500000
vt 0.375000 0.500000
vt 0.625000 0.750000
vt 0.375000 0.750000
vt 0.875000 0.500000
vt 0.625000 0.250000
vt 0.125000 0.500000
vt 0.375000 0.250000
vt 0.875000 0.750000
vt 0.625000 1.000000
vt 0.625000 0.000000
vt 0.375000 0.000000
vt 0.375000 1.000000
vt 0.125000 0.750000
vt 0.375000 0.000000
vt 0.375000 1.000000
vt 0.125000 0.750000
vt 0.625000 0.000000
vt 0.625000 1.000000
vt 0.875000 0.750000
vt 0.125000 0.500000
vt 0.375000 0.250000
vt 0.625000 0.250000
vt 0.875000 0.500000
vt 0.375000 0.750000
vt 0.625000 0.750000
vt 0.375000 0.500000
vt 0.625000 0.500000
vt 0.000000 0.000000
vt 1.000000 0.000000
vt 0.000000 1.000000
vt 1.000000 1.000000
vt 0.375000 0.000000
vt 0.375000 1.000000
vt 0.125000 0.750000
vt 0.625000 0.000000
vt 0.625000 1.000000
vt 0.875000 0.750000
vt 0.125000 0.500000
vt 0.375000 0.250000
vt 0.625000 0.250000
vt 0.875000 0.500000
vt 0.375000 0.750000
vt 0.625000 0.750000
vt 0.375000 0.500000
vt 0.625000 0.500000
vt 0.375000 0.000000
vt 0.375000 1.000000
vt 0.125000 0.750000
vt 0.625000 0.000000
vt 0.625000 1.000000
vt 0.875000 0.750000
vt 0.125000 0.500000
vt 0.375000 0.250000
vt 0.625000 0.250000
vt 0.875000 0.500000
vt 0.375000 0.750000
vt 0.625000 0.750000
vt 0.375000 0.500000
vt 0.625000 0.500000
vt 0.375000 0.000000
vt 0.375000 1.000000
vt 0.125000 0.750000
vt 0.625000 0.000000
vt 0.625000 1.000000
vt 0.875000 0.750000
vt 0.125000 0.500000
vt 0.375000 0.250000
vt 0.625000 0.250000
vt 0.875000 0.500000
vt 0.375000 0.750000
vt 0.625000 0.750000
vt 0.375000 0.500000
vt 0.625000 0.500000
s 0
g off
g Cube_Material
usemtl Material
f 5/5/1 3/3/1 1/1/1
f 3/3/2 8/13/2 4/4/2
f 7/11/3 6/8/3 8/12/3
f 2/2/4 8/14/4 6/7/4
f 1/1/5 4/4/5 2/2/5
f 5/6/6 2/2/6 6/8/6
f 10/18/3 11/22/3 9/15/3
f 12/23/6 15/27/6 11/22/6
f 16/28/5 13/25/5 15/27/5
f 14/26/2 9/16/2 13/25/2
f 15/27/4 9/17/4 11/21/4
f 12/24/1 14/26/1 16/28/1
f 18/30/1 19/31/1 17/29/1
f 22/36/3 23/40/3 21/33/3
f 24/41/6 27/45/6 23/40/6
f 28/46/5 25/43/5 27/45/5
f 26/44/2 21/34/2 25/43/2
f 27/45/4 21/35/4 23/39/4
f 24/42/1 26/44/1 28/46/1
f 30/50/3 31/54/3 29/47/3
f 32/55/6 35/59/6 31/54/6
f 36/60/5 33/57/5 35/59/5
f 34/58/2 29/48/2 33/57/2
f 35/59/4 29/49/4 31/53/4
f 32/56/1 34/58/1 36/60/1
f 38/64/3 39/68/3 37/61/3
f 40/69/6 43/73/6 39/68/6
f 44/74/5 41/71/5 43/73/5
f 42/72/2 37/62/2 41/71/2
f 43/73/4 37/63/4 39/67/4
f 40/70/1 42/72/1 44/74/1
f 5/5/1 7/9/1 3/3/1
f 3/3/2 7/10/2 8/13/2
f 7/11/3 5/6/3 6/8/3
f 2/2/4 4/4/4 8/14/4
f 1/1/5 3/3/5 4/4/5
f 5/6/6 1/1/6 2/2/6
f 10/18/3 12/23/3 11/22/3
f 12/23/6 16/28/6 15/27/6
f 16/28/5 14/26/5 13/25/5
f 14/26/2 10/19/2 9/16/2
f 15/27/4 13/25/4 9/17/4
f 12/24/1 10/20/1 14/26/1
f 18/30/1 20/32/1 19/31/1
f 22/36/3 24/41/3 23/40/3
f 24/41/6 28/46/6 27/45/6
f 28/46/5 26/44/5 25/43/5
f 26/44/2 22/37/2 21/34/2
f 27/45/4 25/43/4 21/35/4
f 24/42/1 22/38/1 26/44/1
f 30/50/3 32/55/3 31/54/3
f 32/55/6 36/60/6 35/59/6
f 36/60/5 34/58/5 33/57/5
f 34/58/2 30/51/2 29/48/2
f 35/59/4 33/57/4 29/49/4
f 32/56/1 30/52/1 34/58/1
f 38/64/3 40/69/3 39/68/3
f 40/69/6 44/74/6 43/73/6
f 44/74/5 42/72/5 41/71/5
f 42/72/2 38/65/2 37/62/2
f 43/73/4 41/71/4 37/63/4
f 40/70/1 38/66/1 42/72/1
