# Blender 3.4.1
# www.blender.org
mtllib table_ov130.mtl
o Куб
v -0.384687 0.620202 0.402159
v -0.399687 0.620202 0.387159
v -0.395293 0.620202 0.397766
v -0.399687 0.670175 0.387159
v -0.384687 0.670175 0.402159
v -0.395293 0.670175 0.397766
v -0.399687 0.620202 -0.382550
v -0.384687 0.620202 -0.397550
v -0.395293 0.620202 -0.393157
v -0.384687 0.670175 -0.397550
v -0.399687 0.670175 -0.382550
v -0.395293 0.670175 -0.393157
v 0.400211 0.620202 0.387159
v 0.385211 0.620202 0.402159
v 0.395817 0.620202 0.397766
v 0.385211 0.670175 0.402159
v 0.400211 0.670175 0.387159
v 0.395817 0.670175 0.397766
v 0.385211 0.620202 -0.397550
v 0.400211 0.620202 -0.382550
v 0.395817 0.620202 -0.393157
v 0.400211 0.670175 -0.382550
v 0.385211 0.670175 -0.397550
v 0.395817 0.670175 -0.393157
v -0.384685 0.000239 0.402158
v -0.399685 0.000239 0.387159
v -0.395291 0.000239 0.397765
v -0.399685 0.620204 0.387159
v -0.384685 0.620204 0.402158
v -0.395291 0.620204 0.397765
v -0.399685 0.000239 0.317158
v -0.384685 0.000239 0.302158
v -0.395291 0.000239 0.306552
v -0.384685 0.620204 0.302158
v -0.399685 0.620204 0.317158
v -0.395291 0.620204 0.306552
v -0.299685 0.000239 0.387159
v -0.314685 0.000239 0.402158
v -0.304078 0.000239 0.397765
v -0.314685 0.620204 0.402158
v -0.299685 0.620204 0.387159
v -0.304078 0.620204 0.397765
v -0.314685 0.000239 0.302158
v -0.299685 0.000239 0.317158
v -0.304078 0.000239 0.306552
v -0.299685 0.620204 0.317158
v -0.314685 0.620204 0.302158
v -0.304078 0.620204 0.306552
v -0.384685 0.000352 -0.297498
v -0.399685 0.000352 -0.312498
v -0.395291 0.000352 -0.301892
v -0.399685 0.620202 -0.312498
v -0.384685 0.620202 -0.297498
v -0.395291 0.620202 -0.301892
v -0.399685 0.000352 -0.382498
v -0.384685 0.000352 -0.397498
v -0.395291 0.000352 -0.393105
v -0.384685 0.620202 -0.397498
v -0.399685 0.620202 -0.382498
v -0.395291 0.620202 -0.393105
v -0.299685 0.000352 -0.312498
v -0.314685 0.000352 -0.297498
v -0.304078 0.000352 -0.301892
v -0.314685 0.620202 -0.297498
v -0.299685 0.620202 -0.312498
v -0.304078 0.620202 -0.301892
v -0.314685 0.000352 -0.397498
v -0.299685 0.000352 -0.382498
v -0.304078 0.000352 -0.393105
v -0.299685 0.620202 -0.382498
v -0.314685 0.620202 -0.397498
v -0.304078 0.620202 -0.393105
v 0.315210 -0.000038 0.402157
v 0.300210 -0.000038 0.387157
v 0.304604 -0.000038 0.397764
v 0.300210 0.620207 0.387157
v 0.315210 0.620207 0.402157
v 0.304604 0.620207 0.397764
v 0.300210 -0.000038 0.317157
v 0.315210 -0.000038 0.302157
v 0.304604 -0.000038 0.306551
v 0.315210 0.620207 0.302157
v 0.300210 0.620207 0.317157
v 0.304604 0.620207 0.306551
v 0.400210 -0.000038 0.387157
v 0.385210 -0.000038 0.402157
v 0.395817 -0.000038 0.397764
v 0.385210 0.620207 0.402157
v 0.400210 0.620207 0.387157
v 0.395817 0.620207 0.397764
v 0.385210 -0.000038 0.302157
v 0.400210 -0.000038 0.317157
v 0.395817 -0.000038 0.306551
v 0.400210 0.620207 0.317157
v 0.385210 0.620207 0.302157
v 0.395817 0.620207 0.306551
v 0.315211 0.000421 -0.297498
v 0.300211 0.000421 -0.312498
v 0.304604 0.000421 -0.301892
v 0.300211 0.620206 -0.312498
v 0.315211 0.620206 -0.297498
v 0.304604 0.620206 -0.301892
v 0.300211 0.000421 -0.382498
v 0.315211 0.000421 -0.397498
v 0.304604 0.000421 -0.393105
v 0.315211 0.620206 -0.397498
v 0.300211 0.620206 -0.382498
v 0.304604 0.620206 -0.393105
v 0.400211 0.000421 -0.312498
v 0.385211 0.000421 -0.297498
v 0.395817 0.000421 -0.301892
v 0.385211 0.620206 -0.297498
v 0.400211 0.620206 -0.312498
v 0.395817 0.620206 -0.301892
v 0.385211 0.000421 -0.397498
v 0.400211 0.000421 -0.382498
v 0.395817 0.000421 -0.393105
v 0.400211 0.620206 -0.382498
v 0.385211 0.620206 -0.397498
v 0.395817 0.620206 -0.393105
v -0.036787 0.739879 0.650413
v -0.500509 0.739879 0.186691
v -0.139975 0.739879 0.638786
v -0.237988 0.739879 0.604490
v -0.325913 0.739879 0.549243
v -0.399339 0.739879 0.475817
v -0.454586 0.739879 0.387892
v -0.488882 0.739879 0.289879
v -0.500509 0.669903 0.186691
v -0.036787 0.669903 0.650413
v -0.488882 0.669903 0.289879
v -0.454586 0.669903 0.387892
v -0.399339 0.669903 0.475817
v -0.325913 0.669903 0.549243
v -0.237988 0.669903 0.604490
v -0.139975 0.669903 0.638786
v -0.500509 0.739879 -0.186691
v -0.036787 0.739879 -0.650413
v -0.488882 0.739879 -0.289879
v -0.454586 0.739879 -0.387892
v -0.399339 0.739879 -0.475817
v -0.325913 0.739879 -0.549243
v -0.237988 0.739879 -0.604490
v -0.139975 0.739879 -0.638786
v -0.036787 0.669903 -0.650413
v -0.500509 0.669903 -0.186691
v -0.139975 0.669903 -0.638786
v -0.237988 0.669903 -0.604490
v -0.325913 0.669903 -0.549243
v -0.399339 0.669903 -0.475817
v -0.454586 0.669903 -0.387892
v -0.488882 0.669903 -0.289879
v 0.500509 0.739879 0.186691
v 0.036787 0.739879 0.650413
v 0.488882 0.739879 0.289879
v 0.454586 0.739879 0.387892
v 0.399339 0.739879 0.475817
v 0.325913 0.739879 0.549243
v 0.237988 0.739879 0.604490
v 0.139975 0.739879 0.638786
v 0.036787 0.669903 0.650413
v 0.500509 0.669903 0.186691
v 0.139975 0.669903 0.638786
v 0.237988 0.669903 0.604490
v 0.325913 0.669903 0.549243
v 0.399339 0.669903 0.475817
v 0.454586 0.669903 0.387892
v 0.488882 0.669903 0.289879
v 0.036787 0.739879 -0.650413
v 0.500509 0.739879 -0.186691
v 0.139975 0.739879 -0.638786
v 0.237988 0.739879 -0.604490
v 0.325913 0.739879 -0.549243
v 0.399339 0.739879 -0.475817
v 0.454586 0.739879 -0.387892
v 0.488882 0.739879 -0.289879
v 0.500509 0.669903 -0.186691
v 0.036787 0.669903 -0.650413
v 0.488882 0.669903 -0.289879
v 0.454586 0.669903 -0.387892
v 0.399339 0.669903 -0.475817
v 0.325913 0.669903 -0.549243
v 0.237988 0.669903 -0.604490
v 0.139975 0.669903 -0.638786
vn -0.0000 -0.0000 1.0000
vn 1.0000 -0.0000 -0.0000
vn -0.0000 -1.0000 -0.0000
vn -0.0000 1.0000 -0.0000
vn -1.0000 -0.0000 -0.0000
vn -0.0000 -0.0000 -1.0000
vn -0.3827 -0.0000 0.9239
vn -0.9239 -0.0000 0.3827
vn -0.3827 -0.0000 -0.9239
vn -0.9239 -0.0000 -0.3827
vn 0.9239 -0.0000 -0.3827
vn 0.3827 -0.0000 -0.9239
vn 0.3827 -0.0000 0.9239
vn 0.9239 -0.0000 0.3827
vn 0.1120 -0.0000 -0.9937
vn 0.3303 -0.0000 -0.9439
vn 0.5320 -0.0000 -0.8467
vn 0.7071 -0.0000 -0.7071
vn 0.8467 -0.0000 -0.5320
vn 0.9439 -0.0000 -0.3303
vn 0.9937 -0.0000 -0.1120
vn 0.1120 -0.0000 0.9937
vn 0.3303 -0.0000 0.9439
vn 0.5320 -0.0000 0.8467
vn 0.7071 -0.0000 0.7071
vn 0.8467 -0.0000 0.5320
vn 0.9439 -0.0000 0.3303
vn 0.9937 -0.0000 0.1120
vn -0.9937 -0.0000 0.1120
vn -0.9439 -0.0000 0.3303
vn -0.8467 -0.0000 0.5320
vn -0.7071 -0.0000 0.7071
vn -0.5320 -0.0000 0.8467
vn -0.3303 -0.0000 0.9439
vn -0.1120 -0.0000 0.9937
vn -0.1120 -0.0000 -0.9937
vn -0.3303 -0.0000 -0.9439
vn -0.5320 -0.0000 -0.8467
vn -0.7071 -0.0000 -0.7071
vn -0.8467 -0.0000 -0.5320
vn -0.9439 -0.0000 -0.3303
vn -0.9937 -0.0000 -0.1120
vt 0.375000 0.995833
vt 0.129167 0.750000
vt 0.375000 0.001875
vt 0.125000 0.748125
vt 0.375000 1.000000
vt 0.375000 0.000000
vt 0.126220 0.749451
vt 0.875000 0.748125
vt 0.625000 0.001875
vt 0.870833 0.750000
vt 0.625000 0.995833
vt 0.873780 0.749451
vt 0.625000 1.000000
vt 0.625000 0.000000
vt 0.375000 0.248125
vt 0.125000 0.501875
vt 0.375000 0.254167
vt 0.129167 0.500000
vt 0.375000 0.250000
vt 0.126220 0.500549
vt 0.870833 0.500000
vt 0.625000 0.254167
vt 0.875000 0.501875
vt 0.625000 0.248125
vt 0.873780 0.500549
vt 0.625000 0.250000
vt 0.375000 0.748125
vt 0.375000 0.754167
vt 0.370833 0.750000
vt 0.375000 0.750000
vt 0.373780 0.749451
vt 0.629167 0.750000
vt 0.625000 0.754167
vt 0.625000 0.748125
vt 0.626220 0.749451
vt 0.625000 0.750000
vt 0.375000 0.495833
vt 0.370833 0.500000
vt 0.375000 0.501875
vt 0.375000 0.500000
vt 0.373780 0.500549
vt 0.625000 0.501875
vt 0.629167 0.500000
vt 0.625000 0.495833
vt 0.626220 0.500549
vt 0.625000 0.500000
vt 0.162500 0.750000
vt 0.375000 0.962500
vt 0.125000 0.712500
vt 0.375000 0.037500
vt 0.135983 0.739016
vt 0.375000 1.000000
vt 0.375000 0.000000
vt 0.875000 0.712500
vt 0.625000 0.037500
vt 0.837500 0.750000
vt 0.625000 0.962500
vt 0.864016 0.739016
vt 0.625000 1.000000
vt 0.625000 0.000000
vt 0.125000 0.537500
vt 0.375000 0.212500
vt 0.162500 0.500000
vt 0.375000 0.287500
vt 0.135983 0.510983
vt 0.375000 0.250000
vt 0.837500 0.500000
vt 0.625000 0.287500
vt 0.875000 0.537500
vt 0.625000 0.212500
vt 0.864016 0.510983
vt 0.625000 0.250000
vt 0.375000 0.712500
vt 0.337500 0.750000
vt 0.375000 0.787500
vt 0.364017 0.739016
vt 0.375000 0.750000
vt 0.662500 0.750000
vt 0.625000 0.787500
vt 0.625000 0.712500
vt 0.635984 0.739016
vt 0.625000 0.750000
vt 0.337500 0.500000
vt 0.375000 0.462500
vt 0.375000 0.537500
vt 0.364016 0.510983
vt 0.375000 0.500000
vt 0.625000 0.537500
vt 0.662500 0.500000
vt 0.625000 0.462500
vt 0.635983 0.510983
vt 0.625000 0.500000
vt 0.162500 0.750000
vt 0.375000 0.962500
vt 0.125000 0.712500
vt 0.375000 0.037500
vt 0.135983 0.739016
vt 0.375000 1.000000
vt 0.375000 0.000000
vt 0.875000 0.712500
vt 0.625000 0.037500
vt 0.837500 0.750000
vt 0.625000 0.962500
vt 0.864016 0.739016
vt 0.625000 1.000000
vt 0.625000 0.000000
vt 0.125000 0.537500
vt 0.375000 0.212500
vt 0.162500 0.500000
vt 0.375000 0.287500
vt 0.135983 0.510983
vt 0.375000 0.250000
vt 0.837500 0.500000
vt 0.625000 0.287500
vt 0.875000 0.537500
vt 0.625000 0.212500
vt 0.864016 0.510983
vt 0.625000 0.250000
vt 0.375000 0.712500
vt 0.337500 0.750000
vt 0.375000 0.787500
vt 0.364017 0.739016
vt 0.375000 0.750000
vt 0.662500 0.750000
vt 0.625000 0.787500
vt 0.625000 0.712500
vt 0.635983 0.739016
vt 0.625000 0.750000
vt 0.337500 0.500000
vt 0.375000 0.462500
vt 0.375000 0.537500
vt 0.364016 0.510983
vt 0.375000 0.500000
vt 0.625000 0.537500
vt 0.662500 0.500000
vt 0.625000 0.462500
vt 0.635983 0.510983
vt 0.625000 0.500000
vt 0.162500 0.750000
vt 0.375000 0.962500
vt 0.125000 0.712500
vt 0.375000 0.037500
vt 0.135983 0.739016
vt 0.375000 1.000000
vt 0.375000 0.000000
vt 0.875000 0.712500
vt 0.625000 0.037500
vt 0.837500 0.750000
vt 0.625000 0.962500
vt 0.864016 0.739016
vt 0.625000 1.000000
vt 0.625000 0.000000
vt 0.125000 0.537500
vt 0.375000 0.212500
vt 0.162500 0.500000
vt 0.375000 0.287500
vt 0.135983 0.510983
vt 0.375000 0.250000
vt 0.837500 0.500000
vt 0.625000 0.287500
vt 0.875000 0.537500
vt 0.625000 0.212500
vt 0.864016 0.510983
vt 0.625000 0.250000
vt 0.375000 0.712500
vt 0.337500 0.750000
vt 0.375000 0.787500
vt 0.364017 0.739016
vt 0.375000 0.750000
vt 0.662500 0.750000
vt 0.625000 0.787500
vt 0.625000 0.712500
vt 0.635984 0.739016
vt 0.625000 0.750000
vt 0.337500 0.500000
vt 0.375000 0.462500
vt 0.375000 0.537500
vt 0.364016 0.510983
vt 0.375000 0.500000
vt 0.625000 0.537500
vt 0.662500 0.500000
vt 0.625000 0.462500
vt 0.635983 0.510983
vt 0.625000 0.500000
vt 0.162500 0.750000
vt 0.375000 0.962500
vt 0.125000 0.712500
vt 0.375000 0.037500
vt 0.135983 0.739016
vt 0.375000 1.000000
vt 0.375000 0.000000
vt 0.875000 0.712500
vt 0.625000 0.037500
vt 0.837500 0.750000
vt 0.625000 0.962500
vt 0.864016 0.739016
vt 0.625000 1.000000
vt 0.625000 0.000000
vt 0.125000 0.537500
vt 0.375000 0.212500
vt 0.162500 0.500000
vt 0.375000 0.287500
vt 0.135983 0.510983
vt 0.375000 0.250000
vt 0.837500 0.500000
vt 0.625000 0.287500
vt 0.875000 0.537500
vt 0.625000 0.212500
vt 0.864016 0.510983
vt 0.625000 0.250000
vt 0.375000 0.712500
vt 0.337500 0.750000
vt 0.375000 0.787500
vt 0.364017 0.739016
vt 0.375000 0.750000
vt 0.662500 0.750000
vt 0.625000 0.787500
vt 0.625000 0.712500
vt 0.635984 0.739016
vt 0.625000 0.750000
vt 0.337500 0.500000
vt 0.375000 0.462500
vt 0.375000 0.537500
vt 0.364016 0.510983
vt 0.375000 0.500000
vt 0.625000 0.537500
vt 0.662500 0.500000
vt 0.625000 0.462500
vt 0.635983 0.510983
vt 0.625000 0.500000
vt 0.375000 0.884187
vt 0.240813 0.750000
vt 0.375000 0.089121
vt 0.125000 0.660879
vt 0.375000 0.909958
vt 0.215042 0.747766
vt 0.375000 0.934437
vt 0.190563 0.741174
vt 0.375000 1.000000
vt 0.375000 0.000000
vt 0.168605 0.730557
vt 0.375000 0.033555
vt 0.150267 0.716445
vt 0.375000 0.050453
vt 0.136469 0.699547
vt 0.375000 0.069289
vt 0.127904 0.680711
vt 0.875000 0.660879
vt 0.625000 0.089121
vt 0.759187 0.750000
vt 0.625000 0.884187
vt 0.872096 0.680711
vt 0.625000 0.069289
vt 0.863531 0.699547
vt 0.625000 0.050453
vt 0.849733 0.716445
vt 0.625000 0.033555
vt 0.831395 0.730557
vt 0.625000 1.000000
vt 0.625000 0.000000
vt 0.809437 0.741174
vt 0.625000 0.934437
vt 0.784958 0.747766
vt 0.625000 0.909958
vt 0.375000 0.160879
vt 0.125000 0.589121
vt 0.375000 0.365813
vt 0.240813 0.500000
vt 0.375000 0.180711
vt 0.127904 0.569289
vt 0.375000 0.199547
vt 0.136469 0.550453
vt 0.375000 0.216445
vt 0.150267 0.533555
vt 0.375000 0.293605
vt 0.168605 0.519443
vt 0.375000 0.315563
vt 0.190563 0.508826
vt 0.375000 0.340042
vt 0.215042 0.502234
vt 0.759187 0.500000
vt 0.625000 0.365813
vt 0.875000 0.589121
vt 0.625000 0.160879
vt 0.784958 0.502234
vt 0.625000 0.340042
vt 0.809437 0.508826
vt 0.625000 0.315563
vt 0.831395 0.519443
vt 0.625000 0.293605
vt 0.849733 0.533555
vt 0.625000 0.216445
vt 0.863531 0.550453
vt 0.625000 0.199547
vt 0.872096 0.569289
vt 0.625000 0.180711
vt 0.375000 0.660879
vt 0.375000 0.865813
vt 0.259187 0.750000
vt 0.375000 0.680711
vt 0.372096 0.680711
vt 0.375000 0.699547
vt 0.363531 0.699547
vt 0.375000 0.716445
vt 0.349733 0.716445
vt 0.375000 0.793605
vt 0.331395 0.730557
vt 0.375000 0.815563
vt 0.309437 0.741174
vt 0.375000 0.840042
vt 0.284958 0.747766
vt 0.740813 0.750000
vt 0.625000 0.865813
vt 0.625000 0.660879
vt 0.715042 0.747766
vt 0.625000 0.840042
vt 0.690563 0.741174
vt 0.625000 0.815563
vt 0.668605 0.730557
vt 0.625000 0.793605
vt 0.650267 0.716445
vt 0.625000 0.716445
vt 0.636469 0.699547
vt 0.625000 0.699547
vt 0.627904 0.680711
vt 0.625000 0.680711
vt 0.375000 0.384187
vt 0.259187 0.500000
vt 0.375000 0.589121
vt 0.375000 0.409958
vt 0.284958 0.502234
vt 0.375000 0.434437
vt 0.309437 0.508826
vt 0.375000 0.456395
vt 0.331395 0.519443
vt 0.375000 0.533555
vt 0.349733 0.533555
vt 0.375000 0.550453
vt 0.363531 0.550453
vt 0.375000 0.569289
vt 0.372096 0.569289
vt 0.625000 0.589121
vt 0.740813 0.500000
vt 0.625000 0.384187
vt 0.627904 0.569289
vt 0.625000 0.569289
vt 0.636469 0.550453
vt 0.625000 0.550453
vt 0.650267 0.533555
vt 0.625000 0.533555
vt 0.668605 0.519443
vt 0.625000 0.456395
vt 0.690563 0.508826
vt 0.625000 0.434437
vt 0.715042 0.502234
vt 0.625000 0.409958
s 0
f 14/28/1 16/33/1 5/11/1 1/1/1
f 20/39/2 22/42/2 17/34/2 13/27/2
f 31/61/3 33/65/3 32/63/3 43/83/3 45/86/3 44/85/3 37/73/3 39/76/3 38/74/3 25/47/3 27/51/3 26/49/3
f 22/42/4 24/45/4 23/43/4 10/21/4 12/25/4 11/23/4 4/8/4 6/12/4 5/10/4 16/32/4 18/35/4 17/34/4
f 2/3/5 4/9/5 11/24/5 7/15/5
f 8/17/6 10/22/6 23/44/6 19/37/6
f 38/75/1 40/79/1 29/57/1 25/48/1
f 44/85/2 46/88/2 41/80/2 37/73/2
f 55/107/3 57/111/3 56/109/3 67/129/3 69/132/3 68/131/3 61/119/3 63/122/3 62/120/3 49/93/3 51/97/3 50/95/3
f 46/88/4 48/91/4 47/89/4 34/67/4 36/71/4 35/69/4 28/54/4 30/58/4 29/56/4 40/78/4 42/81/4 41/80/4
f 26/50/5 28/55/5 35/70/5 31/62/5
f 32/64/6 34/68/6 47/90/6 43/84/6
f 62/121/1 64/125/1 53/103/1 49/94/1
f 68/131/2 70/134/2 65/126/2 61/119/2
f 79/153/3 81/157/3 80/155/3 91/175/3 93/178/3 92/177/3 85/165/3 87/168/3 86/166/3 73/139/3 75/143/3 74/141/3
f 70/134/4 72/137/4 71/135/4 58/113/4 60/117/4 59/115/4 52/100/4 54/104/4 53/102/4 64/124/4 66/127/4 65/126/4
f 50/96/5 52/101/5 59/116/5 55/108/5
f 56/110/6 58/114/6 71/136/6 67/130/6
f 86/167/1 88/171/1 77/149/1 73/140/1
f 92/177/2 94/180/2 89/172/2 85/165/2
f 103/199/3 105/203/3 104/201/3 115/221/3 117/224/3 116/223/3 109/211/3 111/214/3 110/212/3 97/185/3 99/189/3 98/187/3
f 94/180/4 96/183/4 95/181/4 82/159/4 84/163/4 83/161/4 76/146/4 78/150/4 77/148/4 88/170/4 90/173/4 89/172/4
f 74/142/5 76/147/5 83/162/5 79/154/5
f 80/156/6 82/160/6 95/182/6 91/176/6
f 110/213/1 112/217/1 101/195/1 97/186/1
f 116/223/2 118/226/2 113/218/2 109/211/2
f 118/226/4 120/229/4 119/227/4 106/205/4 108/209/4 107/207/4 100/192/4 102/196/4 101/194/4 112/216/4 114/219/4 113/218/4
f 98/188/5 100/193/5 107/208/5 103/200/5
f 104/202/6 106/206/6 119/228/6 115/222/6
f 1/1/7 5/11/7 6/13/7 3/5/7
f 3/6/8 6/14/8 4/9/8 2/3/8
f 10/22/9 8/17/9 9/19/9 12/26/9
f 12/26/10 9/19/10 7/15/10 11/24/10
f 22/42/11 20/39/11 21/40/11 24/46/11
f 24/46/12 21/40/12 19/37/12 23/44/12
f 16/33/13 14/28/13 15/30/13 18/36/13
f 18/36/14 15/30/14 13/27/14 17/34/14
f 25/48/7 29/57/7 30/59/7 27/52/7
f 27/53/8 30/60/8 28/55/8 26/50/8
f 34/68/9 32/64/9 33/66/9 36/72/9
f 36/72/10 33/66/10 31/62/10 35/70/10
f 46/88/11 44/85/11 45/87/11 48/92/11
f 48/92/12 45/87/12 43/84/12 47/90/12
f 40/79/13 38/75/13 39/77/13 42/82/13
f 42/82/14 39/77/14 37/73/14 41/80/14
f 49/94/7 53/103/7 54/105/7 51/98/7
f 51/99/8 54/106/8 52/101/8 50/96/8
f 58/114/9 56/110/9 57/112/9 60/118/9
f 60/118/10 57/112/10 55/108/10 59/116/10
f 70/134/11 68/131/11 69/133/11 72/138/11
f 72/138/12 69/133/12 67/130/12 71/136/12
f 64/125/13 62/121/13 63/123/13 66/128/13
f 66/128/14 63/123/14 61/119/14 65/126/14
f 73/140/7 77/149/7 78/151/7 75/144/7
f 75/145/8 78/152/8 76/147/8 74/142/8
f 82/160/9 80/156/9 81/158/9 84/164/9
f 84/164/10 81/158/10 79/154/10 83/162/10
f 94/180/11 92/177/11 93/179/11 96/184/11
f 96/184/12 93/179/12 91/176/12 95/182/12
f 88/171/13 86/167/13 87/169/13 90/174/13
f 90/174/14 87/169/14 85/165/14 89/172/14
f 97/186/7 101/195/7 102/197/7 99/190/7
f 99/191/8 102/198/8 100/193/8 98/188/8
f 106/206/9 104/202/9 105/204/9 108/210/9
f 108/210/10 105/204/10 103/200/10 107/208/10
f 118/226/11 116/223/11 117/225/11 120/230/11
f 120/230/12 117/225/12 115/222/12 119/228/12
f 112/217/13 110/213/13 111/215/13 114/220/13
f 114/220/14 111/215/14 109/211/14 113/218/14
f 7/16/3 9/20/3 8/18/3 19/38/3 21/41/3 20/39/3 13/27/3 15/31/3 14/29/3 1/2/3 3/7/3 2/4/3
f 154/298/6 161/313/6 130/251/6 121/231/6
f 170/329/5 177/342/5 162/314/5 153/297/5
f 177/342/4 179/345/4 180/347/4 181/349/4 182/351/4 183/353/4 184/355/4 178/343/4 145/281/4 147/285/4 148/287/4 149/289/4 150/291/4 151/293/4 152/295/4 146/283/4 129/248/4 131/252/4 132/254/4 133/256/4 134/258/4 135/261/4 136/263/4 130/250/4 161/312/4 163/315/4 164/317/4 165/319/4 166/321/4 167/323/4 168/325/4 162/314/4
f 122/233/2 129/249/2 146/284/2 137/265/2
f 138/267/1 145/282/1 178/344/1 169/327/1
f 121/231/15 130/251/15 136/264/15 123/235/15
f 123/235/16 136/264/16 135/262/16 124/237/16
f 124/237/17 135/262/17 134/259/17 125/239/17
f 125/240/18 134/260/18 133/257/18 126/242/18
f 126/242/19 133/257/19 132/255/19 127/244/19
f 127/244/20 132/255/20 131/253/20 128/246/20
f 128/246/21 131/253/21 129/249/21 122/233/21
f 145/282/22 138/267/22 144/279/22 147/286/22
f 147/286/23 144/279/23 143/277/23 148/288/23
f 148/288/24 143/277/24 142/275/24 149/290/24
f 149/290/25 142/275/25 141/273/25 150/292/25
f 150/292/26 141/273/26 140/271/26 151/294/26
f 151/294/27 140/271/27 139/269/27 152/296/27
f 152/296/28 139/269/28 137/265/28 146/284/28
f 177/342/29 170/329/29 176/340/29 179/346/29
f 179/346/30 176/340/30 175/338/30 180/348/30
f 180/348/31 175/338/31 174/336/31 181/350/31
f 181/350/32 174/336/32 173/334/32 182/352/32
f 182/352/33 173/334/33 172/332/33 183/354/33
f 183/354/34 172/332/34 171/330/34 184/356/34
f 184/356/35 171/330/35 169/327/35 178/344/35
f 161/313/36 154/298/36 160/310/36 163/316/36
f 163/316/37 160/310/37 159/308/37 164/318/37
f 164/318/38 159/308/38 158/306/38 165/320/38
f 165/320/39 158/306/39 157/304/39 166/322/39
f 166/322/40 157/304/40 156/302/40 167/324/40
f 167/324/41 156/302/41 155/300/41 168/326/41
f 168/326/42 155/300/42 153/297/42 162/314/42
f 137/266/3 139/270/3 140/272/3 141/274/3 142/276/3 143/278/3 144/280/3 138/268/3 169/328/3 171/331/3 172/333/3 173/335/3 174/337/3 175/339/3 176/341/3 170/329/3 153/297/3 155/301/3 156/303/3 157/305/3 158/307/3 159/309/3 160/311/3 154/299/3 121/232/3 123/236/3 124/238/3 125/241/3 126/243/3 127/245/3 128/247/3 122/234/3
