# Blender 3.4.1
# www.blender.org
mtllib table_circle_100_2.mtl
g Сфера_Сфера
v 0.000000 0.740000 -0.500150
v 0.097373 0.740000 -0.490539
v 0.191004 0.740000 -0.462078
v 0.277294 0.740000 -0.415859
v 0.352928 0.740000 -0.353659
v 0.415000 0.740000 -0.277868
v 0.461123 0.740000 -0.191399
v 0.489526 0.740000 -0.097574
v 0.499116 0.740000 0.000000
v 0.489526 0.740000 0.097574
v 0.461123 0.740000 0.191399
v 0.415000 0.740000 0.277868
v 0.352928 0.740000 0.353659
v 0.277294 0.740000 0.415859
v 0.191003 0.740000 0.462078
v 0.097373 0.740000 0.490539
v -0.000000 0.740000 0.500149
v -0.097373 0.740000 0.490539
v -0.191003 0.740000 0.462077
v -0.277294 0.740000 0.415859
v -0.352928 0.740000 0.353659
v -0.414999 0.740000 0.277868
v -0.461123 0.740000 0.191399
v -0.489525 0.740000 0.097574
v -0.499115 0.740000 -0.000000
v -0.489525 0.740000 -0.097575
v -0.461122 0.740000 -0.191399
v -0.414999 0.740000 -0.277868
v -0.352928 0.740000 -0.353659
v -0.277293 0.740000 -0.415859
v -0.191003 0.740000 -0.462078
v -0.097372 0.740000 -0.490539
v 0.000000 0.790000 -0.500150
v 0.097373 0.790000 -0.490539
v 0.191004 0.790000 -0.462078
v 0.277294 0.790000 -0.415859
v 0.352928 0.790000 -0.353659
v 0.415000 0.790000 -0.277868
v 0.461123 0.790000 -0.191399
v 0.489526 0.790000 -0.097574
v 0.499116 0.790000 0.000000
v 0.489526 0.790000 0.097574
v 0.461123 0.790000 0.191399
v 0.415000 0.790000 0.277868
v 0.352928 0.790000 0.353659
v 0.277294 0.790000 0.415859
v 0.191003 0.790000 0.462078
v 0.097373 0.790000 0.490539
v -0.000000 0.790000 0.500149
v -0.097373 0.790000 0.490539
v -0.191003 0.790000 0.462077
v -0.277294 0.790000 0.415859
v -0.352928 0.790000 0.353659
v -0.414999 0.790000 0.277868
v -0.461123 0.790000 0.191399
v -0.489525 0.790000 0.097574
v -0.499115 0.790000 -0.000000
v -0.489525 0.790000 -0.097575
v -0.461122 0.790000 -0.191399
v -0.414999 0.790000 -0.277868
v -0.352928 0.790000 -0.353659
v -0.277293 0.790000 -0.415859
v -0.191003 0.790000 -0.462078
v -0.097372 0.790000 -0.490539
v -0.309486 0.691661 0.312030
v -0.309486 0.741611 0.312030
v -0.309486 0.691661 -0.315211
v -0.309486 0.741611 -0.315211
v 0.315309 0.691661 0.312030
v 0.315309 0.741611 0.312030
v 0.315309 0.691661 -0.315211
v 0.315309 0.741611 -0.315211
v -0.214012 0.691661 -0.219737
v -0.214012 0.691661 0.216557
v 0.219836 0.691661 -0.219737
v 0.219836 0.691661 0.216557
v -0.212765 0.741611 0.215309
v -0.212765 0.741611 -0.218490
v 0.218588 0.741611 -0.218490
v 0.218588 0.741611 0.215309
v -0.343943 0.000731 0.351184
v -0.295296 0.692242 0.296887
v -0.343943 0.000731 0.271211
v -0.295296 0.692242 0.216914
v -0.263970 0.000731 0.351184
v -0.215323 0.692242 0.296887
v -0.263970 0.000731 0.271211
v -0.215323 0.692242 0.216914
v 0.266674 0.000433 0.353094
v 0.220276 0.693011 0.296883
v 0.266674 0.000433 0.273094
v 0.220276 0.693011 0.216883
v 0.346675 0.000433 0.353094
v 0.300276 0.693011 0.296883
v 0.346675 0.000433 0.273094
v 0.300276 0.693011 0.216883
v 0.266790 0.000368 -0.271204
v 0.220546 0.691968 -0.220948
v 0.266790 0.000368 -0.351204
v 0.220546 0.691968 -0.300948
v 0.346790 0.000368 -0.271204
v 0.300546 0.691968 -0.220948
v 0.346790 0.000368 -0.351204
v 0.300546 0.691968 -0.300948
v -0.344055 0.001196 -0.271134
v -0.295175 0.692063 -0.220788
v -0.344055 0.001196 -0.351134
v -0.295175 0.692063 -0.300788
v -0.264055 0.001196 -0.271134
v -0.215175 0.692063 -0.220788
v -0.264055 0.001196 -0.351134
v -0.215175 0.692063 -0.300788
vn -0.0000 1.0000 -0.0000
vn -0.0000 -1.0000 -0.0000
vn -0.8823 -0.0000 -0.4706
vn 0.7278 0.6857 -0.0000
vn 0.7139 0.6857 0.1417
vn 0.7139 -0.6857 0.1417
vn 0.7278 -0.6857 -0.0000
vn -0.7737 -0.0000 -0.6336
vn 0.9571 -0.0000 0.2897
vn -0.6352 -0.0000 -0.7724
vn 0.8823 -0.0000 0.4706
vn -0.4722 -0.0000 -0.8815
vn -0.0982 -0.0000 0.9952
vn 0.7737 -0.0000 0.6336
vn -0.2908 -0.0000 -0.9568
vn -0.2908 -0.0000 0.9568
vn 0.6352 -0.0000 0.7724
vn -0.0982 -0.0000 -0.9952
vn -0.4722 -0.0000 0.8815
vn 0.4722 -0.0000 0.8815
vn 0.0982 -0.0000 -0.9952
vn -0.6352 -0.0000 0.7724
vn 0.2908 -0.0000 0.9568
vn 0.2908 -0.0000 -0.9568
vn -0.7737 -0.0000 0.6336
vn 0.0982 -0.0000 0.9952
vn 0.4722 -0.0000 -0.8815
vn -0.8823 -0.0000 0.4706
vn 0.6352 -0.0000 -0.7724
vn -0.9571 -0.0000 0.2897
vn 0.7737 -0.0000 -0.6336
vn -0.9952 -0.0000 0.0978
vn 0.8823 -0.0000 -0.4706
vn -0.9952 -0.0000 -0.0978
vn 0.9571 -0.0000 -0.2897
vn -0.9571 -0.0000 -0.2897
vn 0.9952 -0.0000 -0.0978
vn -1.0000 -0.0000 -0.0000
vn -0.0000 -0.0000 -1.0000
vn 1.0000 -0.0000 -0.0000
vn -0.0000 -0.0000 1.0000
vn 0.9997 -0.0250 -0.0000
vn -0.0000 -0.0250 -0.9997
vn -0.9997 -0.0250 -0.0000
vn -0.0000 -0.0250 0.9997
vn -0.9975 0.0702 -0.0000
vn -0.0000 -0.0783 -0.9969
vn 0.9975 -0.0702 -0.0000
vn -0.0000 0.0783 0.9969
vn -0.9978 -0.0668 -0.0000
vn -0.0000 -0.0809 -0.9967
vn 0.9978 0.0668 -0.0000
vn -0.0000 0.0809 0.9967
vn -0.9978 -0.0667 -0.0000
vn -0.0000 0.0725 -0.9974
vn 0.9978 0.0667 -0.0000
vn -0.0000 -0.0725 0.9974
vn -0.9975 0.0706 -0.0000
vn -0.0000 0.0727 -0.9974
vn 0.9975 -0.0706 -0.0000
vn -0.0000 -0.0727 0.9974
vt 0.000000 0.000000
vt 0.000000 0.000000
vt 0.000000 0.000000
vt 0.000000 0.000000
vt 0.000000 0.000000
vt 0.000000 0.000000
vt 0.000000 0.000000
vt 0.000000 0.000000
vt 0.000000 0.000000
vt 0.000000 0.000000
vt 0.000000 0.000000
vt 0.000000 0.000000
vt 0.000000 0.000000
vt 0.000000 0.000000
vt 0.000000 0.000000
vt 0.000000 0.000000
vt 0.000000 0.000000
vt 0.000000 0.000000
vt 0.000000 0.000000
vt 0.000000 0.000000
vt 0.000000 0.000000
vt 0.000000 0.000000
vt 0.000000 0.000000
vt 0.000000 0.000000
vt 0.000000 0.000000
vt 0.000000 0.000000
vt 0.000000 0.000000
vt 0.000000 0.000000
vt 0.000000 0.000000
vt 0.000000 0.000000
vt 0.000000 0.000000
vt 0.000000 0.000000
vt 0.000000 0.000000
vt 0.000000 0.000000
vt 0.000000 0.000000
vt 0.000000 0.000000
vt 0.000000 0.000000
vt 0.000000 0.000000
vt 0.000000 0.000000
vt 0.000000 0.000000
vt 0.000000 0.000000
vt 0.000000 0.000000
vt 0.000000 0.000000
vt 0.000000 0.000000
vt 0.000000 0.000000
vt 0.000000 0.000000
vt 0.000000 0.000000
vt 0.000000 0.000000
vt 0.000000 0.000000
vt 0.000000 0.000000
vt 0.000000 0.000000
vt 0.000000 0.000000
vt 0.000000 0.000000
vt 0.000000 0.000000
vt 0.000000 0.000000
vt 0.000000 0.000000
vt 0.000000 0.000000
vt 0.000000 0.000000
vt 0.000000 0.000000
vt 0.000000 0.000000
vt 0.000000 0.000000
vt 0.000000 0.000000
vt 0.000000 0.000000
vt 0.000000 0.000000
vt 0.375000 1.000000
vt 0.375000 0.000000
vt 0.625000 0.000000
vt 0.625000 1.000000
vt 0.375000 0.250000
vt 0.625000 0.250000
vt 0.375000 0.750000
vt 0.625000 0.750000
vt 0.375000 0.500000
vt 0.625000 0.500000
vt 0.375000 0.250000
vt 0.375000 1.000000
vt 0.375000 0.000000
vt 0.375000 0.500000
vt 0.375000 0.750000
vt 0.625000 1.000000
vt 0.625000 0.000000
vt 0.625000 0.250000
vt 0.625000 0.500000
vt 0.625000 0.750000
vt 0.375000 0.000000
vt 0.375000 1.000000
vt 0.125000 0.750000
vt 0.625000 0.000000
vt 0.625000 1.000000
vt 0.875000 0.750000
vt 0.375000 0.250000
vt 0.125000 0.500000
vt 0.625000 0.250000
vt 0.875000 0.500000
vt 0.375000 0.750000
vt 0.625000 0.750000
vt 0.375000 0.500000
vt 0.625000 0.500000
vt 0.375000 0.000000
vt 0.375000 1.000000
vt 0.125000 0.750000
vt 0.625000 0.000000
vt 0.625000 1.000000
vt 0.875000 0.750000
vt 0.375000 0.250000
vt 0.125000 0.500000
vt 0.625000 0.250000
vt 0.875000 0.500000
vt 0.375000 0.750000
vt 0.625000 0.750000
vt 0.375000 0.500000
vt 0.625000 0.500000
vt 0.375000 0.000000
vt 0.375000 1.000000
vt 0.125000 0.750000
vt 0.625000 0.000000
vt 0.625000 1.000000
vt 0.875000 0.750000
vt 0.375000 0.250000
vt 0.125000 0.500000
vt 0.625000 0.250000
vt 0.875000 0.500000
vt 0.375000 0.750000
vt 0.625000 0.750000
vt 0.375000 0.500000
vt 0.625000 0.500000
vt 0.375000 0.000000
vt 0.375000 1.000000
vt 0.125000 0.750000
vt 0.625000 0.000000
vt 0.625000 1.000000
vt 0.875000 0.750000
vt 0.375000 0.250000
vt 0.125000 0.500000
vt 0.625000 0.250000
vt 0.875000 0.500000
vt 0.375000 0.750000
vt 0.625000 0.750000
vt 0.375000 0.500000
vt 0.625000 0.500000
s 0
g off
f 2/2/1 1/1/1 32/32/1 31/31/1 30/30/1 29/29/1 28/28/1 27/27/1 26/26/1 25/25/1 24/24/1 23/23/1 22/22/1 21/21/1 20/20/1 19/19/1 18/18/1 17/17/1 16/16/1 15/15/1 14/14/1 13/13/1 12/12/1 11/11/1 10/10/1 9/9/1 8/8/1 7/7/1 6/6/1 5/5/1 4/4/1 3/3/1
f 34/34/2 35/35/2 36/36/2 37/37/2 38/38/2 39/39/2 40/40/2 41/41/2 42/42/2 43/43/2 44/44/2 45/45/2 46/46/2 47/47/2 48/48/2 49/49/2 50/50/2 51/51/2 52/52/2 53/53/2 54/54/2 55/55/2 56/56/2 57/57/2 58/58/2 59/59/2 60/60/2 61/61/2 62/62/2 63/63/2 64/64/2 33/33/2
f 11/11/3 12/12/3 44/44/3 43/43/3
s 2
f 25/25/4 26/26/5 58/58/6 57/57/7
s 0
f 12/12/8 13/13/8 45/45/8 44/44/8
f 26/26/9 27/27/9 59/59/9 58/58/9
f 13/13/10 14/14/10 46/46/10 45/45/10
f 27/27/11 28/28/11 60/60/11 59/59/11
f 14/14/12 15/15/12 47/47/12 46/46/12
f 1/1/13 2/2/13 34/34/13 33/33/13
f 28/28/14 29/29/14 61/61/14 60/60/14
f 15/15/15 16/16/15 48/48/15 47/47/15
f 2/2/16 3/3/16 35/35/16 34/34/16
f 29/29/17 30/30/17 62/62/17 61/61/17
f 16/16/18 17/17/18 49/49/18 48/48/18
f 3/3/19 4/4/19 36/36/19 35/35/19
f 30/30/20 31/31/20 63/63/20 62/62/20
f 17/17/21 18/18/21 50/50/21 49/49/21
f 4/4/22 5/5/22 37/37/22 36/36/22
f 31/31/23 32/32/23 64/64/23 63/63/23
f 18/18/24 19/19/24 51/51/24 50/50/24
f 5/5/25 6/6/25 38/38/25 37/37/25
f 32/32/26 1/1/26 33/33/26 64/64/26
f 19/19/27 20/20/27 52/52/27 51/51/27
f 6/6/28 7/7/28 39/39/28 38/38/28
f 20/20/29 21/21/29 53/53/29 52/52/29
f 7/7/30 8/8/30 40/40/30 39/39/30
f 21/21/31 22/22/31 54/54/31 53/53/31
f 8/8/32 9/9/32 41/41/32 40/40/32
f 22/22/33 23/23/33 55/55/33 54/54/33
f 9/9/34 10/10/34 42/42/34 41/41/34
f 23/23/35 24/24/35 56/56/35 55/55/35
f 10/10/36 11/11/36 43/43/36 42/42/36
f 24/24/37 25/25/37 57/57/37 56/56/37
f 65/66/38 66/67/38 68/70/38 67/69/38
f 67/69/39 68/70/39 72/74/39 71/73/39
f 71/73/40 72/74/40 70/72/40 69/71/40
f 69/71/41 70/72/41 66/68/41 65/65/41
f 69/71/2 65/65/2 74/76/2 76/79/2
f 72/74/1 68/70/1 78/82/1 79/83/1
f 73/75/42 78/82/42 77/81/42 74/77/42
f 67/69/2 71/73/2 75/78/2 73/75/2
f 65/66/2 67/69/2 73/75/2 74/77/2
f 71/73/2 69/71/2 76/79/2 75/78/2
f 70/72/1 72/74/1 79/83/1 80/84/1
f 68/70/1 66/67/1 77/81/1 78/82/1
f 66/68/1 70/72/1 80/84/1 77/80/1
f 74/77/43 77/81/43 80/84/43 76/79/43
f 76/79/44 80/84/44 79/83/44 75/78/44
f 75/78/45 79/83/45 78/82/45 73/75/45
f 81/85/46 82/88/46 84/93/46 83/91/46
f 83/91/47 84/93/47 88/98/47 87/97/47
f 87/97/48 88/98/48 86/96/48 85/95/48
f 85/95/49 86/96/49 82/89/49 81/86/49
f 83/92/2 87/97/2 85/95/2 81/87/2
f 88/98/1 84/94/1 82/90/1 86/96/1
f 89/99/50 90/102/50 92/107/50 91/105/50
f 91/105/51 92/107/51 96/112/51 95/111/51
f 95/111/52 96/112/52 94/110/52 93/109/52
f 93/109/53 94/110/53 90/103/53 89/100/53
f 91/106/2 95/111/2 93/109/2 89/101/2
f 96/112/1 92/108/1 90/104/1 94/110/1
f 97/113/54 98/116/54 100/121/54 99/119/54
f 99/119/55 100/121/55 104/126/55 103/125/55
f 103/125/56 104/126/56 102/124/56 101/123/56
f 101/123/57 102/124/57 98/117/57 97/114/57
f 99/120/2 103/125/2 101/123/2 97/115/2
f 104/126/1 100/122/1 98/118/1 102/124/1
f 105/127/58 106/130/58 108/135/58 107/133/58
f 107/133/59 108/135/59 112/140/59 111/139/59
f 111/139/60 112/140/60 110/138/60 109/137/60
f 109/137/61 110/138/61 106/131/61 105/128/61
f 107/134/2 111/139/2 109/137/2 105/129/2
f 112/140/1 108/136/1 106/132/1 110/138/1
