# Blender 3.4.1
# www.blender.org
mtllib table_cir90.mtl
o Куб
v 0.449959 0.740067 -0.033050
v 0.033082 0.740067 -0.449519
v 0.443626 0.740067 -0.105369
v 0.424819 0.740067 -0.175491
v 0.394108 0.740067 -0.241285
v 0.352429 0.740067 -0.300751
v 0.301046 0.740067 -0.352084
v 0.241521 0.740067 -0.393723
v 0.175662 0.740067 -0.424403
v 0.105472 0.740067 -0.443192
v 0.033082 0.670085 -0.449519
v 0.449959 0.670085 -0.033050
v 0.105472 0.670085 -0.443192
v 0.175662 0.670085 -0.424403
v 0.241521 0.670085 -0.393723
v 0.301046 0.670085 -0.352084
v 0.352429 0.670085 -0.300751
v 0.394108 0.670085 -0.241285
v 0.424819 0.670085 -0.175491
v 0.443626 0.670085 -0.105369
v 0.033082 0.740067 0.449519
v 0.449959 0.740067 0.033050
v 0.105472 0.740067 0.443192
v 0.175662 0.740067 0.424403
v 0.241521 0.740067 0.393723
v 0.301046 0.740067 0.352084
v 0.352429 0.740067 0.300751
v 0.394108 0.740067 0.241285
v 0.424819 0.740067 0.175491
v 0.443626 0.740067 0.105369
v 0.449959 0.670085 0.033050
v 0.033082 0.670085 0.449519
v 0.443626 0.670085 0.105369
v 0.424819 0.670085 0.175491
v 0.394108 0.670085 0.241285
v 0.352429 0.670085 0.300751
v 0.301046 0.670085 0.352084
v 0.241521 0.670085 0.393723
v 0.175662 0.670085 0.424403
v 0.105472 0.670085 0.443192
v -0.033082 0.740067 -0.449519
v -0.449959 0.740067 -0.033050
v -0.105472 0.740067 -0.443192
v -0.175662 0.740067 -0.424403
v -0.241521 0.740067 -0.393723
v -0.301046 0.740067 -0.352084
v -0.352429 0.740067 -0.300751
v -0.394108 0.740067 -0.241285
v -0.424819 0.740067 -0.175491
v -0.443626 0.740067 -0.105369
v -0.449959 0.670085 -0.033050
v -0.033082 0.670085 -0.449519
v -0.443626 0.670085 -0.105369
v -0.424819 0.670085 -0.175491
v -0.394108 0.670085 -0.241285
v -0.352429 0.670085 -0.300751
v -0.301046 0.670085 -0.352084
v -0.241521 0.670085 -0.393723
v -0.175662 0.670085 -0.424403
v -0.105472 0.670085 -0.443192
v -0.449959 0.740067 0.033050
v -0.033082 0.740067 0.449519
v -0.443626 0.740067 0.105369
v -0.424819 0.740067 0.175491
v -0.394108 0.740067 0.241285
v -0.352429 0.740067 0.300751
v -0.301046 0.740067 0.352084
v -0.241521 0.740067 0.393723
v -0.175662 0.740067 0.424403
v -0.105472 0.740067 0.443192
v -0.033082 0.670085 0.449519
v -0.449959 0.670085 0.033050
v -0.105472 0.670085 0.443192
v -0.175662 0.670085 0.424403
v -0.241521 0.670085 0.393723
v -0.301046 0.670085 0.352084
v -0.352429 0.670085 0.300751
v -0.394108 0.670085 0.241285
v -0.424819 0.670085 0.175491
v -0.443626 0.670085 0.105369
v -0.324751 -0.001878 0.324751
v -0.050000 0.673236 0.050000
v -0.324751 -0.001878 -0.324751
v -0.050000 0.673236 -0.050000
v 0.324751 -0.001878 0.324751
v 0.050000 0.673236 0.050000
v 0.324751 -0.001878 -0.324751
v 0.050000 0.673236 -0.050000
v -0.050000 0.081736 0.050000
v -0.083100 0.042072 0.083100
v -0.059695 0.056183 0.059695
v -0.083100 0.042072 -0.083100
v -0.050000 0.081736 -0.050000
v -0.059695 0.056183 -0.059695
v 0.083100 0.042072 -0.083100
v 0.050000 0.081736 -0.050000
v 0.059695 0.056183 -0.059695
v 0.083100 0.042072 0.083100
v 0.050000 0.081736 0.050000
v 0.059695 0.056183 0.059695
vn -0.0000 -1.0000 -0.0000
vn -0.0000 -0.0000 1.0000
vn -1.0000 -0.0000 -0.0000
vn -0.0000 1.0000 -0.0000
vn 1.0000 -0.0000 -0.0000
vn -0.0871 -0.0000 0.9962
vn -0.2586 -0.0000 0.9660
vn -0.4223 -0.0000 0.9065
vn -0.5732 -0.0000 0.8194
vn -0.7068 -0.0000 0.7075
vn -0.8189 -0.0000 0.5740
vn -0.9061 -0.0000 0.4230
vn -0.9659 -0.0000 0.2591
vn -0.9962 -0.0000 0.0872
vn -0.0871 -0.0000 -0.9962
vn -0.2586 -0.0000 -0.9660
vn -0.4223 -0.0000 -0.9065
vn -0.5732 -0.0000 -0.8194
vn -0.7068 -0.0000 -0.7075
vn -0.8189 -0.0000 -0.5740
vn -0.9061 -0.0000 -0.4230
vn -0.9659 -0.0000 -0.2591
vn -0.9962 -0.0000 -0.0872
vn 0.9962 -0.0000 -0.0872
vn 0.9659 -0.0000 -0.2591
vn 0.9061 -0.0000 -0.4230
vn 0.8189 -0.0000 -0.5740
vn 0.7068 -0.0000 -0.7075
vn 0.5732 -0.0000 -0.8194
vn 0.4223 -0.0000 -0.9065
vn 0.2586 -0.0000 -0.9660
vn 0.0871 -0.0000 -0.9962
vn 0.0871 -0.0000 0.9962
vn 0.2586 -0.0000 0.9660
vn 0.4223 -0.0000 0.9065
vn 0.5732 -0.0000 0.8194
vn 0.7068 -0.0000 0.7075
vn 0.8189 -0.0000 0.5740
vn 0.9061 -0.0000 0.4230
vn 0.9659 -0.0000 0.2591
vn 0.9962 -0.0000 0.0872
vn -0.0000 -0.0000 -1.0000
vn -0.0000 0.9839 0.1789
vn 0.1789 0.9839 -0.0000
vn -0.1789 0.9839 -0.0000
vn -0.0000 0.9839 -0.1789
vn -0.0000 0.3547 0.9350
vn -0.0000 0.8564 0.5163
vn 0.9350 0.3547 -0.0000
vn 0.5163 0.8564 -0.0000
vn -0.0000 0.3547 -0.9350
vn -0.0000 0.8564 -0.5163
vn -0.9350 0.3547 -0.0000
vn -0.5163 0.8564 -0.0000
vt 0.375000 0.115810
vt 0.625000 0.865810
vt 0.490810 0.000000
vt 0.375000 0.634190
vt 0.376759 0.095700
vt 0.625000 0.845700
vt 0.381984 0.076200
vt 0.625000 0.826200
vt 0.390516 0.057905
vt 0.625000 0.807905
vt 0.402094 0.041369
vt 0.625000 0.791369
vt 0.416369 0.027094
vt 0.625000 0.750000
vt 0.375000 0.750000
vt 0.432905 0.015516
vt 0.375000 0.692095
vt 0.451200 0.006984
vt 0.375000 0.673800
vt 0.470700 0.001759
vt 0.375000 0.654300
vt 0.509190 0.250000
vt 0.125000 0.634190
vt 0.625000 0.365810
vt 0.375000 0.865810
vt 0.529300 0.251759
vt 0.125000 0.654300
vt 0.548799 0.256984
vt 0.125000 0.673800
vt 0.567095 0.265516
vt 0.125000 0.692095
vt 0.583631 0.277094
vt 0.375000 0.750000
vt 0.125000 0.750000
vt 0.597906 0.291369
vt 0.375000 0.791369
vt 0.609484 0.307905
vt 0.375000 0.807905
vt 0.618016 0.326200
vt 0.375000 0.826200
vt 0.623241 0.345700
vt 0.375000 0.845700
vt 0.490810 0.250000
vt 0.625000 0.615810
vt 0.375000 0.134190
vt 0.625000 0.884190
vt 0.470700 0.248241
vt 0.625000 0.595700
vt 0.451200 0.243016
vt 0.625000 0.576200
vt 0.432905 0.234484
vt 0.625000 0.557905
vt 0.416369 0.222906
vt 0.625000 0.541369
vt 0.402094 0.208631
vt 0.625000 0.500000
vt 0.625000 1.000000
vt 0.390516 0.192095
vt 0.625000 0.942095
vt 0.381984 0.173800
vt 0.625000 0.923800
vt 0.376759 0.154300
vt 0.625000 0.904300
vt 0.625000 0.384190
vt 0.375000 0.884190
vt 0.509190 0.500000
vt 0.375000 0.615810
vt 0.623241 0.404300
vt 0.375000 0.904300
vt 0.618016 0.423800
vt 0.375000 0.923800
vt 0.609484 0.442095
vt 0.375000 0.942095
vt 0.597906 0.458631
vt 0.375000 0.500000
vt 0.375000 1.000000
vt 0.583631 0.472906
vt 0.375000 0.541369
vt 0.567095 0.484484
vt 0.375000 0.557905
vt 0.548800 0.493016
vt 0.375000 0.576200
vt 0.529300 0.498241
vt 0.375000 0.595700
vt 0.509190 0.000000
vt 0.375000 0.615810
vt 0.625000 0.115810
vt 0.875000 0.634190
vt 0.529300 0.001759
vt 0.375000 0.595700
vt 0.548799 0.006984
vt 0.375000 0.576200
vt 0.567095 0.015516
vt 0.375000 0.557905
vt 0.583631 0.027094
vt 0.375000 0.541369
vt 0.597906 0.041369
vt 0.375000 0.500000
vt 0.875000 0.750000
vt 0.609484 0.057905
vt 0.875000 0.692095
vt 0.618016 0.076200
vt 0.875000 0.673800
vt 0.623241 0.095700
vt 0.875000 0.654300
vt 0.375000 0.365810
vt 0.625000 0.634190
vt 0.490810 0.250000
vt 0.125000 0.615810
vt 0.376759 0.345700
vt 0.625000 0.654300
vt 0.381984 0.326201
vt 0.625000 0.673800
vt 0.390516 0.307905
vt 0.625000 0.692095
vt 0.402094 0.291369
vt 0.125000 0.500000
vt 0.625000 0.750000
vt 0.416369 0.277094
vt 0.125000 0.541369
vt 0.432905 0.265516
vt 0.125000 0.557905
vt 0.451200 0.256984
vt 0.125000 0.576200
vt 0.470700 0.251759
vt 0.125000 0.595700
vt 0.625000 0.134190
vt 0.875000 0.615810
vt 0.509190 0.250000
vt 0.625000 0.634190
vt 0.623241 0.154300
vt 0.875000 0.595700
vt 0.618016 0.173800
vt 0.875000 0.576200
vt 0.609484 0.192095
vt 0.875000 0.557905
vt 0.597906 0.208631
vt 0.625000 0.750000
vt 0.875000 0.500000
vt 0.583631 0.222906
vt 0.625000 0.708631
vt 0.567095 0.234484
vt 0.625000 0.692095
vt 0.548800 0.243016
vt 0.625000 0.673800
vt 0.529300 0.248241
vt 0.625000 0.654300
vt 0.490810 0.500000
vt 0.375000 0.634190
vt 0.375000 0.384190
vt 0.625000 0.615810
vt 0.470700 0.498241
vt 0.375000 0.654300
vt 0.451200 0.493016
vt 0.375000 0.673800
vt 0.432905 0.484484
vt 0.375000 0.692095
vt 0.416369 0.472906
vt 0.375000 0.708631
vt 0.402094 0.458631
vt 0.375000 0.750000
vt 0.625000 0.500000
vt 0.390516 0.442095
vt 0.625000 0.557905
vt 0.381984 0.423800
vt 0.625000 0.576200
vt 0.376759 0.404300
vt 0.625000 0.595700
vt 0.375000 1.000000
vt 0.375000 0.000000
vt 0.125000 0.750000
vt 0.875000 0.750000
vt 0.625000 0.000000
vt 0.625000 1.000000
vt 0.125000 0.500000
vt 0.375000 0.250000
vt 0.875000 0.500000
vt 0.625000 0.250000
vt 0.375000 0.750000
vt 0.625000 0.750000
vt 0.375000 0.500000
vt 0.625000 0.500000
vt 0.405963 0.000000
vt 0.405963 1.000000
vt 0.391275 1.000000
vt 0.391275 0.000000
vt 0.393505 1.000000
vt 0.393505 0.000000
vt 0.391275 0.250000
vt 0.405963 0.250000
vt 0.393505 0.250000
vt 0.391275 0.500000
vt 0.405963 0.500000
vt 0.393505 0.500000
vt 0.391275 0.750000
vt 0.405963 0.750000
vt 0.393505 0.750000
s 0
f 51/106/1 53/110/1 54/112/1 55/114/1 56/116/1 57/119/1 58/121/1 59/123/1 60/125/1 52/108/1 11/22/1 13/26/1 14/28/1 15/30/1 16/32/1 17/35/1 18/37/1 19/39/1 20/41/1 12/24/1 31/64/1 33/68/1 34/70/1 35/72/1 36/74/1 37/77/1 38/79/1 39/81/1 40/83/1 32/66/1 71/148/1 73/152/1 74/154/1 75/156/1 76/158/1 77/160/1 78/163/1 79/165/1 80/167/1 72/150/1
f 32/67/2 21/44/2 62/130/2 71/149/2
f 72/151/3 61/128/3 42/88/3 51/107/3
f 1/1/4 3/5/4 4/7/4 5/9/4 6/11/4 7/13/4 8/16/4 9/18/4 10/20/4 2/3/4 41/85/4 43/89/4 44/91/4 45/93/4 46/95/4 47/97/4 48/100/4 49/102/4 50/104/4 42/87/4 61/127/4 63/131/4 64/133/4 65/135/4 66/137/4 67/140/4 68/142/4 69/144/4 70/146/4 62/129/4 21/43/4 23/47/4 24/49/4 25/51/4 26/53/4 27/55/4 28/58/4 29/60/4 30/62/4 22/45/4
f 12/25/5 1/2/5 22/46/5 31/65/5
f 71/149/6 62/130/6 70/147/6 73/153/6
f 73/153/7 70/147/7 69/145/7 74/155/7
f 74/155/8 69/145/8 68/143/8 75/157/8
f 75/157/9 68/143/9 67/141/9 76/159/9
f 76/159/10 67/141/10 66/138/10 77/161/10
f 77/162/11 66/139/11 65/136/11 78/164/11
f 78/164/12 65/136/12 64/134/12 79/166/12
f 79/166/13 64/134/13 63/132/13 80/168/13
f 80/168/14 63/132/14 61/128/14 72/151/14
f 41/86/15 52/109/15 60/126/15 43/90/15
f 43/90/16 60/126/16 59/124/16 44/92/16
f 44/92/17 59/124/17 58/122/17 45/94/17
f 45/94/18 58/122/18 57/120/18 46/96/18
f 46/96/19 57/120/19 56/117/19 47/98/19
f 47/99/20 56/118/20 55/115/20 48/101/20
f 48/101/21 55/115/21 54/113/21 49/103/21
f 49/103/22 54/113/22 53/111/22 50/105/22
f 50/105/23 53/111/23 51/107/23 42/88/23
f 1/2/24 12/25/24 20/42/24 3/6/24
f 3/6/25 20/42/25 19/40/25 4/8/25
f 4/8/26 19/40/26 18/38/26 5/10/26
f 5/10/27 18/38/27 17/36/27 6/12/27
f 6/12/28 17/36/28 16/33/28 7/14/28
f 7/15/29 16/34/29 15/31/29 8/17/29
f 8/17/30 15/31/30 14/29/30 9/19/30
f 9/19/31 14/29/31 13/27/31 10/21/31
f 10/21/32 13/27/32 11/23/32 2/4/32
f 21/44/33 32/67/33 40/84/33 23/48/33
f 23/48/34 40/84/34 39/82/34 24/50/34
f 24/50/35 39/82/35 38/80/35 25/52/35
f 25/52/36 38/80/36 37/78/36 26/54/36
f 26/54/37 37/78/37 36/75/37 27/56/37
f 27/57/38 36/76/38 35/73/38 28/59/38
f 28/59/39 35/73/39 34/71/39 29/61/39
f 29/61/40 34/71/40 33/69/40 30/63/40
f 30/63/41 33/69/41 31/65/41 22/46/41
f 52/109/42 41/86/42 2/4/42 11/23/42
f 85/179/43 98/195/43 90/185/43 81/169/43
f 87/181/44 95/192/44 98/195/44 85/179/44
f 81/170/45 90/186/45 92/189/45 83/176/45
f 83/175/1 87/181/1 85/179/1 81/171/1
f 88/182/4 84/177/4 82/172/4 86/180/4
f 83/176/46 92/189/46 95/192/46 87/181/46
f 96/193/5 88/182/5 86/180/5 99/196/5
f 93/190/42 84/178/42 88/182/42 96/193/42
f 89/183/3 82/173/3 84/178/3 93/190/3
f 99/196/47 89/184/47 91/187/47 100/197/47
f 100/197/48 91/187/48 90/185/48 98/195/48
f 96/193/49 99/196/49 100/197/49 97/194/49
f 97/194/50 100/197/50 98/195/50 95/192/50
f 93/190/51 96/193/51 97/194/51 94/191/51
f 94/191/52 97/194/52 95/192/52 92/189/52
f 89/183/53 93/190/53 94/191/53 91/188/53
f 91/188/54 94/191/54 92/189/54 90/186/54
f 99/196/2 86/180/2 82/174/2 89/184/2
