# Blender 3.4.1
# www.blender.org
mtllib table_ov120.mtl
o Куб
v -0.384139 0.620202 0.334384
v -0.399139 0.620202 0.319384
v -0.394746 0.620202 0.329991
v -0.399139 0.670175 0.319384
v -0.384139 0.670175 0.334384
v -0.394746 0.670175 0.329991
v -0.399139 0.620202 -0.335356
v -0.384139 0.620202 -0.350356
v -0.394746 0.620202 -0.345962
v -0.384139 0.670175 -0.350356
v -0.399139 0.670175 -0.335356
v -0.394746 0.670175 -0.345962
v 0.401096 0.620202 0.319384
v 0.386096 0.620202 0.334384
v 0.396702 0.620202 0.329991
v 0.386096 0.670175 0.334384
v 0.401096 0.670175 0.319384
v 0.396702 0.670175 0.329991
v 0.386096 0.620202 -0.350356
v 0.401096 0.620202 -0.335356
v 0.396702 0.620202 -0.345962
v 0.401096 0.670175 -0.335356
v 0.386096 0.670175 -0.350356
v 0.396702 0.670175 -0.345962
v -0.384137 0.000239 0.334383
v -0.399137 0.000239 0.319384
v -0.394744 0.000239 0.329990
v -0.399137 0.620204 0.319384
v -0.384137 0.620204 0.334383
v -0.394744 0.620204 0.329990
v -0.399137 0.000239 0.249383
v -0.384137 0.000239 0.234383
v -0.394744 0.000239 0.238777
v -0.384137 0.620204 0.234383
v -0.399137 0.620204 0.249383
v -0.394744 0.620204 0.238777
v -0.299137 0.000239 0.319384
v -0.314137 0.000239 0.334383
v -0.303531 0.000239 0.329990
v -0.314137 0.620204 0.334383
v -0.299137 0.620204 0.319384
v -0.303531 0.620204 0.329990
v -0.314137 0.000239 0.234383
v -0.299137 0.000239 0.249383
v -0.303531 0.000239 0.238777
v -0.299137 0.620204 0.249383
v -0.314137 0.620204 0.234383
v -0.303531 0.620204 0.238777
v -0.384137 0.000352 -0.250304
v -0.399137 0.000352 -0.265304
v -0.394744 0.000352 -0.254697
v -0.399137 0.620202 -0.265304
v -0.384137 0.620202 -0.250304
v -0.394744 0.620202 -0.254697
v -0.399137 0.000352 -0.335304
v -0.384137 0.000352 -0.350304
v -0.394744 0.000352 -0.345911
v -0.384137 0.620202 -0.350304
v -0.399137 0.620202 -0.335304
v -0.394744 0.620202 -0.345911
v -0.299137 0.000352 -0.265304
v -0.314137 0.000352 -0.250304
v -0.303531 0.000352 -0.254697
v -0.314137 0.620202 -0.250304
v -0.299137 0.620202 -0.265304
v -0.303531 0.620202 -0.254697
v -0.314137 0.000352 -0.350304
v -0.299137 0.000352 -0.335304
v -0.303531 0.000352 -0.345911
v -0.299137 0.620202 -0.335304
v -0.314137 0.620202 -0.350304
v -0.303531 0.620202 -0.345911
v 0.316095 -0.000038 0.334382
v 0.301095 -0.000038 0.319382
v 0.305489 -0.000038 0.329989
v 0.301095 0.620207 0.319382
v 0.316095 0.620207 0.334382
v 0.305489 0.620207 0.329989
v 0.301095 -0.000038 0.249382
v 0.316095 -0.000038 0.234382
v 0.305489 -0.000038 0.238776
v 0.316095 0.620207 0.234382
v 0.301095 0.620207 0.249382
v 0.305489 0.620207 0.238776
v 0.401095 -0.000038 0.319382
v 0.386095 -0.000038 0.334382
v 0.396702 -0.000038 0.329989
v 0.386095 0.620207 0.334382
v 0.401095 0.620207 0.319382
v 0.396702 0.620207 0.329989
v 0.386095 -0.000038 0.234382
v 0.401095 -0.000038 0.249382
v 0.396702 -0.000038 0.238776
v 0.401095 0.620207 0.249382
v 0.386095 0.620207 0.234382
v 0.396702 0.620207 0.238776
v 0.316095 0.000421 -0.250304
v 0.301095 0.000421 -0.265304
v 0.305489 0.000421 -0.254697
v 0.301095 0.620206 -0.265304
v 0.316095 0.620206 -0.250304
v 0.305489 0.620206 -0.254697
v 0.301095 0.000421 -0.335304
v 0.316095 0.000421 -0.350304
v 0.305489 0.000421 -0.345910
v 0.316095 0.620206 -0.350304
v 0.301095 0.620206 -0.335304
v 0.305489 0.620206 -0.345910
v 0.401096 0.000421 -0.265304
v 0.386096 0.000421 -0.250304
v 0.396702 0.000421 -0.254697
v 0.386096 0.620206 -0.250304
v 0.401096 0.620206 -0.265304
v 0.396702 0.620206 -0.254697
v 0.386096 0.000421 -0.350304
v 0.401096 0.000421 -0.335304
v 0.396702 0.000421 -0.345910
v 0.401096 0.620206 -0.335304
v 0.386096 0.620206 -0.350304
v 0.396702 0.620206 -0.345910
v -0.023678 0.669387 0.593278
v -0.450189 0.669387 0.140974
v -0.103960 0.669387 0.581937
v -0.198085 0.669387 0.548485
v -0.282521 0.669387 0.494599
v -0.353034 0.669387 0.422981
v -0.406088 0.669387 0.337221
v -0.439024 0.669387 0.241621
v -0.450189 0.739390 0.140974
v -0.023678 0.739390 0.593278
v -0.439024 0.739390 0.241621
v -0.406088 0.739390 0.337221
v -0.353034 0.739390 0.422981
v -0.282521 0.739390 0.494599
v -0.198085 0.739390 0.548485
v -0.103960 0.739390 0.581937
v -0.450189 0.669387 -0.148148
v -0.023678 0.669387 -0.600451
v -0.439024 0.669387 -0.248795
v -0.406088 0.669387 -0.344395
v -0.353034 0.669387 -0.430154
v -0.282521 0.669387 -0.501773
v -0.198085 0.669387 -0.555659
v -0.103960 0.669387 -0.589111
v -0.023678 0.739390 -0.600451
v -0.450189 0.739390 -0.148148
v -0.103960 0.739390 -0.589111
v -0.198085 0.739390 -0.555659
v -0.282521 0.739390 -0.501773
v -0.353034 0.739390 -0.430154
v -0.406088 0.739390 -0.344395
v -0.439024 0.739390 -0.248794
v 0.452062 0.669387 0.140974
v 0.019052 0.669387 0.593278
v 0.440896 0.669387 0.241621
v 0.407961 0.669387 0.337221
v 0.354906 0.669387 0.422981
v 0.284393 0.669387 0.494599
v 0.199957 0.669387 0.548485
v 0.105832 0.669387 0.581937
v 0.019052 0.739390 0.593278
v 0.452062 0.739390 0.140974
v 0.105832 0.739390 0.581937
v 0.199957 0.739390 0.548485
v 0.284393 0.739390 0.494599
v 0.354906 0.739390 0.422981
v 0.407961 0.739390 0.337221
v 0.440896 0.739390 0.241621
v 0.019052 0.669387 -0.600451
v 0.452062 0.669387 -0.148148
v 0.105832 0.669387 -0.589111
v 0.199957 0.669387 -0.555659
v 0.284393 0.669387 -0.501773
v 0.354906 0.669387 -0.430154
v 0.407961 0.669387 -0.344395
v 0.440896 0.669387 -0.248794
v 0.452062 0.739390 -0.148148
v 0.019052 0.739390 -0.600451
v 0.440896 0.739390 -0.248795
v 0.407961 0.739390 -0.344395
v 0.354906 0.739390 -0.430154
v 0.284393 0.739390 -0.501773
v 0.199957 0.739390 -0.555659
v 0.105832 0.739390 -0.589111
vn -0.0000 -0.0000 1.0000
vn 1.0000 -0.0000 -0.0000
vn -0.0000 1.0000 -0.0000
vn -1.0000 -0.0000 -0.0000
vn -0.0000 -0.0000 -1.0000
vn -0.0000 -1.0000 -0.0000
vn -0.3827 -0.0000 0.9239
vn -0.9239 -0.0000 0.3827
vn -0.3827 -0.0000 -0.9239
vn -0.9239 -0.0000 -0.3827
vn 0.9239 -0.0000 -0.3827
vn 0.3827 -0.0000 -0.9239
vn 0.3827 -0.0000 0.9239
vn 0.9239 -0.0000 0.3827
vn -0.1399 -0.0000 0.9902
vn -0.3349 -0.0000 0.9423
vn -0.5380 -0.0000 0.8430
vn -0.7126 -0.0000 0.7016
vn -0.8504 -0.0000 0.5261
vn -0.9455 -0.0000 0.3257
vn -0.9939 -0.0000 0.1103
vn -0.1399 -0.0000 -0.9902
vn -0.3349 -0.0000 -0.9423
vn -0.5380 -0.0000 -0.8430
vn -0.7126 -0.0000 -0.7016
vn -0.8504 -0.0000 -0.5261
vn -0.9455 -0.0000 -0.3257
vn -0.9939 -0.0000 -0.1103
vn 0.9939 -0.0000 -0.1103
vn 0.9455 -0.0000 -0.3257
vn 0.8504 -0.0000 -0.5261
vn 0.7126 -0.0000 -0.7016
vn 0.5380 -0.0000 -0.8430
vn 0.3349 -0.0000 -0.9423
vn 0.1296 -0.0000 -0.9916
vn 0.1296 -0.0000 0.9916
vn 0.3349 -0.0000 0.9423
vn 0.5380 -0.0000 0.8430
vn 0.7126 -0.0000 0.7016
vn 0.8504 -0.0000 0.5261
vn 0.9455 -0.0000 0.3257
vn 0.9939 -0.0000 0.1103
vt 0.375000 0.995833
vt 0.129167 0.750000
vt 0.375000 0.001875
vt 0.125000 0.748125
vt 0.375000 1.000000
vt 0.375000 0.000000
vt 0.126220 0.749451
vt 0.875000 0.748125
vt 0.625000 0.001875
vt 0.870833 0.750000
vt 0.625000 0.995833
vt 0.873780 0.749451
vt 0.625000 1.000000
vt 0.625000 0.000000
vt 0.375000 0.248125
vt 0.125000 0.501875
vt 0.375000 0.254167
vt 0.129167 0.500000
vt 0.375000 0.250000
vt 0.126220 0.500549
vt 0.870833 0.500000
vt 0.625000 0.254167
vt 0.875000 0.501875
vt 0.625000 0.248125
vt 0.873780 0.500549
vt 0.625000 0.250000
vt 0.375000 0.748125
vt 0.375000 0.754167
vt 0.370833 0.750000
vt 0.375000 0.750000
vt 0.373780 0.749451
vt 0.629167 0.750000
vt 0.625000 0.754167
vt 0.625000 0.748125
vt 0.626220 0.749451
vt 0.625000 0.750000
vt 0.375000 0.495833
vt 0.370833 0.500000
vt 0.375000 0.501875
vt 0.375000 0.500000
vt 0.373780 0.500549
vt 0.625000 0.501875
vt 0.629167 0.500000
vt 0.625000 0.495833
vt 0.626220 0.500549
vt 0.625000 0.500000
vt 0.162500 0.750000
vt 0.375000 0.962500
vt 0.125000 0.712500
vt 0.375000 0.037500
vt 0.135983 0.739016
vt 0.375000 1.000000
vt 0.375000 0.000000
vt 0.875000 0.712500
vt 0.625000 0.037500
vt 0.837500 0.750000
vt 0.625000 0.962500
vt 0.864016 0.739016
vt 0.625000 1.000000
vt 0.625000 0.000000
vt 0.125000 0.537500
vt 0.375000 0.212500
vt 0.162500 0.500000
vt 0.375000 0.287500
vt 0.135983 0.510983
vt 0.375000 0.250000
vt 0.837500 0.500000
vt 0.625000 0.287500
vt 0.875000 0.537500
vt 0.625000 0.212500
vt 0.864016 0.510983
vt 0.625000 0.250000
vt 0.375000 0.712500
vt 0.337500 0.750000
vt 0.375000 0.787500
vt 0.364017 0.739016
vt 0.375000 0.750000
vt 0.662500 0.750000
vt 0.625000 0.787500
vt 0.625000 0.712500
vt 0.635984 0.739016
vt 0.625000 0.750000
vt 0.337500 0.500000
vt 0.375000 0.462500
vt 0.375000 0.537500
vt 0.364016 0.510983
vt 0.375000 0.500000
vt 0.625000 0.537500
vt 0.662500 0.500000
vt 0.625000 0.462500
vt 0.635983 0.510983
vt 0.625000 0.500000
vt 0.162500 0.750000
vt 0.375000 0.962500
vt 0.125000 0.712500
vt 0.375000 0.037500
vt 0.135983 0.739016
vt 0.375000 1.000000
vt 0.375000 0.000000
vt 0.875000 0.712500
vt 0.625000 0.037500
vt 0.837500 0.750000
vt 0.625000 0.962500
vt 0.864016 0.739016
vt 0.625000 1.000000
vt 0.625000 0.000000
vt 0.125000 0.537500
vt 0.375000 0.212500
vt 0.162500 0.500000
vt 0.375000 0.287500
vt 0.135983 0.510983
vt 0.375000 0.250000
vt 0.837500 0.500000
vt 0.625000 0.287500
vt 0.875000 0.537500
vt 0.625000 0.212500
vt 0.864016 0.510983
vt 0.625000 0.250000
vt 0.375000 0.712500
vt 0.337500 0.750000
vt 0.375000 0.787500
vt 0.364017 0.739016
vt 0.375000 0.750000
vt 0.662500 0.750000
vt 0.625000 0.787500
vt 0.625000 0.712500
vt 0.635983 0.739016
vt 0.625000 0.750000
vt 0.337500 0.500000
vt 0.375000 0.462500
vt 0.375000 0.537500
vt 0.364016 0.510983
vt 0.375000 0.500000
vt 0.625000 0.537500
vt 0.662500 0.500000
vt 0.625000 0.462500
vt 0.635983 0.510983
vt 0.625000 0.500000
vt 0.162500 0.750000
vt 0.375000 0.962500
vt 0.125000 0.712500
vt 0.375000 0.037500
vt 0.135983 0.739016
vt 0.375000 1.000000
vt 0.375000 0.000000
vt 0.875000 0.712500
vt 0.625000 0.037500
vt 0.837500 0.750000
vt 0.625000 0.962500
vt 0.864016 0.739016
vt 0.625000 1.000000
vt 0.625000 0.000000
vt 0.125000 0.537500
vt 0.375000 0.212500
vt 0.162500 0.500000
vt 0.375000 0.287500
vt 0.135983 0.510983
vt 0.375000 0.250000
vt 0.837500 0.500000
vt 0.625000 0.287500
vt 0.875000 0.537500
vt 0.625000 0.212500
vt 0.864016 0.510983
vt 0.625000 0.250000
vt 0.375000 0.712500
vt 0.337500 0.750000
vt 0.375000 0.787500
vt 0.364017 0.739016
vt 0.375000 0.750000
vt 0.662500 0.750000
vt 0.625000 0.787500
vt 0.625000 0.712500
vt 0.635984 0.739016
vt 0.625000 0.750000
vt 0.337500 0.500000
vt 0.375000 0.462500
vt 0.375000 0.537500
vt 0.364016 0.510983
vt 0.375000 0.500000
vt 0.625000 0.537500
vt 0.662500 0.500000
vt 0.625000 0.462500
vt 0.635983 0.510983
vt 0.625000 0.500000
vt 0.162500 0.750000
vt 0.375000 0.962500
vt 0.125000 0.712500
vt 0.375000 0.037500
vt 0.135983 0.739016
vt 0.375000 1.000000
vt 0.375000 0.000000
vt 0.875000 0.712500
vt 0.625000 0.037500
vt 0.837500 0.750000
vt 0.625000 0.962500
vt 0.864016 0.739016
vt 0.625000 1.000000
vt 0.625000 0.000000
vt 0.125000 0.537500
vt 0.375000 0.212500
vt 0.162500 0.500000
vt 0.375000 0.287500
vt 0.135983 0.510983
vt 0.375000 0.250000
vt 0.837500 0.500000
vt 0.625000 0.287500
vt 0.875000 0.537500
vt 0.625000 0.212500
vt 0.864016 0.510983
vt 0.625000 0.250000
vt 0.375000 0.712500
vt 0.337500 0.750000
vt 0.375000 0.787500
vt 0.364017 0.739016
vt 0.375000 0.750000
vt 0.662500 0.750000
vt 0.625000 0.787500
vt 0.625000 0.712500
vt 0.635984 0.739016
vt 0.625000 0.750000
vt 0.337500 0.500000
vt 0.375000 0.462500
vt 0.375000 0.537500
vt 0.364016 0.510983
vt 0.375000 0.500000
vt 0.625000 0.537500
vt 0.662500 0.500000
vt 0.625000 0.462500
vt 0.635983 0.510983
vt 0.625000 0.500000
vt 0.375000 0.887848
vt 0.237152 0.750000
vt 0.375000 0.055836
vt 0.125000 0.694164
vt 0.375000 0.912804
vt 0.212196 0.748600
vt 0.375000 0.936509
vt 0.188491 0.744470
vt 0.375000 1.000000
vt 0.375000 0.000000
vt 0.167226 0.737818
vt 0.375000 0.021023
vt 0.149468 0.728977
vt 0.375000 0.031610
vt 0.136107 0.718390
vt 0.375000 0.043412
vt 0.127812 0.706588
vt 0.875000 0.694164
vt 0.625000 0.055836
vt 0.762848 0.750000
vt 0.625000 0.887848
vt 0.872188 0.706588
vt 0.625000 0.043412
vt 0.863893 0.718390
vt 0.625000 0.031610
vt 0.850532 0.728977
vt 0.625000 0.021023
vt 0.832774 0.737818
vt 0.625000 1.000000
vt 0.625000 0.000000
vt 0.811509 0.744470
vt 0.625000 0.936509
vt 0.787804 0.748600
vt 0.625000 0.912804
vt 0.375000 0.194164
vt 0.125000 0.555836
vt 0.375000 0.362152
vt 0.237152 0.500000
vt 0.375000 0.206588
vt 0.127812 0.543411
vt 0.375000 0.218390
vt 0.136107 0.531610
vt 0.375000 0.228977
vt 0.149468 0.521023
vt 0.375000 0.292226
vt 0.167226 0.512182
vt 0.375000 0.313491
vt 0.188491 0.505530
vt 0.375000 0.337196
vt 0.212196 0.501400
vt 0.762848 0.500000
vt 0.625000 0.362152
vt 0.875000 0.555836
vt 0.625000 0.194164
vt 0.787804 0.501400
vt 0.625000 0.337196
vt 0.811509 0.505530
vt 0.625000 0.313491
vt 0.832774 0.512182
vt 0.625000 0.292226
vt 0.850532 0.521023
vt 0.625000 0.228977
vt 0.863893 0.531610
vt 0.625000 0.218390
vt 0.872188 0.543412
vt 0.625000 0.206588
vt 0.375000 0.694164
vt 0.375000 0.862152
vt 0.262848 0.750000
vt 0.375000 0.706588
vt 0.372188 0.706588
vt 0.375000 0.718390
vt 0.363893 0.718390
vt 0.375000 0.728977
vt 0.350532 0.728977
vt 0.375000 0.792226
vt 0.332774 0.737818
vt 0.375000 0.813491
vt 0.311509 0.744470
vt 0.375000 0.837196
vt 0.287804 0.748600
vt 0.737152 0.750000
vt 0.625000 0.862152
vt 0.625000 0.694164
vt 0.712196 0.748600
vt 0.625000 0.837196
vt 0.688491 0.744470
vt 0.625000 0.813491
vt 0.667226 0.737818
vt 0.625000 0.792226
vt 0.649468 0.728977
vt 0.625000 0.728977
vt 0.636107 0.718390
vt 0.625000 0.718390
vt 0.627812 0.706588
vt 0.625000 0.706588
vt 0.375000 0.387848
vt 0.262848 0.500000
vt 0.375000 0.555836
vt 0.375000 0.412804
vt 0.287804 0.501400
vt 0.375000 0.436509
vt 0.311509 0.505530
vt 0.375000 0.457774
vt 0.332774 0.512182
vt 0.375000 0.521023
vt 0.350532 0.521023
vt 0.375000 0.531610
vt 0.363893 0.531610
vt 0.375000 0.543412
vt 0.372188 0.543412
vt 0.625000 0.555836
vt 0.737152 0.500000
vt 0.625000 0.387848
vt 0.627812 0.543411
vt 0.625000 0.543411
vt 0.636107 0.531610
vt 0.625000 0.531610
vt 0.649468 0.521023
vt 0.625000 0.521023
vt 0.667226 0.512182
vt 0.625000 0.457774
vt 0.688491 0.505530
vt 0.625000 0.436509
vt 0.712196 0.501400
vt 0.625000 0.412804
s 0
f 154/298/1 161/313/1 130/251/1 121/231/1
f 170/329/2 177/342/2 162/314/2 153/297/2
f 177/342/3 179/345/3 180/347/3 181/349/3 182/351/3 183/353/3 184/355/3 178/343/3 145/281/3 147/285/3 148/287/3 149/289/3 150/291/3 151/293/3 152/295/3 146/283/3 129/248/3 131/252/3 132/254/3 133/256/3 134/258/3 135/261/3 136/263/3 130/250/3 161/312/3 163/315/3 164/317/3 165/319/3 166/321/3 167/323/3 168/325/3 162/314/3
f 122/233/4 129/249/4 146/284/4 137/265/4
f 138/267/5 145/282/5 178/344/5 169/327/5
f 14/28/1 16/33/1 5/11/1 1/1/1
f 20/39/2 22/42/2 17/34/2 13/27/2
f 31/61/6 33/65/6 32/63/6 43/83/6 45/86/6 44/85/6 37/73/6 39/76/6 38/74/6 25/47/6 27/51/6 26/49/6
f 22/42/3 24/45/3 23/43/3 10/21/3 12/25/3 11/23/3 4/8/3 6/12/3 5/10/3 16/32/3 18/35/3 17/34/3
f 2/3/4 4/9/4 11/24/4 7/15/4
f 8/17/5 10/22/5 23/44/5 19/37/5
f 38/75/1 40/79/1 29/57/1 25/48/1
f 44/85/2 46/88/2 41/80/2 37/73/2
f 55/107/6 57/111/6 56/109/6 67/129/6 69/132/6 68/131/6 61/119/6 63/122/6 62/120/6 49/93/6 51/97/6 50/95/6
f 46/88/3 48/91/3 47/89/3 34/67/3 36/71/3 35/69/3 28/54/3 30/58/3 29/56/3 40/78/3 42/81/3 41/80/3
f 26/50/4 28/55/4 35/70/4 31/62/4
f 32/64/5 34/68/5 47/90/5 43/84/5
f 62/121/1 64/125/1 53/103/1 49/94/1
f 68/131/2 70/134/2 65/126/2 61/119/2
f 79/153/6 81/157/6 80/155/6 91/175/6 93/178/6 92/177/6 85/165/6 87/168/6 86/166/6 73/139/6 75/143/6 74/141/6
f 70/134/3 72/137/3 71/135/3 58/113/3 60/117/3 59/115/3 52/100/3 54/104/3 53/102/3 64/124/3 66/127/3 65/126/3
f 50/96/4 52/101/4 59/116/4 55/108/4
f 56/110/5 58/114/5 71/136/5 67/130/5
f 86/167/1 88/171/1 77/149/1 73/140/1
f 92/177/2 94/180/2 89/172/2 85/165/2
f 103/199/6 105/203/6 104/201/6 115/221/6 117/224/6 116/223/6 109/211/6 111/214/6 110/212/6 97/185/6 99/189/6 98/187/6
f 94/180/3 96/183/3 95/181/3 82/159/3 84/163/3 83/161/3 76/146/3 78/150/3 77/148/3 88/170/3 90/173/3 89/172/3
f 74/142/4 76/147/4 83/162/4 79/154/4
f 80/156/5 82/160/5 95/182/5 91/176/5
f 110/213/1 112/217/1 101/195/1 97/186/1
f 116/223/2 118/226/2 113/218/2 109/211/2
f 118/226/3 120/229/3 119/227/3 106/205/3 108/209/3 107/207/3 100/192/3 102/196/3 101/194/3 112/216/3 114/219/3 113/218/3
f 98/188/4 100/193/4 107/208/4 103/200/4
f 104/202/5 106/206/5 119/228/5 115/222/5
f 1/1/7 5/11/7 6/13/7 3/5/7
f 3/6/8 6/14/8 4/9/8 2/3/8
f 10/22/9 8/17/9 9/19/9 12/26/9
f 12/26/10 9/19/10 7/15/10 11/24/10
f 22/42/11 20/39/11 21/40/11 24/46/11
f 24/46/12 21/40/12 19/37/12 23/44/12
f 16/33/13 14/28/13 15/30/13 18/36/13
f 18/36/14 15/30/14 13/27/14 17/34/14
f 25/48/7 29/57/7 30/59/7 27/52/7
f 27/53/8 30/60/8 28/55/8 26/50/8
f 34/68/9 32/64/9 33/66/9 36/72/9
f 36/72/10 33/66/10 31/62/10 35/70/10
f 46/88/11 44/85/11 45/87/11 48/92/11
f 48/92/12 45/87/12 43/84/12 47/90/12
f 40/79/13 38/75/13 39/77/13 42/82/13
f 42/82/14 39/77/14 37/73/14 41/80/14
f 49/94/7 53/103/7 54/105/7 51/98/7
f 51/99/8 54/106/8 52/101/8 50/96/8
f 58/114/9 56/110/9 57/112/9 60/118/9
f 60/118/10 57/112/10 55/108/10 59/116/10
f 70/134/11 68/131/11 69/133/11 72/138/11
f 72/138/12 69/133/12 67/130/12 71/136/12
f 64/125/13 62/121/13 63/123/13 66/128/13
f 66/128/14 63/123/14 61/119/14 65/126/14
f 73/140/7 77/149/7 78/151/7 75/144/7
f 75/145/8 78/152/8 76/147/8 74/142/8
f 82/160/9 80/156/9 81/158/9 84/164/9
f 84/164/10 81/158/10 79/154/10 83/162/10
f 94/180/11 92/177/11 93/179/11 96/184/11
f 96/184/12 93/179/12 91/176/12 95/182/12
f 88/171/13 86/167/13 87/169/13 90/174/13
f 90/174/14 87/169/14 85/165/14 89/172/14
f 97/186/7 101/195/7 102/197/7 99/190/7
f 99/191/8 102/198/8 100/193/8 98/188/8
f 106/206/9 104/202/9 105/204/9 108/210/9
f 108/210/10 105/204/10 103/200/10 107/208/10
f 118/226/11 116/223/11 117/225/11 120/230/11
f 120/230/12 117/225/12 115/222/12 119/228/12
f 112/217/13 110/213/13 111/215/13 114/220/13
f 114/220/14 111/215/14 109/211/14 113/218/14
f 7/16/6 9/20/6 8/18/6 19/38/6 21/41/6 20/39/6 13/27/6 15/31/6 14/29/6 1/2/6 3/7/6 2/4/6
f 121/231/15 130/251/15 136/264/15 123/235/15
f 123/235/16 136/264/16 135/262/16 124/237/16
f 124/237/17 135/262/17 134/259/17 125/239/17
f 125/240/18 134/260/18 133/257/18 126/242/18
f 126/242/19 133/257/19 132/255/19 127/244/19
f 127/244/20 132/255/20 131/253/20 128/246/20
f 128/246/21 131/253/21 129/249/21 122/233/21
f 145/282/22 138/267/22 144/279/22 147/286/22
f 147/286/23 144/279/23 143/277/23 148/288/23
f 148/288/24 143/277/24 142/275/24 149/290/24
f 149/290/25 142/275/25 141/273/25 150/292/25
f 150/292/26 141/273/26 140/271/26 151/294/26
f 151/294/27 140/271/27 139/269/27 152/296/27
f 152/296/28 139/269/28 137/265/28 146/284/28
f 177/342/29 170/329/29 176/340/29 179/346/29
f 179/346/30 176/340/30 175/338/30 180/348/30
f 180/348/31 175/338/31 174/336/31 181/350/31
f 181/350/32 174/336/32 173/334/32 182/352/32
f 182/352/33 173/334/33 172/332/33 183/354/33
f 183/354/34 172/332/34 171/330/34 184/356/34
f 184/356/35 171/330/35 169/327/35 178/344/35
f 161/313/36 154/298/36 160/310/36 163/316/36
f 163/316/37 160/310/37 159/308/37 164/318/37
f 164/318/38 159/308/38 158/306/38 165/320/38
f 165/320/39 158/306/39 157/304/39 166/322/39
f 166/322/40 157/304/40 156/302/40 167/324/40
f 167/324/41 156/302/41 155/300/41 168/326/41
f 168/326/42 155/300/42 153/297/42 162/314/42
f 137/266/6 139/270/6 140/272/6 141/274/6 142/276/6 143/278/6 144/280/6 138/268/6 169/328/6 171/331/6 172/333/6 173/335/6 174/337/6 175/339/6 176/341/6 170/329/6 153/297/6 155/301/6 156/303/6 157/305/6 158/307/6 159/309/6 160/311/6 154/299/6 121/232/6 123/236/6 124/238/6 125/241/6 126/243/6 127/245/6 128/247/6 122/234/6
