# Blender 3.4.1
# www.blender.org
mtllib table_rec220.mtl
o Куб
v -0.435005 0.620202 1.000000
v -0.450005 0.620202 0.985000
v -0.445612 0.620202 0.995607
v -0.450005 0.670175 0.985000
v -0.435005 0.670175 1.000000
v -0.445612 0.670175 0.995607
v -0.450005 0.620202 -0.985000
v -0.435005 0.620202 -1.000000
v -0.445612 0.620202 -0.995607
v -0.435005 0.670175 -1.000000
v -0.450005 0.670175 -0.985000
v -0.445612 0.670175 -0.995607
v 0.450005 0.620202 0.985000
v 0.435005 0.620202 1.000000
v 0.445612 0.620202 0.995607
v 0.435005 0.670175 1.000000
v 0.450005 0.670175 0.985000
v 0.445612 0.670175 0.995607
v 0.435005 0.620202 -1.000000
v 0.450005 0.620202 -0.985000
v 0.445612 0.620202 -0.995607
v 0.450005 0.670175 -0.985000
v 0.435005 0.670175 -1.000000
v 0.445612 0.670175 -0.995607
v -0.435003 0.000239 0.999999
v -0.450003 0.000239 0.984999
v -0.445610 0.000239 0.995606
v -0.450003 0.620204 0.984999
v -0.435003 0.620204 0.999999
v -0.445610 0.620204 0.995606
v -0.450003 0.000239 0.914999
v -0.435003 0.000239 0.899999
v -0.445610 0.000239 0.904393
v -0.435003 0.620204 0.899999
v -0.450003 0.620204 0.914999
v -0.445610 0.620204 0.904393
v -0.350003 0.000239 0.984999
v -0.365003 0.000239 0.999999
v -0.354396 0.000239 0.995606
v -0.365003 0.620204 0.999999
v -0.350003 0.620204 0.984999
v -0.354396 0.620204 0.995606
v -0.365003 0.000239 0.899999
v -0.350003 0.000239 0.914999
v -0.354396 0.000239 0.904393
v -0.350003 0.620204 0.914999
v -0.365003 0.620204 0.899999
v -0.354396 0.620204 0.904393
v -0.435003 0.000352 -0.899948
v -0.450003 0.000352 -0.914948
v -0.445610 0.000352 -0.904342
v -0.450003 0.620202 -0.914948
v -0.435003 0.620202 -0.899948
v -0.445610 0.620202 -0.904342
v -0.450003 0.000352 -0.984948
v -0.435003 0.000352 -0.999948
v -0.445610 0.000352 -0.995555
v -0.435003 0.620202 -0.999948
v -0.450003 0.620202 -0.984948
v -0.445610 0.620202 -0.995555
v -0.350003 0.000352 -0.914948
v -0.365003 0.000352 -0.899948
v -0.354397 0.000352 -0.904342
v -0.365003 0.620202 -0.899948
v -0.350003 0.620202 -0.914948
v -0.354397 0.620202 -0.904342
v -0.365003 0.000352 -0.999948
v -0.350003 0.000352 -0.984948
v -0.354397 0.000352 -0.995555
v -0.350003 0.620202 -0.984948
v -0.365003 0.620202 -0.999948
v -0.354397 0.620202 -0.995555
v 0.365005 -0.000038 0.999998
v 0.350005 -0.000038 0.984998
v 0.354398 -0.000038 0.995605
v 0.350005 0.620207 0.984998
v 0.365005 0.620207 0.999998
v 0.354398 0.620207 0.995605
v 0.350005 -0.000038 0.914998
v 0.365005 -0.000038 0.899998
v 0.354398 -0.000038 0.904392
v 0.365005 0.620207 0.899998
v 0.350005 0.620207 0.914998
v 0.354398 0.620207 0.904392
v 0.450005 -0.000038 0.984998
v 0.435005 -0.000038 0.999998
v 0.445611 -0.000038 0.995605
v 0.435005 0.620207 0.999998
v 0.450005 0.620207 0.984998
v 0.445611 0.620207 0.995605
v 0.435005 -0.000038 0.899998
v 0.450005 -0.000038 0.914998
v 0.445611 -0.000038 0.904392
v 0.450005 0.620207 0.914998
v 0.435005 0.620207 0.899998
v 0.445611 0.620207 0.904392
v 0.365005 0.000421 -0.899948
v 0.350005 0.000421 -0.914948
v 0.354398 0.000421 -0.904342
v 0.350005 0.620206 -0.914948
v 0.365005 0.620206 -0.899948
v 0.354398 0.620206 -0.904342
v 0.350005 0.000421 -0.984948
v 0.365005 0.000421 -0.999948
v 0.354398 0.000421 -0.995555
v 0.365005 0.620206 -0.999948
v 0.350005 0.620206 -0.984948
v 0.354398 0.620206 -0.995555
v 0.450005 0.000421 -0.914948
v 0.435005 0.000421 -0.899948
v 0.445612 0.000421 -0.904342
v 0.435005 0.620206 -0.899948
v 0.450005 0.620206 -0.914948
v 0.445612 0.620206 -0.904342
v 0.435005 0.000421 -0.999948
v 0.450005 0.000421 -0.984948
v 0.445612 0.000421 -0.995555
v 0.450005 0.620206 -0.984948
v 0.435005 0.620206 -0.999948
v 0.445612 0.620206 -0.995555
v -0.517649 0.669387 1.100000
v -0.547649 0.669387 1.070000
v -0.538862 0.669387 1.091213
v -0.547649 0.739390 1.070000
v -0.517649 0.739390 1.100000
v -0.538862 0.739390 1.091213
v -0.547649 0.669387 -1.070000
v -0.517649 0.669387 -1.100000
v -0.538862 0.669387 -1.091213
v -0.517649 0.739390 -1.100000
v -0.547649 0.739390 -1.070000
v -0.538862 0.739390 -1.091213
v 0.547649 0.669387 1.070000
v 0.517649 0.669387 1.100000
v 0.538862 0.669387 1.091213
v 0.517649 0.739390 1.100000
v 0.547649 0.739390 1.070000
v 0.538862 0.739390 1.091213
v 0.517649 0.669387 -1.100000
v 0.547649 0.669387 -1.070000
v 0.538862 0.669387 -1.091213
v 0.547649 0.739390 -1.070000
v 0.517649 0.739390 -1.100000
v 0.538862 0.739390 -1.091213
vn -0.0000 -0.0000 1.0000
vn 1.0000 -0.0000 -0.0000
vn -0.0000 1.0000 -0.0000
vn -1.0000 -0.0000 -0.0000
vn -0.0000 -0.0000 -1.0000
vn -0.0000 -1.0000 -0.0000
vn -0.3827 -0.0000 0.9239
vn -0.9239 -0.0000 0.3827
vn -0.3827 -0.0000 -0.9239
vn -0.9239 -0.0000 -0.3827
vn 0.9239 -0.0000 -0.3827
vn 0.3827 -0.0000 -0.9239
vn 0.3827 -0.0000 0.9239
vn 0.9239 -0.0000 0.3827
vt 0.375000 0.995833
vt 0.129167 0.750000
vt 0.375000 0.001875
vt 0.125000 0.748125
vt 0.375000 1.000000
vt 0.375000 0.000000
vt 0.126220 0.749451
vt 0.875000 0.748125
vt 0.625000 0.001875
vt 0.870833 0.750000
vt 0.625000 0.995833
vt 0.873780 0.749451
vt 0.625000 1.000000
vt 0.625000 0.000000
vt 0.375000 0.248125
vt 0.125000 0.501875
vt 0.375000 0.254167
vt 0.129167 0.500000
vt 0.375000 0.250000
vt 0.126220 0.500549
vt 0.870833 0.500000
vt 0.625000 0.254167
vt 0.875000 0.501875
vt 0.625000 0.248125
vt 0.873780 0.500549
vt 0.625000 0.250000
vt 0.375000 0.748125
vt 0.375000 0.754167
vt 0.370833 0.750000
vt 0.375000 0.750000
vt 0.373780 0.749451
vt 0.629167 0.750000
vt 0.625000 0.754167
vt 0.625000 0.748125
vt 0.626220 0.749451
vt 0.625000 0.750000
vt 0.375000 0.495833
vt 0.370833 0.500000
vt 0.375000 0.501875
vt 0.375000 0.500000
vt 0.373780 0.500549
vt 0.625000 0.501875
vt 0.629167 0.500000
vt 0.625000 0.495833
vt 0.626220 0.500549
vt 0.625000 0.500000
vt 0.162500 0.750000
vt 0.375000 0.962500
vt 0.125000 0.712500
vt 0.375000 0.037500
vt 0.135983 0.739016
vt 0.375000 1.000000
vt 0.375000 0.000000
vt 0.875000 0.712500
vt 0.625000 0.037500
vt 0.837500 0.750000
vt 0.625000 0.962500
vt 0.864016 0.739016
vt 0.625000 1.000000
vt 0.625000 0.000000
vt 0.125000 0.537500
vt 0.375000 0.212500
vt 0.162500 0.500000
vt 0.375000 0.287500
vt 0.135983 0.510983
vt 0.375000 0.250000
vt 0.837500 0.500000
vt 0.625000 0.287500
vt 0.875000 0.537500
vt 0.625000 0.212500
vt 0.864016 0.510983
vt 0.625000 0.250000
vt 0.375000 0.712500
vt 0.337500 0.750000
vt 0.375000 0.787500
vt 0.364017 0.739016
vt 0.375000 0.750000
vt 0.662500 0.750000
vt 0.625000 0.787500
vt 0.625000 0.712500
vt 0.635984 0.739016
vt 0.625000 0.750000
vt 0.337500 0.500000
vt 0.375000 0.462500
vt 0.375000 0.537500
vt 0.364016 0.510983
vt 0.375000 0.500000
vt 0.625000 0.537500
vt 0.662500 0.500000
vt 0.625000 0.462500
vt 0.635983 0.510983
vt 0.625000 0.500000
vt 0.162500 0.750000
vt 0.375000 0.962500
vt 0.125000 0.712500
vt 0.375000 0.037500
vt 0.135983 0.739016
vt 0.375000 1.000000
vt 0.375000 0.000000
vt 0.875000 0.712500
vt 0.625000 0.037500
vt 0.837500 0.750000
vt 0.625000 0.962500
vt 0.864016 0.739016
vt 0.625000 1.000000
vt 0.625000 0.000000
vt 0.125000 0.537500
vt 0.375000 0.212500
vt 0.162500 0.500000
vt 0.375000 0.287500
vt 0.135983 0.510983
vt 0.375000 0.250000
vt 0.837500 0.500000
vt 0.625000 0.287500
vt 0.875000 0.537500
vt 0.625000 0.212500
vt 0.864016 0.510983
vt 0.625000 0.250000
vt 0.375000 0.712500
vt 0.337500 0.750000
vt 0.375000 0.787500
vt 0.364017 0.739016
vt 0.375000 0.750000
vt 0.662500 0.750000
vt 0.625000 0.787500
vt 0.625000 0.712500
vt 0.635983 0.739016
vt 0.625000 0.750000
vt 0.337500 0.500000
vt 0.375000 0.462500
vt 0.375000 0.537500
vt 0.364016 0.510983
vt 0.375000 0.500000
vt 0.625000 0.537500
vt 0.662500 0.500000
vt 0.625000 0.462500
vt 0.635983 0.510983
vt 0.625000 0.500000
vt 0.162500 0.750000
vt 0.375000 0.962500
vt 0.125000 0.712500
vt 0.375000 0.037500
vt 0.135983 0.739016
vt 0.375000 1.000000
vt 0.375000 0.000000
vt 0.875000 0.712500
vt 0.625000 0.037500
vt 0.837500 0.750000
vt 0.625000 0.962500
vt 0.864016 0.739016
vt 0.625000 1.000000
vt 0.625000 0.000000
vt 0.125000 0.537500
vt 0.375000 0.212500
vt 0.162500 0.500000
vt 0.375000 0.287500
vt 0.135983 0.510983
vt 0.375000 0.250000
vt 0.837500 0.500000
vt 0.625000 0.287500
vt 0.875000 0.537500
vt 0.625000 0.212500
vt 0.864016 0.510983
vt 0.625000 0.250000
vt 0.375000 0.712500
vt 0.337500 0.750000
vt 0.375000 0.787500
vt 0.364017 0.739016
vt 0.375000 0.750000
vt 0.662500 0.750000
vt 0.625000 0.787500
vt 0.625000 0.712500
vt 0.635984 0.739016
vt 0.625000 0.750000
vt 0.337500 0.500000
vt 0.375000 0.462500
vt 0.375000 0.537500
vt 0.364016 0.510983
vt 0.375000 0.500000
vt 0.625000 0.537500
vt 0.662500 0.500000
vt 0.625000 0.462500
vt 0.635983 0.510983
vt 0.625000 0.500000
vt 0.162500 0.750000
vt 0.375000 0.962500
vt 0.125000 0.712500
vt 0.375000 0.037500
vt 0.135983 0.739016
vt 0.375000 1.000000
vt 0.375000 0.000000
vt 0.875000 0.712500
vt 0.625000 0.037500
vt 0.837500 0.750000
vt 0.625000 0.962500
vt 0.864016 0.739016
vt 0.625000 1.000000
vt 0.625000 0.000000
vt 0.125000 0.537500
vt 0.375000 0.212500
vt 0.162500 0.500000
vt 0.375000 0.287500
vt 0.135983 0.510983
vt 0.375000 0.250000
vt 0.837500 0.500000
vt 0.625000 0.287500
vt 0.875000 0.537500
vt 0.625000 0.212500
vt 0.864016 0.510983
vt 0.625000 0.250000
vt 0.375000 0.712500
vt 0.337500 0.750000
vt 0.375000 0.787500
vt 0.364017 0.739016
vt 0.375000 0.750000
vt 0.662500 0.750000
vt 0.625000 0.787500
vt 0.625000 0.712500
vt 0.635984 0.739016
vt 0.625000 0.750000
vt 0.337500 0.500000
vt 0.375000 0.462500
vt 0.375000 0.537500
vt 0.364016 0.510983
vt 0.375000 0.500000
vt 0.625000 0.537500
vt 0.662500 0.500000
vt 0.625000 0.462500
vt 0.635983 0.510983
vt 0.625000 0.500000
vt 0.375000 0.993153
vt 0.131847 0.750000
vt 0.375000 0.003409
vt 0.125000 0.746591
vt 0.375000 1.000000
vt 0.375000 0.000000
vt 0.127006 0.749002
vt 0.875000 0.746591
vt 0.625000 0.003409
vt 0.868153 0.750000
vt 0.625000 0.993153
vt 0.872994 0.749002
vt 0.625000 1.000000
vt 0.625000 0.000000
vt 0.375000 0.246591
vt 0.125000 0.503409
vt 0.375000 0.256847
vt 0.131847 0.500000
vt 0.375000 0.250000
vt 0.127006 0.500999
vt 0.868153 0.500000
vt 0.625000 0.256847
vt 0.875000 0.503409
vt 0.625000 0.246591
vt 0.872994 0.500999
vt 0.625000 0.250000
vt 0.375000 0.746591
vt 0.375000 0.756847
vt 0.368153 0.750000
vt 0.375000 0.750000
vt 0.372994 0.749002
vt 0.631847 0.750000
vt 0.625000 0.756847
vt 0.625000 0.746591
vt 0.627006 0.749002
vt 0.625000 0.750000
vt 0.375000 0.493153
vt 0.368153 0.500000
vt 0.375000 0.503409
vt 0.375000 0.500000
vt 0.372994 0.500999
vt 0.625000 0.503409
vt 0.631848 0.500000
vt 0.625000 0.493153
vt 0.627006 0.500999
vt 0.625000 0.500000
s 0
f 134/258/1 136/263/1 125/241/1 121/231/1
f 140/269/2 142/272/2 137/264/2 133/257/2
f 142/272/3 144/275/3 143/273/3 130/251/3 132/255/3 131/253/3 124/238/3 126/242/3 125/240/3 136/262/3 138/265/3 137/264/3
f 122/233/4 124/239/4 131/254/4 127/245/4
f 128/247/5 130/252/5 143/274/5 139/267/5
f 14/28/1 16/33/1 5/11/1 1/1/1
f 20/39/2 22/42/2 17/34/2 13/27/2
f 31/61/6 33/65/6 32/63/6 43/83/6 45/86/6 44/85/6 37/73/6 39/76/6 38/74/6 25/47/6 27/51/6 26/49/6
f 22/42/3 24/45/3 23/43/3 10/21/3 12/25/3 11/23/3 4/8/3 6/12/3 5/10/3 16/32/3 18/35/3 17/34/3
f 2/3/4 4/9/4 11/24/4 7/15/4
f 8/17/5 10/22/5 23/44/5 19/37/5
f 38/75/1 40/79/1 29/57/1 25/48/1
f 44/85/2 46/88/2 41/80/2 37/73/2
f 55/107/6 57/111/6 56/109/6 67/129/6 69/132/6 68/131/6 61/119/6 63/122/6 62/120/6 49/93/6 51/97/6 50/95/6
f 46/88/3 48/91/3 47/89/3 34/67/3 36/71/3 35/69/3 28/54/3 30/58/3 29/56/3 40/78/3 42/81/3 41/80/3
f 26/50/4 28/55/4 35/70/4 31/62/4
f 32/64/5 34/68/5 47/90/5 43/84/5
f 62/121/1 64/125/1 53/103/1 49/94/1
f 68/131/2 70/134/2 65/126/2 61/119/2
f 79/153/6 81/157/6 80/155/6 91/175/6 93/178/6 92/177/6 85/165/6 87/168/6 86/166/6 73/139/6 75/143/6 74/141/6
f 70/134/3 72/137/3 71/135/3 58/113/3 60/117/3 59/115/3 52/100/3 54/104/3 53/102/3 64/124/3 66/127/3 65/126/3
f 50/96/4 52/101/4 59/116/4 55/108/4
f 56/110/5 58/114/5 71/136/5 67/130/5
f 86/167/1 88/171/1 77/149/1 73/140/1
f 92/177/2 94/180/2 89/172/2 85/165/2
f 103/199/6 105/203/6 104/201/6 115/221/6 117/224/6 116/223/6 109/211/6 111/214/6 110/212/6 97/185/6 99/189/6 98/187/6
f 94/180/3 96/183/3 95/181/3 82/159/3 84/163/3 83/161/3 76/146/3 78/150/3 77/148/3 88/170/3 90/173/3 89/172/3
f 74/142/4 76/147/4 83/162/4 79/154/4
f 80/156/5 82/160/5 95/182/5 91/176/5
f 110/213/1 112/217/1 101/195/1 97/186/1
f 116/223/2 118/226/2 113/218/2 109/211/2
f 118/226/3 120/229/3 119/227/3 106/205/3 108/209/3 107/207/3 100/192/3 102/196/3 101/194/3 112/216/3 114/219/3 113/218/3
f 98/188/4 100/193/4 107/208/4 103/200/4
f 104/202/5 106/206/5 119/228/5 115/222/5
f 1/1/7 5/11/7 6/13/7 3/5/7
f 3/6/8 6/14/8 4/9/8 2/3/8
f 10/22/9 8/17/9 9/19/9 12/26/9
f 12/26/10 9/19/10 7/15/10 11/24/10
f 22/42/11 20/39/11 21/40/11 24/46/11
f 24/46/12 21/40/12 19/37/12 23/44/12
f 16/33/13 14/28/13 15/30/13 18/36/13
f 18/36/14 15/30/14 13/27/14 17/34/14
f 25/48/7 29/57/7 30/59/7 27/52/7
f 27/53/8 30/60/8 28/55/8 26/50/8
f 34/68/9 32/64/9 33/66/9 36/72/9
f 36/72/10 33/66/10 31/62/10 35/70/10
f 46/88/11 44/85/11 45/87/11 48/92/11
f 48/92/12 45/87/12 43/84/12 47/90/12
f 40/79/13 38/75/13 39/77/13 42/82/13
f 42/82/14 39/77/14 37/73/14 41/80/14
f 49/94/7 53/103/7 54/105/7 51/98/7
f 51/99/8 54/106/8 52/101/8 50/96/8
f 58/114/9 56/110/9 57/112/9 60/118/9
f 60/118/10 57/112/10 55/108/10 59/116/10
f 70/134/11 68/131/11 69/133/11 72/138/11
f 72/138/12 69/133/12 67/130/12 71/136/12
f 64/125/13 62/121/13 63/123/13 66/128/13
f 66/128/14 63/123/14 61/119/14 65/126/14
f 73/140/7 77/149/7 78/151/7 75/144/7
f 75/145/8 78/152/8 76/147/8 74/142/8
f 82/160/9 80/156/9 81/158/9 84/164/9
f 84/164/10 81/158/10 79/154/10 83/162/10
f 94/180/11 92/177/11 93/179/11 96/184/11
f 96/184/12 93/179/12 91/176/12 95/182/12
f 88/171/13 86/167/13 87/169/13 90/174/13
f 90/174/14 87/169/14 85/165/14 89/172/14
f 97/186/7 101/195/7 102/197/7 99/190/7
f 99/191/8 102/198/8 100/193/8 98/188/8
f 106/206/9 104/202/9 105/204/9 108/210/9
f 108/210/10 105/204/10 103/200/10 107/208/10
f 118/226/11 116/223/11 117/225/11 120/230/11
f 120/230/12 117/225/12 115/222/12 119/228/12
f 112/217/13 110/213/13 111/215/13 114/220/13
f 114/220/14 111/215/14 109/211/14 113/218/14
f 7/16/6 9/20/6 8/18/6 19/38/6 21/41/6 20/39/6 13/27/6 15/31/6 14/29/6 1/2/6 3/7/6 2/4/6
f 121/231/7 125/241/7 126/243/7 123/235/7
f 123/236/8 126/244/8 124/239/8 122/233/8
f 130/252/9 128/247/9 129/249/9 132/256/9
f 132/256/10 129/249/10 127/245/10 131/254/10
f 142/272/11 140/269/11 141/270/11 144/276/11
f 144/276/12 141/270/12 139/267/12 143/274/12
f 136/263/13 134/258/13 135/260/13 138/266/13
f 138/266/14 135/260/14 133/257/14 137/264/14
f 127/246/6 129/250/6 128/248/6 139/268/6 141/271/6 140/269/6 133/257/6 135/261/6 134/259/6 121/232/6 123/237/6 122/234/6
