# Blender 3.4.1
# www.blender.org
mtllib table_circle_100_5.mtl
g Сфера_Меш
v -0.214012 0.691661 -0.219737
v -0.214012 0.691661 0.216557
v 0.219836 0.691661 -0.219737
v 0.219836 0.691661 0.216557
v -0.212765 0.741611 0.215309
v -0.212765 0.741611 -0.218490
v 0.218588 0.741611 -0.218490
v 0.218588 0.741611 0.215309
v 0.000095 0.731393 0.500000
v -0.500000 0.731393 -0.000095
v -0.086746 0.731393 0.492402
v -0.170948 0.731393 0.469841
v -0.249953 0.731393 0.433000
v -0.321360 0.731393 0.383000
v -0.383000 0.731393 0.321360
v -0.433000 0.731393 0.249953
v -0.469841 0.731393 0.170948
v -0.492402 0.731393 0.086746
v -0.500000 0.802387 -0.000095
v 0.000095 0.802387 0.500000
v -0.492402 0.802387 0.086746
v -0.469841 0.802387 0.170948
v -0.433000 0.802387 0.249953
v -0.383000 0.802387 0.321360
v -0.321360 0.802387 0.383000
v -0.249953 0.802387 0.433000
v -0.170948 0.802387 0.469841
v -0.086746 0.802387 0.492402
v -0.500000 0.731393 0.000095
v 0.000095 0.731393 -0.500000
v -0.492402 0.731393 -0.086746
v -0.469841 0.731393 -0.170948
v -0.433000 0.731393 -0.249953
v -0.383000 0.731393 -0.321360
v -0.321360 0.731393 -0.383000
v -0.249953 0.731393 -0.433000
v -0.170948 0.731393 -0.469841
v -0.086746 0.731393 -0.492402
v 0.000095 0.802387 -0.500000
v -0.500000 0.802387 0.000095
v -0.086746 0.802387 -0.492402
v -0.170948 0.802387 -0.469841
v -0.249953 0.802387 -0.433000
v -0.321360 0.802387 -0.383000
v -0.383000 0.802387 -0.321360
v -0.433000 0.802387 -0.249953
v -0.469841 0.802387 -0.170948
v -0.492402 0.802387 -0.086746
v 0.500000 0.731393 -0.000095
v -0.000095 0.731393 0.500000
v 0.492402 0.731393 0.086746
v 0.469841 0.731393 0.170948
v 0.433000 0.731393 0.249953
v 0.383000 0.731393 0.321360
v 0.321360 0.731393 0.383000
v 0.249953 0.731393 0.433000
v 0.170948 0.731393 0.469841
v 0.086746 0.731393 0.492402
v -0.000095 0.802387 0.500000
v 0.500000 0.802387 -0.000095
v 0.086746 0.802387 0.492402
v 0.170948 0.802387 0.469841
v 0.249953 0.802387 0.433000
v 0.321360 0.802387 0.383000
v 0.383000 0.802387 0.321360
v 0.433000 0.802387 0.249953
v 0.469841 0.802387 0.170948
v 0.492402 0.802387 0.086746
v -0.000095 0.731393 -0.500000
v 0.500000 0.731393 0.000095
v 0.086746 0.731393 -0.492402
v 0.170948 0.731393 -0.469841
v 0.249953 0.731393 -0.433000
v 0.321360 0.731393 -0.383000
v 0.383000 0.731393 -0.321360
v 0.433000 0.731393 -0.249953
v 0.469841 0.731393 -0.170948
v 0.492402 0.731393 -0.086746
v 0.500000 0.802387 0.000095
v -0.000095 0.802387 -0.500000
v 0.492402 0.802387 -0.086746
v 0.469841 0.802387 -0.170948
v 0.433000 0.802387 -0.249953
v 0.383000 0.802387 -0.321360
v 0.321360 0.802387 -0.383000
v 0.249953 0.802387 -0.433000
v 0.170948 0.802387 -0.469841
v 0.086746 0.802387 -0.492402
v -0.281117 0.691661 0.312030
v -0.309486 0.691661 0.283661
v -0.289426 0.691661 0.291971
v -0.295301 0.691661 0.308230
v -0.305685 0.691661 0.297846
v -0.309486 0.741611 0.283661
v -0.281117 0.741611 0.312030
v -0.289426 0.741611 0.291971
v -0.305685 0.741611 0.297846
v -0.295301 0.741611 0.308230
v -0.309486 0.691661 -0.286842
v -0.281117 0.691661 -0.315211
v -0.289426 0.691661 -0.295151
v -0.305685 0.691661 -0.301026
v -0.295301 0.691661 -0.311410
v -0.281117 0.741611 -0.315211
v -0.309486 0.741611 -0.286842
v -0.289426 0.741611 -0.295151
v -0.295301 0.741611 -0.311410
v -0.305685 0.741611 -0.301026
v 0.315309 0.691661 0.283661
v 0.286940 0.691661 0.312030
v 0.295250 0.691661 0.291971
v 0.311509 0.691661 0.297846
v 0.301125 0.691661 0.308230
v 0.286940 0.741611 0.312030
v 0.315309 0.741611 0.283661
v 0.295250 0.741611 0.291971
v 0.301125 0.741611 0.308230
v 0.311509 0.741611 0.297846
v 0.286940 0.691661 -0.315211
v 0.315309 0.691661 -0.286842
v 0.295250 0.691661 -0.295151
v 0.301125 0.691661 -0.311410
v 0.311509 0.691661 -0.301026
v 0.315309 0.741611 -0.286842
v 0.286940 0.741611 -0.315211
v 0.295250 0.741611 -0.295151
v 0.311509 0.741611 -0.301026
v 0.301125 0.741611 -0.311410
v -0.334600 0.000731 0.351184
v -0.343943 0.000731 0.341836
v -0.339272 0.000731 0.349932
v -0.342692 0.000731 0.346510
v -0.295296 0.692242 0.287538
v -0.285953 0.692242 0.296887
v -0.294044 0.692242 0.292213
v -0.290624 0.692242 0.295635
v -0.343943 0.000731 0.280560
v -0.334600 0.000731 0.271211
v -0.342692 0.000731 0.275886
v -0.339272 0.000731 0.272464
v -0.285953 0.692242 0.216914
v -0.295296 0.692242 0.226263
v -0.290624 0.692242 0.218167
v -0.294044 0.692242 0.221589
v -0.263970 0.000731 0.341836
v -0.273313 0.000731 0.351184
v -0.265222 0.000731 0.346510
v -0.268642 0.000731 0.349932
v -0.224666 0.692242 0.296887
v -0.215323 0.692242 0.287538
v -0.219994 0.692242 0.295635
v -0.216575 0.692242 0.292213
v -0.273313 0.000731 0.271211
v -0.263970 0.000731 0.280560
v -0.268642 0.000731 0.272464
v -0.265222 0.000731 0.275886
v -0.215323 0.692242 0.226263
v -0.224666 0.692242 0.216914
v -0.216575 0.692242 0.221588
v -0.219994 0.692242 0.218167
v 0.276015 0.000433 0.353094
v 0.266674 0.000433 0.343744
v 0.271345 0.000433 0.351842
v 0.267926 0.000433 0.348419
v 0.220276 0.693011 0.287532
v 0.229616 0.693011 0.296883
v 0.221527 0.693011 0.292208
v 0.224946 0.693011 0.295630
v 0.266674 0.000433 0.282445
v 0.276015 0.000433 0.273094
v 0.267926 0.000433 0.277770
v 0.271345 0.000433 0.274347
v 0.229616 0.693011 0.216883
v 0.220276 0.693011 0.226234
v 0.224946 0.693011 0.218136
v 0.221527 0.693011 0.221558
v 0.346675 0.000433 0.343744
v 0.337334 0.000433 0.353094
v 0.345423 0.000433 0.348419
v 0.342004 0.000433 0.351842
v 0.290935 0.693011 0.296883
v 0.300276 0.693011 0.287532
v 0.295605 0.693011 0.295630
v 0.299024 0.693011 0.292208
v 0.337334 0.000433 0.273094
v 0.346675 0.000433 0.282445
v 0.342004 0.000433 0.274347
v 0.345423 0.000433 0.277770
v 0.300276 0.693011 0.226234
v 0.290935 0.693011 0.216883
v 0.299024 0.693011 0.221558
v 0.295605 0.693011 0.218136
v 0.276131 0.000368 -0.271204
v 0.266790 0.000368 -0.280549
v 0.271461 0.000368 -0.272456
v 0.268042 0.000368 -0.275876
v 0.220546 0.691968 -0.230292
v 0.229887 0.691968 -0.220948
v 0.221797 0.691968 -0.225620
v 0.225216 0.691968 -0.222199
v 0.266790 0.000368 -0.341859
v 0.276131 0.000368 -0.351204
v 0.268042 0.000368 -0.346532
v 0.271461 0.000368 -0.349952
v 0.229887 0.691968 -0.300948
v 0.220546 0.691968 -0.291603
v 0.225216 0.691968 -0.299696
v 0.221797 0.691968 -0.296275
v 0.346790 0.000368 -0.280549
v 0.337450 0.000368 -0.271204
v 0.345539 0.000368 -0.275876
v 0.342120 0.000368 -0.272456
v 0.291205 0.691968 -0.220948
v 0.300546 0.691968 -0.230292
v 0.295875 0.691968 -0.222199
v 0.299294 0.691968 -0.225620
v 0.337450 0.000368 -0.351204
v 0.346790 0.000368 -0.341859
v 0.342120 0.000368 -0.349952
v 0.345539 0.000368 -0.346532
v 0.300546 0.691968 -0.291603
v 0.291205 0.691968 -0.300948
v 0.299294 0.691968 -0.296275
v 0.295875 0.691968 -0.299696
v -0.334712 0.001196 -0.271134
v -0.344055 0.001196 -0.280479
v -0.339384 0.001196 -0.272386
v -0.342804 0.001196 -0.275806
v -0.295175 0.692063 -0.230132
v -0.285831 0.692063 -0.220788
v -0.293923 0.692063 -0.225460
v -0.290503 0.692063 -0.222040
v -0.344055 0.001196 -0.341789
v -0.334712 0.001196 -0.351134
v -0.342804 0.001196 -0.346462
v -0.339384 0.001196 -0.349882
v -0.285831 0.692063 -0.300788
v -0.295175 0.692063 -0.291443
v -0.290503 0.692063 -0.299536
v -0.293923 0.692063 -0.296115
v -0.264055 0.001196 -0.280479
v -0.273398 0.001196 -0.271134
v -0.265307 0.001196 -0.275806
v -0.268727 0.001196 -0.272386
v -0.224518 0.692063 -0.220788
v -0.215175 0.692063 -0.230132
v -0.219846 0.692063 -0.222040
v -0.216426 0.692063 -0.225460
v -0.273398 0.001196 -0.351134
v -0.264055 0.001196 -0.341789
v -0.268727 0.001196 -0.349882
v -0.265307 0.001196 -0.346462
v -0.215175 0.692063 -0.291443
v -0.224518 0.692063 -0.300788
v -0.216426 0.692063 -0.296115
v -0.219846 0.692063 -0.299536
vn -0.0000 -0.0000 1.0000
vn -0.0000 -1.0000 -0.0000
vn -0.0000 1.0000 -0.0000
vn 0.9997 -0.0250 -0.0000
vn -1.0000 -0.0000 -0.0000
vn 1.0000 -0.0000 -0.0000
vn -0.0000 -0.0000 -1.0000
vn -0.0000 -0.0250 -0.9997
vn -0.9997 -0.0250 -0.0000
vn -0.0000 -0.0250 0.9997
vn -0.0000 0.0783 0.9969
vn 0.9975 -0.0702 -0.0000
vn -0.9975 0.0702 -0.0000
vn -0.0000 -0.0783 -0.9969
vn -0.0000 0.0809 0.9967
vn 0.9978 0.0668 -0.0000
vn -0.9978 -0.0668 -0.0000
vn -0.0000 -0.0809 -0.9967
vn -0.0000 -0.0725 0.9974
vn 0.9978 0.0667 -0.0000
vn -0.9978 -0.0667 -0.0000
vn -0.0000 0.0725 -0.9974
vn -0.0000 -0.0727 0.9974
vn 0.9975 -0.0706 -0.0000
vn -0.9975 0.0706 -0.0000
vn -0.0000 0.0727 -0.9974
vn -0.0872 -0.0000 0.9962
vn -0.2588 -0.0000 0.9659
vn -0.4226 -0.0000 0.9063
vn -0.5736 -0.0000 0.8192
vn -0.7071 -0.0000 0.7071
vn -0.8192 -0.0000 0.5736
vn -0.9063 -0.0000 0.4226
vn -0.9659 -0.0000 0.2588
vn -0.9962 -0.0000 0.0872
vn -0.0872 -0.0000 -0.9962
vn -0.2588 -0.0000 -0.9659
vn -0.4226 -0.0000 -0.9063
vn -0.5736 -0.0000 -0.8192
vn -0.7071 -0.0000 -0.7071
vn -0.8192 -0.0000 -0.5736
vn -0.9063 -0.0000 -0.4226
vn -0.9659 -0.0000 -0.2588
vn -0.9962 -0.0000 -0.0872
vn 0.9962 -0.0000 -0.0872
vn 0.9659 -0.0000 -0.2588
vn 0.9063 -0.0000 -0.4226
vn 0.8192 -0.0000 -0.5736
vn 0.7071 -0.0000 -0.7071
vn 0.5736 -0.0000 -0.8192
vn 0.4226 -0.0000 -0.9063
vn 0.2588 -0.0000 -0.9659
vn 0.0872 -0.0000 -0.9962
vn 0.0872 -0.0000 0.9962
vn 0.2588 -0.0000 0.9659
vn 0.4226 -0.0000 0.9063
vn 0.5736 -0.0000 0.8192
vn 0.7071 -0.0000 0.7071
vn 0.8192 -0.0000 0.5736
vn 0.9063 -0.0000 0.4226
vn 0.9659 -0.0000 0.2588
vn 0.9962 -0.0000 0.0872
vn -0.2578 0.0936 0.9616
vn -0.7034 0.1047 0.7030
vn -0.9622 0.0879 0.2577
vn -0.2585 -0.0575 -0.9643
vn -0.7073 -0.0057 -0.7069
vn -0.9649 0.0476 -0.2584
vn 0.9622 -0.0879 -0.2577
vn 0.7034 -0.1047 -0.7030
vn 0.2578 -0.0936 -0.9616
vn 0.2585 0.0575 0.9643
vn 0.7073 0.0057 0.7069
vn 0.9649 -0.0476 0.2584
vn -0.2586 0.0609 0.9641
vn -0.7074 0.0100 0.7067
vn -0.9651 -0.0437 0.2583
vn -0.2579 -0.0953 -0.9615
vn -0.7036 -0.1042 -0.7029
vn -0.9625 -0.0854 -0.2576
vn 0.9651 0.0437 -0.2583
vn 0.7074 -0.0100 -0.7067
vn 0.2586 -0.0609 -0.9641
vn 0.2579 0.0953 0.9615
vn 0.7036 0.1042 0.7029
vn 0.9625 0.0854 0.2576
vn -0.2579 -0.0872 0.9622
vn -0.7038 -0.0982 0.7036
vn -0.9626 -0.0831 0.2578
vn -0.2586 0.0528 -0.9646
vn -0.7072 0.0041 -0.7070
vn -0.9649 -0.0457 -0.2584
vn 0.9626 0.0831 -0.2578
vn 0.7038 0.0982 -0.7035
vn 0.2579 0.0872 -0.9622
vn 0.2586 -0.0528 0.9646
vn 0.7072 -0.0041 0.7070
vn 0.9649 0.0457 0.2585
vn -0.2585 -0.0520 0.9646
vn -0.7072 -0.0015 0.7071
vn -0.9648 0.0494 0.2585
vn -0.2578 0.0884 -0.9621
vn -0.7035 0.1010 -0.7034
vn -0.9623 0.0869 -0.2578
vn 0.9648 -0.0494 -0.2585
vn 0.7072 0.0015 -0.7071
vn 0.2585 0.0520 -0.9646
vn 0.2578 -0.0884 0.9621
vn 0.7035 -0.1010 0.7034
vn 0.9623 -0.0869 0.2578
vn -0.0001 1.0000 -0.0000
vn 0.0001 1.0000 -0.0000
vn 0.0006 -1.0000 -0.0000
vn -0.0006 -1.0000 -0.0000
vn -0.7038 -0.0982 0.7035
vn -0.9649 -0.0457 -0.2585
vn -0.2579 0.0884 -0.9621
vn 0.2579 -0.0884 0.9621
vt 0.375000 0.250000
vt 0.375000 1.000000
vt 0.375000 0.000000
vt 0.375000 0.500000
vt 0.375000 0.750000
vt 0.625000 1.000000
vt 0.625000 0.000000
vt 0.625000 0.250000
vt 0.625000 0.500000
vt 0.625000 0.750000
vt 0.375000 0.874976
vt 0.250024 0.750000
vt 0.375000 0.125024
vt 0.125000 0.624976
vt 0.375000 0.896686
vt 0.228314 0.748101
vt 0.375000 0.917737
vt 0.207263 0.742460
vt 0.375000 0.937488
vt 0.187512 0.733250
vt 0.375000 0.000000
vt 0.375000 1.000000
vt 0.169660 0.720750
vt 0.375000 0.044660
vt 0.154250 0.705340
vt 0.375000 0.062512
vt 0.141750 0.687488
vt 0.375000 0.082263
vt 0.132540 0.667737
vt 0.375000 0.103314
vt 0.126899 0.646687
vt 0.875000 0.624976
vt 0.625000 0.125024
vt 0.749976 0.750000
vt 0.625000 0.874976
vt 0.873101 0.646686
vt 0.625000 0.103314
vt 0.867460 0.667737
vt 0.625000 0.082263
vt 0.858250 0.687488
vt 0.625000 0.062512
vt 0.845750 0.705340
vt 0.625000 0.044660
vt 0.830340 0.720750
vt 0.625000 1.000000
vt 0.625000 0.000000
vt 0.812488 0.733250
vt 0.625000 0.937488
vt 0.792737 0.742460
vt 0.625000 0.917737
vt 0.771686 0.748101
vt 0.625000 0.896686
vt 0.375000 0.124976
vt 0.125000 0.625024
vt 0.375000 0.375024
vt 0.250024 0.500000
vt 0.375000 0.146686
vt 0.126899 0.603314
vt 0.375000 0.167737
vt 0.132540 0.582263
vt 0.375000 0.187488
vt 0.141750 0.562512
vt 0.375000 0.205340
vt 0.154250 0.544660
vt 0.375000 0.294660
vt 0.169660 0.529250
vt 0.375000 0.312512
vt 0.187512 0.516750
vt 0.375000 0.332263
vt 0.207263 0.507540
vt 0.375000 0.353314
vt 0.228314 0.501899
vt 0.749976 0.500000
vt 0.625000 0.375024
vt 0.875000 0.625024
vt 0.625000 0.124976
vt 0.771686 0.501899
vt 0.625000 0.353314
vt 0.792737 0.507540
vt 0.625000 0.332263
vt 0.812488 0.516750
vt 0.625000 0.312512
vt 0.830340 0.529250
vt 0.625000 0.294660
vt 0.845750 0.544660
vt 0.625000 0.205340
vt 0.858250 0.562512
vt 0.625000 0.187488
vt 0.867460 0.582263
vt 0.625000 0.167737
vt 0.873101 0.603314
vt 0.625000 0.146686
vt 0.375000 0.624976
vt 0.375000 0.875024
vt 0.249976 0.750000
vt 0.375000 0.646686
vt 0.373101 0.646686
vt 0.375000 0.667737
vt 0.367460 0.667737
vt 0.375000 0.687488
vt 0.358250 0.687488
vt 0.375000 0.705340
vt 0.345750 0.705340
vt 0.375000 0.794660
vt 0.330340 0.720750
vt 0.375000 0.812512
vt 0.312488 0.733250
vt 0.375000 0.832263
vt 0.292737 0.742460
vt 0.375000 0.853314
vt 0.271686 0.748101
vt 0.625000 0.875024
vt 0.750024 0.750000
vt 0.625000 0.624976
vt 0.728314 0.748101
vt 0.625000 0.853314
vt 0.707263 0.742460
vt 0.625000 0.832263
vt 0.687512 0.733250
vt 0.625000 0.812512
vt 0.669660 0.720750
vt 0.625000 0.794660
vt 0.654250 0.705340
vt 0.625000 0.705340
vt 0.641750 0.687488
vt 0.625000 0.687488
vt 0.632540 0.667737
vt 0.625000 0.667737
vt 0.626899 0.646687
vt 0.625000 0.646686
vt 0.375000 0.374976
vt 0.249976 0.500000
vt 0.375000 0.625024
vt 0.375000 0.396686
vt 0.271686 0.501899
vt 0.375000 0.417737
vt 0.292737 0.507540
vt 0.375000 0.437488
vt 0.312488 0.516750
vt 0.375000 0.455340
vt 0.330340 0.529250
vt 0.375000 0.544660
vt 0.345750 0.544660
vt 0.375000 0.562512
vt 0.358250 0.562512
vt 0.375000 0.582263
vt 0.367460 0.582263
vt 0.375000 0.603314
vt 0.373101 0.603314
vt 0.625000 0.625024
vt 0.750024 0.500000
vt 0.625000 0.374976
vt 0.626899 0.603314
vt 0.625000 0.603314
vt 0.632540 0.582263
vt 0.625000 0.582263
vt 0.641750 0.562512
vt 0.625000 0.562512
vt 0.654250 0.544660
vt 0.625000 0.544660
vt 0.669660 0.529250
vt 0.625000 0.455340
vt 0.687512 0.516750
vt 0.625000 0.437488
vt 0.707263 0.507540
vt 0.625000 0.417737
vt 0.728314 0.501899
vt 0.625000 0.396686
vt 0.375000 0.000000
vt 0.375000 0.988649
vt 0.375000 0.011307
vt 0.375000 0.007995
vt 0.375000 1.000000
vt 0.375000 0.000000
vt 0.375000 0.001515
vt 0.375000 0.000000
vt 0.375000 1.000000
vt 0.375000 0.005654
vt 0.625000 1.000000
vt 0.625000 0.011307
vt 0.625000 0.988649
vt 0.625000 0.991973
vt 0.625000 0.000000
vt 0.625000 1.000000
vt 0.625000 0.998479
vt 0.625000 0.005653
vt 0.625000 0.994324
vt 0.625000 1.000000
vt 0.625000 0.000000
vt 0.375000 0.238693
vt 0.375000 0.250000
vt 0.375000 0.261351
vt 0.375000 0.250000
vt 0.375000 0.244346
vt 0.375000 0.248485
vt 0.375000 0.255676
vt 0.625000 0.261351
vt 0.625000 0.250000
vt 0.625000 0.238693
vt 0.625000 0.250000
vt 0.625000 0.255676
vt 0.625000 0.251521
vt 0.625000 0.244346
vt 0.375000 0.738693
vt 0.375000 0.750000
vt 0.375000 0.761351
vt 0.375000 0.750000
vt 0.375000 0.744346
vt 0.375000 0.748485
vt 0.375000 0.755676
vt 0.625000 0.761351
vt 0.625000 0.750000
vt 0.625000 0.738693
vt 0.625000 0.750000
vt 0.625000 0.755676
vt 0.625000 0.751521
vt 0.625000 0.744346
vt 0.375000 0.488649
vt 0.375000 0.500000
vt 0.375000 0.511307
vt 0.375000 0.500000
vt 0.375000 0.494324
vt 0.375000 0.498479
vt 0.375000 0.505654
vt 0.625000 0.511307
vt 0.625000 0.500000
vt 0.625000 0.488649
vt 0.625000 0.500000
vt 0.625000 0.505654
vt 0.625000 0.501515
vt 0.625000 0.494324
vt 0.375000 0.970793
vt 0.154207 0.750000
vt 0.375000 0.029224
vt 0.125000 0.720776
vt 0.375153 1.000000
vt 0.375153 0.000000
vt 0.139603 0.746085
vt 0.375032 0.014591
vt 0.128913 0.735388
vt 0.875000 0.720776
vt 0.625000 0.029224
vt 0.845793 0.750000
vt 0.625000 0.970793
vt 0.871087 0.735388
vt 0.625032 0.014591
vt 0.860397 0.746085
vt 0.625000 1.000000
vt 0.625000 0.000000
vt 0.375000 0.220776
vt 0.125000 0.529224
vt 0.375000 0.279207
vt 0.154207 0.500000
vt 0.375032 0.235366
vt 0.128913 0.514612
vt 0.374965 0.264625
vt 0.139603 0.503915
vt 0.845793 0.500000
vt 0.625000 0.279207
vt 0.875000 0.529224
vt 0.625000 0.220776
vt 0.860397 0.503915
vt 0.624965 0.264625
vt 0.871087 0.514612
vt 0.625032 0.235366
vt 0.375000 0.720776
vt 0.375000 0.779207
vt 0.345793 0.750000
vt 0.374968 0.735366
vt 0.371087 0.735388
vt 0.375035 0.764625
vt 0.360397 0.746085
vt 0.654207 0.750000
vt 0.625000 0.779207
vt 0.625000 0.720776
vt 0.639603 0.746085
vt 0.625035 0.764625
vt 0.628913 0.735388
vt 0.624968 0.735366
vt 0.375000 0.470793
vt 0.345793 0.500000
vt 0.375000 0.529224
vt 0.374965 0.485418
vt 0.360397 0.503915
vt 0.374968 0.514591
vt 0.371087 0.514612
vt 0.625000 0.529224
vt 0.654207 0.500000
vt 0.625000 0.470793
vt 0.628913 0.514612
vt 0.624968 0.514591
vt 0.624965 0.485418
vt 0.639603 0.503915
vt 0.154190 0.750000
vt 0.375000 0.970810
vt 0.125000 0.720780
vt 0.375000 0.029221
vt 0.375000 0.000000
vt 0.139595 0.746085
vt 0.375000 1.000000
vt 0.128911 0.735390
vt 0.374970 0.014631
vt 0.875000 0.720780
vt 0.625000 0.029221
vt 0.845810 0.750000
vt 0.625000 0.970810
vt 0.871089 0.735390
vt 0.624970 0.014631
vt 0.860405 0.746085
vt 0.624925 1.000000
vt 0.624925 0.000000
vt 0.125000 0.529221
vt 0.375000 0.220779
vt 0.154190 0.500000
vt 0.375000 0.279190
vt 0.128911 0.514610
vt 0.374970 0.235411
vt 0.139595 0.503915
vt 0.374964 0.264574
vt 0.845810 0.500000
vt 0.625000 0.279190
vt 0.875000 0.529221
vt 0.625000 0.220779
vt 0.624964 0.264574
vt 0.860405 0.503915
vt 0.871089 0.514610
vt 0.624970 0.235411
vt 0.375000 0.720780
vt 0.345810 0.750000
vt 0.375000 0.779190
vt 0.371089 0.735390
vt 0.375030 0.735411
vt 0.360405 0.746085
vt 0.375036 0.764574
vt 0.625000 0.779190
vt 0.654190 0.750000
vt 0.625000 0.720780
vt 0.639595 0.746085
vt 0.625036 0.764574
vt 0.628911 0.735390
vt 0.625030 0.735411
vt 0.345810 0.500000
vt 0.375000 0.470810
vt 0.375000 0.529221
vt 0.360405 0.503915
vt 0.374964 0.485384
vt 0.371089 0.514610
vt 0.375030 0.514631
vt 0.625000 0.529221
vt 0.654190 0.500000
vt 0.625000 0.470810
vt 0.628911 0.514610
vt 0.625030 0.514632
vt 0.639595 0.503915
vt 0.624963 0.485384
vt 0.154190 0.750000
vt 0.375000 0.970810
vt 0.125000 0.720798
vt 0.375000 0.029202
vt 0.139595 0.746088
vt 0.375000 1.000000
vt 0.375000 0.000000
vt 0.128911 0.735399
vt 0.374970 0.014582
vt 0.875000 0.720798
vt 0.625000 0.029202
vt 0.845810 0.750000
vt 0.625000 0.970810
vt 0.871089 0.735399
vt 0.624970 0.014582
vt 0.860405 0.746088
vt 0.624856 1.000000
vt 0.624856 0.000000
vt 0.125000 0.529202
vt 0.375000 0.220798
vt 0.154190 0.500000
vt 0.375000 0.279190
vt 0.128911 0.514601
vt 0.374970 0.235380
vt 0.139595 0.503912
vt 0.375033 0.264614
vt 0.845810 0.500000
vt 0.625000 0.279190
vt 0.875000 0.529202
vt 0.625000 0.220798
vt 0.860405 0.503912
vt 0.625033 0.264614
vt 0.871089 0.514601
vt 0.624970 0.235380
vt 0.375000 0.720798
vt 0.345810 0.750000
vt 0.375000 0.779190
vt 0.371089 0.735399
vt 0.375030 0.735380
vt 0.360405 0.746088
vt 0.374967 0.764614
vt 0.625000 0.779190
vt 0.654190 0.750000
vt 0.625000 0.720798
vt 0.639595 0.746088
vt 0.624967 0.764614
vt 0.628911 0.735399
vt 0.625030 0.735380
vt 0.345810 0.500000
vt 0.375000 0.470810
vt 0.375000 0.529202
vt 0.360405 0.503912
vt 0.375033 0.485424
vt 0.371089 0.514601
vt 0.375030 0.514582
vt 0.625000 0.529202
vt 0.654190 0.500000
vt 0.625000 0.470810
vt 0.628911 0.514601
vt 0.625030 0.514582
vt 0.639595 0.503912
vt 0.625033 0.485424
vt 0.154198 0.750000
vt 0.375000 0.970802
vt 0.125000 0.720798
vt 0.375000 0.029202
vt 0.375086 1.000000
vt 0.139599 0.746088
vt 0.375086 0.000000
vt 0.128912 0.735399
vt 0.375032 0.014621
vt 0.875000 0.720798
vt 0.625000 0.029202
vt 0.845802 0.750000
vt 0.625000 0.970802
vt 0.871088 0.735399
vt 0.625032 0.014621
vt 0.860401 0.746088
vt 0.625000 1.000000
vt 0.625000 0.000000
vt 0.125000 0.529202
vt 0.375000 0.220798
vt 0.154198 0.500000
vt 0.375000 0.279198
vt 0.128912 0.514601
vt 0.375032 0.235419
vt 0.139599 0.503913
vt 0.375033 0.264579
vt 0.845802 0.500000
vt 0.625000 0.279198
vt 0.875000 0.529202
vt 0.625000 0.220798
vt 0.860401 0.503912
vt 0.625033 0.264579
vt 0.871088 0.514601
vt 0.625032 0.235419
vt 0.375000 0.720798
vt 0.345802 0.750000
vt 0.375000 0.779198
vt 0.371088 0.735399
vt 0.374968 0.735419
vt 0.360401 0.746088
vt 0.374967 0.764579
vt 0.654198 0.750000
vt 0.625000 0.779198
vt 0.625000 0.720798
vt 0.624967 0.764579
vt 0.639599 0.746088
vt 0.628912 0.735399
vt 0.624968 0.735419
vt 0.345802 0.500000
vt 0.375000 0.470802
vt 0.375000 0.529202
vt 0.360401 0.503912
vt 0.375033 0.485381
vt 0.371088 0.514601
vt 0.374968 0.514621
vt 0.625000 0.529202
vt 0.654198 0.500000
vt 0.625000 0.470802
vt 0.628912 0.514601
vt 0.624968 0.514621
vt 0.639599 0.503912
vt 0.625033 0.485381
s 0
g off
g Сфера_Материал
usemtl Материал
f 114/211/1 89/170/1 110/206/1
f 100/192/2 121/221/2 1/1/2
f 115/213/3 126/228/3 8/10/3
f 110/206/2 91/173/2 4/5/2
f 105/199/3 96/183/3 6/8/3
f 120/220/2 111/207/2 3/4/2
f 6/8/4 2/3/4 1/1/4
f 125/227/3 106/200/3 7/9/3
f 94/180/5 99/190/5 90/171/5
f 124/225/6 109/204/6 120/220/6
f 95/181/3 116/214/3 5/6/3
f 104/197/7 119/218/7 100/192/7
f 5/7/8 4/5/8 2/3/8
f 8/10/9 3/4/9 4/5/9
f 7/9/10 1/1/10 3/4/10
f 146/267/11 134/244/11 129/232/11
f 154/282/12 150/275/12 145/266/12
f 186/344/2 178/329/2 162/296/2
f 142/260/3 134/243/3 150/275/3
f 133/242/13 137/250/13 130/234/13
f 141/259/14 153/280/14 138/252/14
f 181/335/15 161/295/15 178/330/15
f 186/344/16 182/337/16 177/328/16
f 218/406/2 210/391/2 194/358/2
f 174/322/3 166/305/3 182/337/3
f 165/304/17 169/313/17 162/297/17
f 170/315/18 190/351/18 185/343/18
f 213/397/19 193/357/19 210/392/19
f 221/411/20 209/390/20 218/406/20
f 250/468/2 242/453/2 226/420/2
f 206/384/3 198/367/3 214/399/3
f 194/359/21 206/385/21 201/375/21
f 202/377/22 222/413/22 217/405/22
f 242/454/23 230/430/23 225/419/23
f 253/473/24 241/452/24 250/468/24
f 238/446/3 230/429/3 246/461/3
f 226/421/25 238/447/25 233/437/25
f 237/445/26 249/467/26 234/439/26
f 59/112/7 9/11/7 50/94/7
f 79/150/5 49/93/5 70/133/5
f 80/151/2 39/73/2 20/34/2
f 19/33/6 29/53/6 10/13/6
f 39/74/1 69/131/1 30/55/1
f 20/35/27 11/15/27 9/11/27
f 28/52/28 12/17/28 11/15/28
f 27/50/29 13/19/29 12/17/29
f 26/48/30 14/22/30 13/19/30
f 25/46/31 15/24/31 14/21/31
f 24/43/32 16/26/32 15/24/32
f 23/41/33 17/28/33 16/26/33
f 22/39/34 18/30/34 17/28/34
f 21/37/35 10/13/35 18/30/35
f 30/55/36 41/78/36 39/74/36
f 38/71/37 42/80/37 41/78/37
f 37/69/38 43/82/38 42/80/38
f 36/67/39 44/84/39 43/82/39
f 35/65/40 45/86/40 44/84/40
f 34/63/41 46/88/41 45/86/41
f 33/61/42 47/90/42 46/88/42
f 32/59/43 48/92/43 47/90/43
f 31/57/44 40/76/44 48/92/44
f 70/133/45 81/154/45 79/150/45
f 78/148/46 82/156/46 81/154/46
f 77/146/47 83/158/47 82/156/47
f 76/144/48 84/160/48 83/158/48
f 75/142/49 85/162/49 84/160/49
f 74/140/50 86/164/50 85/162/50
f 73/138/51 87/166/51 86/164/51
f 72/136/52 88/168/52 87/166/52
f 71/134/53 80/152/53 88/168/53
f 50/94/54 61/116/54 59/112/54
f 58/110/55 62/118/55 61/116/55
f 57/108/56 63/120/56 62/118/56
f 56/106/57 64/122/57 63/120/57
f 55/104/58 65/124/58 64/122/58
f 54/102/59 66/126/59 65/124/59
f 53/100/60 67/128/60 66/126/60
f 52/98/61 68/130/61 67/128/61
f 51/96/62 60/114/62 68/130/62
f 30/56/3 69/132/3 50/95/3
f 89/169/2 92/175/2 91/172/2
f 92/175/2 93/178/2 91/172/2
f 93/178/2 90/171/2 91/172/2
f 94/179/3 97/185/3 96/182/3
f 97/185/3 98/187/3 96/182/3
f 98/187/3 95/181/3 96/182/3
f 99/190/2 102/194/2 101/193/2
f 102/194/2 103/195/2 101/193/2
f 103/195/2 100/191/2 101/193/2
f 104/197/3 107/201/3 106/200/3
f 107/201/3 108/202/3 106/200/3
f 108/202/3 105/198/3 106/200/3
f 109/204/2 112/208/2 111/207/2
f 112/208/2 113/209/2 111/207/2
f 113/209/2 110/205/2 111/207/2
f 114/211/3 117/215/3 116/214/3
f 117/215/3 118/216/3 116/214/3
f 118/216/3 115/212/3 116/214/3
f 119/218/2 122/222/2 121/221/2
f 122/222/2 123/223/2 121/221/2
f 123/223/2 120/219/2 121/221/2
f 124/225/3 127/229/3 126/228/3
f 127/229/3 128/230/3 126/228/3
f 128/230/3 125/226/3 126/228/3
f 95/181/28 92/177/28 89/170/28
f 98/189/31 93/178/31 92/176/31
f 97/186/34 90/171/34 93/178/34
f 100/192/37 107/201/37 104/197/37
f 103/196/40 108/203/40 107/201/40
f 102/194/43 105/199/43 108/203/43
f 120/220/46 127/229/46 124/225/46
f 123/224/49 128/231/49 127/229/49
f 122/222/52 125/227/52 128/231/52
f 110/206/55 117/215/55 114/211/55
f 113/210/58 118/217/58 117/215/58
f 112/208/61 115/213/61 118/217/61
f 90/171/2 101/193/2 2/3/2
f 129/232/63 136/248/63 131/236/63
f 136/249/64 132/239/64 131/237/64
f 135/246/65 130/234/65 132/239/65
f 138/252/66 143/263/66 141/259/66
f 140/256/67 144/265/67 143/263/67
f 139/254/68 142/261/68 144/265/68
f 157/287/69 156/285/69 159/291/69
f 159/291/70 155/283/70 160/292/70
f 155/283/71 158/289/71 160/292/71
f 149/274/72 148/271/72 151/277/72
f 151/277/73 147/269/73 152/279/73
f 152/279/74 145/266/74 150/275/74
f 166/306/75 163/300/75 161/295/75
f 168/311/76 164/302/76 163/298/76
f 167/308/77 162/297/77 164/302/77
f 173/321/78 172/319/78 175/324/78
f 172/319/79 176/327/79 175/324/79
f 171/317/80 174/323/80 176/327/80
f 189/349/81 188/348/81 191/353/81
f 191/353/82 187/346/82 192/355/82
f 192/355/83 185/343/83 190/351/83
f 178/330/84 183/339/84 181/335/84
f 183/339/85 179/332/85 184/341/85
f 184/341/86 177/328/86 182/337/86
f 198/368/87 195/361/87 193/357/87
f 195/362/88 199/370/88 196/364/88
f 196/364/89 197/366/89 194/359/89
f 205/383/90 204/381/90 207/387/90
f 207/387/91 203/379/91 208/389/91
f 208/389/92 201/375/92 206/385/92
f 218/406/93 223/415/93 221/411/93
f 220/410/94 224/417/94 223/415/94
f 224/417/95 217/405/95 222/413/95
f 210/392/96 215/401/96 213/397/96
f 212/396/97 216/403/97 215/401/97
f 211/394/98 214/399/98 216/403/98
f 225/419/99 232/434/99 227/422/99
f 227/424/100 231/432/100 228/426/100
f 228/426/101 229/428/101 226/421/101
f 234/439/102 239/449/102 237/445/102
f 239/449/103 235/441/103 240/451/103
f 240/451/104 233/437/104 238/447/104
f 250/468/105 255/477/105 253/473/105
f 252/472/106 256/479/106 255/477/106
f 251/470/107 254/475/107 256/479/107
f 245/460/108 244/458/108 247/462/108
f 244/458/109 248/465/109 247/462/109
f 243/456/110 246/461/110 248/465/110
f 154/282/2 146/268/2 130/235/2
f 114/211/1 95/181/1 89/170/1
f 1/1/2 101/193/2 100/192/2
f 100/192/2 119/218/2 121/221/2
f 121/221/2 3/4/2 1/1/2
f 8/10/3 116/214/3 115/213/3
f 115/213/3 124/225/3 126/228/3
f 126/228/3 7/9/3 8/10/3
f 4/5/2 111/207/2 110/206/2
f 110/206/2 89/170/2 91/173/2
f 91/173/2 2/2/2 4/5/2
f 6/8/3 106/200/3 105/199/3
f 105/199/3 94/180/3 96/183/3
f 96/183/3 5/7/3 6/8/3
f 3/4/2 121/221/2 120/220/2
f 120/220/2 109/204/2 111/207/2
f 111/207/2 4/5/2 3/4/2
f 6/8/4 5/7/4 2/3/4
f 7/9/3 126/228/3 125/227/3
f 125/227/3 104/197/3 106/200/3
f 106/200/3 6/8/3 7/9/3
f 94/180/5 105/199/5 99/190/5
f 124/225/6 115/213/6 109/204/6
f 5/6/3 96/184/3 95/181/3
f 95/181/3 114/211/3 116/214/3
f 116/214/3 8/10/3 5/6/3
f 104/197/7 125/227/7 119/218/7
f 5/7/8 8/10/8 4/5/8
f 8/10/9 7/9/9 3/4/9
f 7/9/10 6/8/10 1/1/10
f 146/267/11 149/274/11 134/244/11
f 154/282/12 157/287/12 150/275/12
f 162/296/2 169/312/2 171/316/2
f 171/316/2 172/318/2 170/314/2
f 170/314/2 185/342/2 187/345/2
f 187/345/2 188/347/2 186/344/2
f 186/344/2 177/328/2 179/331/2
f 179/331/2 180/333/2 178/329/2
f 178/329/2 161/294/2 163/299/2
f 163/299/2 164/301/2 162/296/2
f 162/296/2 171/316/2 170/314/2
f 170/314/2 187/345/2 186/344/2
f 186/344/2 179/331/2 178/329/2
f 178/329/2 163/299/2 162/296/2
f 162/296/2 170/314/2 186/344/2
f 150/275/3 157/287/3 159/290/3
f 159/290/3 160/293/3 158/288/3
f 158/288/3 141/258/3 143/262/3
f 143/262/3 144/264/3 142/260/3
f 142/260/111 133/241/111 135/245/111
f 135/245/3 136/247/3 134/243/3
f 134/243/3 149/273/3 151/276/3
f 151/276/3 152/278/3 150/275/3
f 150/275/3 159/290/3 158/288/3
f 158/288/3 143/262/3 142/260/3
f 142/260/3 135/245/3 134/243/3
f 134/243/3 151/276/3 150/275/3
f 150/275/3 158/288/3 142/260/3
f 133/242/13 142/261/13 137/250/13
f 141/259/14 158/289/14 153/280/14
f 181/335/15 166/306/15 161/295/15
f 186/344/16 189/349/16 182/337/16
f 194/358/2 201/374/2 203/378/2
f 203/378/2 204/380/2 202/376/2
f 202/376/2 217/404/2 219/407/2
f 219/407/2 220/409/2 218/406/2
f 218/406/2 209/390/2 211/393/2
f 211/393/2 212/395/2 210/391/2
f 210/391/2 193/356/2 195/360/2
f 195/360/2 196/363/2 194/358/2
f 194/358/2 203/378/2 202/376/2
f 202/376/2 219/407/2 218/406/2
f 218/406/2 211/393/2 210/391/2
f 210/391/2 195/360/2 194/358/2
f 194/358/2 202/376/2 218/406/2
f 182/337/112 189/349/112 191/352/112
f 191/352/3 192/354/3 190/350/3
f 190/350/3 173/320/3 175/325/3
f 175/325/3 176/326/3 174/322/3
f 174/322/111 165/303/111 167/307/111
f 167/307/3 168/309/3 166/305/3
f 166/305/3 181/336/3 183/338/3
f 183/338/3 184/340/3 182/337/3
f 182/337/3 191/352/3 190/350/3
f 190/350/3 175/325/3 174/322/3
f 174/322/3 167/307/3 166/305/3
f 166/305/3 183/338/3 182/337/3
f 182/337/3 190/350/3 174/322/3
f 165/304/17 174/323/17 169/313/17
f 170/315/18 173/321/18 190/351/18
f 213/397/19 198/368/19 193/357/19
f 221/411/20 214/399/20 209/390/20
f 226/420/2 233/436/2 235/440/2
f 235/440/2 236/442/2 234/438/2
f 234/438/2 249/466/2 251/469/2
f 251/469/2 252/471/2 250/468/2
f 250/468/2 241/452/2 243/455/2
f 243/455/2 244/457/2 242/453/2
f 242/453/2 225/418/2 227/423/2
f 227/423/2 228/425/2 226/420/2
f 226/420/2 235/440/2 234/438/2
f 234/438/2 251/469/2 250/468/2
f 250/468/2 243/455/2 242/453/2
f 242/453/2 227/423/2 226/420/2
f 226/420/2 234/438/2 250/468/2
f 214/399/3 221/411/3 223/414/3
f 223/414/3 224/416/3 222/412/3
f 222/412/3 205/382/3 207/386/3
f 207/386/3 208/388/3 206/384/3
f 206/384/3 197/365/3 199/369/3
f 199/369/3 200/371/3 198/367/3
f 198/367/3 213/398/3 215/400/3
f 215/400/3 216/402/3 214/399/3
f 214/399/3 223/414/3 222/412/3
f 222/412/3 207/386/3 206/384/3
f 206/384/3 199/369/3 198/367/3
f 198/367/3 215/400/3 214/399/3
f 214/399/3 222/412/3 206/384/3
f 194/359/21 197/366/21 206/385/21
f 202/377/22 205/383/22 222/413/22
f 242/454/23 245/460/23 230/430/23
f 253/473/24 246/461/24 241/452/24
f 246/461/3 253/473/3 255/476/3
f 255/476/3 256/478/3 254/474/3
f 254/474/3 237/444/3 239/448/3
f 239/448/3 240/450/3 238/446/3
f 238/446/3 229/427/3 231/431/3
f 231/431/3 232/433/3 230/429/3
f 230/429/3 245/459/3 247/463/3
f 247/463/3 248/464/3 246/461/3
f 246/461/3 255/476/3 254/474/3
f 254/474/3 239/448/3 238/446/3
f 238/446/3 231/431/3 230/429/3
f 230/429/3 247/463/3 246/461/3
f 246/461/3 254/474/3 238/446/3
f 226/421/25 229/428/25 238/447/25
f 237/445/26 254/475/26 249/467/26
f 59/112/7 20/35/7 9/11/7
f 79/150/5 60/114/5 49/93/5
f 79/150/3 81/153/3 82/155/3
f 82/155/3 83/157/3 84/159/3
f 84/159/3 85/161/3 86/163/3
f 86/163/3 87/165/3 88/167/3
f 86/163/3 88/167/3 80/151/3
f 82/155/3 84/159/3 86/163/3
f 79/150/3 82/155/3 86/163/3
f 79/150/3 86/163/3 80/151/3
f 67/127/3 68/129/3 60/114/3
f 66/125/3 67/127/3 60/114/3
f 64/121/3 65/123/3 66/125/3
f 62/117/3 63/119/3 64/121/3
f 59/113/3 61/115/3 62/117/3
f 27/49/3 28/51/3 20/34/3
f 59/113/3 62/117/3 64/121/3
f 26/47/3 27/49/3 20/34/3
f 59/113/3 64/121/3 66/125/3
f 25/44/3 26/47/3 20/34/3
f 59/113/3 66/125/3 60/114/3
f 24/42/3 25/44/3 20/34/3
f 23/40/3 24/42/3 20/34/3
f 21/36/3 22/38/3 23/40/3
f 19/32/3 21/36/3 23/40/3
f 19/32/3 23/40/3 20/34/3
f 47/89/3 48/91/3 40/75/3
f 46/87/3 47/89/3 40/75/3
f 44/83/3 45/85/3 46/87/3
f 42/79/3 43/81/3 44/83/3
f 39/73/3 41/77/3 42/79/3
f 39/73/3 42/79/3 44/83/3
f 44/83/3 46/87/3 40/75/3
f 39/73/3 44/83/3 40/75/3
f 60/114/113 79/150/113 80/151/113
f 59/113/3 60/114/3 80/151/3
f 40/75/114 19/32/114 20/34/114
f 39/73/3 40/75/3 20/34/3
f 20/34/2 59/113/2 80/151/2
f 19/33/6 40/76/6 29/53/6
f 39/74/1 80/152/1 69/131/1
f 20/35/27 28/52/27 11/15/27
f 28/52/28 27/50/28 12/17/28
f 27/50/29 26/48/29 13/19/29
f 26/48/30 25/45/30 14/22/30
f 25/46/31 24/43/31 15/24/31
f 24/43/32 23/41/32 16/26/32
f 23/41/33 22/39/33 17/28/33
f 22/39/34 21/37/34 18/30/34
f 21/37/35 19/33/35 10/13/35
f 30/55/36 38/71/36 41/78/36
f 38/71/37 37/69/37 42/80/37
f 37/69/38 36/67/38 43/82/38
f 36/67/39 35/65/39 44/84/39
f 35/65/40 34/63/40 45/86/40
f 34/63/41 33/61/41 46/88/41
f 33/61/42 32/59/42 47/90/42
f 32/59/43 31/57/43 48/92/43
f 31/57/44 29/53/44 40/76/44
f 70/133/45 78/148/45 81/154/45
f 78/148/46 77/146/46 82/156/46
f 77/146/47 76/144/47 83/158/47
f 76/144/48 75/142/48 84/160/48
f 75/142/49 74/140/49 85/162/49
f 74/140/50 73/138/50 86/164/50
f 73/138/51 72/136/51 87/166/51
f 72/136/52 71/134/52 88/168/52
f 71/134/53 69/131/53 80/152/53
f 50/94/54 58/110/54 61/116/54
f 58/110/55 57/108/55 62/118/55
f 57/108/56 56/106/56 63/120/56
f 56/106/57 55/104/57 64/122/57
f 55/104/58 54/102/58 65/124/58
f 54/102/59 53/100/59 66/126/59
f 53/100/60 52/98/60 67/128/60
f 52/98/61 51/96/61 68/130/61
f 51/96/62 49/93/62 60/114/62
f 29/54/2 31/58/2 32/60/2
f 32/60/2 33/62/2 34/64/2
f 34/64/2 35/66/2 36/68/2
f 36/68/2 37/70/2 38/72/2
f 36/68/2 38/72/2 30/56/2
f 32/60/2 34/64/2 36/68/2
f 29/54/2 32/60/2 36/68/2
f 29/54/2 36/68/2 30/56/2
f 17/29/2 18/31/2 10/14/2
f 16/27/2 17/29/2 10/14/2
f 14/23/2 15/25/2 16/27/2
f 12/18/2 13/20/2 14/23/2
f 9/12/2 11/16/2 12/18/2
f 57/109/2 58/111/2 50/95/2
f 9/12/2 12/18/2 14/23/2
f 56/107/2 57/109/2 50/95/2
f 9/12/2 14/23/2 16/27/2
f 55/105/2 56/107/2 50/95/2
f 9/12/2 16/27/2 10/14/2
f 54/103/2 55/105/2 50/95/2
f 53/101/2 54/103/2 50/95/2
f 51/97/2 52/99/2 53/101/2
f 49/93/2 51/97/2 53/101/2
f 49/93/2 53/101/2 50/95/2
f 77/147/2 78/149/2 70/133/2
f 76/145/2 77/147/2 70/133/2
f 74/141/2 75/143/2 76/145/2
f 72/137/2 73/139/2 74/141/2
f 69/132/2 71/135/2 72/137/2
f 69/132/2 72/137/2 74/141/2
f 74/141/2 76/145/2 70/133/2
f 69/132/2 74/141/2 70/133/2
f 10/14/3 29/54/3 30/56/3
f 9/12/2 10/14/2 30/56/2
f 70/133/3 49/93/3 50/95/3
f 69/132/2 70/133/2 50/95/2
f 50/95/3 9/12/3 30/56/3
f 95/181/28 98/188/28 92/177/28
f 98/189/31 97/186/31 93/178/31
f 97/186/34 94/180/34 90/171/34
f 100/192/37 103/196/37 107/201/37
f 103/196/40 102/194/40 108/203/40
f 102/194/43 99/190/43 105/199/43
f 120/220/46 123/224/46 127/229/46
f 123/224/49 122/222/49 128/231/49
f 122/222/52 119/218/52 125/227/52
f 110/206/55 113/210/55 117/215/55
f 113/210/58 112/208/58 118/217/58
f 112/208/61 109/204/61 115/213/61
f 2/3/2 91/174/2 90/171/2
f 90/171/2 99/190/2 101/193/2
f 101/193/2 1/1/2 2/3/2
f 129/232/63 134/244/63 136/248/63
f 136/249/64 135/246/64 132/239/64
f 135/246/65 133/242/65 130/234/65
f 138/252/66 140/256/66 143/263/66
f 140/256/67 139/254/67 144/265/67
f 139/254/68 137/250/68 142/261/68
f 157/287/69 154/282/69 156/285/69
f 159/291/70 156/285/70 155/283/70
f 155/283/71 153/280/71 158/289/71
f 149/274/72 146/267/72 148/271/72
f 151/277/73 148/271/73 147/269/73
f 152/279/74 147/269/74 145/266/74
f 166/306/75 168/310/75 163/300/75
f 168/311/76 167/308/76 164/302/76
f 167/308/77 165/304/77 162/297/77
f 173/321/78 170/315/78 172/319/78
f 172/319/79 171/317/79 176/327/79
f 171/317/80 169/313/80 174/323/80
f 189/349/81 186/344/81 188/348/81
f 191/353/82 188/348/82 187/346/82
f 192/355/83 187/346/83 185/343/83
f 178/330/84 180/334/84 183/339/84
f 183/339/85 180/334/85 179/332/85
f 184/341/86 179/332/86 177/328/86
f 198/368/87 200/372/87 195/361/87
f 195/362/115 200/373/115 199/370/115
f 196/364/89 199/370/89 197/366/89
f 205/383/90 202/377/90 204/381/90
f 207/387/91 204/381/91 203/379/91
f 208/389/116 203/379/116 201/375/116
f 218/406/93 220/410/93 223/415/93
f 220/410/94 219/408/94 224/417/94
f 224/417/95 219/408/95 217/405/95
f 210/392/96 212/396/96 215/401/96
f 212/396/97 211/394/97 216/403/97
f 211/394/98 209/390/98 214/399/98
f 225/419/99 230/430/99 232/434/99
f 227/424/100 232/435/100 231/432/100
f 228/426/101 231/432/101 229/428/101
f 234/439/117 236/443/117 239/449/117
f 239/449/103 236/443/103 235/441/103
f 240/451/104 235/441/104 233/437/104
f 250/468/105 252/472/105 255/477/105
f 252/472/106 251/470/106 256/479/106
f 251/470/107 249/467/107 254/475/107
f 245/460/118 242/454/118 244/458/118
f 244/458/109 243/456/109 248/465/109
f 243/456/110 241/452/110 246/461/110
f 130/235/2 137/251/2 139/255/2
f 139/255/2 140/257/2 138/253/2
f 138/253/2 153/281/2 155/284/2
f 155/284/2 156/286/2 154/282/2
f 154/282/2 145/266/2 147/270/2
f 147/270/2 148/272/2 146/268/2
f 146/268/2 129/233/2 131/238/2
f 131/238/2 132/240/2 130/235/2
f 130/235/2 139/255/2 138/253/2
f 138/253/2 155/284/2 154/282/2
f 154/282/2 147/270/2 146/268/2
f 146/268/2 131/238/2 130/235/2
f 130/235/2 138/253/2 154/282/2
