# Blender 3.4.1
# www.blender.org
mtllib table_rectangle_140x100.mtl
o Cube
v 0.506313 0.820394 0.299858
v 0.506313 0.740493 0.299858
v 0.506313 0.740493 -0.299552
v 0.506313 0.820394 -0.299552
v -0.496918 0.820394 0.299858
v -0.496918 0.820394 -0.299552
v -0.496918 0.740493 0.299858
v -0.496918 0.740493 -0.299552
v 0.707791 0.760493 -0.480078
v 0.687791 0.760493 -0.500078
v 0.693599 0.740493 -0.485985
v 0.704056 0.760493 -0.488984
v 0.706957 0.750506 -0.481947
v 0.703288 0.750929 -0.490420
v 0.689629 0.750506 -0.499275
v 0.696715 0.760493 -0.496326
v 0.698120 0.750929 -0.495588
v 0.701748 0.743165 -0.484115
v 0.691761 0.743165 -0.494102
v 0.699621 0.745760 -0.491946
v 0.687791 0.800394 -0.500078
v 0.707791 0.800394 -0.480078
v 0.687791 0.820394 -0.480078
v 0.697777 0.800394 -0.497406
v 0.687791 0.810381 -0.497406
v 0.697355 0.809958 -0.494810
v 0.705119 0.810381 -0.480078
v 0.705119 0.800394 -0.490065
v 0.702523 0.809958 -0.489642
v 0.687791 0.817722 -0.490065
v 0.697777 0.817722 -0.480078
v 0.697355 0.815127 -0.489642
v 0.687791 0.760493 0.500078
v 0.707791 0.760493 0.480078
v 0.693578 0.740493 0.486007
v 0.696719 0.760493 0.496322
v 0.689622 0.750506 0.499282
v 0.698117 0.750929 0.495591
v 0.706950 0.750506 0.481954
v 0.704060 0.760493 0.488980
v 0.703285 0.750929 0.490423
v 0.691746 0.743165 0.494117
v 0.701733 0.743165 0.484130
v 0.699612 0.745760 0.491955
v 0.707791 0.800394 0.480078
v 0.687791 0.800394 0.500078
v 0.687791 0.820394 0.480078
v 0.705119 0.800394 0.490065
v 0.705119 0.810381 0.480078
v 0.702523 0.809958 0.489642
v 0.687791 0.810381 0.497406
v 0.697777 0.800394 0.497406
v 0.697355 0.809958 0.494810
v 0.697777 0.817722 0.480078
v 0.687791 0.817722 0.490065
v 0.697355 0.815127 0.489642
v -0.676575 0.760493 -0.500078
v -0.696575 0.760493 -0.480078
v -0.682463 0.740493 -0.485905
v -0.685485 0.760493 -0.496340
v -0.678438 0.750506 -0.499250
v -0.686915 0.750929 -0.495578
v -0.695767 0.750506 -0.481922
v -0.692826 0.760493 -0.488999
v -0.692083 0.750929 -0.490409
v -0.680600 0.743165 -0.494048
v -0.690587 0.743165 -0.484061
v -0.688436 0.745760 -0.491915
v -0.676575 0.820394 -0.480078
v -0.696575 0.800394 -0.480078
v -0.676575 0.800394 -0.500078
v -0.686562 0.817722 -0.480078
v -0.676575 0.817722 -0.490065
v -0.686139 0.815127 -0.489642
v -0.693903 0.800394 -0.490065
v -0.693903 0.810381 -0.480078
v -0.691307 0.809958 -0.489642
v -0.676575 0.810381 -0.497406
v -0.686562 0.800394 -0.497406
v -0.686139 0.809958 -0.494810
v -0.696575 0.760493 0.480078
v -0.676575 0.760493 0.500078
v -0.682453 0.740493 0.485916
v -0.692828 0.760493 0.488997
v -0.695763 0.750506 0.481925
v -0.692081 0.750929 0.490411
v -0.678435 0.750506 0.499253
v -0.685487 0.760493 0.496338
v -0.686913 0.750929 0.495579
v -0.690579 0.743165 0.484068
v -0.680592 0.743165 0.494055
v -0.688432 0.745760 0.491919
v -0.676575 0.820394 0.480078
v -0.676575 0.800394 0.500078
v -0.696575 0.800394 0.480078
v -0.676575 0.817722 0.490065
v -0.686562 0.817722 0.480078
v -0.686139 0.815127 0.489642
v -0.686562 0.800394 0.497406
v -0.676575 0.810381 0.497406
v -0.686139 0.809958 0.494810
v -0.693903 0.810381 0.480078
v -0.693903 0.800394 0.490065
v -0.691307 0.809958 0.489642
v -0.696575 0.800394 0.299858
v -0.676575 0.820394 0.299858
v -0.693895 0.810394 0.299858
v -0.686575 0.817715 0.299858
v 0.707791 0.760493 0.299858
v 0.687791 0.740493 0.299858
v 0.705111 0.750493 0.299858
v 0.697791 0.743172 0.299858
v -0.676575 0.740493 0.299858
v -0.696575 0.760493 0.299858
v -0.686575 0.743172 0.299858
v -0.693895 0.750493 0.299858
v 0.687791 0.820394 0.299858
v 0.707791 0.800394 0.299858
v 0.697791 0.817715 0.299858
v 0.705111 0.810394 0.299858
v -0.696575 0.760493 -0.299552
v -0.676575 0.740493 -0.299552
v -0.693895 0.750493 -0.299552
v -0.686575 0.743172 -0.299552
v 0.707791 0.800394 -0.299552
v 0.687791 0.820394 -0.299552
v 0.705111 0.810394 -0.299552
v 0.697791 0.817715 -0.299552
v -0.696575 0.800394 -0.299552
v -0.676575 0.820394 -0.299552
v -0.693895 0.810394 -0.299552
v -0.686575 0.817715 -0.299552
v 0.707791 0.760493 -0.299552
v 0.687791 0.740493 -0.299552
v 0.705111 0.750493 -0.299552
v 0.697791 0.743172 -0.299552
v 0.506313 0.820394 -0.480078
v 0.506313 0.800394 -0.500078
v 0.506313 0.817715 -0.490078
v 0.506313 0.810394 -0.497398
v 0.506313 0.740493 0.480078
v 0.506313 0.760493 0.500078
v 0.506313 0.743172 0.490078
v 0.506313 0.750493 0.497398
v 0.506313 0.800394 0.500078
v 0.506313 0.820394 0.480078
v 0.506313 0.810394 0.497398
v 0.506313 0.817715 0.490078
v 0.506313 0.760493 -0.500078
v 0.506313 0.740493 -0.480078
v 0.506313 0.750493 -0.497398
v 0.506313 0.743172 -0.490078
v -0.496918 0.800394 -0.500078
v -0.496918 0.820394 -0.480078
v -0.496918 0.810394 -0.497398
v -0.496918 0.817715 -0.490078
v -0.496918 0.760493 0.500078
v -0.496918 0.740493 0.480078
v -0.496918 0.750493 0.497398
v -0.496918 0.743172 0.490078
v -0.496918 0.800394 0.500078
v -0.496918 0.820394 0.480078
v -0.496918 0.810394 0.497398
v -0.496918 0.817715 0.490078
v -0.496918 0.760493 -0.500078
v -0.496918 0.740493 -0.480078
v -0.496918 0.750493 -0.497398
v -0.496918 0.743172 -0.490078
v 0.606988 0.720493 0.320238
v 0.626988 0.740493 0.300163
v 0.586988 0.720493 0.300238
v 0.609941 0.730287 0.313841
v 0.604020 0.720493 0.310422
v 0.607474 0.729981 0.307133
v 0.621629 0.737813 0.300198
v 0.617194 0.737540 0.306560
v 0.613051 0.735475 0.303899
v 0.596805 0.720493 0.303206
v 0.606988 0.730493 0.300227
v 0.606348 0.730156 0.302820
v 0.606988 0.720493 0.380278
v 0.586988 0.720493 0.400278
v 0.621201 0.740493 0.414350
v 0.604020 0.720493 0.390095
v 0.609123 0.730363 0.393168
v 0.606399 0.730046 0.396641
v 0.599987 0.730365 0.402393
v 0.596805 0.720493 0.397311
v 0.603400 0.730048 0.399667
v 0.614339 0.737632 0.405592
v 0.612463 0.737635 0.407558
v 0.609166 0.735426 0.402383
v 0.526320 0.720493 0.300238
v 0.505968 0.740493 0.280241
v 0.506320 0.720493 0.320238
v 0.519834 0.730286 0.297286
v 0.516503 0.720493 0.303206
v 0.513164 0.729981 0.299753
v 0.506133 0.737813 0.285604
v 0.512453 0.737540 0.290034
v 0.509881 0.735475 0.294178
v 0.509287 0.720493 0.310422
v 0.506265 0.730493 0.300244
v 0.508865 0.730156 0.300881
v 0.526320 0.720493 0.400278
v 0.506320 0.720493 0.380278
v 0.506318 0.740493 0.420278
v 0.516503 0.720493 0.397311
v 0.519946 0.730287 0.403231
v 0.513227 0.729982 0.400764
v 0.506319 0.730493 0.400278
v 0.509287 0.720493 0.390095
v 0.508912 0.730156 0.399638
v 0.512692 0.737540 0.410484
v 0.506319 0.737813 0.414919
v 0.510007 0.735475 0.406341
v 0.526314 0.720493 -0.399616
v 0.506314 0.740493 -0.419616
v 0.506314 0.720493 -0.379616
v 0.519941 0.730287 -0.402569
v 0.516498 0.720493 -0.396649
v 0.513222 0.729982 -0.400102
v 0.506314 0.737813 -0.414257
v 0.512688 0.737540 -0.409822
v 0.510002 0.735475 -0.405679
v 0.509282 0.720493 -0.389433
v 0.506314 0.730493 -0.399616
v 0.508906 0.730156 -0.398976
v 0.586627 0.720493 -0.399616
v 0.606627 0.720493 -0.379616
v 0.620818 0.740493 -0.413709
v 0.596444 0.720493 -0.396649
v 0.599609 0.730365 -0.401733
v 0.603031 0.730048 -0.399008
v 0.608759 0.730364 -0.392522
v 0.603660 0.720493 -0.389433
v 0.606035 0.730046 -0.395986
v 0.612078 0.737634 -0.406907
v 0.613967 0.737633 -0.404954
v 0.608794 0.735426 -0.401732
v 0.606627 0.720493 -0.319598
v 0.586627 0.720493 -0.299598
v 0.626627 0.740493 -0.299589
v 0.603660 0.720493 -0.309782
v 0.609580 0.730287 -0.313222
v 0.607113 0.729982 -0.306504
v 0.606627 0.730493 -0.299597
v 0.596444 0.720493 -0.302566
v 0.605987 0.730156 -0.302189
v 0.616833 0.737540 -0.305965
v 0.621268 0.737813 -0.299593
v 0.612690 0.735475 -0.303283
v 0.526314 0.720493 -0.299598
v 0.506314 0.720493 -0.319598
v 0.505771 0.740493 -0.279605
v 0.516498 0.720493 -0.302566
v 0.519767 0.730286 -0.296647
v 0.513124 0.729981 -0.299114
v 0.506230 0.730493 -0.299612
v 0.509282 0.720493 -0.309782
v 0.508834 0.730156 -0.300244
v 0.512315 0.737541 -0.289395
v 0.506026 0.737813 -0.284974
v 0.509806 0.735475 -0.293542
v -0.516935 0.720493 0.401177
v -0.496932 0.740493 0.421177
v -0.496935 0.720493 0.381177
v -0.510561 0.730287 0.404130
v -0.507119 0.720493 0.398209
v -0.503843 0.729982 0.401663
v -0.496934 0.737813 0.415818
v -0.503307 0.737540 0.411383
v -0.500622 0.735475 0.407240
v -0.499903 0.720493 0.390993
v -0.496935 0.730493 0.401177
v -0.499527 0.730156 0.400537
v -0.577952 0.720493 0.401177
v -0.597952 0.720493 0.381177
v -0.612074 0.740493 0.415339
v -0.587769 0.720493 0.398210
v -0.590881 0.730364 0.403304
v -0.594332 0.730047 0.400580
v -0.600074 0.730365 0.394136
v -0.594985 0.720493 0.390993
v -0.597349 0.730047 0.397571
v -0.603324 0.737633 0.408502
v -0.605258 0.737634 0.406594
v -0.600084 0.735426 0.403329
v -0.597952 0.720493 0.319876
v -0.577952 0.720493 0.299876
v -0.617952 0.740493 0.299872
v -0.594985 0.720493 0.310059
v -0.600905 0.730287 0.313501
v -0.598438 0.729982 0.306783
v -0.597952 0.730493 0.299875
v -0.587769 0.720493 0.302843
v -0.597312 0.730156 0.302467
v -0.608158 0.737540 0.306247
v -0.612593 0.737813 0.299874
v -0.604015 0.735475 0.303562
v -0.516935 0.720493 0.299876
v -0.496935 0.720493 0.319876
v -0.482624 0.740493 0.285904
v -0.507119 0.720493 0.302843
v -0.503860 0.730367 0.297776
v -0.500490 0.730049 0.300503
v -0.494787 0.730362 0.307062
v -0.499903 0.720493 0.310059
v -0.497509 0.730045 0.303547
v -0.491347 0.737636 0.292645
v -0.489536 0.737631 0.294675
v -0.494706 0.735426 0.297822
v -0.597064 0.720493 -0.319558
v -0.617064 0.740493 -0.299557
v -0.577064 0.720493 -0.299558
v -0.600017 0.730287 -0.313184
v -0.594097 0.720493 -0.309742
v -0.597550 0.729982 -0.306466
v -0.611705 0.737813 -0.299557
v -0.607270 0.737540 -0.305931
v -0.603127 0.735475 -0.303246
v -0.586881 0.720493 -0.302526
v -0.597064 0.730493 -0.299558
v -0.596424 0.730156 -0.302150
v -0.597064 0.720493 -0.380136
v -0.577064 0.720493 -0.400136
v -0.611176 0.740493 -0.414308
v -0.594097 0.720493 -0.389952
v -0.599184 0.730365 -0.393103
v -0.596459 0.730047 -0.396533
v -0.589985 0.730364 -0.402265
v -0.586881 0.720493 -0.397168
v -0.593441 0.730047 -0.399540
v -0.604364 0.737634 -0.405565
v -0.602424 0.737633 -0.407466
v -0.599190 0.735426 -0.402293
v -0.516922 0.720493 -0.400136
v -0.496922 0.720493 -0.380136
v -0.496922 0.740493 -0.420136
v -0.507106 0.720493 -0.397168
v -0.510549 0.730287 -0.403089
v -0.503830 0.729982 -0.400622
v -0.496922 0.730493 -0.400136
v -0.499890 0.720493 -0.389952
v -0.499514 0.730156 -0.399496
v -0.503295 0.737540 -0.410342
v -0.496922 0.737813 -0.414777
v -0.500610 0.735475 -0.406198
v -0.516922 0.720493 -0.299558
v -0.484835 0.740493 -0.283624
v -0.496922 0.720493 -0.319558
v -0.505400 0.730337 -0.297179
v -0.507106 0.720493 -0.302526
v -0.501187 0.730024 -0.299867
v -0.490637 0.737670 -0.291954
v -0.493712 0.737604 -0.291351
v -0.495787 0.735430 -0.296433
v -0.499890 0.720493 -0.309742
v -0.495094 0.730395 -0.305072
v -0.497836 0.730073 -0.302490
v 0.606988 0.020421 0.320238
v 0.586988 0.020421 0.300238
v 0.586988 0.000421 0.320238
v 0.604316 0.020421 0.310252
v 0.604316 0.010434 0.320238
v 0.601721 0.010857 0.310674
v 0.586988 0.010434 0.302910
v 0.596975 0.020421 0.302910
v 0.596552 0.010857 0.305506
v 0.596975 0.003093 0.320238
v 0.586988 0.003093 0.310252
v 0.596552 0.005688 0.310674
v 0.606988 0.020421 0.380278
v 0.586988 0.000421 0.380278
v 0.586988 0.020421 0.400278
v 0.604316 0.010434 0.380278
v 0.604316 0.020421 0.390265
v 0.601721 0.010857 0.389842
v 0.586988 0.003093 0.390265
v 0.596975 0.003093 0.380278
v 0.596552 0.005688 0.389842
v 0.596975 0.020421 0.397606
v 0.586988 0.010434 0.397606
v 0.596552 0.010857 0.395011
v 0.526320 0.020421 0.300238
v 0.506320 0.020421 0.320238
v 0.526320 0.000421 0.320238
v 0.516333 0.020421 0.302910
v 0.526320 0.010434 0.302910
v 0.516755 0.010857 0.305506
v 0.508992 0.010434 0.320238
v 0.508992 0.020421 0.310252
v 0.511587 0.010857 0.310674
v 0.526320 0.003093 0.310252
v 0.516333 0.003093 0.320238
v 0.516755 0.005688 0.310674
v 0.526320 0.020421 0.400278
v 0.526320 0.000421 0.380278
v 0.506320 0.020421 0.380278
v 0.526320 0.010434 0.397606
v 0.516333 0.020421 0.397606
v 0.516755 0.010857 0.395011
v 0.516333 0.003093 0.380278
v 0.526320 0.003093 0.390265
v 0.516755 0.005688 0.389842
v 0.508992 0.020421 0.390265
v 0.508992 0.010434 0.380278
v 0.511587 0.010857 0.389842
v 0.526314 0.020421 -0.399616
v 0.506314 0.020421 -0.379616
v 0.526314 0.000421 -0.379616
v 0.516327 0.020421 -0.396944
v 0.526314 0.010434 -0.396944
v 0.516750 0.010857 -0.394349
v 0.508986 0.010434 -0.379616
v 0.508986 0.020421 -0.389603
v 0.511582 0.010857 -0.389180
v 0.526314 0.003093 -0.389603
v 0.516327 0.003093 -0.379616
v 0.516750 0.005688 -0.389180
v 0.586627 0.020421 -0.399616
v 0.586627 0.000421 -0.379616
v 0.606627 0.020421 -0.379616
v 0.586627 0.010434 -0.396944
v 0.596614 0.020421 -0.396944
v 0.596191 0.010857 -0.394349
v 0.596614 0.003093 -0.379616
v 0.586627 0.003093 -0.389603
v 0.596191 0.005688 -0.389180
v 0.603955 0.020421 -0.389603
v 0.603955 0.010434 -0.379616
v 0.601360 0.010857 -0.389180
v 0.606627 0.020421 -0.319598
v 0.586627 0.000421 -0.319598
v 0.586627 0.020421 -0.299598
v 0.603955 0.010434 -0.319598
v 0.603955 0.020421 -0.309611
v 0.601360 0.010857 -0.310034
v 0.586627 0.003093 -0.309611
v 0.596614 0.003093 -0.319598
v 0.596191 0.005688 -0.310034
v 0.596614 0.020421 -0.302270
v 0.586627 0.010434 -0.302270
v 0.596191 0.010857 -0.304866
v 0.526314 0.020421 -0.299598
v 0.526314 0.000421 -0.319598
v 0.506314 0.020421 -0.319598
v 0.526314 0.010434 -0.302270
v 0.516327 0.020421 -0.302270
v 0.516750 0.010857 -0.304866
v 0.516327 0.003093 -0.319598
v 0.526314 0.003093 -0.309611
v 0.516750 0.005688 -0.310034
v 0.508986 0.020421 -0.309611
v 0.508986 0.010434 -0.319598
v 0.511582 0.010857 -0.310034
v -0.516935 0.020421 0.401177
v -0.496935 0.020421 0.381177
v -0.516935 0.000421 0.381177
v -0.506949 0.020421 0.398505
v -0.516935 0.010434 0.398505
v -0.507371 0.010857 0.395910
v -0.499607 0.010434 0.381177
v -0.499607 0.020421 0.391164
v -0.502203 0.010857 0.390741
v -0.516935 0.003093 0.391164
v -0.506949 0.003093 0.381177
v -0.507371 0.005688 0.390741
v -0.577952 0.020421 0.401177
v -0.577952 0.000421 0.381177
v -0.597952 0.020421 0.381177
v -0.577952 0.010434 0.398505
v -0.587939 0.020421 0.398505
v -0.587516 0.010857 0.395910
v -0.587939 0.003093 0.381177
v -0.577952 0.003093 0.391164
v -0.587516 0.005688 0.390741
v -0.595280 0.020421 0.391164
v -0.595280 0.010434 0.381177
v -0.592685 0.010857 0.390741
v -0.597952 0.020421 0.319876
v -0.577952 0.000421 0.319876
v -0.577952 0.020421 0.299876
v -0.595280 0.010434 0.319876
v -0.595280 0.020421 0.309889
v -0.592685 0.010857 0.310311
v -0.577952 0.003093 0.309889
v -0.587939 0.003093 0.319876
v -0.587516 0.005688 0.310311
v -0.587939 0.020421 0.302547
v -0.577952 0.010434 0.302547
v -0.587516 0.010857 0.305143
v -0.516935 0.020421 0.299876
v -0.516935 0.000421 0.319876
v -0.496935 0.020421 0.319876
v -0.516935 0.010434 0.302547
v -0.506949 0.020421 0.302547
v -0.507371 0.010857 0.305143
v -0.506949 0.003093 0.319876
v -0.516935 0.003093 0.309889
v -0.507371 0.005688 0.310311
v -0.499607 0.020421 0.309889
v -0.499607 0.010434 0.319876
v -0.502203 0.010857 0.310311
v -0.597064 0.020421 -0.319558
v -0.577064 0.020421 -0.299558
v -0.577064 0.000421 -0.319558
v -0.594392 0.020421 -0.309571
v -0.594392 0.010434 -0.319558
v -0.591797 0.010857 -0.309994
v -0.577064 0.010434 -0.302230
v -0.587051 0.020421 -0.302230
v -0.586629 0.010857 -0.304826
v -0.587051 0.003093 -0.319558
v -0.577064 0.003093 -0.309571
v -0.586629 0.005688 -0.309994
v -0.597064 0.020421 -0.380136
v -0.577064 0.000421 -0.380136
v -0.577064 0.020421 -0.400136
v -0.594392 0.010434 -0.380136
v -0.594392 0.020421 -0.390123
v -0.591797 0.010857 -0.389700
v -0.577064 0.003093 -0.390123
v -0.587051 0.003093 -0.380136
v -0.586629 0.005688 -0.389700
v -0.587051 0.020421 -0.397464
v -0.577064 0.010434 -0.397464
v -0.586629 0.010857 -0.394868
v -0.516922 0.020421 -0.400136
v -0.516922 0.000421 -0.380136
v -0.496922 0.020421 -0.380136
v -0.516922 0.010434 -0.397464
v -0.506936 0.020421 -0.397464
v -0.507358 0.010857 -0.394868
v -0.506936 0.003093 -0.380136
v -0.516922 0.003093 -0.390123
v -0.507358 0.005688 -0.389700
v -0.499594 0.020421 -0.390123
v -0.499594 0.010434 -0.380136
v -0.502190 0.010857 -0.389700
v -0.516922 0.020421 -0.299558
v -0.496922 0.020421 -0.319558
v -0.516922 0.000421 -0.319558
v -0.506936 0.020421 -0.302230
v -0.516922 0.010434 -0.302230
v -0.507358 0.010857 -0.304826
v -0.499594 0.010434 -0.319558
v -0.499594 0.020421 -0.309571
v -0.502190 0.010857 -0.309994
v -0.516922 0.003093 -0.309571
v -0.506936 0.003093 -0.319558
v -0.507358 0.005688 -0.309994
vn -0.0000 -1.0000 -0.0000
vn -0.0000 1.0000 -0.0000
vn -0.0000 -0.0000 1.0000
vn -0.0000 -0.0000 -1.0000
vn -1.0000 -0.0000 -0.0000
vn 1.0000 -0.0000 -0.0000
vn -0.9199 0.0091 0.3921
vn -0.7063 -0.0493 0.7062
vn -0.3930 0.0072 0.9195
vn -0.3729 0.4597 0.8060
vn -0.3733 0.8493 0.3733
vn -0.8054 0.4617 0.3718
vn -0.6786 0.2811 0.6786
vn -0.2566 -0.2566 0.9318
vn -0.6901 -0.2178 0.6901
vn -0.9318 -0.2566 0.2566
vn -0.6901 -0.6901 0.2178
vn -0.2566 -0.9318 0.2566
vn -0.2178 -0.6901 0.6901
vn -0.5773 -0.5774 0.5774
vn -0.3932 0.0068 -0.9194
vn -0.7062 -0.0493 -0.7062
vn -0.9200 0.0095 -0.3919
vn -0.8053 0.4621 -0.3715
vn -0.3733 0.8493 -0.3733
vn -0.3731 0.4592 -0.8062
vn -0.6786 0.2811 -0.6786
vn -0.9318 -0.2566 -0.2566
vn -0.6901 -0.2178 -0.6901
vn -0.2566 -0.2566 -0.9318
vn -0.2178 -0.6901 -0.6901
vn -0.2566 -0.9318 -0.2566
vn -0.6901 -0.6901 -0.2178
vn -0.5774 -0.5773 -0.5774
vn 0.3922 0.0087 0.9198
vn 0.7062 -0.0493 0.7062
vn 0.9196 0.0076 0.3928
vn 0.8059 0.4600 0.3727
vn 0.3733 0.8493 0.3733
vn 0.3720 0.4613 0.8055
vn 0.6786 0.2811 0.6786
vn 0.2566 -0.9318 0.2566
vn 0.6901 -0.6901 0.2178
vn 0.9318 -0.2566 0.2566
vn 0.6901 -0.2178 0.6901
vn 0.2566 -0.2566 0.9318
vn 0.2178 -0.6901 0.6901
vn 0.5774 -0.5773 0.5773
vn 0.9196 0.0078 -0.3927
vn 0.7062 -0.0493 -0.7062
vn 0.3923 0.0085 -0.9198
vn 0.3721 0.4611 -0.8056
vn 0.3733 0.8493 -0.3733
vn 0.8058 0.4603 -0.3725
vn 0.6786 0.2811 -0.6786
vn 0.2566 -0.9318 -0.2566
vn 0.2178 -0.6901 -0.6901
vn 0.2566 -0.2566 -0.9318
vn 0.6901 -0.2178 -0.6901
vn 0.9318 -0.2566 -0.2566
vn 0.6901 -0.6901 -0.2178
vn 0.5773 -0.5774 -0.5774
vn -0.8622 0.4249 0.2757
vn -0.5907 0.7762 0.2203
vn -0.3835 0.8947 -0.2289
vn -0.4674 0.8173 -0.3371
vn -0.3952 0.6077 0.6889
vn -0.6721 0.5510 0.4947
vn -0.6288 0.7528 0.1946
vn -0.7938 0.5124 -0.3277
vn -0.5905 0.5517 -0.5890
vn -0.3287 0.5138 -0.7924
vn -0.4643 0.8416 -0.2759
vn -0.2064 0.9582 -0.1981
vn -0.2841 0.8409 -0.4607
vn -0.4735 0.7450 -0.4698
vn 0.2760 0.4267 0.8613
vn 0.2216 0.7775 0.5885
vn -0.2324 0.8925 0.3866
vn -0.3371 0.8161 0.4694
vn 0.6876 0.6094 0.3946
vn 0.4946 0.5524 0.6710
vn 0.1952 0.7536 0.6277
vn 0.2756 0.4245 -0.8625
vn 0.4947 0.5506 -0.6724
vn 0.6893 0.6071 -0.3953
vn -0.3370 0.8176 -0.4669
vn -0.2279 0.8953 -0.3827
vn 0.2200 0.7759 -0.5913
vn 0.1945 0.7526 -0.6291
vn 0.2756 0.4244 0.8625
vn 0.2200 0.7759 0.5913
vn -0.2279 0.8953 0.3827
vn -0.3370 0.8176 0.4669
vn 0.6893 0.6071 0.3953
vn 0.4947 0.5506 0.6724
vn 0.1945 0.7526 0.6291
vn -0.3285 0.5136 0.7926
vn -0.5903 0.5517 0.5892
vn -0.7936 0.5126 0.3279
vn -0.2829 0.8410 0.4612
vn -0.2052 0.9582 0.1994
vn -0.4637 0.8415 0.2771
vn -0.4730 0.7450 0.4703
vn -0.8624 0.4245 -0.2756
vn -0.6723 0.5507 -0.4947
vn -0.3953 0.6072 -0.6892
vn -0.4669 0.8175 0.3371
vn -0.3828 0.8953 0.2280
vn -0.5912 0.7759 -0.2200
vn -0.6290 0.7526 -0.1945
vn 0.2762 0.4279 -0.8606
vn 0.4945 0.5533 -0.6703
vn 0.6869 0.6105 -0.3942
vn -0.3368 0.8154 -0.4708
vn -0.2347 0.8910 -0.3887
vn 0.2225 0.7784 -0.5870
vn 0.1958 0.7541 -0.6269
vn -0.2756 0.4245 -0.8625
vn -0.2200 0.7759 -0.5912
vn 0.2279 0.8953 -0.3827
vn 0.3370 0.8176 -0.4669
vn -0.6893 0.6072 -0.3953
vn -0.4947 0.5506 -0.6724
vn -0.1945 0.7526 -0.6291
vn 0.3281 0.5129 -0.7933
vn 0.5896 0.5517 -0.5900
vn 0.7929 0.5133 -0.3283
vn 0.2788 0.8414 -0.4630
vn 0.2011 0.9582 -0.2034
vn 0.4620 0.8412 -0.2812
vn 0.4712 0.7450 -0.4722
vn 0.8625 0.4245 0.2756
vn 0.6724 0.5506 0.4947
vn 0.3953 0.6071 0.6893
vn 0.4669 0.8176 -0.3370
vn 0.3827 0.8953 -0.2280
vn 0.5912 0.7759 0.2200
vn 0.6291 0.7526 0.1945
vn -0.3294 0.5149 0.7915
vn -0.5915 0.5517 0.5880
vn -0.7947 0.5113 0.3270
vn -0.2898 0.8404 0.4581
vn -0.2122 0.9581 0.1921
vn -0.4668 0.8421 0.2700
vn -0.4761 0.7450 0.4671
vn 0.8625 0.4245 -0.2756
vn 0.5913 0.7759 -0.2200
vn 0.3827 0.8953 0.2279
vn 0.4669 0.8176 0.3370
vn 0.3953 0.6071 -0.6893
vn 0.6724 0.5506 -0.4947
vn 0.6291 0.7526 -0.1945
vn 0.7928 0.5134 0.3284
vn 0.5894 0.5517 0.5901
vn 0.3280 0.5128 0.7934
vn 0.4617 0.8411 0.2818
vn 0.2005 0.9582 0.2041
vn 0.2782 0.8414 0.4633
vn 0.4709 0.7450 0.4725
vn -0.2756 0.4245 0.8625
vn -0.4947 0.5506 0.6724
vn -0.6893 0.6071 0.3953
vn 0.3370 0.8176 0.4669
vn 0.2279 0.8953 0.3827
vn -0.2200 0.7759 0.5913
vn -0.1945 0.7526 0.6291
vn -0.3155 0.4945 -0.8099
vn -0.4102 0.8298 -0.3784
vn -0.0804 0.9486 -0.3062
vn -0.1535 0.8483 -0.5067
vn -0.7724 0.5353 -0.3418
vn -0.5692 0.5530 -0.6085
vn -0.4171 0.7463 -0.5188
vn -0.9318 0.2566 0.2566
vn -0.6901 0.2178 0.6901
vn -0.2566 0.2566 0.9318
vn -0.2178 0.6901 0.6901
vn -0.2566 0.9318 0.2566
vn -0.6901 0.6901 0.2178
vn -0.5773 0.5773 0.5774
vn -0.9318 0.2566 -0.2566
vn -0.6901 0.6901 -0.2178
vn -0.2566 0.9318 -0.2566
vn -0.2178 0.6901 -0.6901
vn -0.2566 0.2566 -0.9318
vn -0.6901 0.2178 -0.6901
vn -0.5774 0.5773 -0.5774
vn 0.2566 0.2566 0.9318
vn 0.6901 0.2178 0.6901
vn 0.9318 0.2566 0.2566
vn 0.6901 0.6901 0.2178
vn 0.2566 0.9318 0.2566
vn 0.2178 0.6901 0.6901
vn 0.5773 0.5774 0.5773
vn 0.2566 0.2566 -0.9318
vn 0.2178 0.6901 -0.6901
vn 0.2566 0.9318 -0.2566
vn 0.6901 0.6901 -0.2178
vn 0.9318 0.2566 -0.2566
vn 0.6901 0.2178 -0.6901
vn 0.5774 0.5774 -0.5774
vn -0.5774 0.5773 -0.5773
vn 0.5773 0.5774 -0.5773
vn -0.5773 0.5774 -0.5774
vn 0.5773 0.5774 -0.5774
vn 0.5774 0.5773 0.5773
vn -0.5774 0.5773 0.5773
vn 0.5773 0.5773 -0.5774
vn -0.5773 0.5774 0.5773
vn -0.5773 0.5774 -0.5773
vn 0.2586 -0.9660 -0.0000
vn 0.7071 -0.7071 -0.0000
vn 0.9660 -0.2586 -0.0000
vn -0.0000 -0.9660 0.2586
vn -0.0000 -0.7071 0.7071
vn -0.0000 -0.2586 0.9660
vn -0.9469 0.0170 0.3211
vn -0.7066 0.0379 0.7066
vn -0.3216 0.0171 0.9467
vn 0.3212 0.0170 -0.9469
vn 0.7066 0.0379 -0.7066
vn 0.9468 0.0171 -0.3214
vn -0.3217 0.0171 -0.9467
vn -0.7066 0.0379 -0.7066
vn -0.9469 0.0169 -0.3209
vn 0.3212 0.0170 0.9469
vn 0.7066 0.0379 0.7066
vn 0.9468 0.0171 0.3215
vn -0.0075 0.9593 -0.2822
vn -0.0121 0.6503 -0.7596
vn -0.0051 0.1731 -0.9849
vn -0.2820 0.9594 0.0074
vn -0.7591 0.6509 0.0120
vn -0.9848 0.1739 0.0050
vn -0.0000 -0.9660 -0.2586
vn -0.0000 -0.7071 -0.7071
vn -0.0000 -0.2586 -0.9660
vn 0.2825 0.9592 -0.0076
vn 0.7600 0.6498 -0.0122
vn 0.9850 0.1724 -0.0051
vn 0.0075 0.9592 0.2826
vn 0.0122 0.6496 0.7602
vn 0.0051 0.1721 0.9851
vn -0.2586 -0.9660 -0.0000
vn -0.7071 -0.7071 -0.0000
vn -0.9660 -0.2586 -0.0000
vn 0.2588 -0.9659 -0.0000
vn 0.9659 -0.2588 -0.0000
vn -0.2588 0.9659 -0.0000
vn -0.7071 0.7071 -0.0000
vn -0.9659 0.2588 -0.0000
vn 0.2824 0.9593 0.0076
vn 0.7599 0.6499 0.0122
vn 0.9850 0.1725 0.0051
vn 0.2588 0.9659 -0.0000
vn 0.7071 0.7071 -0.0000
vn 0.9659 0.2588 -0.0000
vn -0.2588 -0.9659 -0.0000
vn -0.9659 -0.2588 -0.0000
vn -0.2821 0.9594 -0.0074
vn -0.7593 0.6506 -0.0120
vn -0.9848 0.1736 -0.0050
vn 0.0076 0.9592 -0.2827
vn 0.0122 0.6493 -0.7604
vn 0.0051 0.1717 -0.9851
vn -0.0000 -0.9659 -0.2588
vn -0.0000 -0.2588 -0.9659
vn -0.0000 0.9659 0.2588
vn -0.0000 0.7071 0.7071
vn -0.0000 0.2588 0.9659
vn -0.0000 -0.9659 0.2588
vn -0.0000 -0.2588 0.9659
vn -0.0000 0.9659 -0.2588
vn -0.0000 0.7071 -0.7071
vn -0.0000 0.2588 -0.9659
vn -0.0075 0.9593 0.2822
vn -0.0121 0.6504 0.7595
vn -0.0050 0.1733 0.9849
vn -0.9676 0.2522 -0.0058
vn -0.7558 0.6547 -0.0162
vn -0.3278 0.9447 -0.0137
vn -0.0199 0.1613 0.9867
vn -0.0599 0.4698 0.8807
vn -0.0666 0.8624 0.5018
vn -0.0059 0.2514 -0.9679
vn -0.0165 0.6532 -0.7570
vn -0.0140 0.9443 -0.3288
vn 0.9995 0.0309 -0.0020
vn 1.0000 0.0091 -0.0010
vn 1.0000 0.0027 -0.0003
vn -0.0059 0.2515 0.9678
vn -0.0165 0.6535 0.7568
vn -0.0140 0.9443 0.3287
vn -0.9677 0.2521 0.0058
vn -0.7559 0.6545 0.0163
vn -0.3279 0.9446 0.0138
vn -0.0671 0.8614 -0.5034
vn -0.0603 0.4685 -0.8814
vn -0.0200 0.1608 -0.9868
vn 0.9989 0.0475 0.0031
vn 0.9999 0.0140 0.0016
vn 1.0000 0.0042 0.0005
vn 0.0058 0.2519 -0.9677
vn 0.0162 0.6541 -0.7562
vn 0.0137 0.9445 -0.3281
vn 0.9678 0.2517 -0.0058
vn 0.7566 0.6537 -0.0162
vn 0.3285 0.9444 -0.0138
vn 0.0135 0.1098 0.9939
vn 0.0412 0.3368 0.9407
vn 0.0542 0.7583 0.6496
vn -0.9936 0.1125 -0.0138
vn -0.9380 0.3442 -0.0421
vn -0.6409 0.7657 -0.0548
vn 0.9678 0.2516 0.0059
vn 0.7566 0.6536 0.0164
vn 0.3285 0.9444 0.0139
vn 0.0059 0.2520 0.9677
vn 0.0163 0.6543 0.7561
vn 0.0138 0.9446 0.3280
vn 0.0587 0.7971 -0.6011
vn 0.0473 0.3789 -0.9242
vn 0.0157 0.1256 -0.9920
vn -0.9954 0.0947 0.0118
vn -0.9547 0.2953 0.0359
vn -0.7006 0.7118 0.0500
vn -0.2585 0.9660 -0.0000
vn -0.9660 0.2585 -0.0000
vn -0.0000 0.9660 0.2585
vn -0.0000 0.2585 0.9660
vn -0.0000 0.9660 -0.2585
vn -0.0000 0.2585 -0.9660
vn 0.9660 0.2585 -0.0000
vn 0.2585 0.9660 -0.0000
vn -0.2739 -0.0002 0.9618
vn -0.7071 -0.0005 0.7071
vn -0.9618 -0.0002 0.2739
vn -0.2739 -0.0002 -0.9618
vn -0.7071 -0.0005 -0.7071
vn -0.9618 -0.0002 -0.2739
vn 0.9618 -0.0002 0.2739
vn 0.7071 -0.0005 0.7071
vn 0.2739 -0.0002 0.9618
vn 0.9618 -0.0002 -0.2739
vn 0.7071 -0.0005 -0.7071
vn 0.2739 -0.0002 -0.9618
vt 0.250000 0.625000
vt 0.750000 0.625000
vt 0.750000 0.524621
vt 0.250000 0.524621
vt 0.187500 0.625000
vt 0.187500 0.524621
vt 0.812500 0.625000
vt 0.812500 0.524621
vt 0.562423 0.502456
vt 0.562423 0.487592
vt 0.625000 0.500000
vt 0.562423 0.501362
vt 0.593670 0.502226
vt 0.592348 0.501186
vt 0.593670 0.488732
vt 0.562423 0.493129
vt 0.592348 0.494000
vt 0.625000 0.501268
vt 0.625000 0.498647
vt 0.625000 0.493566
vt 0.625000 0.500002
vt 0.437577 0.487592
vt 0.437577 0.502456
vt 0.362592 0.502456
vt 0.437577 0.493788
vt 0.406330 0.487592
vt 0.407652 0.493525
vt 0.406330 0.502456
vt 0.437577 0.501229
vt 0.407652 0.501281
vt 0.407652 0.496732
vt 0.362592 0.500000
vt 0.375000 0.487592
vt 0.368788 0.502456
vt 0.368526 0.500000
vt 0.375000 0.493525
vt 0.562423 0.762408
vt 0.562423 0.737514
vt 0.625000 0.750000
vt 0.562423 0.756869
vt 0.593670 0.761272
vt 0.592348 0.756002
vt 0.593670 0.738685
vt 0.562423 0.743072
vt 0.592348 0.743972
vt 0.625000 0.756440
vt 0.625000 0.743098
vt 0.625000 0.743560
vt 0.625000 0.749982
vt 0.437577 0.737514
vt 0.437577 0.762408
vt 0.362592 0.737514
vt 0.437577 0.743749
vt 0.406330 0.737514
vt 0.407652 0.743485
vt 0.407652 0.753268
vt 0.406330 0.762408
vt 0.437577 0.756212
vt 0.407652 0.756474
vt 0.368788 0.737514
vt 0.362592 0.750000
vt 0.375000 0.762408
vt 0.368525 0.750000
vt 0.375000 0.756475
vt 0.562423 0.256261
vt 0.562423 0.247544
vt 0.625000 0.250000
vt 0.562423 0.253472
vt 0.593670 0.255677
vt 0.592348 0.253024
vt 0.593670 0.247771
vt 0.562423 0.248640
vt 0.592348 0.248813
vt 0.625000 0.253234
vt 0.625000 0.246547
vt 0.625000 0.248728
vt 0.625000 0.250004
vt 0.131261 0.502456
vt 0.437577 0.247544
vt 0.437577 0.256261
vt 0.125000 0.502456
vt 0.375000 0.247544
vt 0.131261 0.500000
vt 0.375000 0.256261
vt 0.125000 0.501281
vt 0.375000 0.250000
vt 0.375000 0.248719
vt 0.437577 0.248771
vt 0.406330 0.247544
vt 0.407652 0.248719
vt 0.406330 0.256261
vt 0.437577 0.253134
vt 0.407652 0.253267
vt 0.407652 0.249353
vt 0.562423 0.012486
vt 0.562423 0.993739
vt 0.625000 1.000000
vt 0.625000 0.000000
vt 0.562423 0.006918
vt 0.593670 0.011333
vt 0.592348 0.006035
vt 0.593670 0.994322
vt 0.562423 1.000000
vt 0.562423 0.000000
vt 0.592348 1.000000
vt 0.592348 0.000000
vt 0.625000 0.006464
vt 0.625000 -0.006910
vt 0.625000 0.996765
vt 0.625000 -0.000005
vt 0.608519 0.005093
vt 0.131261 0.737514
vt 0.437577 0.993739
vt 0.437577 0.012486
vt 0.131261 0.750000
vt 0.375000 0.993739
vt 0.125000 0.737514
vt 0.375000 0.012486
vt 0.125000 0.743485
vt 0.375000 1.000000
vt 0.375000 0.006515
vt 0.437577 1.000000
vt 0.437577 0.000000
vt 0.406330 0.993739
vt 0.407652 1.000000
vt 0.407652 0.000000
vt 0.406330 0.012486
vt 0.437577 0.006251
vt 0.407652 0.006515
vt 0.437577 0.125000
vt 0.131261 0.625000
vt 0.406289 0.125000
vt 0.125000 0.625000
vt 0.375000 0.125000
vt 0.562423 0.625000
vt 0.625000 0.624937
vt 0.637408 0.625000
vt 0.593711 0.625000
vt 0.628102 0.624985
vt 0.625000 0.125003
vt 0.868739 0.625000
vt 0.562423 0.125000
vt 0.625000 0.125001
vt 0.871870 0.625000
vt 0.593711 0.125000
vt 0.875000 0.625000
vt 0.625000 0.125000
vt 0.362592 0.625000
vt 0.437577 0.625000
vt 0.368796 0.625000
vt 0.406289 0.625000
vt 0.562423 0.225379
vt 0.625000 0.225379
vt 0.868739 0.524621
vt 0.593711 0.225379
vt 0.875000 0.524621
vt 0.625000 0.225379
vt 0.625000 0.225379
vt 0.871870 0.524621
vt 0.437577 0.524621
vt 0.362592 0.524621
vt 0.406289 0.524621
vt 0.368796 0.524621
vt 0.437577 0.225379
vt 0.131261 0.524621
vt 0.406289 0.225379
vt 0.125000 0.524621
vt 0.375000 0.225379
vt 0.562423 0.524621
vt 0.637408 0.524621
vt 0.625000 0.524623
vt 0.593711 0.524621
vt 0.628102 0.524622
vt 0.250000 0.502456
vt 0.437577 0.375000
vt 0.250000 0.500000
vt 0.375000 0.375000
vt 0.406289 0.375000
vt 0.625000 0.875001
vt 0.750000 0.737514
vt 0.562423 0.875000
vt 0.625000 0.875000
vt 0.750000 0.743757
vt 0.593711 0.875000
vt 0.750000 0.750000
vt 0.625000 0.875000
vt 0.437577 0.875000
vt 0.250000 0.737514
vt 0.406289 0.875000
vt 0.250000 0.750000
vt 0.375000 0.875000
vt 0.562423 0.375000
vt 0.750000 0.500000
vt 0.625000 0.375000
vt 0.750000 0.502456
vt 0.593711 0.375000
vt 0.750000 0.500000
vt 0.625000 0.375000
vt 0.625000 0.375000
vt 0.750000 0.501228
vt 0.437577 0.312500
vt 0.187500 0.502456
vt 0.406289 0.312500
vt 0.187500 0.500000
vt 0.375000 0.312500
vt 0.562423 0.937500
vt 0.625000 0.937499
vt 0.812500 0.737514
vt 0.593711 0.937500
vt 0.812500 0.750000
vt 0.625000 0.937500
vt 0.625000 0.937499
vt 0.812500 0.743757
vt 0.437577 0.937500
vt 0.187500 0.737514
vt 0.406289 0.937500
vt 0.187500 0.750000
vt 0.375000 0.937500
vt 0.562423 0.312500
vt 0.812500 0.502456
vt 0.625000 0.312500
vt 0.812500 0.500000
vt 0.625000 0.312500
vt 0.593711 0.312500
vt 0.812500 0.501228
vt 0.625000 0.312500
vt 0.625000 0.649990
vt 0.625000 0.625000
vt 0.649834 0.625000
vt 0.625000 0.641997
vt 0.625000 0.637724
vt 0.625000 0.633614
vt 0.622505 0.625000
vt -0.412971 0.625000
vt 0.625000 0.631697
vt 0.021821 0.625000
vt 0.637645 0.625000
vt 0.625000 0.625000
vt 0.625795 0.625000
vt 0.625000 0.725010
vt 0.625000 0.774834
vt 0.625000 0.750000
vt 0.625000 0.737276
vt 0.625000 0.741116
vt 0.625000 0.745455
vt 0.625000 0.758693
vt 0.625000 0.762645
vt 0.625000 0.754456
vt 0.625000 0.748424
vt 0.625000 0.751489
vt 0.625000 0.749959
vt 0.725166 0.625000
vt 1.301761 0.625001
vt 0.750000 0.127520
vt 0.750000 0.649990
vt 0.733219 0.625000
vt 0.737355 0.625000
vt 0.741501 0.625000
vt 0.750002 0.417898
vt 0.750000 6.087769
vt 0.928078 0.625000
vt 0.750000 2.522461
vt 0.750000 0.637724
vt 0.750000 0.625007
vt 0.750000 0.625803
vt 0.625000 0.850166
vt 0.750000 0.725010
vt 0.625000 0.875000
vt 0.750000 0.750000
vt 0.750000 0.750000
vt 0.625000 0.875000
vt 0.625000 0.858080
vt 0.625000 0.875000
vt 0.750000 0.750000
vt 0.750000 0.750000
vt 0.750000 0.737276
vt 0.750000 0.749201
vt 0.625000 0.868330
vt 0.625000 0.875000
vt 0.750000 0.752465
vt 0.625000 0.871106
vt 0.750000 0.757575
vt 0.625000 0.399922
vt 0.625000 0.375000
vt 0.750000 0.500000
vt 0.750000 0.504923
vt 0.625000 0.391980
vt 0.750000 0.500000
vt 0.625000 0.375000
vt 0.625000 0.375000
vt 0.750000 0.500000
vt 0.750000 0.500000
vt 0.750244 -61.797607
vt 0.625000 0.381692
vt 0.749756 -35.670044
vt 0.750000 0.498508
vt 0.750000 0.502507
vt 0.750000 0.500000
vt 0.750000 0.500158
vt 0.625000 0.475078
vt 0.625000 0.504923
vt 0.625000 0.500000
vt 0.625000 0.487310
vt 0.625000 0.491255
vt 0.625000 0.495519
vt 0.625000 0.501746
vt 0.625000 0.502507
vt 0.625000 0.500894
vt 0.625000 0.498496
vt 0.625000 0.501517
vt 0.625000 0.500308
vt 0.625000 0.500029
vt 0.625000 0.519698
vt 0.649922 0.524621
vt 0.625000 0.524621
vt 0.625000 0.522114
vt 0.625000 0.521267
vt 0.625000 0.522921
vt 0.625000 0.524621
vt 0.637690 0.524621
vt 0.625797 0.524621
vt 0.625000 0.523298
vt 0.625000 0.524621
vt 0.622538 0.524621
vt 0.625000 0.523849
vt 0.725078 0.524621
vt 0.750000 0.519698
vt 5.401245 0.524628
vt 0.749985 1.347317
vt 0.737310 0.524621
vt 0.733237 0.524621
vt 0.741514 0.524621
vt 0.750000 0.524618
vt 0.750000 0.522114
vt 0.750000 0.524462
vt 2.305695 0.524628
vt 3.342178 0.524628
vt 0.750004 0.865315
vt 1.303055 0.524620
vt 0.625000 0.949874
vt 0.625000 0.937500
vt 0.812500 0.750000
vt 0.812500 0.725321
vt 0.625000 0.945930
vt 0.625000 0.943801
vt 0.625000 0.941774
vt 0.812500 0.752443
vt 0.812500 22.943985
vt 0.625000 0.940831
vt 0.812515 13.637695
vt 0.625000 0.939781
vt 0.812500 0.750000
vt 0.625000 0.937500
vt 0.812500 0.750000
vt 0.812500 0.750000
vt 0.625000 0.937500
vt 0.625000 0.987626
vt 0.625000 0.024679
vt 0.625000 1.000000
vt 0.625000 0.000000
vt 0.625000 0.000000
vt 0.625000 1.000000
vt 0.625000 0.995625
vt 0.625000 1.000000
vt 0.625000 0.000000
vt 0.625000 0.008688
vt 0.625000 0.012566
vt 0.625000 0.004450
vt 0.625000 0.999229
vt 0.625000 1.000737
vt 0.625000 0.001515
vt 0.625000 0.999994
vt 0.625000 -0.002656
vt 0.625000 0.100321
vt 0.862626 0.625000
vt 0.625000 0.125000
vt 0.875000 0.625000
vt 0.625000 0.112434
vt 0.625000 0.108187
vt 0.625000 0.116477
vt 0.875000 0.625000
vt 0.875000 0.625000
vt 0.625000 0.125000
vt 0.875000 0.625000
vt 0.625000 0.125000
vt 0.625000 0.118359
vt 0.625000 0.124999
vt 0.876367 0.625000
vt 0.625000 0.121123
vt 0.625000 0.120451
vt 0.824874 0.625000
vt 0.812500 0.649679
vt -3.131897 0.625000
vt 0.812469 -7.247696
vt 0.818801 0.625000
vt 0.816784 0.625000
vt 0.814699 0.625000
vt 0.812500 0.633867
vt 0.812500 0.637566
vt 0.812500 0.629531
vt -0.242767 0.625000
vt 0.068146 0.624985
vt 0.812481 -1.463118
vt 0.706642 0.624992
vt 0.625000 0.230275
vt 0.625000 0.225379
vt 0.875000 0.524621
vt 0.862518 0.524621
vt 0.625000 0.228714
vt 0.625000 0.227872
vt 0.625000 0.227070
vt 0.875000 0.524621
vt 33.421753 0.524658
vt 0.625000 0.226695
vt 19.772186 0.524628
vt 0.625000 0.226281
vt 0.875000 0.524621
vt 0.625000 0.225379
vt 0.875000 0.524621
vt 0.875000 0.524621
vt 0.625000 0.225379
vt 0.625000 0.245104
vt 0.625000 0.262482
vt 0.625000 0.250000
vt 0.625000 0.247507
vt 0.625000 0.248279
vt 0.625000 0.249118
vt 0.625000 0.254418
vt 0.625000 0.256356
vt 0.625000 0.252262
vt 0.625000 0.249702
vt 0.625000 0.250297
vt 0.625000 0.250777
vt 0.625000 0.250004
vt 0.625000 0.300018
vt 0.812500 0.504896
vt 0.625000 0.312500
vt 0.812500 0.500000
vt 0.625000 0.306144
vt 0.625000 0.303996
vt 0.625000 0.308189
vt 0.812500 0.500000
vt 0.812500 0.500000
vt 0.625000 0.312500
vt 0.812500 0.500000
vt 0.625000 0.312500
vt 0.625000 0.309144
vt 0.625000 0.312500
vt 0.812500 0.500000
vt 0.625000 0.310540
vt 0.625000 0.310198
vt 0.824982 0.524621
vt -11.725433 0.524628
vt 0.812256 5.950317
vt 0.812500 0.519725
vt 0.817791 0.524621
vt 0.818856 0.524621
vt 0.815162 0.524621
vt 0.812500 1.980530
vt 0.812500 1.191895
vt -2.588417 0.524578
vt 0.812500 0.620430
vt 0.812500 0.522128
vt 0.812500 0.523271
vt 0.812500 0.523903
vt 0.625000 0.649990
vt 0.649834 0.625000
vt 0.649834 0.649990
vt 0.625000 0.637511
vt 0.625000 0.649990
vt 0.625000 0.638040
vt 0.649834 0.625000
vt 0.637433 0.625000
vt 0.637958 0.625000
vt 0.637433 0.649990
vt 0.649834 0.637511
vt 0.637958 0.638040
vt 0.625000 0.725010
vt 0.649834 0.725010
vt 0.625000 0.774834
vt 0.625000 0.725010
vt 0.625000 0.737489
vt 0.625000 0.736960
vt 0.631541 0.736961
vt 0.649834 0.737489
vt 0.637433 0.725010
vt 0.637958 0.736960
vt 0.625000 0.762433
vt 0.649834 0.750000
vt 0.625000 0.774834
vt 0.625000 0.762958
vt 0.637958 0.750000
vt 0.725166 0.625000
vt 0.750000 0.649990
vt 0.725166 0.649990
vt 0.737567 0.625000
vt 0.725166 0.625000
vt 0.737042 0.625000
vt 0.750000 0.649990
vt 0.750000 0.637511
vt 0.750000 0.638040
vt 0.725166 0.637511
vt 0.737567 0.649990
vt 0.737042 0.638040
vt 0.625000 0.850166
vt 0.725166 0.725010
vt 0.750000 0.725010
vt 0.725166 0.750000
vt 0.625000 0.850166
vt 0.750000 0.750000
vt 0.625000 0.875000
vt 0.625000 0.862042
vt 0.750000 0.750000
vt 0.737042 0.750000
vt 0.737567 0.725010
vt 0.725166 0.737489
vt 0.737042 0.736960
vt 0.750000 0.737488
vt 0.750000 0.725010
vt 0.750000 0.736960
vt 0.743459 0.736960
vt 0.625000 0.399922
vt 0.750000 0.504923
vt 0.725078 0.504923
vt 0.750000 0.500000
vt 0.625000 0.375000
vt 0.725078 0.500000
vt 0.625000 0.399922
vt 0.625000 0.388004
vt 0.750000 0.500000
vt 0.736996 0.500000
vt 0.750000 0.504923
vt 0.750000 0.502465
vt 0.750000 0.502569
vt 0.743436 0.502569
vt 0.725078 0.502465
vt 0.737523 0.504923
vt 0.736996 0.502569
vt 0.625000 0.475078
vt 0.649922 0.504923
vt 0.625000 0.504923
vt 0.649922 0.500000
vt 0.625000 0.475078
vt 0.625000 0.487523
vt 0.625000 0.486996
vt 0.638004 0.500000
vt 0.637477 0.504923
vt 0.649922 0.502465
vt 0.638004 0.502569
vt 0.625000 0.502465
vt 0.625000 0.504923
vt 0.625000 0.502569
vt 0.631564 0.502569
vt 0.625000 0.519698
vt 0.649922 0.519698
vt 0.649922 0.524621
vt 0.625000 0.519698
vt 0.625000 0.522156
vt 0.625000 0.522052
vt 0.649922 0.522156
vt 0.637477 0.519698
vt 0.638004 0.522052
vt 0.637477 0.524621
vt 0.649922 0.524621
vt 0.638004 0.524621
vt 0.725078 0.524621
vt 0.725078 0.519698
vt 0.750000 0.519698
vt 0.725078 0.524621
vt 0.737523 0.524621
vt 0.736996 0.524621
vt 0.737523 0.519698
vt 0.725078 0.522156
vt 0.736996 0.522052
vt 0.750000 0.522156
vt 0.750000 0.519698
vt 0.750000 0.522052
vt 0.625000 0.949874
vt 0.812500 0.725321
vt 0.824874 0.725321
vt 0.625000 0.943695
vt 0.824874 0.750000
vt 0.625000 0.949874
vt 0.625000 0.943957
vt 0.818957 0.750000
vt 0.812500 0.725321
vt 0.812500 0.750000
vt 0.625000 0.937500
vt 0.625000 0.940759
vt 0.812500 0.737123
vt 0.815759 0.737123
vt 0.824874 0.737644
vt 0.818695 0.725321
vt 0.818957 0.737123
vt 0.625000 0.987626
vt 0.862626 0.725321
vt 0.625000 0.024679
vt 0.862626 0.750000
vt 0.625000 0.987626
vt 0.625000 0.000000
vt 0.625000 1.000000
vt 0.625000 0.993543
vt 0.625000 0.000000
vt 0.868543 0.750000
vt 0.868805 0.725321
vt 0.862626 0.737644
vt 0.868543 0.737123
vt 0.625000 0.012356
vt 0.875000 0.725321
vt 0.625000 0.024679
vt 0.625000 0.012877
vt 0.875000 0.737123
vt 0.625000 0.100321
vt 0.862626 0.649679
vt 0.862626 0.625000
vt 0.875000 0.649679
vt 0.625000 0.100321
vt 0.625000 0.112644
vt 0.625000 0.112123
vt 0.875000 0.637877
vt 0.862626 0.637356
vt 0.868805 0.649679
vt 0.868543 0.637877
vt 0.875000 0.625000
vt 0.625000 0.125000
vt 0.862626 0.625000
vt 0.868543 0.625000
vt 0.625000 0.118500
vt 0.868543 0.631500
vt 0.824874 0.625000
vt 0.824874 0.649679
vt 0.812500 0.649679
vt 0.824874 0.625000
vt 0.818695 0.625000
vt 0.818957 0.625000
vt 0.818695 0.649679
vt 0.824874 0.637356
vt 0.818957 0.637877
vt 0.812500 0.637356
vt 0.812500 0.649679
vt 0.812500 0.637877
vt 0.625000 0.230275
vt 0.862518 0.524621
vt 0.862518 0.519725
vt 0.625000 0.227830
vt 0.875000 0.519725
vt 0.625000 0.230275
vt 0.625000 0.227933
vt 0.875000 0.522067
vt 0.862518 0.524621
vt 0.875000 0.524621
vt 0.625000 0.225379
vt 0.625000 0.226668
vt 0.868487 0.524621
vt 0.868487 0.523332
vt 0.868751 0.519725
vt 0.862518 0.522170
vt 0.868487 0.522067
vt 0.625000 0.245104
vt 0.862518 0.504896
vt 0.625000 0.262482
vt 0.875000 0.504896
vt 0.625000 0.245104
vt 0.625000 0.247549
vt 0.625000 0.247445
vt 0.875000 0.502555
vt 0.862518 0.502451
vt 0.868751 0.504896
vt 0.868487 0.502555
vt 0.625000 0.256249
vt 0.862518 0.500000
vt 0.625000 0.262482
vt 0.625000 0.256513
vt 0.868487 0.500000
vt 0.625000 0.300018
vt 0.824982 0.504896
vt 0.812500 0.504896
vt 0.824982 0.500000
vt 0.625000 0.300018
vt 0.625000 0.306251
vt 0.625000 0.305987
vt 0.819013 0.500000
vt 0.818749 0.504896
vt 0.824982 0.502451
vt 0.819013 0.502555
vt 0.812500 0.500000
vt 0.625000 0.312500
vt 0.812500 0.504896
vt 0.812500 0.502555
vt 0.625000 0.309213
vt 0.815787 0.502555
vt 0.824982 0.524621
vt 0.812500 0.519725
vt 0.824982 0.519725
vt 0.818749 0.524621
vt 0.824982 0.524621
vt 0.819013 0.524621
vt 0.812500 0.519725
vt 0.812500 0.522170
vt 0.812500 0.522067
vt 0.824982 0.522170
vt 0.818749 0.519725
vt 0.819013 0.522067
s 0
usemtl Material
f 106/131/1 5/5/1 162/215/1 93/112/1
f 83/97/2 158/207/2 266/341/2 279/359/2
f 59/67/2 122/153/2 314/406/2 327/424/2
f 71/80/3 57/65/3 165/219/3 153/201/3
f 35/39/2 110/136/2 170/228/2 183/242/2
f 11/11/2 150/194/2 218/284/2 231/302/2
f 110/137/1 2/2/1 194/253/1 170/228/1
f 122/154/1 8/8/1 350/453/1 314/407/1
f 113/140/2 83/98/2 279/360/2 291/376/2
f 7/7/1 113/141/1 291/377/1 303/393/1
f 69/78/1 154/202/1 6/6/1 130/165/1
f 46/51/4 33/37/4 142/181/4 145/187/4
f 134/171/2 11/11/2 231/302/2 243/315/2
f 134/170/2 3/3/2 2/2/2 110/137/2
f 153/201/3 165/219/3 149/192/3 138/175/3
f 137/174/1 23/24/1 126/161/1 4/4/1
f 125/160/5 133/169/5 109/135/5 118/149/5
f 6/6/1 4/4/1 1/1/1 5/5/1
f 145/187/4 142/181/4 157/206/4 161/214/4
f 150/195/2 166/220/2 8/8/2 3/3/2
f 141/179/2 35/39/2 183/242/2 207/268/2
f 2/2/2 7/7/2 158/208/2 141/180/2
f 130/165/1 6/6/1 5/5/1 106/131/1
f 166/221/2 59/67/2 327/424/2 339/437/2
f 105/130/6 114/142/6 121/152/6 129/164/6
f 95/114/6 81/95/6 114/142/6 105/130/6
f 150/193/1 3/3/1 255/329/1 218/285/1
f 3/3/2 8/8/2 7/7/2 2/2/2
f 2/2/1 141/180/1 207/269/1 194/254/1
f 5/5/1 1/1/1 146/188/1 162/215/1
f 267/343/5 302/392/5 495/632/5 458/579/5
f 8/8/2 122/154/2 113/141/2 7/7/2
f 1/1/1 117/148/1 47/52/1 146/188/1
f 118/149/5 109/135/5 34/38/5 45/50/5
f 205/266/4 182/241/4 375/480/4 397/505/4
f 158/208/1 7/7/1 303/394/1 266/342/1
f 154/202/1 137/174/1 4/4/1 6/6/1
f 138/175/3 149/192/3 10/10/3 21/22/3
f 219/286/6 254/327/6 447/568/6 410/523/6
f 4/4/1 126/161/1 117/148/1 1/1/1
f 8/8/1 166/220/1 339/438/1 350/454/1
f 161/214/4 157/206/4 82/96/4 94/113/4
f 171/229/3 193/252/3 385/493/3 362/467/3
f 3/3/1 134/170/1 243/315/1 255/328/1
f 129/164/6 121/152/6 58/66/6 70/79/6
f 181/240/5 169/227/5 361/466/5 373/478/5
f 422/540/2 411/524/2 446/567/2 434/555/2
f 494/631/2 482/614/2 470/596/2 459/580/2
f 530/676/2 518/660/2 507/644/2 543/694/2
f 253/326/4 242/314/4 435/556/4 445/566/4
f 315/408/4 349/452/4 541/692/4 506/643/4
f 195/255/6 206/267/6 399/507/6 386/494/6
f 301/391/3 290/375/3 483/615/3 493/630/3
f 277/357/4 265/340/4 457/578/4 469/595/4
f 351/455/5 338/436/5 531/677/5 542/693/5
f 229/300/3 217/283/3 409/522/3 421/539/3
f 325/422/6 313/405/6 505/642/6 517/659/6
f 241/313/5 230/301/5 423/541/5 433/554/5
f 337/435/3 326/423/3 519/661/3 529/675/3
f 289/374/6 278/358/6 471/597/6 481/613/6
f 363/468/2 387/495/2 398/506/2 374/479/2
f 9/9/7 12/12/7 14/14/7 13/13/7
f 12/12/8 16/16/8 17/17/8 14/14/8
f 10/10/9 15/15/9 17/17/9 16/16/9
f 15/15/10 19/19/10 20/21/10 17/17/10
f 11/11/11 18/18/11 20/21/11 19/19/11
f 18/18/12 13/13/12 14/14/12 20/21/12
f 14/14/13 17/17/13 20/21/13
f 21/22/14 24/25/14 26/27/14 25/26/14
f 24/25/15 28/29/15 29/30/15 26/27/15
f 22/23/16 27/28/16 29/30/16 28/29/16
f 27/28/17 31/34/17 32/35/17 29/30/17
f 23/24/18 30/32/18 32/35/18 31/34/18
f 30/33/19 25/26/19 26/27/19 32/36/19
f 26/27/20 29/31/20 32/36/20
f 33/37/21 36/40/21 38/42/21 37/41/21
f 36/40/22 40/44/22 41/45/22 38/42/22
f 34/38/23 39/43/23 41/45/23 40/44/23
f 39/43/24 43/47/24 44/49/24 41/45/24
f 35/39/25 42/46/25 44/49/25 43/47/25
f 42/46/26 37/41/26 38/42/26 44/49/26
f 38/42/27 41/45/27 44/49/27
f 45/50/28 48/53/28 50/55/28 49/54/28
f 48/53/29 52/58/29 53/59/29 50/55/29
f 46/51/30 51/57/30 53/59/30 52/58/30
f 51/57/31 55/62/31 56/64/31 53/59/31
f 47/52/32 54/60/32 56/63/32 55/61/32
f 54/60/33 49/54/33 50/55/33 56/63/33
f 50/56/34 53/59/34 56/64/34
f 57/65/35 60/68/35 62/70/35 61/69/35
f 60/68/36 64/72/36 65/73/36 62/70/36
f 58/66/37 63/71/37 65/73/37 64/72/37
f 63/71/38 67/75/38 68/77/38 65/73/38
f 59/67/39 66/74/39 68/77/39 67/75/39
f 66/74/40 61/69/40 62/70/40 68/77/40
f 62/70/41 65/73/41 68/77/41
f 69/78/42 72/81/42 74/85/42 73/83/42
f 72/82/43 76/89/43 77/90/43 74/87/43
f 70/79/44 75/88/44 77/90/44 76/89/44
f 75/88/45 79/92/45 80/93/45 77/90/45
f 71/80/46 78/91/46 80/93/46 79/92/46
f 78/91/47 73/84/47 74/86/47 80/93/47
f 74/87/48 77/90/48 80/94/48
f 81/95/49 84/99/49 86/101/49 85/100/49
f 84/99/50 88/104/50 89/106/50 86/101/50
f 82/96/51 87/102/51 89/105/51 88/103/51
f 87/102/52 91/108/52 92/110/52 89/105/52
f 83/98/53 90/107/53 92/110/53 91/108/53
f 90/107/54 85/100/54 86/101/54 92/110/54
f 86/101/55 89/106/55 92/111/55
f 93/112/56 96/115/56 98/119/56 97/117/56
f 96/116/57 100/124/57 101/125/57 98/120/57
f 94/113/58 99/122/58 101/125/58 100/124/58
f 99/123/59 103/128/59 104/129/59 101/126/59
f 95/114/60 102/127/60 104/129/60 103/128/60
f 102/127/61 97/118/61 98/121/61 104/129/61
f 98/121/62 101/126/62 104/129/62
f 169/227/63 172/230/63 174/232/63 173/231/63
f 172/230/64 176/234/64 177/236/64 174/232/64
f 170/228/65 175/233/65 177/236/65 176/234/65
f 175/233/66 179/238/66 180/239/66 177/236/66
f 171/229/67 178/237/67 180/239/67 179/238/67
f 178/237/68 173/231/68 174/232/68 180/239/68
f 174/232/69 177/236/69 180/239/69
f 181/240/70 184/243/70 186/245/70 185/244/70
f 184/243/71 188/247/71 189/248/71 186/245/71
f 182/241/72 187/246/72 189/248/72 188/247/72
f 187/246/73 191/250/73 192/251/73 189/248/73
f 183/242/74 190/249/74 192/251/74 191/250/74
f 190/249/75 185/244/75 186/245/75 192/251/75
f 186/245/76 189/248/76 192/251/76
f 193/252/77 196/256/77 198/258/77 197/257/77
f 196/256/78 200/260/78 201/262/78 198/258/78
f 194/254/79 199/259/79 201/262/79 200/260/79
f 199/259/80 203/264/80 204/265/80 201/262/80
f 195/255/81 202/263/81 204/265/81 203/264/81
f 202/263/82 197/257/82 198/258/82 204/265/82
f 198/258/83 201/262/83 204/265/83
f 205/266/84 208/271/84 210/273/84 209/272/84
f 208/270/85 212/276/85 213/277/85 210/274/85
f 206/267/86 211/275/86 213/277/86 212/276/86
f 211/275/87 215/279/87 216/281/87 213/277/87
f 207/268/88 214/278/88 216/281/88 215/279/88
f 214/278/89 209/272/89 210/273/89 216/281/89
f 210/274/90 213/277/90 216/282/90
f 217/283/91 220/287/91 222/290/91 221/289/91
f 220/287/92 224/293/92 225/295/92 222/290/92
f 218/285/93 223/292/93 225/295/93 224/293/93
f 223/292/94 227/298/94 228/299/94 225/295/94
f 219/286/95 226/297/95 228/299/95 227/298/95
f 226/297/96 221/288/96 222/291/96 228/299/96
f 222/291/97 225/296/97 228/299/97
f 229/300/98 232/303/98 234/305/98 233/304/98
f 232/303/99 236/307/99 237/308/99 234/305/99
f 230/301/100 235/306/100 237/308/100 236/307/100
f 235/306/101 239/310/101 240/312/101 237/308/101
f 231/302/102 238/309/102 240/312/102 239/310/102
f 238/309/103 233/304/103 234/305/103 240/312/103
f 234/305/104 237/308/104 240/312/104
f 241/313/105 244/316/105 246/318/105 245/317/105
f 244/316/106 248/320/106 249/321/106 246/318/106
f 242/314/107 247/319/107 249/321/107 248/320/107
f 247/319/108 251/323/108 252/325/108 249/321/108
f 243/315/109 250/322/109 252/325/109 251/323/109
f 250/322/110 245/317/110 246/318/110 252/325/110
f 246/318/111 249/321/111 252/325/111
f 253/326/112 256/330/112 258/332/112 257/331/112
f 256/330/113 260/334/113 261/335/113 258/332/113
f 254/327/114 259/333/114 261/335/114 260/334/114
f 259/333/115 263/337/115 264/339/115 261/335/115
f 255/328/116 262/336/116 264/339/116 263/337/116
f 262/336/117 257/331/117 258/332/117 264/339/117
f 258/332/118 261/335/118 264/339/118
f 265/340/119 268/344/119 270/346/119 269/345/119
f 268/344/120 272/348/120 273/350/120 270/346/120
f 266/342/121 271/347/121 273/350/121 272/348/121
f 271/347/122 275/354/122 276/355/122 273/350/122
f 267/343/123 274/352/123 276/355/123 275/354/123
f 274/353/124 269/345/124 270/346/124 276/356/124
f 270/346/125 273/351/125 276/356/125
f 277/357/126 280/362/126 282/364/126 281/363/126
f 280/361/127 284/367/127 285/368/127 282/365/127
f 278/358/128 283/366/128 285/368/128 284/367/128
f 283/366/129 287/370/129 288/372/129 285/368/129
f 279/359/130 286/369/130 288/372/130 287/370/130
f 286/369/131 281/363/131 282/364/131 288/372/131
f 282/365/132 285/368/132 288/373/132
f 289/374/133 292/378/133 294/380/133 293/379/133
f 292/378/134 296/383/134 297/385/134 294/380/134
f 290/375/135 295/381/135 297/384/135 296/382/135
f 295/381/136 299/387/136 300/389/136 297/384/136
f 291/376/137 298/386/137 300/389/137 299/387/137
f 298/386/138 293/379/138 294/380/138 300/389/138
f 294/380/139 297/385/139 300/390/139
f 301/391/140 304/395/140 306/397/140 305/396/140
f 304/395/141 308/399/141 309/400/141 306/397/141
f 302/392/142 307/398/142 309/400/142 308/399/142
f 307/398/143 311/402/143 312/404/143 309/400/143
f 303/393/144 310/401/144 312/404/144 311/402/144
f 310/401/145 305/396/145 306/397/145 312/404/145
f 306/397/146 309/400/146 312/404/146
f 313/405/147 316/409/147 318/411/147 317/410/147
f 316/409/148 320/413/148 321/415/148 318/411/148
f 314/407/149 319/412/149 321/415/149 320/413/149
f 319/412/150 323/419/150 324/420/150 321/415/150
f 315/408/151 322/417/151 324/420/151 323/419/151
f 322/418/152 317/410/152 318/411/152 324/421/152
f 318/411/153 321/416/153 324/421/153
f 325/422/154 328/425/154 330/427/154 329/426/154
f 328/425/155 332/429/155 333/430/155 330/427/155
f 326/423/156 331/428/156 333/430/156 332/429/156
f 331/428/157 335/432/157 336/434/157 333/430/157
f 327/424/158 334/431/158 336/434/158 335/432/158
f 334/431/159 329/426/159 330/427/159 336/434/159
f 330/427/160 333/430/160 336/434/160
f 337/435/161 340/439/161 342/441/161 341/440/161
f 340/439/162 344/444/162 345/446/162 342/441/162
f 338/436/163 343/442/163 345/445/163 344/443/163
f 343/442/164 347/448/164 348/450/164 345/445/164
f 339/437/165 346/447/165 348/450/165 347/448/165
f 346/447/166 341/440/166 342/441/166 348/450/166
f 342/441/167 345/446/167 348/451/167
f 349/452/168 352/456/168 354/458/168 353/457/168
f 352/456/169 356/460/169 357/462/169 354/458/169
f 350/454/170 355/459/170 357/462/170 356/460/170
f 355/459/171 359/464/171 360/465/171 357/462/171
f 351/455/172 358/463/172 360/465/172 359/464/172
f 358/463/173 353/457/173 354/458/173 360/465/173
f 354/458/174 357/462/174 360/465/174
f 361/466/175 364/469/175 366/471/175 365/470/175
f 364/469/176 368/473/176 369/474/176 366/471/176
f 362/467/177 367/472/177 369/474/177 368/473/177
f 367/472/178 371/476/178 372/477/178 369/474/178
f 363/468/179 370/475/179 372/477/179 371/476/179
f 370/475/180 365/470/180 366/471/180 372/477/180
f 366/471/181 369/474/181 372/477/181
f 373/478/182 376/481/182 378/483/182 377/482/182
f 376/481/183 380/486/183 381/487/183 378/483/183
f 374/479/184 379/485/184 381/487/184 380/486/184
f 379/485/185 383/489/185 384/492/185 381/487/185
f 375/480/186 382/488/186 384/491/186 383/490/186
f 382/488/187 377/482/187 378/483/187 384/491/187
f 378/484/188 381/487/188 384/492/188
f 385/493/189 388/496/189 390/498/189 389/497/189
f 388/496/190 392/500/190 393/501/190 390/498/190
f 386/494/191 391/499/191 393/501/191 392/500/191
f 391/499/192 395/503/192 396/504/192 393/501/192
f 387/495/193 394/502/193 396/504/193 395/503/193
f 394/502/194 389/497/194 390/498/194 396/504/194
f 390/498/195 393/501/195 396/504/195
f 397/505/196 400/509/196 402/512/196 401/511/196
f 400/508/197 404/516/197 405/517/197 402/514/197
f 398/506/198 403/515/198 405/517/198 404/516/198
f 403/515/199 407/519/199 408/520/199 405/517/199
f 399/507/200 406/518/200 408/520/200 407/519/200
f 406/518/201 401/510/201 402/513/201 408/520/201
f 402/514/202 405/517/202 408/521/202
f 409/522/189 412/526/189 414/529/189 413/528/189
f 412/525/190 416/533/190 417/534/190 414/530/190
f 410/523/191 415/532/191 417/534/191 416/533/191
f 415/532/192 419/537/192 420/538/192 417/534/192
f 411/524/193 418/536/193 420/538/193 419/537/193
f 418/536/194 413/527/194 414/531/194 420/538/194
f 414/531/195 417/535/195 420/538/195
f 421/539/177 424/543/177 426/545/177 425/544/177
f 424/542/178 428/548/178 429/549/178 426/546/178
f 422/540/179 427/547/179 429/549/179 428/548/179
f 427/547/180 431/551/180 432/552/180 429/549/180
f 423/541/175 430/550/175 432/552/175 431/551/175
f 430/550/176 425/544/176 426/545/176 432/552/176
f 426/546/181 429/549/181 432/553/181
f 433/554/182 436/557/182 438/559/182 437/558/182
f 436/557/183 440/561/183 441/562/183 438/559/183
f 434/555/184 439/560/184 441/562/184 440/561/184
f 439/560/185 443/564/185 444/565/185 441/562/185
f 435/556/186 442/563/186 444/565/186 443/564/186
f 442/563/187 437/558/187 438/559/187 444/565/187
f 438/559/203 441/562/203 444/565/203
f 445/566/196 448/569/196 450/571/196 449/570/196
f 448/569/197 452/573/197 453/574/197 450/571/197
f 446/567/198 451/572/198 453/574/198 452/573/198
f 451/572/199 455/576/199 456/577/199 453/574/199
f 447/568/200 454/575/200 456/577/200 455/576/200
f 454/575/201 449/570/201 450/571/201 456/577/201
f 450/571/204 453/574/204 456/577/204
f 457/578/186 460/581/186 462/584/186 461/583/186
f 460/581/187 464/588/187 465/589/187 462/584/187
f 458/579/182 463/586/182 465/590/182 464/587/182
f 463/586/183 467/593/183 468/594/183 465/590/183
f 459/580/184 466/592/184 468/594/184 467/593/184
f 466/592/185 461/582/185 462/585/185 468/594/185
f 462/585/205 465/591/205 468/594/205
f 469/595/196 472/599/196 474/602/196 473/601/196
f 472/598/197 476/606/197 477/607/197 474/604/197
f 470/596/198 475/605/198 477/607/198 476/606/198
f 475/605/199 479/609/199 480/612/199 477/607/199
f 471/597/200 478/608/200 480/611/200 479/610/200
f 478/608/201 473/600/201 474/603/201 480/611/201
f 474/604/206 477/607/206 480/612/206
f 481/613/191 484/617/191 486/619/191 485/618/191
f 484/616/192 488/622/192 489/623/192 486/620/192
f 482/614/193 487/621/193 489/623/193 488/622/193
f 487/621/194 491/626/194 492/627/194 489/623/194
f 483/615/189 490/624/189 492/627/189 491/626/189
f 490/625/190 485/618/190 486/619/190 492/628/190
f 486/620/207 489/623/207 492/629/207
f 493/630/177 496/633/177 498/635/177 497/634/177
f 496/633/178 500/637/178 501/638/178 498/635/178
f 494/631/179 499/636/179 501/638/179 500/637/179
f 499/636/180 503/640/180 504/641/180 501/638/180
f 495/632/175 502/639/175 504/641/175 503/640/175
f 502/639/176 497/634/176 498/635/176 504/641/176
f 498/635/208 501/638/208 504/641/208
f 505/642/200 508/645/200 510/648/200 509/647/200
f 508/645/201 512/652/201 513/653/201 510/648/201
f 506/643/196 511/650/196 513/654/196 512/651/196
f 511/650/197 515/657/197 516/658/197 513/654/197
f 507/644/198 514/656/198 516/658/198 515/657/198
f 514/656/199 509/646/199 510/649/199 516/658/199
f 510/649/209 513/655/209 516/658/209
f 517/659/191 520/663/191 522/665/191 521/664/191
f 520/662/192 524/668/192 525/669/192 522/666/192
f 518/660/193 523/667/193 525/669/193 524/668/193
f 523/667/194 527/671/194 528/674/194 525/669/194
f 519/661/189 526/670/189 528/673/189 527/672/189
f 526/670/190 521/664/190 522/665/190 528/673/190
f 522/666/207 525/669/207 528/674/207
f 529/675/177 532/679/177 534/681/177 533/680/177
f 532/678/178 536/684/178 537/685/178 534/682/178
f 530/676/179 535/683/179 537/685/179 536/684/179
f 535/683/180 539/688/180 540/689/180 537/685/180
f 531/677/175 538/686/175 540/689/175 539/688/175
f 538/687/176 533/680/176 534/681/176 540/690/176
f 534/682/210 537/685/210 540/691/210
f 541/692/186 544/695/186 546/697/186 545/696/186
f 544/695/187 548/699/187 549/700/187 546/697/187
f 542/693/182 547/698/182 549/700/182 548/699/182
f 547/698/183 551/702/183 552/703/183 549/700/183
f 543/694/184 550/701/184 552/703/184 551/702/184
f 550/701/185 545/696/185 546/697/185 552/703/185
f 546/697/211 549/700/211 552/703/211
f 106/131/212 93/112/212 97/117/212 108/133/212
f 108/134/213 97/118/213 102/127/213 107/132/213
f 107/132/214 102/127/214 95/114/214 105/130/214
f 154/202/215 69/78/215 73/83/215 156/204/215
f 156/205/216 73/84/216 78/91/216 155/203/216
f 155/203/217 78/91/217 71/80/217 153/201/217
f 9/9/218 22/23/218 28/29/218 12/12/218
f 12/12/219 28/29/219 24/25/219 16/16/219
f 16/16/220 24/25/220 21/22/220 10/10/220
f 94/113/221 82/96/221 88/103/221 99/122/221
f 99/123/222 88/104/222 84/99/222 103/128/222
f 103/128/223 84/99/223 81/95/223 95/114/223
f 33/37/224 46/51/224 52/58/224 36/40/224
f 36/40/225 52/58/225 48/53/225 40/44/225
f 40/44/226 48/53/226 45/50/226 34/38/226
f 57/65/227 71/80/227 79/92/227 60/68/227
f 60/68/228 79/92/228 75/88/228 64/72/228
f 64/72/229 75/88/229 70/79/229 58/66/229
f 158/207/230 83/97/230 91/109/230 160/212/230
f 160/212/231 91/109/231 87/102/231 159/209/231
f 159/209/232 87/102/232 82/96/232 157/206/232
f 110/136/233 35/39/233 43/48/233 112/139/233
f 112/139/234 43/48/234 39/43/234 111/138/234
f 111/138/235 39/43/235 34/38/235 109/135/235
f 146/188/236 47/52/236 55/61/236 148/190/236
f 148/191/237 55/62/237 51/57/237 147/189/237
f 147/189/238 51/57/238 46/51/238 145/187/238
f 122/153/239 59/67/239 67/76/239 124/158/239
f 124/158/240 67/76/240 63/71/240 123/155/240
f 123/155/241 63/71/241 58/66/241 121/152/241
f 150/194/242 11/11/242 19/20/242 152/199/242
f 152/199/243 19/20/243 15/15/243 151/196/243
f 151/196/244 15/15/244 10/10/244 149/192/244
f 126/161/245 23/24/245 31/34/245 128/163/245
f 128/163/246 31/34/246 27/28/246 127/162/246
f 127/162/247 27/28/247 22/23/247 125/160/247
f 130/165/248 106/131/248 108/133/248 132/167/248
f 132/168/213 108/134/213 107/132/213 131/166/213
f 131/166/249 107/132/249 105/130/249 129/164/249
f 134/170/250 110/137/250 112/139/250 136/173/250
f 136/173/251 112/139/251 111/138/251 135/172/251
f 135/172/252 111/138/252 109/135/252 133/169/252
f 83/98/253 113/140/253 115/143/253 90/107/253
f 90/107/254 115/143/254 116/145/254 85/100/254
f 85/100/255 116/145/255 114/142/255 81/95/255
f 47/52/245 117/148/245 119/150/245 54/60/245
f 54/60/246 119/150/246 120/151/246 49/54/246
f 49/54/247 120/151/247 118/149/247 45/50/247
f 113/141/256 122/154/256 124/159/256 115/144/256
f 115/144/257 124/159/257 123/156/257 116/146/257
f 116/147/258 123/157/258 121/152/258 114/142/258
f 117/148/259 126/161/259 128/163/259 119/150/259
f 119/150/246 128/163/246 127/162/246 120/151/246
f 120/151/260 127/162/260 125/160/260 118/149/260
f 69/78/212 130/165/212 132/167/212 72/81/212
f 72/82/213 132/168/213 131/166/213 76/89/213
f 76/89/214 131/166/214 129/164/214 70/79/214
f 11/11/261 134/171/261 136/173/261 18/18/261
f 18/18/262 136/173/262 135/172/262 13/13/262
f 13/13/263 135/172/263 133/169/263 9/9/263
f 23/24/215 137/174/215 139/176/215 30/32/215
f 30/33/216 139/177/216 140/178/216 25/26/216
f 25/26/217 140/178/217 138/175/217 21/22/217
f 35/39/264 141/179/264 143/182/264 42/46/264
f 42/46/265 143/182/265 144/184/265 37/41/265
f 37/41/266 144/184/266 142/181/266 33/37/266
f 162/215/267 146/188/267 148/190/267 164/217/267
f 164/218/237 148/191/237 147/189/237 163/216/237
f 163/216/268 147/189/268 145/187/268 161/214/268
f 166/220/269 150/195/269 152/200/269 168/225/269
f 168/225/270 152/200/270 151/197/270 167/222/270
f 167/223/271 151/198/271 149/192/271 165/219/271
f 137/174/272 154/202/272 156/204/272 139/176/272
f 139/177/216 156/205/216 155/203/216 140/178/216
f 140/178/273 155/203/273 153/201/273 138/175/273
f 141/180/274 158/208/274 160/213/274 143/183/274
f 143/183/275 160/213/275 159/210/275 144/185/275
f 144/186/276 159/211/276 157/206/276 142/181/276
f 93/112/236 162/215/236 164/217/236 96/115/236
f 96/116/237 164/218/237 163/216/237 100/124/237
f 100/124/238 163/216/238 161/214/238 94/113/238
f 59/67/277 166/221/277 168/226/277 66/74/277
f 66/74/278 168/226/278 167/224/278 61/69/278
f 61/69/279 167/224/279 165/219/279 57/65/279
f 169/227/280 181/240/280 185/244/280 172/230/280
f 172/230/281 185/244/281 190/249/281 176/235/281
f 176/235/282 190/249/282 183/242/282 170/228/282
f 193/252/283 171/229/283 179/238/283 196/256/283
f 196/256/284 179/238/284 175/233/284 200/261/284
f 200/261/285 175/233/285 170/228/285 194/253/285
f 182/241/286 205/266/286 209/272/286 187/246/286
f 187/246/287 209/272/287 214/278/287 191/250/287
f 191/250/288 214/278/288 207/268/288 183/242/288
f 194/254/289 207/269/289 215/280/289 199/259/289
f 199/259/290 215/280/290 211/275/290 203/264/290
f 203/264/291 211/275/291 206/267/291 195/255/291
f 217/283/292 229/300/292 233/304/292 220/287/292
f 220/287/293 233/304/293 238/309/293 224/294/293
f 224/294/294 238/309/294 231/302/294 218/284/294
f 230/301/295 241/313/295 245/317/295 235/306/295
f 235/306/296 245/317/296 250/322/296 239/311/296
f 239/311/297 250/322/297 243/315/297 231/302/297
f 255/328/298 243/315/298 251/324/298 262/336/298
f 262/336/299 251/324/299 247/319/299 257/331/299
f 257/331/300 247/319/300 242/314/300 253/326/300
f 218/285/301 255/329/301 263/338/301 223/292/301
f 223/292/302 263/338/302 259/333/302 227/298/302
f 227/298/303 259/333/303 254/327/303 219/286/303
f 265/340/304 277/357/304 281/363/304 268/344/304
f 268/344/305 281/363/305 286/369/305 272/349/305
f 272/349/306 286/369/306 279/359/306 266/341/306
f 278/358/307 289/374/307 293/379/307 283/366/307
f 283/366/308 293/379/308 298/386/308 287/371/308
f 287/371/309 298/386/309 291/376/309 279/360/309
f 290/375/310 301/391/310 305/396/310 295/381/310
f 295/381/311 305/396/311 310/401/311 299/388/311
f 299/388/312 310/401/312 303/393/312 291/377/312
f 302/392/313 267/343/313 275/354/313 307/398/313
f 307/398/314 275/354/314 271/347/314 311/403/314
f 311/403/315 271/347/315 266/342/315 303/394/315
f 313/405/316 325/422/316 329/426/316 316/409/316
f 316/409/317 329/426/317 334/431/317 320/414/317
f 320/414/318 334/431/318 327/424/318 314/406/318
f 326/423/319 337/435/319 341/440/319 331/428/319
f 331/428/320 341/440/320 346/447/320 335/433/320
f 335/433/321 346/447/321 339/437/321 327/424/321
f 314/407/322 350/453/322 356/461/322 319/412/322
f 319/412/323 356/461/323 352/456/323 323/419/323
f 323/419/324 352/456/324 349/452/324 315/408/324
f 338/436/325 351/455/325 359/464/325 343/442/325
f 343/442/326 359/464/326 355/459/326 347/449/326
f 347/449/327 355/459/327 350/454/327 339/438/327
f 363/468/328 374/479/328 380/486/328 370/475/328
f 370/475/251 380/486/251 376/481/251 365/470/251
f 365/470/329 376/481/329 373/478/329 361/466/329
f 387/495/330 363/468/330 371/476/330 394/502/330
f 394/502/270 371/476/270 367/472/270 389/497/270
f 389/497/331 367/472/331 362/467/331 385/493/331
f 374/479/332 398/506/332 404/516/332 379/485/332
f 379/485/275 404/516/275 400/508/275 383/489/275
f 383/490/333 400/509/333 397/505/333 375/480/333
f 386/494/334 399/507/334 407/519/334 391/499/334
f 391/499/257 407/519/257 403/515/257 395/503/257
f 395/503/335 403/515/335 398/506/335 387/495/335
f 411/524/330 422/540/330 428/548/330 418/536/330
f 418/536/270 428/548/270 424/542/270 413/527/270
f 413/528/331 424/543/331 421/539/331 409/522/331
f 422/540/328 434/555/328 440/561/328 427/547/328
f 427/547/251 440/561/251 436/557/251 431/551/251
f 431/551/329 436/557/329 433/554/329 423/541/329
f 445/566/333 435/556/333 443/564/333 448/569/333
f 448/569/275 443/564/275 439/560/275 452/573/275
f 452/573/332 439/560/332 434/555/332 446/567/332
f 410/523/334 447/568/334 455/576/334 415/532/334
f 415/532/257 455/576/257 451/572/257 419/537/257
f 419/537/335 451/572/335 446/567/335 411/524/335
f 459/580/332 470/596/332 476/606/332 466/592/332
f 466/592/275 476/606/275 472/598/275 461/582/275
f 461/583/333 472/599/333 469/595/333 457/578/333
f 470/596/335 482/614/335 488/622/335 475/605/335
f 475/605/257 488/622/257 484/616/257 479/609/257
f 479/610/334 484/617/334 481/613/334 471/597/334
f 482/614/330 494/631/330 500/637/330 487/621/330
f 487/621/270 500/637/270 496/633/270 491/626/270
f 491/626/331 496/633/331 493/630/331 483/615/331
f 494/631/328 459/580/328 467/593/328 499/636/328
f 499/636/251 467/593/251 463/586/251 503/640/251
f 503/640/329 463/586/329 458/579/329 495/632/329
f 507/644/335 518/660/335 524/668/335 514/656/335
f 514/656/257 524/668/257 520/662/257 509/646/257
f 509/647/334 520/663/334 517/659/334 505/642/334
f 518/660/330 530/676/330 536/684/330 523/667/330
f 523/667/270 536/684/270 532/678/270 527/671/270
f 527/672/331 532/679/331 529/675/331 519/661/331
f 506/643/333 541/692/333 545/696/333 511/650/333
f 511/650/275 545/696/275 550/701/275 515/657/275
f 515/657/332 550/701/332 543/694/332 507/644/332
f 530/676/328 543/694/328 551/702/328 535/683/328
f 535/683/251 551/702/251 547/698/251 539/688/251
f 539/688/329 547/698/329 542/693/329 531/677/329
f 171/229/336 362/467/336 368/473/336 178/237/336
f 178/237/337 368/473/337 364/469/337 173/231/337
f 173/231/338 364/469/338 361/466/338 169/227/338
f 375/480/339 182/241/339 188/247/339 382/488/339
f 382/488/340 188/247/340 184/243/340 377/482/340
f 377/482/341 184/243/341 181/240/341 373/478/341
f 219/286/342 410/523/342 416/533/342 226/297/342
f 226/297/343 416/533/343 412/525/343 221/288/343
f 221/289/344 412/526/344 409/522/344 217/283/344
f 423/541/338 230/301/338 236/307/338 430/550/338
f 430/550/337 236/307/337 232/303/337 425/544/337
f 425/544/336 232/303/336 229/300/336 421/539/336
f 195/255/342 386/494/342 392/500/342 202/263/342
f 202/263/343 392/500/343 388/496/343 197/257/343
f 197/257/344 388/496/344 385/493/344 193/252/344
f 267/343/341 458/579/341 464/587/341 274/352/341
f 274/353/340 464/588/340 460/581/340 269/345/340
f 269/345/339 460/581/339 457/578/339 265/340/339
f 471/597/345 278/358/345 284/367/345 478/608/345
f 478/608/346 284/367/346 280/361/346 473/600/346
f 473/601/347 280/362/347 277/357/347 469/595/347
f 435/556/339 242/314/339 248/320/339 442/563/339
f 442/563/340 248/320/340 244/316/340 437/558/340
f 437/558/341 244/316/341 241/313/341 433/554/341
f 315/408/347 506/643/347 512/651/347 322/417/347
f 322/418/346 512/652/346 508/645/346 317/410/346
f 317/410/345 508/645/345 505/642/345 313/405/345
f 519/661/344 326/423/344 332/429/344 526/670/344
f 526/670/343 332/429/343 328/425/343 521/664/343
f 521/664/342 328/425/342 325/422/342 517/659/342
f 399/507/345 206/267/345 212/276/345 406/518/345
f 406/518/346 212/276/346 208/270/346 401/510/346
f 401/511/347 208/271/347 205/266/347 397/505/347
f 483/615/344 290/375/344 296/382/344 490/624/344
f 490/625/343 296/383/343 292/378/343 485/618/343
f 485/618/342 292/378/342 289/374/342 481/613/342
f 447/568/345 254/327/345 260/334/345 454/575/345
f 454/575/346 260/334/346 256/330/346 449/570/346
f 449/570/347 256/330/347 253/326/347 445/566/347
f 531/677/338 338/436/338 344/443/338 538/686/338
f 538/687/337 344/444/337 340/439/337 533/680/337
f 533/680/336 340/439/336 337/435/336 529/675/336
f 495/632/338 302/392/338 308/399/338 502/639/338
f 502/639/337 308/399/337 304/395/337 497/634/337
f 497/634/336 304/395/336 301/391/336 493/630/336
f 351/455/341 542/693/341 548/699/341 358/463/341
f 358/463/340 548/699/340 544/695/340 353/457/340
f 353/457/339 544/695/339 541/692/339 349/452/339
f 22/23/5 9/9/5 133/169/5 125/160/5
