# Blender 3.4.1
# www.blender.org
mtllib table_rectangle_160x100.mtl
o Cube
v 0.599778 0.820394 0.299858
v 0.599778 0.740493 0.299858
v 0.599778 0.740493 -0.299552
v 0.599778 0.820394 -0.299552
v -0.597860 0.820394 0.299858
v -0.597860 0.820394 -0.299552
v -0.597860 0.740493 0.299858
v -0.597860 0.740493 -0.299552
v 0.801255 0.760493 -0.480078
v 0.781255 0.760493 -0.500078
v 0.787064 0.740493 -0.485985
v 0.797521 0.760493 -0.488984
v 0.800422 0.750506 -0.481947
v 0.796753 0.750929 -0.490420
v 0.783094 0.750506 -0.499275
v 0.790180 0.760493 -0.496326
v 0.791584 0.750929 -0.495588
v 0.795213 0.743165 -0.484115
v 0.785226 0.743165 -0.494102
v 0.793086 0.745760 -0.491946
v 0.781255 0.800394 -0.500078
v 0.801255 0.800394 -0.480078
v 0.781255 0.820394 -0.480078
v 0.791242 0.800394 -0.497406
v 0.781255 0.810381 -0.497406
v 0.790820 0.809958 -0.494810
v 0.798583 0.810381 -0.480078
v 0.798583 0.800394 -0.490065
v 0.795988 0.809958 -0.489642
v 0.781255 0.817722 -0.490065
v 0.791242 0.817722 -0.480078
v 0.790820 0.815127 -0.489642
v 0.781255 0.760493 0.500078
v 0.801255 0.760493 0.480078
v 0.787043 0.740493 0.486007
v 0.790184 0.760493 0.496322
v 0.783087 0.750506 0.499282
v 0.791582 0.750929 0.495591
v 0.800415 0.750506 0.481954
v 0.797525 0.760493 0.488980
v 0.796750 0.750929 0.490423
v 0.785211 0.743165 0.494117
v 0.795198 0.743165 0.484130
v 0.793077 0.745760 0.491955
v 0.801255 0.800394 0.480078
v 0.781255 0.800394 0.500078
v 0.781255 0.820394 0.480078
v 0.798583 0.800394 0.490065
v 0.798583 0.810381 0.480078
v 0.795988 0.809958 0.489642
v 0.781255 0.810381 0.497406
v 0.791242 0.800394 0.497406
v 0.790820 0.809958 0.494810
v 0.791242 0.817722 0.480078
v 0.781255 0.817722 0.490065
v 0.790820 0.815127 0.489642
v -0.777517 0.760493 -0.500078
v -0.797517 0.760493 -0.480078
v -0.783405 0.740493 -0.485905
v -0.786427 0.760493 -0.496340
v -0.779380 0.750506 -0.499250
v -0.787856 0.750929 -0.495578
v -0.796708 0.750506 -0.481922
v -0.793768 0.760493 -0.488999
v -0.793025 0.750929 -0.490409
v -0.781542 0.743165 -0.494048
v -0.791529 0.743165 -0.484061
v -0.789378 0.745760 -0.491915
v -0.777517 0.820394 -0.480078
v -0.797517 0.800394 -0.480078
v -0.777517 0.800394 -0.500078
v -0.787504 0.817722 -0.480078
v -0.777517 0.817722 -0.490065
v -0.787081 0.815127 -0.489642
v -0.794845 0.800394 -0.490065
v -0.794845 0.810381 -0.480078
v -0.792249 0.809958 -0.489642
v -0.777517 0.810381 -0.497406
v -0.787504 0.800394 -0.497406
v -0.787081 0.809958 -0.494810
v -0.797517 0.760493 0.480078
v -0.777517 0.760493 0.500078
v -0.783394 0.740493 0.485916
v -0.793770 0.760493 0.488997
v -0.796705 0.750506 0.481925
v -0.793023 0.750929 0.490411
v -0.779377 0.750506 0.499253
v -0.786429 0.760493 0.496338
v -0.787855 0.750929 0.495579
v -0.791521 0.743165 0.484068
v -0.781534 0.743165 0.494055
v -0.789374 0.745760 0.491919
v -0.777517 0.820394 0.480078
v -0.777517 0.800394 0.500078
v -0.797517 0.800394 0.480078
v -0.777517 0.817722 0.490065
v -0.787504 0.817722 0.480078
v -0.787081 0.815127 0.489642
v -0.787504 0.800394 0.497406
v -0.777517 0.810381 0.497406
v -0.787081 0.809958 0.494810
v -0.794845 0.810381 0.480078
v -0.794845 0.800394 0.490065
v -0.792249 0.809958 0.489642
v -0.797517 0.800394 0.299858
v -0.777517 0.820394 0.299858
v -0.794837 0.810394 0.299858
v -0.787517 0.817715 0.299858
v 0.801255 0.760493 0.299858
v 0.781255 0.740493 0.299858
v 0.798576 0.750493 0.299858
v 0.791255 0.743172 0.299858
v -0.777517 0.740493 0.299858
v -0.797517 0.760493 0.299858
v -0.787517 0.743172 0.299858
v -0.794837 0.750493 0.299858
v 0.781255 0.820394 0.299858
v 0.801255 0.800394 0.299858
v 0.791255 0.817715 0.299858
v 0.798576 0.810394 0.299858
v -0.797517 0.760493 -0.299552
v -0.777517 0.740493 -0.299552
v -0.794837 0.750493 -0.299552
v -0.787517 0.743172 -0.299552
v 0.801255 0.800394 -0.299552
v 0.781255 0.820394 -0.299552
v 0.798576 0.810394 -0.299552
v 0.791255 0.817715 -0.299552
v -0.797517 0.800394 -0.299552
v -0.777517 0.820394 -0.299552
v -0.794837 0.810394 -0.299552
v -0.787517 0.817715 -0.299552
v 0.801255 0.760493 -0.299552
v 0.781255 0.740493 -0.299552
v 0.798576 0.750493 -0.299552
v 0.791255 0.743172 -0.299552
v 0.599778 0.820394 -0.480078
v 0.599778 0.800394 -0.500078
v 0.599778 0.817715 -0.490078
v 0.599778 0.810394 -0.497398
v 0.599778 0.740493 0.480078
v 0.599778 0.760493 0.500078
v 0.599778 0.743172 0.490078
v 0.599778 0.750493 0.497398
v 0.599778 0.800394 0.500078
v 0.599778 0.820394 0.480078
v 0.599778 0.810394 0.497398
v 0.599778 0.817715 0.490078
v 0.599778 0.760493 -0.500078
v 0.599778 0.740493 -0.480078
v 0.599778 0.750493 -0.497398
v 0.599778 0.743172 -0.490078
v -0.597860 0.800394 -0.500078
v -0.597860 0.820394 -0.480078
v -0.597860 0.810394 -0.497398
v -0.597860 0.817715 -0.490078
v -0.597860 0.760493 0.500078
v -0.597860 0.740493 0.480078
v -0.597860 0.750493 0.497398
v -0.597860 0.743172 0.490078
v -0.597860 0.800394 0.500078
v -0.597860 0.820394 0.480078
v -0.597860 0.810394 0.497398
v -0.597860 0.817715 0.490078
v -0.597860 0.760493 -0.500078
v -0.597860 0.740493 -0.480078
v -0.597860 0.750493 -0.497398
v -0.597860 0.743172 -0.490078
v 0.700453 0.720493 0.320238
v 0.720453 0.740493 0.300163
v 0.680453 0.720493 0.300238
v 0.703405 0.730287 0.313841
v 0.697485 0.720493 0.310422
v 0.700939 0.729981 0.307133
v 0.715094 0.737813 0.300198
v 0.710659 0.737540 0.306560
v 0.706515 0.735475 0.303899
v 0.690269 0.720493 0.303206
v 0.700453 0.730493 0.300227
v 0.699813 0.730156 0.302820
v 0.700453 0.720493 0.380278
v 0.680453 0.720493 0.400278
v 0.714666 0.740493 0.414350
v 0.697485 0.720493 0.390095
v 0.702587 0.730363 0.393168
v 0.699864 0.730046 0.396641
v 0.693452 0.730365 0.402393
v 0.690269 0.720493 0.397311
v 0.696864 0.730048 0.399667
v 0.707803 0.737632 0.405592
v 0.705928 0.737635 0.407558
v 0.702631 0.735426 0.402383
v 0.619784 0.720493 0.300238
v 0.599433 0.740493 0.280241
v 0.599784 0.720493 0.320238
v 0.613299 0.730286 0.297286
v 0.609968 0.720493 0.303206
v 0.606629 0.729981 0.299753
v 0.599598 0.737813 0.285604
v 0.605917 0.737540 0.290034
v 0.603346 0.735475 0.294178
v 0.602752 0.720493 0.310422
v 0.599730 0.730493 0.300244
v 0.602330 0.730156 0.300881
v 0.619784 0.720493 0.400278
v 0.599784 0.720493 0.380278
v 0.599783 0.740493 0.420278
v 0.609968 0.720493 0.397311
v 0.613410 0.730287 0.403231
v 0.606692 0.729982 0.400764
v 0.599784 0.730493 0.400278
v 0.602752 0.720493 0.390095
v 0.602376 0.730156 0.399638
v 0.606157 0.737540 0.410484
v 0.599784 0.737813 0.414919
v 0.603472 0.735475 0.406341
v 0.619779 0.720493 -0.399616
v 0.599779 0.740493 -0.419616
v 0.599779 0.720493 -0.379616
v 0.613405 0.730287 -0.402569
v 0.609962 0.720493 -0.396649
v 0.606687 0.729982 -0.400102
v 0.599779 0.737813 -0.414257
v 0.606152 0.737540 -0.409822
v 0.603467 0.735475 -0.405679
v 0.602746 0.720493 -0.389433
v 0.599779 0.730493 -0.399616
v 0.602371 0.730156 -0.398976
v 0.680092 0.720493 -0.399616
v 0.700092 0.720493 -0.379616
v 0.714283 0.740493 -0.413709
v 0.689908 0.720493 -0.396649
v 0.693074 0.730365 -0.401733
v 0.696496 0.730048 -0.399008
v 0.702223 0.730364 -0.392522
v 0.697124 0.720493 -0.389433
v 0.699499 0.730046 -0.395986
v 0.705542 0.737634 -0.406907
v 0.707432 0.737633 -0.404954
v 0.702259 0.735426 -0.401732
v 0.700092 0.720493 -0.319598
v 0.680092 0.720493 -0.299598
v 0.720092 0.740493 -0.299589
v 0.697124 0.720493 -0.309782
v 0.703045 0.730287 -0.313222
v 0.700578 0.729982 -0.306504
v 0.700092 0.730493 -0.299597
v 0.689908 0.720493 -0.302566
v 0.699452 0.730156 -0.302189
v 0.710298 0.737540 -0.305965
v 0.714733 0.737813 -0.299593
v 0.706155 0.735475 -0.303283
v 0.619779 0.720493 -0.299598
v 0.599779 0.720493 -0.319598
v 0.599235 0.740493 -0.279605
v 0.609962 0.720493 -0.302566
v 0.613232 0.730286 -0.296647
v 0.606589 0.729981 -0.299114
v 0.599695 0.730493 -0.299612
v 0.602746 0.720493 -0.309782
v 0.602298 0.730156 -0.300244
v 0.605780 0.737541 -0.289395
v 0.599490 0.737813 -0.284974
v 0.603271 0.735475 -0.293542
v -0.617877 0.720493 0.401177
v -0.597874 0.740493 0.421177
v -0.597877 0.720493 0.381177
v -0.611503 0.730287 0.404130
v -0.608061 0.720493 0.398209
v -0.604785 0.729982 0.401663
v -0.597875 0.737813 0.415818
v -0.604248 0.737540 0.411383
v -0.601564 0.735475 0.407240
v -0.600845 0.720493 0.390993
v -0.597877 0.730493 0.401177
v -0.600469 0.730156 0.400537
v -0.678894 0.720493 0.401177
v -0.698894 0.720493 0.381177
v -0.713016 0.740493 0.415339
v -0.688711 0.720493 0.398210
v -0.691823 0.730364 0.403304
v -0.695274 0.730047 0.400580
v -0.701016 0.730365 0.394136
v -0.695927 0.720493 0.390993
v -0.698291 0.730047 0.397571
v -0.704266 0.737633 0.408502
v -0.706199 0.737634 0.406594
v -0.701026 0.735426 0.403329
v -0.698894 0.720493 0.319876
v -0.678894 0.720493 0.299876
v -0.718894 0.740493 0.299872
v -0.695926 0.720493 0.310059
v -0.701847 0.730287 0.313501
v -0.699380 0.729982 0.306783
v -0.698894 0.730493 0.299875
v -0.688711 0.720493 0.302843
v -0.698254 0.730156 0.302467
v -0.709100 0.737540 0.306247
v -0.713535 0.737813 0.299874
v -0.704957 0.735475 0.303562
v -0.617877 0.720493 0.299876
v -0.597877 0.720493 0.319876
v -0.583566 0.740493 0.285904
v -0.608061 0.720493 0.302843
v -0.604802 0.730367 0.297776
v -0.601431 0.730049 0.300503
v -0.595729 0.730362 0.307062
v -0.600845 0.720493 0.310059
v -0.598451 0.730045 0.303547
v -0.592289 0.737636 0.292645
v -0.590478 0.737631 0.294675
v -0.595648 0.735426 0.297822
v -0.698006 0.720493 -0.319558
v -0.718006 0.740493 -0.299557
v -0.678006 0.720493 -0.299558
v -0.700959 0.730287 -0.313184
v -0.695039 0.720493 -0.309742
v -0.698492 0.729982 -0.306466
v -0.712647 0.737813 -0.299557
v -0.708212 0.737540 -0.305931
v -0.704069 0.735475 -0.303246
v -0.687823 0.720493 -0.302526
v -0.698006 0.730493 -0.299558
v -0.697366 0.730156 -0.302150
v -0.698006 0.720493 -0.380136
v -0.678006 0.720493 -0.400136
v -0.712118 0.740493 -0.414308
v -0.695039 0.720493 -0.389952
v -0.700126 0.730365 -0.393103
v -0.697401 0.730047 -0.396533
v -0.690927 0.730364 -0.402265
v -0.687823 0.720493 -0.397168
v -0.694383 0.730047 -0.399540
v -0.705306 0.737634 -0.405565
v -0.703365 0.737633 -0.407466
v -0.700132 0.735426 -0.402293
v -0.617864 0.720493 -0.400136
v -0.597864 0.720493 -0.380136
v -0.597863 0.740493 -0.420136
v -0.608048 0.720493 -0.397168
v -0.611491 0.730287 -0.403088
v -0.604772 0.729982 -0.400622
v -0.597864 0.730493 -0.400136
v -0.600832 0.720493 -0.389952
v -0.600456 0.730156 -0.399496
v -0.604237 0.737540 -0.410342
v -0.597864 0.737813 -0.414777
v -0.601552 0.735475 -0.406198
v -0.617864 0.720493 -0.299558
v -0.585777 0.740493 -0.283624
v -0.597864 0.720493 -0.319558
v -0.606342 0.730337 -0.297179
v -0.608048 0.720493 -0.302526
v -0.602129 0.730024 -0.299867
v -0.591579 0.737670 -0.291954
v -0.594654 0.737604 -0.291351
v -0.596729 0.735430 -0.296433
v -0.600832 0.720493 -0.309742
v -0.596036 0.730395 -0.305072
v -0.598778 0.730073 -0.302490
v 0.700453 0.020421 0.320238
v 0.680453 0.020421 0.300238
v 0.680453 0.000421 0.320238
v 0.697781 0.020421 0.310252
v 0.697781 0.010434 0.320238
v 0.695185 0.010857 0.310674
v 0.680453 0.010434 0.302910
v 0.690440 0.020421 0.302910
v 0.690017 0.010857 0.305506
v 0.690440 0.003093 0.320238
v 0.680453 0.003093 0.310252
v 0.690017 0.005688 0.310674
v 0.700453 0.020421 0.380278
v 0.680453 0.000421 0.380278
v 0.680453 0.020421 0.400278
v 0.697781 0.010434 0.380278
v 0.697781 0.020421 0.390265
v 0.695185 0.010857 0.389842
v 0.680453 0.003093 0.390265
v 0.690440 0.003093 0.380278
v 0.690017 0.005688 0.389842
v 0.690440 0.020421 0.397606
v 0.680453 0.010434 0.397606
v 0.690017 0.010857 0.395011
v 0.619784 0.020421 0.300238
v 0.599784 0.020421 0.320238
v 0.619784 0.000421 0.320238
v 0.609797 0.020421 0.302910
v 0.619784 0.010434 0.302910
v 0.610220 0.010857 0.305506
v 0.602456 0.010434 0.320238
v 0.602456 0.020421 0.310252
v 0.605052 0.010857 0.310674
v 0.619784 0.003093 0.310252
v 0.609797 0.003093 0.320238
v 0.610220 0.005688 0.310674
v 0.619784 0.020421 0.400278
v 0.619784 0.000421 0.380278
v 0.599784 0.020421 0.380278
v 0.619784 0.010434 0.397606
v 0.609797 0.020421 0.397606
v 0.610220 0.010857 0.395011
v 0.609797 0.003093 0.380278
v 0.619784 0.003093 0.390265
v 0.610220 0.005688 0.389842
v 0.602456 0.020421 0.390265
v 0.602456 0.010434 0.380278
v 0.605052 0.010857 0.389842
v 0.619779 0.020421 -0.399616
v 0.599779 0.020421 -0.379616
v 0.619779 0.000421 -0.379616
v 0.609792 0.020421 -0.396944
v 0.619779 0.010434 -0.396944
v 0.610215 0.010857 -0.394349
v 0.602451 0.010434 -0.379616
v 0.602451 0.020421 -0.389603
v 0.605046 0.010857 -0.389180
v 0.619779 0.003093 -0.389603
v 0.609792 0.003093 -0.379616
v 0.610215 0.005688 -0.389180
v 0.680092 0.020421 -0.399616
v 0.680092 0.000421 -0.379616
v 0.700092 0.020421 -0.379616
v 0.680092 0.010434 -0.396944
v 0.690079 0.020421 -0.396944
v 0.689656 0.010857 -0.394349
v 0.690079 0.003093 -0.379616
v 0.680092 0.003093 -0.389603
v 0.689656 0.005688 -0.389180
v 0.697420 0.020421 -0.389603
v 0.697420 0.010434 -0.379616
v 0.694825 0.010857 -0.389180
v 0.700092 0.020421 -0.319598
v 0.680092 0.000421 -0.319598
v 0.680092 0.020421 -0.299598
v 0.697420 0.010434 -0.319598
v 0.697420 0.020421 -0.309611
v 0.694825 0.010857 -0.310034
v 0.680092 0.003093 -0.309611
v 0.690079 0.003093 -0.319598
v 0.689656 0.005688 -0.310034
v 0.690079 0.020421 -0.302270
v 0.680092 0.010434 -0.302270
v 0.689656 0.010857 -0.304866
v 0.619779 0.020421 -0.299598
v 0.619779 0.000421 -0.319598
v 0.599779 0.020421 -0.319598
v 0.619779 0.010434 -0.302270
v 0.609792 0.020421 -0.302270
v 0.610215 0.010857 -0.304866
v 0.609792 0.003093 -0.319598
v 0.619779 0.003093 -0.309611
v 0.610215 0.005688 -0.310034
v 0.602451 0.020421 -0.309611
v 0.602451 0.010434 -0.319598
v 0.605046 0.010857 -0.310034
v -0.617877 0.020421 0.401177
v -0.597877 0.020421 0.381177
v -0.617877 0.000421 0.381177
v -0.607890 0.020421 0.398505
v -0.617877 0.010434 0.398505
v -0.608313 0.010857 0.395910
v -0.600549 0.010434 0.381177
v -0.600549 0.020421 0.391164
v -0.603145 0.010857 0.390741
v -0.617877 0.003093 0.391164
v -0.607890 0.003093 0.381177
v -0.608313 0.005688 0.390741
v -0.678894 0.020421 0.401177
v -0.678894 0.000421 0.381177
v -0.698894 0.020421 0.381177
v -0.678894 0.010434 0.398505
v -0.688881 0.020421 0.398505
v -0.688458 0.010857 0.395910
v -0.688881 0.003093 0.381177
v -0.678894 0.003093 0.391164
v -0.688458 0.005688 0.390741
v -0.696222 0.020421 0.391164
v -0.696222 0.010434 0.381177
v -0.693627 0.010857 0.390741
v -0.698894 0.020421 0.319876
v -0.678894 0.000421 0.319876
v -0.678894 0.020421 0.299876
v -0.696222 0.010434 0.319876
v -0.696222 0.020421 0.309889
v -0.693627 0.010857 0.310311
v -0.678894 0.003093 0.309889
v -0.688881 0.003093 0.319876
v -0.688458 0.005688 0.310311
v -0.688881 0.020421 0.302547
v -0.678894 0.010434 0.302547
v -0.688458 0.010857 0.305143
v -0.617877 0.020421 0.299876
v -0.617877 0.000421 0.319876
v -0.597877 0.020421 0.319876
v -0.617877 0.010434 0.302547
v -0.607890 0.020421 0.302547
v -0.608313 0.010857 0.305143
v -0.607890 0.003093 0.319876
v -0.617877 0.003093 0.309889
v -0.608313 0.005688 0.310311
v -0.600549 0.020421 0.309889
v -0.600549 0.010434 0.319876
v -0.603145 0.010857 0.310311
v -0.698006 0.020421 -0.319558
v -0.678006 0.020421 -0.299558
v -0.678006 0.000421 -0.319558
v -0.695334 0.020421 -0.309571
v -0.695334 0.010434 -0.319558
v -0.692739 0.010857 -0.309994
v -0.678006 0.010434 -0.302230
v -0.687993 0.020421 -0.302230
v -0.687570 0.010857 -0.304826
v -0.687993 0.003093 -0.319558
v -0.678006 0.003093 -0.309571
v -0.687570 0.005688 -0.309994
v -0.698006 0.020421 -0.380136
v -0.678006 0.000421 -0.380136
v -0.678006 0.020421 -0.400136
v -0.695334 0.010434 -0.380136
v -0.695334 0.020421 -0.390123
v -0.692739 0.010857 -0.389700
v -0.678006 0.003093 -0.390123
v -0.687993 0.003093 -0.380136
v -0.687570 0.005688 -0.389700
v -0.687993 0.020421 -0.397464
v -0.678006 0.010434 -0.397464
v -0.687570 0.010857 -0.394868
v -0.617864 0.020421 -0.400136
v -0.617864 0.000421 -0.380136
v -0.597864 0.020421 -0.380136
v -0.617864 0.010434 -0.397464
v -0.607877 0.020421 -0.397464
v -0.608300 0.010857 -0.394868
v -0.607877 0.003093 -0.380136
v -0.617864 0.003093 -0.390123
v -0.608300 0.005688 -0.389700
v -0.600536 0.020421 -0.390123
v -0.600536 0.010434 -0.380136
v -0.603132 0.010857 -0.389700
v -0.617864 0.020421 -0.299558
v -0.597864 0.020421 -0.319558
v -0.617864 0.000421 -0.319558
v -0.607877 0.020421 -0.302230
v -0.617864 0.010434 -0.302230
v -0.608300 0.010857 -0.304826
v -0.600536 0.010434 -0.319558
v -0.600536 0.020421 -0.309571
v -0.603132 0.010857 -0.309994
v -0.617864 0.003093 -0.309571
v -0.607877 0.003093 -0.319558
v -0.608300 0.005688 -0.309994
vn -0.0000 -1.0000 -0.0000
vn -0.0000 1.0000 -0.0000
vn -0.0000 -0.0000 1.0000
vn -0.0000 -0.0000 -1.0000
vn -1.0000 -0.0000 -0.0000
vn 1.0000 -0.0000 -0.0000
vn -0.9199 0.0091 0.3921
vn -0.7062 -0.0493 0.7062
vn -0.3930 0.0072 0.9195
vn -0.3729 0.4597 0.8060
vn -0.3733 0.8493 0.3733
vn -0.8054 0.4617 0.3718
vn -0.6786 0.2811 0.6786
vn -0.2566 -0.2566 0.9318
vn -0.6901 -0.2178 0.6901
vn -0.9318 -0.2566 0.2566
vn -0.6901 -0.6901 0.2178
vn -0.2566 -0.9318 0.2566
vn -0.2178 -0.6901 0.6901
vn -0.5773 -0.5773 0.5774
vn -0.3932 0.0068 -0.9194
vn -0.7063 -0.0493 -0.7062
vn -0.9200 0.0095 -0.3919
vn -0.8053 0.4621 -0.3715
vn -0.3733 0.8493 -0.3733
vn -0.3731 0.4592 -0.8062
vn -0.6786 0.2811 -0.6786
vn -0.9318 -0.2566 -0.2566
vn -0.6901 -0.2178 -0.6901
vn -0.2566 -0.2566 -0.9318
vn -0.2178 -0.6901 -0.6901
vn -0.2566 -0.9318 -0.2566
vn -0.6901 -0.6901 -0.2178
vn -0.5774 -0.5773 -0.5774
vn 0.3922 0.0087 0.9198
vn 0.7062 -0.0493 0.7062
vn 0.9196 0.0076 0.3928
vn 0.8059 0.4600 0.3727
vn 0.3733 0.8493 0.3733
vn 0.3720 0.4613 0.8055
vn 0.6786 0.2811 0.6786
vn 0.2566 -0.9318 0.2566
vn 0.6901 -0.6901 0.2178
vn 0.9318 -0.2566 0.2566
vn 0.6901 -0.2178 0.6901
vn 0.2566 -0.2566 0.9318
vn 0.2178 -0.6901 0.6901
vn 0.5773 -0.5773 0.5774
vn 0.9196 0.0078 -0.3927
vn 0.7062 -0.0493 -0.7062
vn 0.3923 0.0085 -0.9198
vn 0.3721 0.4611 -0.8056
vn 0.3733 0.8493 -0.3733
vn 0.8058 0.4603 -0.3725
vn 0.6786 0.2811 -0.6786
vn 0.2566 -0.9318 -0.2566
vn 0.2178 -0.6901 -0.6901
vn 0.2566 -0.2566 -0.9318
vn 0.6901 -0.2178 -0.6901
vn 0.9318 -0.2566 -0.2566
vn 0.6901 -0.6901 -0.2178
vn 0.5773 -0.5773 -0.5774
vn -0.8622 0.4249 0.2757
vn -0.5907 0.7762 0.2203
vn -0.3835 0.8947 -0.2289
vn -0.4674 0.8173 -0.3371
vn -0.3952 0.6077 0.6889
vn -0.6721 0.5510 0.4947
vn -0.6288 0.7528 0.1947
vn -0.7938 0.5124 -0.3277
vn -0.5905 0.5517 -0.5890
vn -0.3287 0.5138 -0.7924
vn -0.4643 0.8416 -0.2759
vn -0.2064 0.9582 -0.1981
vn -0.2841 0.8409 -0.4607
vn -0.4735 0.7450 -0.4698
vn 0.2760 0.4267 0.8613
vn 0.2216 0.7775 0.5885
vn -0.2324 0.8925 0.3866
vn -0.3371 0.8161 0.4694
vn 0.6876 0.6094 0.3946
vn 0.4946 0.5524 0.6710
vn 0.1952 0.7536 0.6277
vn 0.2756 0.4245 -0.8625
vn 0.4947 0.5506 -0.6724
vn 0.6893 0.6071 -0.3953
vn -0.3370 0.8176 -0.4669
vn -0.2279 0.8953 -0.3827
vn 0.2200 0.7759 -0.5913
vn 0.1945 0.7526 -0.6291
vn 0.2756 0.4244 0.8625
vn 0.2200 0.7759 0.5913
vn -0.2279 0.8953 0.3826
vn -0.3370 0.8176 0.4669
vn 0.6893 0.6071 0.3953
vn 0.4947 0.5506 0.6724
vn 0.1945 0.7526 0.6291
vn -0.3285 0.5136 0.7926
vn -0.5903 0.5517 0.5893
vn -0.7936 0.5126 0.3279
vn -0.2829 0.8410 0.4612
vn -0.2052 0.9582 0.1994
vn -0.4637 0.8415 0.2771
vn -0.4730 0.7450 0.4704
vn -0.8625 0.4245 -0.2756
vn -0.6723 0.5507 -0.4947
vn -0.3953 0.6072 -0.6892
vn -0.4669 0.8175 0.3371
vn -0.3827 0.8953 0.2280
vn -0.5912 0.7759 -0.2200
vn -0.6290 0.7526 -0.1946
vn 0.2762 0.4279 -0.8606
vn 0.4945 0.5533 -0.6703
vn 0.6869 0.6105 -0.3942
vn -0.3368 0.8154 -0.4708
vn -0.2347 0.8910 -0.3887
vn 0.2225 0.7784 -0.5870
vn 0.1958 0.7541 -0.6269
vn -0.2756 0.4245 -0.8625
vn -0.2200 0.7759 -0.5912
vn 0.2279 0.8953 -0.3827
vn 0.3370 0.8176 -0.4669
vn -0.6893 0.6072 -0.3953
vn -0.4947 0.5506 -0.6724
vn -0.1945 0.7526 -0.6291
vn 0.3281 0.5129 -0.7933
vn 0.5896 0.5517 -0.5900
vn 0.7929 0.5133 -0.3283
vn 0.2788 0.8414 -0.4630
vn 0.2011 0.9582 -0.2034
vn 0.4620 0.8412 -0.2812
vn 0.4712 0.7450 -0.4722
vn 0.8625 0.4245 0.2756
vn 0.6724 0.5506 0.4947
vn 0.3953 0.6071 0.6893
vn 0.4669 0.8176 -0.3370
vn 0.3827 0.8953 -0.2280
vn 0.5913 0.7759 0.2200
vn 0.6291 0.7526 0.1946
vn -0.3294 0.5149 0.7915
vn -0.5915 0.5517 0.5880
vn -0.7947 0.5113 0.3270
vn -0.2898 0.8404 0.4581
vn -0.2122 0.9581 0.1921
vn -0.4668 0.8421 0.2700
vn -0.4761 0.7450 0.4672
vn 0.8625 0.4245 -0.2756
vn 0.5913 0.7759 -0.2200
vn 0.3827 0.8953 0.2279
vn 0.4669 0.8176 0.3370
vn 0.3953 0.6071 -0.6893
vn 0.6724 0.5506 -0.4947
vn 0.6291 0.7526 -0.1946
vn 0.7928 0.5134 0.3284
vn 0.5894 0.5517 0.5901
vn 0.3280 0.5128 0.7934
vn 0.4617 0.8411 0.2818
vn 0.2005 0.9582 0.2041
vn 0.2782 0.8414 0.4633
vn 0.4709 0.7450 0.4725
vn -0.2756 0.4245 0.8625
vn -0.4947 0.5506 0.6724
vn -0.6893 0.6071 0.3953
vn 0.3370 0.8176 0.4669
vn 0.2279 0.8953 0.3827
vn -0.2200 0.7759 0.5913
vn -0.1945 0.7526 0.6291
vn -0.3155 0.4945 -0.8099
vn -0.4102 0.8298 -0.3784
vn -0.0804 0.9486 -0.3062
vn -0.1535 0.8483 -0.5067
vn -0.7724 0.5353 -0.3418
vn -0.5692 0.5529 -0.6085
vn -0.4171 0.7462 -0.5188
vn -0.9318 0.2566 0.2566
vn -0.6901 0.2178 0.6901
vn -0.2566 0.2566 0.9318
vn -0.2178 0.6901 0.6901
vn -0.2566 0.9318 0.2566
vn -0.6901 0.6901 0.2178
vn -0.5774 0.5774 0.5774
vn -0.9318 0.2566 -0.2566
vn -0.6901 0.6901 -0.2178
vn -0.2566 0.9318 -0.2566
vn -0.2178 0.6901 -0.6901
vn -0.2566 0.2566 -0.9318
vn -0.6901 0.2178 -0.6901
vn -0.5774 0.5773 -0.5773
vn 0.2566 0.2566 0.9318
vn 0.6901 0.2178 0.6901
vn 0.9318 0.2566 0.2566
vn 0.6901 0.6901 0.2178
vn 0.2566 0.9318 0.2566
vn 0.2178 0.6901 0.6901
vn 0.5773 0.5774 0.5774
vn 0.2566 0.2566 -0.9318
vn 0.2178 0.6901 -0.6901
vn 0.2566 0.9318 -0.2566
vn 0.6901 0.6901 -0.2178
vn 0.9318 0.2566 -0.2566
vn 0.6901 0.2178 -0.6901
vn 0.5773 0.5773 -0.5774
vn 0.5774 0.5774 0.5774
vn -0.5773 0.5773 0.5774
vn 0.5773 0.5774 -0.5774
vn -0.5773 0.5774 -0.5774
vn 0.5773 0.5774 -0.5773
vn 0.5774 0.5773 0.5773
vn -0.5774 0.5773 0.5773
vn 0.5774 0.5774 -0.5774
vn 0.5774 0.5774 0.5773
vn -0.5773 0.5774 0.5773
vn -0.5773 0.5774 -0.5773
vn 0.2586 -0.9660 -0.0000
vn 0.7071 -0.7071 -0.0000
vn 0.9660 -0.2586 -0.0000
vn -0.0000 -0.9660 0.2586
vn -0.0000 -0.7071 0.7071
vn -0.0000 -0.2586 0.9660
vn -0.9469 0.0169 0.3211
vn -0.7066 0.0379 0.7066
vn -0.3216 0.0171 0.9467
vn 0.3212 0.0170 -0.9469
vn 0.7066 0.0379 -0.7066
vn 0.9468 0.0171 -0.3214
vn -0.3217 0.0171 -0.9467
vn -0.7066 0.0379 -0.7066
vn -0.9469 0.0169 -0.3209
vn 0.3212 0.0170 0.9469
vn 0.7066 0.0379 0.7066
vn 0.9468 0.0171 0.3215
vn -0.0075 0.9593 -0.2822
vn -0.0121 0.6503 -0.7596
vn -0.0051 0.1731 -0.9849
vn -0.2820 0.9594 0.0074
vn -0.7591 0.6509 0.0120
vn -0.9848 0.1739 0.0050
vn -0.0000 -0.9660 -0.2586
vn -0.0000 -0.7071 -0.7071
vn -0.0000 -0.2586 -0.9660
vn 0.2825 0.9592 -0.0076
vn 0.7600 0.6498 -0.0122
vn 0.9850 0.1724 -0.0051
vn 0.0075 0.9592 0.2826
vn 0.0122 0.6496 0.7602
vn 0.0051 0.1721 0.9851
vn -0.2586 -0.9660 -0.0000
vn -0.7071 -0.7071 -0.0000
vn -0.9660 -0.2586 -0.0000
vn 0.2588 -0.9659 -0.0000
vn 0.9659 -0.2588 -0.0000
vn -0.2588 0.9659 -0.0000
vn -0.7071 0.7071 -0.0000
vn -0.9659 0.2588 -0.0000
vn 0.2824 0.9593 0.0076
vn 0.7599 0.6499 0.0122
vn 0.9850 0.1725 0.0051
vn 0.2588 0.9659 -0.0000
vn 0.7071 0.7071 -0.0000
vn 0.9659 0.2588 -0.0000
vn -0.2588 -0.9659 -0.0000
vn -0.9659 -0.2588 -0.0000
vn -0.2821 0.9594 -0.0074
vn -0.7593 0.6506 -0.0120
vn -0.9848 0.1736 -0.0050
vn 0.0076 0.9592 -0.2827
vn 0.0122 0.6493 -0.7604
vn 0.0051 0.1717 -0.9851
vn -0.0000 -0.9659 -0.2588
vn -0.0000 -0.2588 -0.9659
vn -0.0000 0.9659 0.2588
vn -0.0000 0.7071 0.7071
vn -0.0000 0.2588 0.9659
vn -0.0000 -0.9659 0.2588
vn -0.0000 -0.2588 0.9659
vn -0.0000 0.9659 -0.2588
vn -0.0000 0.7071 -0.7071
vn -0.0000 0.2588 -0.9659
vn -0.0075 0.9593 0.2822
vn -0.0121 0.6504 0.7595
vn -0.0050 0.1733 0.9849
vn -0.9676 0.2522 -0.0058
vn -0.7558 0.6547 -0.0162
vn -0.3278 0.9447 -0.0137
vn -0.0199 0.1613 0.9867
vn -0.0599 0.4698 0.8807
vn -0.0666 0.8624 0.5018
vn -0.0059 0.2514 -0.9679
vn -0.0165 0.6532 -0.7570
vn -0.0140 0.9443 -0.3288
vn 0.9995 0.0309 -0.0020
vn 1.0000 0.0091 -0.0010
vn 1.0000 0.0027 -0.0003
vn -0.0059 0.2515 0.9678
vn -0.0165 0.6535 0.7568
vn -0.0140 0.9443 0.3287
vn -0.9677 0.2521 0.0058
vn -0.7559 0.6545 0.0163
vn -0.3279 0.9446 0.0138
vn -0.0671 0.8614 -0.5034
vn -0.0603 0.4685 -0.8814
vn -0.0200 0.1608 -0.9868
vn 0.9989 0.0476 0.0031
vn 0.9999 0.0140 0.0016
vn 1.0000 0.0042 0.0005
vn 0.0058 0.2519 -0.9677
vn 0.0162 0.6541 -0.7562
vn 0.0137 0.9445 -0.3281
vn 0.9678 0.2517 -0.0058
vn 0.7566 0.6537 -0.0162
vn 0.3285 0.9444 -0.0138
vn 0.0135 0.1098 0.9939
vn 0.0412 0.3368 0.9407
vn 0.0542 0.7583 0.6496
vn -0.9936 0.1125 -0.0138
vn -0.9380 0.3442 -0.0421
vn -0.6409 0.7657 -0.0548
vn 0.9678 0.2516 0.0059
vn 0.7566 0.6536 0.0164
vn 0.3285 0.9444 0.0139
vn 0.0059 0.2520 0.9677
vn 0.0163 0.6543 0.7561
vn 0.0138 0.9446 0.3280
vn 0.0587 0.7971 -0.6011
vn 0.0473 0.3789 -0.9242
vn 0.0157 0.1256 -0.9920
vn -0.9954 0.0947 0.0118
vn -0.9547 0.2953 0.0359
vn -0.7006 0.7118 0.0500
vn -0.2585 0.9660 -0.0000
vn -0.9660 0.2585 -0.0000
vn -0.0000 0.9660 0.2585
vn -0.0000 0.2585 0.9660
vn -0.0000 0.9660 -0.2585
vn -0.0000 0.2585 -0.9660
vn 0.9660 0.2585 -0.0000
vn 0.2585 0.9660 -0.0000
vn -0.2739 -0.0002 0.9618
vn -0.7071 -0.0005 0.7071
vn -0.9618 -0.0002 0.2739
vn -0.2739 -0.0002 -0.9618
vn -0.7071 -0.0005 -0.7071
vn -0.9618 -0.0002 -0.2739
vn 0.9618 -0.0002 0.2739
vn 0.7071 -0.0005 0.7071
vn 0.2739 -0.0002 0.9618
vn 0.9618 -0.0002 -0.2739
vn 0.7071 -0.0005 -0.7071
vn 0.2739 -0.0002 -0.9618
vt 0.250000 0.625000
vt 0.750000 0.625000
vt 0.750000 0.524621
vt 0.250000 0.524621
vt 0.187500 0.625000
vt 0.187500 0.524621
vt 0.812500 0.625000
vt 0.812500 0.524621
vt 0.562423 0.502456
vt 0.562423 0.487592
vt 0.625000 0.500000
vt 0.562423 0.501362
vt 0.593670 0.502226
vt 0.592348 0.501186
vt 0.593670 0.488732
vt 0.562423 0.493129
vt 0.592348 0.494000
vt 0.625000 0.501268
vt 0.625000 0.498647
vt 0.625000 0.493566
vt 0.625000 0.500002
vt 0.437577 0.487592
vt 0.437577 0.502456
vt 0.362592 0.502456
vt 0.437577 0.493788
vt 0.406330 0.487592
vt 0.407652 0.493525
vt 0.406330 0.502456
vt 0.437577 0.501229
vt 0.407652 0.501281
vt 0.407652 0.496732
vt 0.362592 0.500000
vt 0.375000 0.487592
vt 0.368788 0.502456
vt 0.368526 0.500000
vt 0.375000 0.493525
vt 0.562423 0.762408
vt 0.562423 0.737514
vt 0.625000 0.750000
vt 0.562423 0.756869
vt 0.593670 0.761272
vt 0.592348 0.756002
vt 0.593670 0.738685
vt 0.562423 0.743072
vt 0.592348 0.743972
vt 0.625000 0.756440
vt 0.625000 0.743098
vt 0.625000 0.743560
vt 0.625000 0.749982
vt 0.437577 0.737514
vt 0.437577 0.762408
vt 0.362592 0.737514
vt 0.437577 0.743749
vt 0.406330 0.737514
vt 0.407652 0.743485
vt 0.407652 0.753268
vt 0.406330 0.762408
vt 0.437577 0.756212
vt 0.407652 0.756474
vt 0.368788 0.737514
vt 0.362592 0.750000
vt 0.375000 0.762408
vt 0.368525 0.750000
vt 0.375000 0.756475
vt 0.562423 0.256261
vt 0.562423 0.247544
vt 0.625000 0.250000
vt 0.562423 0.253472
vt 0.593670 0.255677
vt 0.592348 0.253024
vt 0.593670 0.247771
vt 0.562423 0.248640
vt 0.592348 0.248813
vt 0.625000 0.253234
vt 0.625000 0.246547
vt 0.625000 0.248728
vt 0.625000 0.250004
vt 0.131261 0.502456
vt 0.437577 0.247544
vt 0.437577 0.256261
vt 0.125000 0.502456
vt 0.375000 0.247544
vt 0.131261 0.500000
vt 0.375000 0.256261
vt 0.125000 0.501281
vt 0.375000 0.250000
vt 0.375000 0.248719
vt 0.437577 0.248771
vt 0.406330 0.247544
vt 0.407652 0.248719
vt 0.406330 0.256261
vt 0.437577 0.253134
vt 0.407652 0.253267
vt 0.407652 0.249353
vt 0.562423 0.012486
vt 0.562423 0.993739
vt 0.625000 1.000000
vt 0.625000 0.000000
vt 0.562423 0.006918
vt 0.593670 0.011333
vt 0.592348 0.006035
vt 0.593670 0.994322
vt 0.562423 1.000000
vt 0.562423 0.000000
vt 0.592348 1.000000
vt 0.592348 0.000000
vt 0.625000 0.006464
vt 0.625000 -0.006910
vt 0.625000 0.996765
vt 0.625000 -0.000005
vt 0.608519 0.005093
vt 0.131261 0.737514
vt 0.437577 0.993739
vt 0.437577 0.012486
vt 0.131261 0.750000
vt 0.375000 0.993739
vt 0.125000 0.737514
vt 0.375000 0.012486
vt 0.125000 0.743485
vt 0.375000 1.000000
vt 0.375000 0.006515
vt 0.437577 1.000000
vt 0.437577 0.000000
vt 0.406330 0.993739
vt 0.407652 1.000000
vt 0.407652 0.000000
vt 0.406330 0.012486
vt 0.437577 0.006251
vt 0.407652 0.006515
vt 0.437577 0.125000
vt 0.131261 0.625000
vt 0.406289 0.125000
vt 0.125000 0.625000
vt 0.375000 0.125000
vt 0.562423 0.625000
vt 0.625000 0.624937
vt 0.637408 0.625000
vt 0.593711 0.625000
vt 0.628102 0.624985
vt 0.625000 0.125003
vt 0.868739 0.625000
vt 0.562423 0.125000
vt 0.625000 0.125001
vt 0.871870 0.625000
vt 0.593711 0.125000
vt 0.875000 0.625000
vt 0.625000 0.125000
vt 0.362592 0.625000
vt 0.437577 0.625000
vt 0.368796 0.625000
vt 0.406289 0.625000
vt 0.562423 0.225379
vt 0.625000 0.225379
vt 0.868739 0.524621
vt 0.593711 0.225379
vt 0.875000 0.524621
vt 0.625000 0.225379
vt 0.625000 0.225379
vt 0.871870 0.524621
vt 0.437577 0.524621
vt 0.362592 0.524621
vt 0.406289 0.524621
vt 0.368796 0.524621
vt 0.437577 0.225379
vt 0.131261 0.524621
vt 0.406289 0.225379
vt 0.125000 0.524621
vt 0.375000 0.225379
vt 0.562423 0.524621
vt 0.637408 0.524621
vt 0.625000 0.524623
vt 0.593711 0.524621
vt 0.628102 0.524622
vt 0.250000 0.502456
vt 0.437577 0.375000
vt 0.250000 0.500000
vt 0.375000 0.375000
vt 0.406289 0.375000
vt 0.625000 0.875001
vt 0.750000 0.737514
vt 0.562423 0.875000
vt 0.625000 0.875000
vt 0.750000 0.743757
vt 0.593711 0.875000
vt 0.750000 0.750000
vt 0.625000 0.875000
vt 0.437577 0.875000
vt 0.250000 0.737514
vt 0.406289 0.875000
vt 0.250000 0.750000
vt 0.375000 0.875000
vt 0.562423 0.375000
vt 0.750000 0.500000
vt 0.625000 0.375000
vt 0.750000 0.502456
vt 0.593711 0.375000
vt 0.750000 0.500000
vt 0.625000 0.375000
vt 0.625000 0.375000
vt 0.750000 0.501228
vt 0.437577 0.312500
vt 0.187500 0.502456
vt 0.406289 0.312500
vt 0.187500 0.500000
vt 0.375000 0.312500
vt 0.562423 0.937500
vt 0.625000 0.937499
vt 0.812500 0.737514
vt 0.593711 0.937500
vt 0.812500 0.750000
vt 0.625000 0.937500
vt 0.625000 0.937499
vt 0.812500 0.743757
vt 0.437577 0.937500
vt 0.187500 0.737514
vt 0.406289 0.937500
vt 0.187500 0.750000
vt 0.375000 0.937500
vt 0.562423 0.312500
vt 0.812500 0.502456
vt 0.625000 0.312500
vt 0.812500 0.500000
vt 0.625000 0.312500
vt 0.593711 0.312500
vt 0.812500 0.501228
vt 0.625000 0.312500
vt 0.625000 0.649990
vt 0.625000 0.625000
vt 0.649834 0.625000
vt 0.625000 0.641997
vt 0.625000 0.637724
vt 0.625000 0.633614
vt 0.622505 0.625000
vt -0.412971 0.625000
vt 0.625000 0.631697
vt 0.021821 0.625000
vt 0.637645 0.625000
vt 0.625000 0.625000
vt 0.625795 0.625000
vt 0.625000 0.725010
vt 0.625000 0.774834
vt 0.625000 0.750000
vt 0.625000 0.737276
vt 0.625000 0.741116
vt 0.625000 0.745455
vt 0.625000 0.758693
vt 0.625000 0.762645
vt 0.625000 0.754456
vt 0.625000 0.748425
vt 0.625000 0.751489
vt 0.625000 0.749959
vt 0.725166 0.625000
vt 1.301761 0.625001
vt 0.750000 0.127520
vt 0.750000 0.649990
vt 0.733219 0.625000
vt 0.737355 0.625000
vt 0.741501 0.625000
vt 0.750000 0.417960
vt 0.750000 6.087769
vt 0.928078 0.625000
vt 0.750031 2.522461
vt 0.750000 0.637724
vt 0.750000 0.625007
vt 0.750000 0.625803
vt 0.625000 0.850166
vt 0.750000 0.725010
vt 0.625000 0.875000
vt 0.750000 0.750000
vt 0.750000 0.750000
vt 0.625000 0.875000
vt 0.625000 0.858080
vt 0.625000 0.875000
vt 0.750000 0.750000
vt 0.750000 0.750000
vt 0.750000 0.737276
vt 0.750000 0.749201
vt 0.625000 0.868330
vt 0.625000 0.875000
vt 0.750000 0.752465
vt 0.625000 0.871106
vt 0.750000 0.757575
vt 0.625000 0.399922
vt 0.625000 0.375000
vt 0.750000 0.500000
vt 0.750000 0.504923
vt 0.625000 0.391980
vt 0.750000 0.500000
vt 0.625000 0.375000
vt 0.625000 0.375000
vt 0.750000 0.500000
vt 0.750000 0.500000
vt 0.750244 -61.797607
vt 0.625000 0.381692
vt 0.749756 -35.670044
vt 0.750000 0.498508
vt 0.750000 0.502507
vt 0.750000 0.500000
vt 0.750000 0.500158
vt 0.625000 0.475078
vt 0.625000 0.504923
vt 0.625000 0.500000
vt 0.625000 0.487310
vt 0.625000 0.491255
vt 0.625000 0.495519
vt 0.625000 0.501746
vt 0.625000 0.502507
vt 0.625000 0.500894
vt 0.625000 0.498496
vt 0.625000 0.501517
vt 0.625000 0.500308
vt 0.625000 0.500029
vt 0.625000 0.519698
vt 0.649922 0.524621
vt 0.625000 0.524621
vt 0.625000 0.522114
vt 0.625000 0.521267
vt 0.625000 0.522921
vt 0.625000 0.524621
vt 0.637690 0.524621
vt 0.625797 0.524621
vt 0.625000 0.523298
vt 0.625000 0.524621
vt 0.622538 0.524621
vt 0.625000 0.523849
vt 0.725078 0.524621
vt 0.750000 0.519698
vt 5.401245 0.524628
vt 0.749985 1.347317
vt 0.737310 0.524621
vt 0.733237 0.524621
vt 0.741514 0.524621
vt 0.750000 0.524618
vt 0.750000 0.522114
vt 0.750000 0.524462
vt 2.305695 0.524628
vt 3.342163 0.524612
vt 0.749985 0.865232
vt 1.303055 0.524620
vt 0.625000 0.949874
vt 0.625000 0.937500
vt 0.812500 0.750000
vt 0.812500 0.725321
vt 0.625000 0.945930
vt 0.625000 0.943801
vt 0.625000 0.941774
vt 0.812500 0.752443
vt 0.812500 22.943985
vt 0.625000 0.940831
vt 0.812500 13.637299
vt 0.625000 0.939781
vt 0.812500 0.750000
vt 0.625000 0.937500
vt 0.812500 0.750000
vt 0.812500 0.750000
vt 0.625000 0.937500
vt 0.625000 0.987626
vt 0.625000 0.024679
vt 0.625000 1.000000
vt 0.625000 0.000000
vt 0.625000 0.000000
vt 0.625000 1.000000
vt 0.625000 0.995625
vt 0.625000 1.000000
vt 0.625000 0.000000
vt 0.625000 0.008688
vt 0.625000 0.012566
vt 0.625000 0.004450
vt 0.625000 0.999229
vt 0.625000 1.000737
vt 0.625000 0.001515
vt 0.625000 0.999994
vt 0.625000 -0.002656
vt 0.625000 0.100321
vt 0.862626 0.625000
vt 0.625000 0.125000
vt 0.875000 0.625000
vt 0.625000 0.112434
vt 0.625000 0.108187
vt 0.625000 0.116477
vt 0.875000 0.625000
vt 0.875000 0.625000
vt 0.625000 0.125000
vt 0.875000 0.625000
vt 0.625000 0.125000
vt 0.625000 0.118359
vt 0.625000 0.124999
vt 0.876367 0.625000
vt 0.625000 0.121123
vt 0.625000 0.120451
vt 0.824874 0.625000
vt 0.812500 0.649679
vt -3.131897 0.625000
vt 0.812469 -7.247696
vt 0.818801 0.625000
vt 0.816784 0.625000
vt 0.814699 0.625000
vt 0.812500 0.633868
vt 0.812500 0.637566
vt 0.812500 0.629531
vt -0.242767 0.625000
vt 0.068146 0.624985
vt 0.812481 -1.463118
vt 0.706642 0.625000
vt 0.625000 0.230275
vt 0.625000 0.225379
vt 0.875000 0.524621
vt 0.862518 0.524621
vt 0.625000 0.228714
vt 0.625000 0.227872
vt 0.625000 0.227070
vt 0.875000 0.524621
vt 33.417725 0.524658
vt 0.625000 0.226695
vt 19.772186 0.524628
vt 0.625000 0.226281
vt 0.875000 0.524621
vt 0.625000 0.225379
vt 0.875000 0.524621
vt 0.875000 0.524621
vt 0.625000 0.225379
vt 0.625000 0.245104
vt 0.625000 0.262482
vt 0.625000 0.250000
vt 0.625000 0.247507
vt 0.625000 0.248279
vt 0.625000 0.249118
vt 0.625000 0.254418
vt 0.625000 0.256356
vt 0.625000 0.252262
vt 0.625000 0.249702
vt 0.625000 0.250297
vt 0.625000 0.250777
vt 0.625000 0.250004
vt 0.625000 0.300018
vt 0.812500 0.504896
vt 0.625000 0.312500
vt 0.812500 0.500000
vt 0.625000 0.306144
vt 0.625000 0.303996
vt 0.625000 0.308189
vt 0.812500 0.500000
vt 0.812500 0.500000
vt 0.625000 0.312500
vt 0.812500 0.500000
vt 0.625000 0.312500
vt 0.625000 0.309144
vt 0.625000 0.312500
vt 0.812500 0.499318
vt 0.625000 0.310540
vt 0.625000 0.310198
vt 0.824982 0.524621
vt -11.725433 0.524628
vt 0.812256 5.950317
vt 0.812500 0.519725
vt 0.817791 0.524621
vt 0.818856 0.524621
vt 0.815162 0.524621
vt 0.812439 1.980408
vt 0.812500 1.191895
vt -2.588417 0.524578
vt 0.812500 0.620422
vt 0.812500 0.522128
vt 0.812500 0.523271
vt 0.812500 0.523903
vt 0.625000 0.649990
vt 0.649834 0.625000
vt 0.649834 0.649990
vt 0.625000 0.637511
vt 0.625000 0.649990
vt 0.625000 0.638040
vt 0.649834 0.625000
vt 0.637433 0.625000
vt 0.637958 0.625000
vt 0.637433 0.649990
vt 0.649834 0.637511
vt 0.637958 0.638040
vt 0.625000 0.725010
vt 0.649834 0.725010
vt 0.625000 0.774834
vt 0.625000 0.725010
vt 0.625000 0.737489
vt 0.625000 0.736960
vt 0.631541 0.736961
vt 0.649834 0.737489
vt 0.637433 0.725010
vt 0.637958 0.736960
vt 0.625000 0.762433
vt 0.649834 0.750000
vt 0.625000 0.774834
vt 0.625000 0.762958
vt 0.637958 0.750000
vt 0.725166 0.625000
vt 0.750000 0.649990
vt 0.725166 0.649990
vt 0.737567 0.625000
vt 0.725166 0.625000
vt 0.737042 0.625000
vt 0.750000 0.649990
vt 0.750000 0.637511
vt 0.750000 0.638040
vt 0.725166 0.637511
vt 0.737567 0.649990
vt 0.737042 0.638040
vt 0.625000 0.850166
vt 0.725166 0.725010
vt 0.750000 0.725010
vt 0.725166 0.750000
vt 0.625000 0.850166
vt 0.750000 0.750000
vt 0.625000 0.875000
vt 0.625000 0.862042
vt 0.750000 0.750000
vt 0.737042 0.750000
vt 0.737567 0.725010
vt 0.725166 0.737489
vt 0.737042 0.736960
vt 0.750000 0.737488
vt 0.750000 0.725010
vt 0.750000 0.736960
vt 0.743459 0.736960
vt 0.625000 0.399922
vt 0.750000 0.504923
vt 0.725078 0.504923
vt 0.750000 0.500000
vt 0.625000 0.375000
vt 0.725078 0.500000
vt 0.625000 0.399922
vt 0.625000 0.388004
vt 0.750000 0.500000
vt 0.736996 0.500000
vt 0.750000 0.504923
vt 0.750000 0.502465
vt 0.750000 0.502569
vt 0.743436 0.502569
vt 0.725078 0.502465
vt 0.737523 0.504923
vt 0.736996 0.502569
vt 0.625000 0.475078
vt 0.649922 0.504923
vt 0.625000 0.504923
vt 0.649922 0.500000
vt 0.625000 0.475078
vt 0.625000 0.487523
vt 0.625000 0.486996
vt 0.638004 0.500000
vt 0.637477 0.504923
vt 0.649922 0.502465
vt 0.638004 0.502569
vt 0.625000 0.502465
vt 0.625000 0.504923
vt 0.625000 0.502569
vt 0.631564 0.502569
vt 0.625000 0.519698
vt 0.649922 0.519698
vt 0.649922 0.524621
vt 0.625000 0.519698
vt 0.625000 0.522156
vt 0.625000 0.522052
vt 0.649922 0.522156
vt 0.637477 0.519698
vt 0.638004 0.522052
vt 0.637477 0.524621
vt 0.649922 0.524621
vt 0.638004 0.524621
vt 0.725078 0.524621
vt 0.725078 0.519698
vt 0.750000 0.519698
vt 0.725078 0.524621
vt 0.737523 0.524621
vt 0.736996 0.524621
vt 0.737523 0.519698
vt 0.725078 0.522156
vt 0.736996 0.522052
vt 0.750000 0.522156
vt 0.750000 0.519698
vt 0.750000 0.522052
vt 0.625000 0.949874
vt 0.812500 0.725321
vt 0.824874 0.725321
vt 0.625000 0.943695
vt 0.824874 0.750000
vt 0.625000 0.949874
vt 0.625000 0.943957
vt 0.818957 0.750000
vt 0.812500 0.725321
vt 0.812500 0.750000
vt 0.625000 0.937500
vt 0.625000 0.940759
vt 0.812500 0.737123
vt 0.815759 0.737123
vt 0.824874 0.737644
vt 0.818695 0.725321
vt 0.818957 0.737123
vt 0.625000 0.987626
vt 0.862626 0.725321
vt 0.625000 0.024679
vt 0.862626 0.750000
vt 0.625000 0.987626
vt 0.625000 0.000000
vt 0.625000 1.000000
vt 0.625000 0.993543
vt 0.625000 0.000000
vt 0.868543 0.750000
vt 0.868805 0.725321
vt 0.862626 0.737644
vt 0.868543 0.737123
vt 0.625000 0.012356
vt 0.875000 0.725321
vt 0.625000 0.024679
vt 0.625000 0.012877
vt 0.875000 0.737123
vt 0.625000 0.100321
vt 0.862626 0.649679
vt 0.862626 0.625000
vt 0.875000 0.649679
vt 0.625000 0.100321
vt 0.625000 0.112644
vt 0.625000 0.112123
vt 0.875000 0.637877
vt 0.862626 0.637356
vt 0.868805 0.649679
vt 0.868543 0.637877
vt 0.875000 0.625000
vt 0.625000 0.125000
vt 0.862626 0.625000
vt 0.868543 0.625000
vt 0.625000 0.118500
vt 0.868543 0.631500
vt 0.824874 0.625000
vt 0.824874 0.649679
vt 0.812500 0.649679
vt 0.824874 0.625000
vt 0.818695 0.625000
vt 0.818957 0.625000
vt 0.818695 0.649679
vt 0.824874 0.637356
vt 0.818957 0.637877
vt 0.812500 0.637356
vt 0.812500 0.649679
vt 0.812500 0.637877
vt 0.625000 0.230275
vt 0.862518 0.524621
vt 0.862518 0.519725
vt 0.625000 0.227830
vt 0.875000 0.519725
vt 0.625000 0.230275
vt 0.625000 0.227933
vt 0.875000 0.522067
vt 0.862518 0.524621
vt 0.875000 0.524621
vt 0.625000 0.225379
vt 0.625000 0.226668
vt 0.868487 0.524621
vt 0.868487 0.523332
vt 0.868751 0.519725
vt 0.862518 0.522170
vt 0.868487 0.522067
vt 0.625000 0.245104
vt 0.862518 0.504896
vt 0.625000 0.262482
vt 0.875000 0.504896
vt 0.625000 0.245104
vt 0.625000 0.247549
vt 0.625000 0.247445
vt 0.875000 0.502555
vt 0.862518 0.502451
vt 0.868751 0.504896
vt 0.868487 0.502555
vt 0.625000 0.256249
vt 0.862518 0.500000
vt 0.625000 0.262482
vt 0.625000 0.256513
vt 0.868487 0.500000
vt 0.625000 0.300018
vt 0.824982 0.504896
vt 0.812500 0.504896
vt 0.824982 0.500000
vt 0.625000 0.300018
vt 0.625000 0.306251
vt 0.625000 0.305987
vt 0.819013 0.500000
vt 0.818749 0.504896
vt 0.824982 0.502451
vt 0.819013 0.502555
vt 0.812500 0.500000
vt 0.625000 0.312500
vt 0.812500 0.504896
vt 0.812500 0.502555
vt 0.625000 0.309213
vt 0.815787 0.502555
vt 0.824982 0.524621
vt 0.812500 0.519725
vt 0.824982 0.519725
vt 0.818749 0.524621
vt 0.824982 0.524621
vt 0.819013 0.524621
vt 0.812500 0.519725
vt 0.812500 0.522170
vt 0.812500 0.522067
vt 0.824982 0.522170
vt 0.818749 0.519725
vt 0.819013 0.522067
s 0
usemtl Material
f 106/131/1 5/5/1 162/215/1 93/112/1
f 83/97/2 158/207/2 266/341/2 279/359/2
f 59/67/2 122/153/2 314/406/2 327/424/2
f 71/80/3 57/65/3 165/219/3 153/201/3
f 35/39/2 110/136/2 170/228/2 183/242/2
f 11/11/2 150/194/2 218/284/2 231/302/2
f 110/137/1 2/2/1 194/253/1 170/228/1
f 122/154/1 8/8/1 350/453/1 314/407/1
f 113/140/2 83/98/2 279/360/2 291/376/2
f 7/7/1 113/141/1 291/377/1 303/393/1
f 69/78/1 154/202/1 6/6/1 130/165/1
f 46/51/4 33/37/4 142/181/4 145/187/4
f 134/171/2 11/11/2 231/302/2 243/315/2
f 134/170/2 3/3/2 2/2/2 110/137/2
f 153/201/3 165/219/3 149/192/3 138/175/3
f 137/174/1 23/24/1 126/161/1 4/4/1
f 125/160/5 133/169/5 109/135/5 118/149/5
f 6/6/1 4/4/1 1/1/1 5/5/1
f 145/187/4 142/181/4 157/206/4 161/214/4
f 150/195/2 166/220/2 8/8/2 3/3/2
f 141/179/2 35/39/2 183/242/2 207/268/2
f 2/2/2 7/7/2 158/208/2 141/180/2
f 130/165/1 6/6/1 5/5/1 106/131/1
f 166/221/2 59/67/2 327/424/2 339/437/2
f 105/130/6 114/142/6 121/152/6 129/164/6
f 95/114/6 81/95/6 114/142/6 105/130/6
f 150/193/1 3/3/1 255/329/1 218/285/1
f 3/3/2 8/8/2 7/7/2 2/2/2
f 2/2/1 141/180/1 207/269/1 194/254/1
f 5/5/1 1/1/1 146/188/1 162/215/1
f 267/343/5 302/392/5 495/632/5 458/579/5
f 8/8/2 122/154/2 113/141/2 7/7/2
f 1/1/1 117/148/1 47/52/1 146/188/1
f 118/149/5 109/135/5 34/38/5 45/50/5
f 205/266/4 182/241/4 375/480/4 397/505/4
f 158/208/1 7/7/1 303/394/1 266/342/1
f 154/202/1 137/174/1 4/4/1 6/6/1
f 138/175/3 149/192/3 10/10/3 21/22/3
f 219/286/6 254/327/6 447/568/6 410/523/6
f 4/4/1 126/161/1 117/148/1 1/1/1
f 8/8/1 166/220/1 339/438/1 350/454/1
f 161/214/4 157/206/4 82/96/4 94/113/4
f 171/229/3 193/252/3 385/493/3 362/467/3
f 3/3/1 134/170/1 243/315/1 255/328/1
f 129/164/6 121/152/6 58/66/6 70/79/6
f 181/240/5 169/227/5 361/466/5 373/478/5
f 422/540/2 411/524/2 446/567/2 434/555/2
f 494/631/2 482/614/2 470/596/2 459/580/2
f 530/676/2 518/660/2 507/644/2 543/694/2
f 253/326/4 242/314/4 435/556/4 445/566/4
f 315/408/4 349/452/4 541/692/4 506/643/4
f 195/255/6 206/267/6 399/507/6 386/494/6
f 301/391/3 290/375/3 483/615/3 493/630/3
f 277/357/4 265/340/4 457/578/4 469/595/4
f 351/455/5 338/436/5 531/677/5 542/693/5
f 229/300/3 217/283/3 409/522/3 421/539/3
f 325/422/6 313/405/6 505/642/6 517/659/6
f 241/313/5 230/301/5 423/541/5 433/554/5
f 337/435/3 326/423/3 519/661/3 529/675/3
f 289/374/6 278/358/6 471/597/6 481/613/6
f 363/468/2 387/495/2 398/506/2 374/479/2
f 9/9/7 12/12/7 14/14/7 13/13/7
f 12/12/8 16/16/8 17/17/8 14/14/8
f 10/10/9 15/15/9 17/17/9 16/16/9
f 15/15/10 19/19/10 20/21/10 17/17/10
f 11/11/11 18/18/11 20/21/11 19/19/11
f 18/18/12 13/13/12 14/14/12 20/21/12
f 14/14/13 17/17/13 20/21/13
f 21/22/14 24/25/14 26/27/14 25/26/14
f 24/25/15 28/29/15 29/30/15 26/27/15
f 22/23/16 27/28/16 29/30/16 28/29/16
f 27/28/17 31/34/17 32/35/17 29/30/17
f 23/24/18 30/32/18 32/35/18 31/34/18
f 30/33/19 25/26/19 26/27/19 32/36/19
f 26/27/20 29/31/20 32/36/20
f 33/37/21 36/40/21 38/42/21 37/41/21
f 36/40/22 40/44/22 41/45/22 38/42/22
f 34/38/23 39/43/23 41/45/23 40/44/23
f 39/43/24 43/47/24 44/49/24 41/45/24
f 35/39/25 42/46/25 44/49/25 43/47/25
f 42/46/26 37/41/26 38/42/26 44/49/26
f 38/42/27 41/45/27 44/49/27
f 45/50/28 48/53/28 50/55/28 49/54/28
f 48/53/29 52/58/29 53/59/29 50/55/29
f 46/51/30 51/57/30 53/59/30 52/58/30
f 51/57/31 55/62/31 56/64/31 53/59/31
f 47/52/32 54/60/32 56/63/32 55/61/32
f 54/60/33 49/54/33 50/55/33 56/63/33
f 50/56/34 53/59/34 56/64/34
f 57/65/35 60/68/35 62/70/35 61/69/35
f 60/68/36 64/72/36 65/73/36 62/70/36
f 58/66/37 63/71/37 65/73/37 64/72/37
f 63/71/38 67/75/38 68/77/38 65/73/38
f 59/67/39 66/74/39 68/77/39 67/75/39
f 66/74/40 61/69/40 62/70/40 68/77/40
f 62/70/41 65/73/41 68/77/41
f 69/78/42 72/81/42 74/85/42 73/83/42
f 72/82/43 76/89/43 77/90/43 74/87/43
f 70/79/44 75/88/44 77/90/44 76/89/44
f 75/88/45 79/92/45 80/93/45 77/90/45
f 71/80/46 78/91/46 80/93/46 79/92/46
f 78/91/47 73/84/47 74/86/47 80/93/47
f 74/87/48 77/90/48 80/94/48
f 81/95/49 84/99/49 86/101/49 85/100/49
f 84/99/50 88/104/50 89/106/50 86/101/50
f 82/96/51 87/102/51 89/105/51 88/103/51
f 87/102/52 91/108/52 92/110/52 89/105/52
f 83/98/53 90/107/53 92/110/53 91/108/53
f 90/107/54 85/100/54 86/101/54 92/110/54
f 86/101/55 89/106/55 92/111/55
f 93/112/56 96/115/56 98/119/56 97/117/56
f 96/116/57 100/124/57 101/125/57 98/120/57
f 94/113/58 99/122/58 101/125/58 100/124/58
f 99/123/59 103/128/59 104/129/59 101/126/59
f 95/114/60 102/127/60 104/129/60 103/128/60
f 102/127/61 97/118/61 98/121/61 104/129/61
f 98/121/62 101/126/62 104/129/62
f 169/227/63 172/230/63 174/232/63 173/231/63
f 172/230/64 176/234/64 177/236/64 174/232/64
f 170/228/65 175/233/65 177/236/65 176/234/65
f 175/233/66 179/238/66 180/239/66 177/236/66
f 171/229/67 178/237/67 180/239/67 179/238/67
f 178/237/68 173/231/68 174/232/68 180/239/68
f 174/232/69 177/236/69 180/239/69
f 181/240/70 184/243/70 186/245/70 185/244/70
f 184/243/71 188/247/71 189/248/71 186/245/71
f 182/241/72 187/246/72 189/248/72 188/247/72
f 187/246/73 191/250/73 192/251/73 189/248/73
f 183/242/74 190/249/74 192/251/74 191/250/74
f 190/249/75 185/244/75 186/245/75 192/251/75
f 186/245/76 189/248/76 192/251/76
f 193/252/77 196/256/77 198/258/77 197/257/77
f 196/256/78 200/260/78 201/262/78 198/258/78
f 194/254/79 199/259/79 201/262/79 200/260/79
f 199/259/80 203/264/80 204/265/80 201/262/80
f 195/255/81 202/263/81 204/265/81 203/264/81
f 202/263/82 197/257/82 198/258/82 204/265/82
f 198/258/83 201/262/83 204/265/83
f 205/266/84 208/271/84 210/273/84 209/272/84
f 208/270/85 212/276/85 213/277/85 210/274/85
f 206/267/86 211/275/86 213/277/86 212/276/86
f 211/275/87 215/279/87 216/281/87 213/277/87
f 207/268/88 214/278/88 216/281/88 215/279/88
f 214/278/89 209/272/89 210/273/89 216/281/89
f 210/274/90 213/277/90 216/282/90
f 217/283/91 220/287/91 222/290/91 221/289/91
f 220/287/92 224/293/92 225/295/92 222/290/92
f 218/285/93 223/292/93 225/295/93 224/293/93
f 223/292/94 227/298/94 228/299/94 225/295/94
f 219/286/95 226/297/95 228/299/95 227/298/95
f 226/297/96 221/288/96 222/291/96 228/299/96
f 222/291/97 225/296/97 228/299/97
f 229/300/98 232/303/98 234/305/98 233/304/98
f 232/303/99 236/307/99 237/308/99 234/305/99
f 230/301/100 235/306/100 237/308/100 236/307/100
f 235/306/101 239/310/101 240/312/101 237/308/101
f 231/302/102 238/309/102 240/312/102 239/310/102
f 238/309/103 233/304/103 234/305/103 240/312/103
f 234/305/104 237/308/104 240/312/104
f 241/313/105 244/316/105 246/318/105 245/317/105
f 244/316/106 248/320/106 249/321/106 246/318/106
f 242/314/107 247/319/107 249/321/107 248/320/107
f 247/319/108 251/323/108 252/325/108 249/321/108
f 243/315/109 250/322/109 252/325/109 251/323/109
f 250/322/110 245/317/110 246/318/110 252/325/110
f 246/318/111 249/321/111 252/325/111
f 253/326/112 256/330/112 258/332/112 257/331/112
f 256/330/113 260/334/113 261/335/113 258/332/113
f 254/327/114 259/333/114 261/335/114 260/334/114
f 259/333/115 263/337/115 264/339/115 261/335/115
f 255/328/116 262/336/116 264/339/116 263/337/116
f 262/336/117 257/331/117 258/332/117 264/339/117
f 258/332/118 261/335/118 264/339/118
f 265/340/119 268/344/119 270/346/119 269/345/119
f 268/344/120 272/348/120 273/350/120 270/346/120
f 266/342/121 271/347/121 273/350/121 272/348/121
f 271/347/122 275/354/122 276/355/122 273/350/122
f 267/343/123 274/352/123 276/355/123 275/354/123
f 274/353/124 269/345/124 270/346/124 276/356/124
f 270/346/125 273/351/125 276/356/125
f 277/357/126 280/362/126 282/364/126 281/363/126
f 280/361/127 284/367/127 285/368/127 282/365/127
f 278/358/128 283/366/128 285/368/128 284/367/128
f 283/366/129 287/370/129 288/372/129 285/368/129
f 279/359/130 286/369/130 288/372/130 287/370/130
f 286/369/131 281/363/131 282/364/131 288/372/131
f 282/365/132 285/368/132 288/373/132
f 289/374/133 292/378/133 294/380/133 293/379/133
f 292/378/134 296/383/134 297/385/134 294/380/134
f 290/375/135 295/381/135 297/384/135 296/382/135
f 295/381/136 299/387/136 300/389/136 297/384/136
f 291/376/137 298/386/137 300/389/137 299/387/137
f 298/386/138 293/379/138 294/380/138 300/389/138
f 294/380/139 297/385/139 300/390/139
f 301/391/140 304/395/140 306/397/140 305/396/140
f 304/395/141 308/399/141 309/400/141 306/397/141
f 302/392/142 307/398/142 309/400/142 308/399/142
f 307/398/143 311/402/143 312/404/143 309/400/143
f 303/393/144 310/401/144 312/404/144 311/402/144
f 310/401/145 305/396/145 306/397/145 312/404/145
f 306/397/146 309/400/146 312/404/146
f 313/405/147 316/409/147 318/411/147 317/410/147
f 316/409/148 320/413/148 321/415/148 318/411/148
f 314/407/149 319/412/149 321/415/149 320/413/149
f 319/412/150 323/419/150 324/420/150 321/415/150
f 315/408/151 322/417/151 324/420/151 323/419/151
f 322/418/152 317/410/152 318/411/152 324/421/152
f 318/411/153 321/416/153 324/421/153
f 325/422/154 328/425/154 330/427/154 329/426/154
f 328/425/155 332/429/155 333/430/155 330/427/155
f 326/423/156 331/428/156 333/430/156 332/429/156
f 331/428/157 335/432/157 336/434/157 333/430/157
f 327/424/158 334/431/158 336/434/158 335/432/158
f 334/431/159 329/426/159 330/427/159 336/434/159
f 330/427/160 333/430/160 336/434/160
f 337/435/161 340/439/161 342/441/161 341/440/161
f 340/439/162 344/444/162 345/446/162 342/441/162
f 338/436/163 343/442/163 345/445/163 344/443/163
f 343/442/164 347/448/164 348/450/164 345/445/164
f 339/437/165 346/447/165 348/450/165 347/448/165
f 346/447/166 341/440/166 342/441/166 348/450/166
f 342/441/167 345/446/167 348/451/167
f 349/452/168 352/456/168 354/458/168 353/457/168
f 352/456/169 356/460/169 357/462/169 354/458/169
f 350/454/170 355/459/170 357/462/170 356/460/170
f 355/459/171 359/464/171 360/465/171 357/462/171
f 351/455/172 358/463/172 360/465/172 359/464/172
f 358/463/173 353/457/173 354/458/173 360/465/173
f 354/458/174 357/462/174 360/465/174
f 361/466/175 364/469/175 366/471/175 365/470/175
f 364/469/176 368/473/176 369/474/176 366/471/176
f 362/467/177 367/472/177 369/474/177 368/473/177
f 367/472/178 371/476/178 372/477/178 369/474/178
f 363/468/179 370/475/179 372/477/179 371/476/179
f 370/475/180 365/470/180 366/471/180 372/477/180
f 366/471/181 369/474/181 372/477/181
f 373/478/182 376/481/182 378/483/182 377/482/182
f 376/481/183 380/486/183 381/487/183 378/483/183
f 374/479/184 379/485/184 381/487/184 380/486/184
f 379/485/185 383/489/185 384/492/185 381/487/185
f 375/480/186 382/488/186 384/491/186 383/490/186
f 382/488/187 377/482/187 378/483/187 384/491/187
f 378/484/188 381/487/188 384/492/188
f 385/493/189 388/496/189 390/498/189 389/497/189
f 388/496/190 392/500/190 393/501/190 390/498/190
f 386/494/191 391/499/191 393/501/191 392/500/191
f 391/499/192 395/503/192 396/504/192 393/501/192
f 387/495/193 394/502/193 396/504/193 395/503/193
f 394/502/194 389/497/194 390/498/194 396/504/194
f 390/498/195 393/501/195 396/504/195
f 397/505/196 400/509/196 402/512/196 401/511/196
f 400/508/197 404/516/197 405/517/197 402/514/197
f 398/506/198 403/515/198 405/517/198 404/516/198
f 403/515/199 407/519/199 408/520/199 405/517/199
f 399/507/200 406/518/200 408/520/200 407/519/200
f 406/518/201 401/510/201 402/513/201 408/520/201
f 402/514/202 405/517/202 408/521/202
f 409/522/189 412/526/189 414/529/189 413/528/189
f 412/525/190 416/533/190 417/534/190 414/530/190
f 410/523/191 415/532/191 417/534/191 416/533/191
f 415/532/192 419/537/192 420/538/192 417/534/192
f 411/524/193 418/536/193 420/538/193 419/537/193
f 418/536/194 413/527/194 414/531/194 420/538/194
f 414/531/203 417/535/203 420/538/203
f 421/539/177 424/543/177 426/545/177 425/544/177
f 424/542/178 428/548/178 429/549/178 426/546/178
f 422/540/179 427/547/179 429/549/179 428/548/179
f 427/547/180 431/551/180 432/552/180 429/549/180
f 423/541/175 430/550/175 432/552/175 431/551/175
f 430/550/176 425/544/176 426/545/176 432/552/176
f 426/546/204 429/549/204 432/553/204
f 433/554/182 436/557/182 438/559/182 437/558/182
f 436/557/183 440/561/183 441/562/183 438/559/183
f 434/555/184 439/560/184 441/562/184 440/561/184
f 439/560/185 443/564/185 444/565/185 441/562/185
f 435/556/186 442/563/186 444/565/186 443/564/186
f 442/563/187 437/558/187 438/559/187 444/565/187
f 438/559/188 441/562/188 444/565/188
f 445/566/196 448/569/196 450/571/196 449/570/196
f 448/569/197 452/573/197 453/574/197 450/571/197
f 446/567/198 451/572/198 453/574/198 452/573/198
f 451/572/199 455/576/199 456/577/199 453/574/199
f 447/568/200 454/575/200 456/577/200 455/576/200
f 454/575/201 449/570/201 450/571/201 456/577/201
f 450/571/205 453/574/205 456/577/205
f 457/578/186 460/581/186 462/584/186 461/583/186
f 460/581/187 464/588/187 465/589/187 462/584/187
f 458/579/182 463/586/182 465/590/182 464/587/182
f 463/586/183 467/593/183 468/594/183 465/590/183
f 459/580/184 466/592/184 468/594/184 467/593/184
f 466/592/185 461/582/185 462/585/185 468/594/185
f 462/585/206 465/591/206 468/594/206
f 469/595/196 472/599/196 474/602/196 473/601/196
f 472/598/197 476/606/197 477/607/197 474/604/197
f 470/596/198 475/605/198 477/607/198 476/606/198
f 475/605/199 479/609/199 480/612/199 477/607/199
f 471/597/200 478/608/200 480/611/200 479/610/200
f 478/608/201 473/600/201 474/603/201 480/611/201
f 474/604/207 477/607/207 480/612/207
f 481/613/191 484/617/191 486/619/191 485/618/191
f 484/616/192 488/622/192 489/623/192 486/620/192
f 482/614/193 487/621/193 489/623/193 488/622/193
f 487/621/194 491/626/194 492/627/194 489/623/194
f 483/615/189 490/624/189 492/627/189 491/626/189
f 490/625/190 485/618/190 486/619/190 492/628/190
f 486/620/208 489/623/208 492/629/208
f 493/630/177 496/633/177 498/635/177 497/634/177
f 496/633/178 500/637/178 501/638/178 498/635/178
f 494/631/179 499/636/179 501/638/179 500/637/179
f 499/636/180 503/640/180 504/641/180 501/638/180
f 495/632/175 502/639/175 504/641/175 503/640/175
f 502/639/176 497/634/176 498/635/176 504/641/176
f 498/635/209 501/638/209 504/641/209
f 505/642/200 508/645/200 510/648/200 509/647/200
f 508/645/201 512/652/201 513/653/201 510/648/201
f 506/643/196 511/650/196 513/654/196 512/651/196
f 511/650/197 515/657/197 516/658/197 513/654/197
f 507/644/198 514/656/198 516/658/198 515/657/198
f 514/656/199 509/646/199 510/649/199 516/658/199
f 510/649/210 513/655/210 516/658/210
f 517/659/191 520/663/191 522/665/191 521/664/191
f 520/662/192 524/668/192 525/669/192 522/666/192
f 518/660/193 523/667/193 525/669/193 524/668/193
f 523/667/194 527/671/194 528/674/194 525/669/194
f 519/661/189 526/670/189 528/673/189 527/672/189
f 526/670/190 521/664/190 522/665/190 528/673/190
f 522/666/211 525/669/211 528/674/211
f 529/675/177 532/679/177 534/681/177 533/680/177
f 532/678/178 536/684/178 537/685/178 534/682/178
f 530/676/179 535/683/179 537/685/179 536/684/179
f 535/683/180 539/688/180 540/689/180 537/685/180
f 531/677/175 538/686/175 540/689/175 539/688/175
f 538/687/176 533/680/176 534/681/176 540/690/176
f 534/682/212 537/685/212 540/691/212
f 541/692/186 544/695/186 546/697/186 545/696/186
f 544/695/187 548/699/187 549/700/187 546/697/187
f 542/693/182 547/698/182 549/700/182 548/699/182
f 547/698/183 551/702/183 552/703/183 549/700/183
f 543/694/184 550/701/184 552/703/184 551/702/184
f 550/701/185 545/696/185 546/697/185 552/703/185
f 546/697/213 549/700/213 552/703/213
f 106/131/214 93/112/214 97/117/214 108/133/214
f 108/134/215 97/118/215 102/127/215 107/132/215
f 107/132/216 102/127/216 95/114/216 105/130/216
f 154/202/217 69/78/217 73/83/217 156/204/217
f 156/205/218 73/84/218 78/91/218 155/203/218
f 155/203/219 78/91/219 71/80/219 153/201/219
f 9/9/220 22/23/220 28/29/220 12/12/220
f 12/12/221 28/29/221 24/25/221 16/16/221
f 16/16/222 24/25/222 21/22/222 10/10/222
f 94/113/223 82/96/223 88/103/223 99/122/223
f 99/123/224 88/104/224 84/99/224 103/128/224
f 103/128/225 84/99/225 81/95/225 95/114/225
f 33/37/226 46/51/226 52/58/226 36/40/226
f 36/40/227 52/58/227 48/53/227 40/44/227
f 40/44/228 48/53/228 45/50/228 34/38/228
f 57/65/229 71/80/229 79/92/229 60/68/229
f 60/68/230 79/92/230 75/88/230 64/72/230
f 64/72/231 75/88/231 70/79/231 58/66/231
f 158/207/232 83/97/232 91/109/232 160/212/232
f 160/212/233 91/109/233 87/102/233 159/209/233
f 159/209/234 87/102/234 82/96/234 157/206/234
f 110/136/235 35/39/235 43/48/235 112/139/235
f 112/139/236 43/48/236 39/43/236 111/138/236
f 111/138/237 39/43/237 34/38/237 109/135/237
f 146/188/238 47/52/238 55/61/238 148/190/238
f 148/191/239 55/62/239 51/57/239 147/189/239
f 147/189/240 51/57/240 46/51/240 145/187/240
f 122/153/241 59/67/241 67/76/241 124/158/241
f 124/158/242 67/76/242 63/71/242 123/155/242
f 123/155/243 63/71/243 58/66/243 121/152/243
f 150/194/244 11/11/244 19/20/244 152/199/244
f 152/199/245 19/20/245 15/15/245 151/196/245
f 151/196/246 15/15/246 10/10/246 149/192/246
f 126/161/247 23/24/247 31/34/247 128/163/247
f 128/163/248 31/34/248 27/28/248 127/162/248
f 127/162/249 27/28/249 22/23/249 125/160/249
f 130/165/250 106/131/250 108/133/250 132/167/250
f 132/168/215 108/134/215 107/132/215 131/166/215
f 131/166/251 107/132/251 105/130/251 129/164/251
f 134/170/252 110/137/252 112/139/252 136/173/252
f 136/173/253 112/139/253 111/138/253 135/172/253
f 135/172/254 111/138/254 109/135/254 133/169/254
f 83/98/255 113/140/255 115/143/255 90/107/255
f 90/107/256 115/143/256 116/145/256 85/100/256
f 85/100/257 116/145/257 114/142/257 81/95/257
f 47/52/247 117/148/247 119/150/247 54/60/247
f 54/60/248 119/150/248 120/151/248 49/54/248
f 49/54/249 120/151/249 118/149/249 45/50/249
f 113/141/258 122/154/258 124/159/258 115/144/258
f 115/144/259 124/159/259 123/156/259 116/146/259
f 116/147/260 123/157/260 121/152/260 114/142/260
f 117/148/261 126/161/261 128/163/261 119/150/261
f 119/150/248 128/163/248 127/162/248 120/151/248
f 120/151/262 127/162/262 125/160/262 118/149/262
f 69/78/214 130/165/214 132/167/214 72/81/214
f 72/82/215 132/168/215 131/166/215 76/89/215
f 76/89/216 131/166/216 129/164/216 70/79/216
f 11/11/263 134/171/263 136/173/263 18/18/263
f 18/18/264 136/173/264 135/172/264 13/13/264
f 13/13/265 135/172/265 133/169/265 9/9/265
f 23/24/217 137/174/217 139/176/217 30/32/217
f 30/33/218 139/177/218 140/178/218 25/26/218
f 25/26/219 140/178/219 138/175/219 21/22/219
f 35/39/266 141/179/266 143/182/266 42/46/266
f 42/46/267 143/182/267 144/184/267 37/41/267
f 37/41/268 144/184/268 142/181/268 33/37/268
f 162/215/269 146/188/269 148/190/269 164/217/269
f 164/218/239 148/191/239 147/189/239 163/216/239
f 163/216/270 147/189/270 145/187/270 161/214/270
f 166/220/271 150/195/271 152/200/271 168/225/271
f 168/225/272 152/200/272 151/197/272 167/222/272
f 167/223/273 151/198/273 149/192/273 165/219/273
f 137/174/274 154/202/274 156/204/274 139/176/274
f 139/177/218 156/205/218 155/203/218 140/178/218
f 140/178/275 155/203/275 153/201/275 138/175/275
f 141/180/276 158/208/276 160/213/276 143/183/276
f 143/183/277 160/213/277 159/210/277 144/185/277
f 144/186/278 159/211/278 157/206/278 142/181/278
f 93/112/238 162/215/238 164/217/238 96/115/238
f 96/116/239 164/218/239 163/216/239 100/124/239
f 100/124/240 163/216/240 161/214/240 94/113/240
f 59/67/279 166/221/279 168/226/279 66/74/279
f 66/74/280 168/226/280 167/224/280 61/69/280
f 61/69/281 167/224/281 165/219/281 57/65/281
f 169/227/282 181/240/282 185/244/282 172/230/282
f 172/230/283 185/244/283 190/249/283 176/235/283
f 176/235/284 190/249/284 183/242/284 170/228/284
f 193/252/285 171/229/285 179/238/285 196/256/285
f 196/256/286 179/238/286 175/233/286 200/261/286
f 200/261/287 175/233/287 170/228/287 194/253/287
f 182/241/288 205/266/288 209/272/288 187/246/288
f 187/246/289 209/272/289 214/278/289 191/250/289
f 191/250/290 214/278/290 207/268/290 183/242/290
f 194/254/291 207/269/291 215/280/291 199/259/291
f 199/259/292 215/280/292 211/275/292 203/264/292
f 203/264/293 211/275/293 206/267/293 195/255/293
f 217/283/294 229/300/294 233/304/294 220/287/294
f 220/287/295 233/304/295 238/309/295 224/294/295
f 224/294/296 238/309/296 231/302/296 218/284/296
f 230/301/297 241/313/297 245/317/297 235/306/297
f 235/306/298 245/317/298 250/322/298 239/311/298
f 239/311/299 250/322/299 243/315/299 231/302/299
f 255/328/300 243/315/300 251/324/300 262/336/300
f 262/336/301 251/324/301 247/319/301 257/331/301
f 257/331/302 247/319/302 242/314/302 253/326/302
f 218/285/303 255/329/303 263/338/303 223/292/303
f 223/292/304 263/338/304 259/333/304 227/298/304
f 227/298/305 259/333/305 254/327/305 219/286/305
f 265/340/306 277/357/306 281/363/306 268/344/306
f 268/344/307 281/363/307 286/369/307 272/349/307
f 272/349/308 286/369/308 279/359/308 266/341/308
f 278/358/309 289/374/309 293/379/309 283/366/309
f 283/366/310 293/379/310 298/386/310 287/371/310
f 287/371/311 298/386/311 291/376/311 279/360/311
f 290/375/312 301/391/312 305/396/312 295/381/312
f 295/381/313 305/396/313 310/401/313 299/388/313
f 299/388/314 310/401/314 303/393/314 291/377/314
f 302/392/315 267/343/315 275/354/315 307/398/315
f 307/398/316 275/354/316 271/347/316 311/403/316
f 311/403/317 271/347/317 266/342/317 303/394/317
f 313/405/318 325/422/318 329/426/318 316/409/318
f 316/409/319 329/426/319 334/431/319 320/414/319
f 320/414/320 334/431/320 327/424/320 314/406/320
f 326/423/321 337/435/321 341/440/321 331/428/321
f 331/428/322 341/440/322 346/447/322 335/433/322
f 335/433/323 346/447/323 339/437/323 327/424/323
f 314/407/324 350/453/324 356/461/324 319/412/324
f 319/412/325 356/461/325 352/456/325 323/419/325
f 323/419/326 352/456/326 349/452/326 315/408/326
f 338/436/327 351/455/327 359/464/327 343/442/327
f 343/442/328 359/464/328 355/459/328 347/449/328
f 347/449/329 355/459/329 350/454/329 339/438/329
f 363/468/330 374/479/330 380/486/330 370/475/330
f 370/475/253 380/486/253 376/481/253 365/470/253
f 365/470/331 376/481/331 373/478/331 361/466/331
f 387/495/332 363/468/332 371/476/332 394/502/332
f 394/502/272 371/476/272 367/472/272 389/497/272
f 389/497/333 367/472/333 362/467/333 385/493/333
f 374/479/334 398/506/334 404/516/334 379/485/334
f 379/485/277 404/516/277 400/508/277 383/489/277
f 383/490/335 400/509/335 397/505/335 375/480/335
f 386/494/336 399/507/336 407/519/336 391/499/336
f 391/499/259 407/519/259 403/515/259 395/503/259
f 395/503/337 403/515/337 398/506/337 387/495/337
f 411/524/332 422/540/332 428/548/332 418/536/332
f 418/536/272 428/548/272 424/542/272 413/527/272
f 413/528/333 424/543/333 421/539/333 409/522/333
f 422/540/330 434/555/330 440/561/330 427/547/330
f 427/547/253 440/561/253 436/557/253 431/551/253
f 431/551/331 436/557/331 433/554/331 423/541/331
f 445/566/335 435/556/335 443/564/335 448/569/335
f 448/569/277 443/564/277 439/560/277 452/573/277
f 452/573/334 439/560/334 434/555/334 446/567/334
f 410/523/336 447/568/336 455/576/336 415/532/336
f 415/532/259 455/576/259 451/572/259 419/537/259
f 419/537/337 451/572/337 446/567/337 411/524/337
f 459/580/334 470/596/334 476/606/334 466/592/334
f 466/592/277 476/606/277 472/598/277 461/582/277
f 461/583/335 472/599/335 469/595/335 457/578/335
f 470/596/337 482/614/337 488/622/337 475/605/337
f 475/605/259 488/622/259 484/616/259 479/609/259
f 479/610/336 484/617/336 481/613/336 471/597/336
f 482/614/332 494/631/332 500/637/332 487/621/332
f 487/621/272 500/637/272 496/633/272 491/626/272
f 491/626/333 496/633/333 493/630/333 483/615/333
f 494/631/330 459/580/330 467/593/330 499/636/330
f 499/636/253 467/593/253 463/586/253 503/640/253
f 503/640/331 463/586/331 458/579/331 495/632/331
f 507/644/337 518/660/337 524/668/337 514/656/337
f 514/656/259 524/668/259 520/662/259 509/646/259
f 509/647/336 520/663/336 517/659/336 505/642/336
f 518/660/332 530/676/332 536/684/332 523/667/332
f 523/667/272 536/684/272 532/678/272 527/671/272
f 527/672/333 532/679/333 529/675/333 519/661/333
f 506/643/335 541/692/335 545/696/335 511/650/335
f 511/650/277 545/696/277 550/701/277 515/657/277
f 515/657/334 550/701/334 543/694/334 507/644/334
f 530/676/330 543/694/330 551/702/330 535/683/330
f 535/683/253 551/702/253 547/698/253 539/688/253
f 539/688/331 547/698/331 542/693/331 531/677/331
f 171/229/338 362/467/338 368/473/338 178/237/338
f 178/237/339 368/473/339 364/469/339 173/231/339
f 173/231/340 364/469/340 361/466/340 169/227/340
f 375/480/341 182/241/341 188/247/341 382/488/341
f 382/488/342 188/247/342 184/243/342 377/482/342
f 377/482/343 184/243/343 181/240/343 373/478/343
f 219/286/344 410/523/344 416/533/344 226/297/344
f 226/297/345 416/533/345 412/525/345 221/288/345
f 221/289/346 412/526/346 409/522/346 217/283/346
f 423/541/340 230/301/340 236/307/340 430/550/340
f 430/550/339 236/307/339 232/303/339 425/544/339
f 425/544/338 232/303/338 229/300/338 421/539/338
f 195/255/344 386/494/344 392/500/344 202/263/344
f 202/263/345 392/500/345 388/496/345 197/257/345
f 197/257/346 388/496/346 385/493/346 193/252/346
f 267/343/343 458/579/343 464/587/343 274/352/343
f 274/353/342 464/588/342 460/581/342 269/345/342
f 269/345/341 460/581/341 457/578/341 265/340/341
f 471/597/347 278/358/347 284/367/347 478/608/347
f 478/608/348 284/367/348 280/361/348 473/600/348
f 473/601/349 280/362/349 277/357/349 469/595/349
f 435/556/341 242/314/341 248/320/341 442/563/341
f 442/563/342 248/320/342 244/316/342 437/558/342
f 437/558/343 244/316/343 241/313/343 433/554/343
f 315/408/349 506/643/349 512/651/349 322/417/349
f 322/418/348 512/652/348 508/645/348 317/410/348
f 317/410/347 508/645/347 505/642/347 313/405/347
f 519/661/346 326/423/346 332/429/346 526/670/346
f 526/670/345 332/429/345 328/425/345 521/664/345
f 521/664/344 328/425/344 325/422/344 517/659/344
f 399/507/347 206/267/347 212/276/347 406/518/347
f 406/518/348 212/276/348 208/270/348 401/510/348
f 401/511/349 208/271/349 205/266/349 397/505/349
f 483/615/346 290/375/346 296/382/346 490/624/346
f 490/625/345 296/383/345 292/378/345 485/618/345
f 485/618/344 292/378/344 289/374/344 481/613/344
f 447/568/347 254/327/347 260/334/347 454/575/347
f 454/575/348 260/334/348 256/330/348 449/570/348
f 449/570/349 256/330/349 253/326/349 445/566/349
f 531/677/340 338/436/340 344/443/340 538/686/340
f 538/687/339 344/444/339 340/439/339 533/680/339
f 533/680/338 340/439/338 337/435/338 529/675/338
f 495/632/340 302/392/340 308/399/340 502/639/340
f 502/639/339 308/399/339 304/395/339 497/634/339
f 497/634/338 304/395/338 301/391/338 493/630/338
f 351/455/343 542/693/343 548/699/343 358/463/343
f 358/463/342 548/699/342 544/695/342 353/457/342
f 353/457/341 544/695/341 541/692/341 349/452/341
f 22/23/5 9/9/5 133/169/5 125/160/5
