# Blender 3.4.1
# www.blender.org
mtllib table_ov160.mtl
o Куб
v -0.384687 0.620202 0.599214
v -0.399687 0.620202 0.584214
v -0.395293 0.620202 0.594821
v -0.399687 0.670175 0.584214
v -0.384687 0.670175 0.599214
v -0.395293 0.670175 0.594821
v -0.399687 0.620202 -0.586479
v -0.384687 0.620202 -0.601479
v -0.395293 0.620202 -0.597085
v -0.384687 0.670175 -0.601479
v -0.399687 0.670175 -0.586479
v -0.395293 0.670175 -0.597085
v 0.400211 0.620202 0.584214
v 0.385211 0.620202 0.599214
v 0.395817 0.620202 0.594821
v 0.385211 0.670175 0.599214
v 0.400211 0.670175 0.584214
v 0.395817 0.670175 0.594821
v 0.385211 0.620202 -0.601479
v 0.400211 0.620202 -0.586479
v 0.395817 0.620202 -0.597085
v 0.400211 0.670175 -0.586479
v 0.385211 0.670175 -0.601479
v 0.395817 0.670175 -0.597085
v -0.384685 0.000239 0.599214
v -0.399685 0.000239 0.584214
v -0.395291 0.000239 0.594820
v -0.399685 0.620204 0.584214
v -0.384685 0.620204 0.599214
v -0.395291 0.620204 0.594820
v -0.399685 0.000239 0.514214
v -0.384685 0.000239 0.499214
v -0.395291 0.000239 0.503607
v -0.384685 0.620204 0.499214
v -0.399685 0.620204 0.514214
v -0.395291 0.620204 0.503607
v -0.299685 0.000239 0.584214
v -0.314685 0.000239 0.599214
v -0.304078 0.000239 0.594820
v -0.314685 0.620204 0.599214
v -0.299685 0.620204 0.584214
v -0.304078 0.620204 0.594820
v -0.314685 0.000239 0.499214
v -0.299685 0.000239 0.514214
v -0.304078 0.000239 0.503607
v -0.299685 0.620204 0.514214
v -0.314685 0.620204 0.499214
v -0.304078 0.620204 0.503607
v -0.384685 0.000352 -0.501427
v -0.399685 0.000352 -0.516427
v -0.395291 0.000352 -0.505821
v -0.399685 0.620202 -0.516427
v -0.384685 0.620202 -0.501427
v -0.395291 0.620202 -0.505821
v -0.399685 0.000352 -0.586427
v -0.384685 0.000352 -0.601427
v -0.395291 0.000352 -0.597034
v -0.384685 0.620202 -0.601427
v -0.399685 0.620202 -0.586427
v -0.395291 0.620202 -0.597034
v -0.299685 0.000352 -0.516427
v -0.314685 0.000352 -0.501427
v -0.304078 0.000352 -0.505821
v -0.314685 0.620202 -0.501427
v -0.299685 0.620202 -0.516427
v -0.304078 0.620202 -0.505821
v -0.314685 0.000352 -0.601427
v -0.299685 0.000352 -0.586427
v -0.304078 0.000352 -0.597034
v -0.299685 0.620202 -0.586427
v -0.314685 0.620202 -0.601427
v -0.304078 0.620202 -0.597034
v 0.315210 -0.000038 0.599213
v 0.300210 -0.000038 0.584213
v 0.304604 -0.000038 0.594819
v 0.300210 0.620207 0.584213
v 0.315210 0.620207 0.599213
v 0.304604 0.620207 0.594819
v 0.300210 -0.000038 0.514213
v 0.315210 -0.000038 0.499213
v 0.304604 -0.000038 0.503606
v 0.315210 0.620207 0.499213
v 0.300210 0.620207 0.514213
v 0.304604 0.620207 0.503606
v 0.400210 -0.000038 0.584213
v 0.385210 -0.000038 0.599213
v 0.395817 -0.000038 0.594819
v 0.385210 0.620207 0.599213
v 0.400210 0.620207 0.584213
v 0.395817 0.620207 0.594819
v 0.385210 -0.000038 0.499213
v 0.400210 -0.000038 0.514213
v 0.395817 -0.000038 0.503606
v 0.400210 0.620207 0.514213
v 0.385210 0.620207 0.499213
v 0.395817 0.620207 0.503606
v 0.315211 0.000421 -0.501427
v 0.300211 0.000421 -0.516427
v 0.304604 0.000421 -0.505820
v 0.300211 0.620206 -0.516427
v 0.315211 0.620206 -0.501427
v 0.304604 0.620206 -0.505820
v 0.300211 0.000421 -0.586427
v 0.315211 0.000421 -0.601427
v 0.304604 0.000421 -0.597033
v 0.315211 0.620206 -0.601427
v 0.300211 0.620206 -0.586427
v 0.304604 0.620206 -0.597033
v 0.400211 0.000421 -0.516427
v 0.385211 0.000421 -0.501427
v 0.395817 0.000421 -0.505820
v 0.385211 0.620206 -0.501427
v 0.400211 0.620206 -0.516427
v 0.395817 0.620206 -0.505820
v 0.385211 0.000421 -0.601427
v 0.400211 0.000421 -0.586427
v 0.395817 0.000421 -0.597033
v 0.400211 0.620206 -0.586427
v 0.385211 0.620206 -0.601427
v 0.395817 0.620206 -0.597033
v 0.502317 0.669545 -0.333866
v 0.036183 0.669545 -0.800000
v 0.490630 0.669545 -0.437590
v 0.456155 0.669545 -0.536114
v 0.400621 0.669545 -0.624496
v 0.326813 0.669545 -0.698304
v 0.238431 0.669545 -0.753838
v 0.139908 0.669545 -0.788313
v 0.036183 0.739582 -0.800000
v 0.502317 0.739582 -0.333866
v 0.139907 0.739582 -0.788313
v 0.238431 0.739582 -0.753838
v 0.326813 0.739582 -0.698304
v 0.400621 0.739582 -0.624496
v 0.456155 0.739582 -0.536114
v 0.490630 0.739582 -0.437590
v 0.036183 0.669545 0.800000
v 0.502317 0.669545 0.333866
v 0.139907 0.669545 0.788313
v 0.238431 0.669545 0.753838
v 0.326813 0.669545 0.698304
v 0.400621 0.669545 0.624496
v 0.456155 0.669545 0.536114
v 0.490630 0.669545 0.437590
v 0.502317 0.739582 0.333866
v 0.036183 0.739582 0.800000
v 0.490630 0.739582 0.437590
v 0.456155 0.739582 0.536114
v 0.400621 0.739582 0.624496
v 0.326813 0.739582 0.698304
v 0.238431 0.739582 0.753838
v 0.139908 0.739582 0.788313
v -0.036183 0.669545 -0.800000
v -0.502317 0.669545 -0.333866
v -0.139907 0.669545 -0.788313
v -0.238431 0.669545 -0.753838
v -0.326813 0.669545 -0.698304
v -0.400621 0.669545 -0.624496
v -0.456155 0.669545 -0.536114
v -0.490630 0.669545 -0.437590
v -0.502317 0.739582 -0.333866
v -0.036183 0.739582 -0.800000
v -0.490630 0.739582 -0.437590
v -0.456155 0.739582 -0.536114
v -0.400621 0.739582 -0.624496
v -0.326813 0.739582 -0.698304
v -0.238431 0.739582 -0.753838
v -0.139908 0.739582 -0.788313
v -0.502317 0.669545 0.333866
v -0.036183 0.669545 0.800000
v -0.490630 0.669545 0.437590
v -0.456155 0.669545 0.536114
v -0.400621 0.669545 0.624496
v -0.326813 0.669545 0.698304
v -0.238431 0.669545 0.753838
v -0.139908 0.669545 0.788313
v -0.036183 0.739582 0.800000
v -0.502317 0.739582 0.333866
v -0.139907 0.739582 0.788313
v -0.238431 0.739582 0.753838
v -0.326813 0.739582 0.698304
v -0.400621 0.739582 0.624496
v -0.456155 0.739582 0.536114
v -0.490630 0.739582 0.437590
vn -0.0000 -0.0000 1.0000
vn 1.0000 -0.0000 -0.0000
vn -0.0000 -1.0000 -0.0000
vn -0.0000 1.0000 -0.0000
vn -1.0000 -0.0000 -0.0000
vn -0.0000 -0.0000 -1.0000
vn -0.3827 -0.0000 0.9239
vn -0.9239 -0.0000 0.3827
vn -0.3827 -0.0000 -0.9239
vn -0.9239 -0.0000 -0.3827
vn 0.9239 -0.0000 -0.3827
vn 0.3827 -0.0000 -0.9239
vn 0.3827 -0.0000 0.9239
vn 0.9239 -0.0000 0.3827
vn -0.9937 -0.0000 0.1120
vn -0.9439 -0.0000 0.3303
vn -0.8467 -0.0000 0.5320
vn -0.7071 -0.0000 0.7071
vn -0.5320 -0.0000 0.8467
vn -0.3303 -0.0000 0.9439
vn -0.1120 -0.0000 0.9937
vn 0.1120 -0.0000 0.9937
vn 0.3303 -0.0000 0.9439
vn 0.5320 -0.0000 0.8467
vn 0.7071 -0.0000 0.7071
vn 0.8467 -0.0000 0.5320
vn 0.9439 -0.0000 0.3303
vn 0.9937 -0.0000 0.1120
vn 0.1120 -0.0000 -0.9937
vn 0.3303 -0.0000 -0.9439
vn 0.5320 -0.0000 -0.8467
vn 0.7071 -0.0000 -0.7071
vn 0.8467 -0.0000 -0.5320
vn 0.9439 -0.0000 -0.3303
vn 0.9937 -0.0000 -0.1120
vn -0.1120 -0.0000 -0.9937
vn -0.3303 -0.0000 -0.9439
vn -0.5320 -0.0000 -0.8467
vn -0.7071 -0.0000 -0.7071
vn -0.8467 -0.0000 -0.5320
vn -0.9439 -0.0000 -0.3303
vn -0.9937 -0.0000 -0.1120
vt 0.375000 0.995833
vt 0.129167 0.750000
vt 0.375000 0.001875
vt 0.125000 0.748125
vt 0.375000 1.000000
vt 0.375000 0.000000
vt 0.126220 0.749451
vt 0.875000 0.748125
vt 0.625000 0.001875
vt 0.870833 0.750000
vt 0.625000 0.995833
vt 0.873780 0.749451
vt 0.625000 1.000000
vt 0.625000 0.000000
vt 0.375000 0.248125
vt 0.125000 0.501875
vt 0.375000 0.254167
vt 0.129167 0.500000
vt 0.375000 0.250000
vt 0.126220 0.500549
vt 0.870833 0.500000
vt 0.625000 0.254167
vt 0.875000 0.501875
vt 0.625000 0.248125
vt 0.873780 0.500549
vt 0.625000 0.250000
vt 0.375000 0.748125
vt 0.375000 0.754167
vt 0.370833 0.750000
vt 0.375000 0.750000
vt 0.373780 0.749451
vt 0.629167 0.750000
vt 0.625000 0.754167
vt 0.625000 0.748125
vt 0.626220 0.749451
vt 0.625000 0.750000
vt 0.375000 0.495833
vt 0.370833 0.500000
vt 0.375000 0.501875
vt 0.375000 0.500000
vt 0.373780 0.500549
vt 0.625000 0.501875
vt 0.629167 0.500000
vt 0.625000 0.495833
vt 0.626220 0.500549
vt 0.625000 0.500000
vt 0.162500 0.750000
vt 0.375000 0.962500
vt 0.125000 0.712500
vt 0.375000 0.037500
vt 0.135983 0.739016
vt 0.375000 1.000000
vt 0.375000 0.000000
vt 0.875000 0.712500
vt 0.625000 0.037500
vt 0.837500 0.750000
vt 0.625000 0.962500
vt 0.864016 0.739016
vt 0.625000 1.000000
vt 0.625000 0.000000
vt 0.125000 0.537500
vt 0.375000 0.212500
vt 0.162500 0.500000
vt 0.375000 0.287500
vt 0.135983 0.510983
vt 0.375000 0.250000
vt 0.837500 0.500000
vt 0.625000 0.287500
vt 0.875000 0.537500
vt 0.625000 0.212500
vt 0.864016 0.510983
vt 0.625000 0.250000
vt 0.375000 0.712500
vt 0.337500 0.750000
vt 0.375000 0.787500
vt 0.364017 0.739016
vt 0.375000 0.750000
vt 0.662500 0.750000
vt 0.625000 0.787500
vt 0.625000 0.712500
vt 0.635984 0.739016
vt 0.625000 0.750000
vt 0.337500 0.500000
vt 0.375000 0.462500
vt 0.375000 0.537500
vt 0.364016 0.510983
vt 0.375000 0.500000
vt 0.625000 0.537500
vt 0.662500 0.500000
vt 0.625000 0.462500
vt 0.635983 0.510983
vt 0.625000 0.500000
vt 0.162500 0.750000
vt 0.375000 0.962500
vt 0.125000 0.712500
vt 0.375000 0.037500
vt 0.135983 0.739016
vt 0.375000 1.000000
vt 0.375000 0.000000
vt 0.875000 0.712500
vt 0.625000 0.037500
vt 0.837500 0.750000
vt 0.625000 0.962500
vt 0.864016 0.739016
vt 0.625000 1.000000
vt 0.625000 0.000000
vt 0.125000 0.537500
vt 0.375000 0.212500
vt 0.162500 0.500000
vt 0.375000 0.287500
vt 0.135983 0.510983
vt 0.375000 0.250000
vt 0.837500 0.500000
vt 0.625000 0.287500
vt 0.875000 0.537500
vt 0.625000 0.212500
vt 0.864016 0.510983
vt 0.625000 0.250000
vt 0.375000 0.712500
vt 0.337500 0.750000
vt 0.375000 0.787500
vt 0.364017 0.739016
vt 0.375000 0.750000
vt 0.662500 0.750000
vt 0.625000 0.787500
vt 0.625000 0.712500
vt 0.635983 0.739016
vt 0.625000 0.750000
vt 0.337500 0.500000
vt 0.375000 0.462500
vt 0.375000 0.537500
vt 0.364016 0.510983
vt 0.375000 0.500000
vt 0.625000 0.537500
vt 0.662500 0.500000
vt 0.625000 0.462500
vt 0.635983 0.510983
vt 0.625000 0.500000
vt 0.162500 0.750000
vt 0.375000 0.962500
vt 0.125000 0.712500
vt 0.375000 0.037500
vt 0.135983 0.739016
vt 0.375000 1.000000
vt 0.375000 0.000000
vt 0.875000 0.712500
vt 0.625000 0.037500
vt 0.837500 0.750000
vt 0.625000 0.962500
vt 0.864016 0.739016
vt 0.625000 1.000000
vt 0.625000 0.000000
vt 0.125000 0.537500
vt 0.375000 0.212500
vt 0.162500 0.500000
vt 0.375000 0.287500
vt 0.135983 0.510983
vt 0.375000 0.250000
vt 0.837500 0.500000
vt 0.625000 0.287500
vt 0.875000 0.537500
vt 0.625000 0.212500
vt 0.864016 0.510983
vt 0.625000 0.250000
vt 0.375000 0.712500
vt 0.337500 0.750000
vt 0.375000 0.787500
vt 0.364017 0.739016
vt 0.375000 0.750000
vt 0.662500 0.750000
vt 0.625000 0.787500
vt 0.625000 0.712500
vt 0.635984 0.739016
vt 0.625000 0.750000
vt 0.337500 0.500000
vt 0.375000 0.462500
vt 0.375000 0.537500
vt 0.364016 0.510983
vt 0.375000 0.500000
vt 0.625000 0.537500
vt 0.662500 0.500000
vt 0.625000 0.462500
vt 0.635983 0.510983
vt 0.625000 0.500000
vt 0.162500 0.750000
vt 0.375000 0.962500
vt 0.125000 0.712500
vt 0.375000 0.037500
vt 0.135983 0.739016
vt 0.375000 1.000000
vt 0.375000 0.000000
vt 0.875000 0.712500
vt 0.625000 0.037500
vt 0.837500 0.750000
vt 0.625000 0.962500
vt 0.864016 0.739016
vt 0.625000 1.000000
vt 0.625000 0.000000
vt 0.125000 0.537500
vt 0.375000 0.212500
vt 0.162500 0.500000
vt 0.375000 0.287500
vt 0.135983 0.510983
vt 0.375000 0.250000
vt 0.837500 0.500000
vt 0.625000 0.287500
vt 0.875000 0.537500
vt 0.625000 0.212500
vt 0.864016 0.510983
vt 0.625000 0.250000
vt 0.375000 0.712500
vt 0.337500 0.750000
vt 0.375000 0.787500
vt 0.364017 0.739016
vt 0.375000 0.750000
vt 0.662500 0.750000
vt 0.625000 0.787500
vt 0.625000 0.712500
vt 0.635984 0.739016
vt 0.625000 0.750000
vt 0.337500 0.500000
vt 0.375000 0.462500
vt 0.375000 0.537500
vt 0.364016 0.510983
vt 0.375000 0.500000
vt 0.625000 0.537500
vt 0.662500 0.500000
vt 0.625000 0.462500
vt 0.635983 0.510983
vt 0.625000 0.500000
vt 0.625000 0.572834
vt 0.740996 0.500000
vt 0.625000 0.384004
vt 0.627908 0.556626
vt 0.625000 0.556626
vt 0.636487 0.541232
vt 0.625000 0.541232
vt 0.650307 0.527423
vt 0.625000 0.527423
vt 0.668674 0.515890
vt 0.625000 0.456326
vt 0.690667 0.507213
vt 0.625000 0.434333
vt 0.715185 0.501826
vt 0.625000 0.409816
vt 0.259004 0.500000
vt 0.375000 0.384004
vt 0.375000 0.572833
vt 0.284816 0.501826
vt 0.375000 0.409816
vt 0.309333 0.507213
vt 0.375000 0.434333
vt 0.331326 0.515890
vt 0.375000 0.456326
vt 0.349693 0.527423
vt 0.375000 0.527423
vt 0.363513 0.541232
vt 0.375000 0.541232
vt 0.372092 0.556626
vt 0.375000 0.556627
vt 0.740996 0.750000
vt 0.625000 0.865996
vt 0.625000 0.677166
vt 0.715184 0.748174
vt 0.625000 0.840184
vt 0.690667 0.742787
vt 0.625000 0.815667
vt 0.668674 0.734110
vt 0.625000 0.793674
vt 0.650307 0.722577
vt 0.625000 0.722577
vt 0.636487 0.708768
vt 0.625000 0.708768
vt 0.627908 0.693373
vt 0.625000 0.693374
vt 0.375000 0.677167
vt 0.259004 0.750000
vt 0.375000 0.865996
vt 0.372092 0.693373
vt 0.375000 0.693374
vt 0.363513 0.708768
vt 0.375000 0.708768
vt 0.349693 0.722577
vt 0.375000 0.722577
vt 0.331326 0.734110
vt 0.375000 0.793674
vt 0.309333 0.742787
vt 0.375000 0.815667
vt 0.284816 0.748174
vt 0.375000 0.840184
vt 0.759004 0.500000
vt 0.625000 0.365996
vt 0.875000 0.572834
vt 0.625000 0.177167
vt 0.784816 0.501826
vt 0.625000 0.340184
vt 0.809333 0.507213
vt 0.625000 0.315667
vt 0.831326 0.515890
vt 0.625000 0.293674
vt 0.849693 0.527423
vt 0.625000 0.222577
vt 0.863513 0.541232
vt 0.625000 0.208768
vt 0.872092 0.556626
vt 0.625000 0.193373
vt 0.125000 0.572833
vt 0.375000 0.177167
vt 0.240996 0.500000
vt 0.375000 0.365996
vt 0.127908 0.556626
vt 0.375000 0.193374
vt 0.136487 0.541232
vt 0.375000 0.208768
vt 0.150307 0.527423
vt 0.375000 0.222577
vt 0.168674 0.515890
vt 0.375000 0.293674
vt 0.190667 0.507213
vt 0.375000 0.315667
vt 0.215184 0.501826
vt 0.375000 0.340184
vt 0.875000 0.677166
vt 0.625000 0.072833
vt 0.759004 0.750000
vt 0.625000 0.884004
vt 0.872092 0.693373
vt 0.625000 0.056627
vt 0.863513 0.708768
vt 0.625000 0.041232
vt 0.849693 0.722577
vt 0.625000 0.027423
vt 0.831326 0.734110
vt 0.625000 1.000000
vt 0.625000 0.000000
vt 0.809333 0.742787
vt 0.625000 0.934333
vt 0.784816 0.748174
vt 0.625000 0.909816
vt 0.240996 0.750000
vt 0.375000 0.884004
vt 0.125000 0.677167
vt 0.375000 0.072833
vt 0.215184 0.748174
vt 0.375000 0.909816
vt 0.190667 0.742787
vt 0.375000 0.934333
vt 0.168674 0.734110
vt 0.375000 1.000000
vt 0.375000 0.000000
vt 0.150307 0.722577
vt 0.375000 0.027423
vt 0.136487 0.708768
vt 0.375000 0.041232
vt 0.127908 0.693373
vt 0.375000 0.056627
s 0
f 14/28/1 16/33/1 5/11/1 1/1/1
f 20/39/2 22/42/2 17/34/2 13/27/2
f 31/61/3 33/65/3 32/63/3 43/83/3 45/86/3 44/85/3 37/73/3 39/76/3 38/74/3 25/47/3 27/51/3 26/49/3
f 22/42/4 24/45/4 23/43/4 10/21/4 12/25/4 11/23/4 4/8/4 6/12/4 5/10/4 16/32/4 18/35/4 17/34/4
f 2/3/5 4/9/5 11/24/5 7/15/5
f 8/17/6 10/22/6 23/44/6 19/37/6
f 38/75/1 40/79/1 29/57/1 25/48/1
f 44/85/2 46/88/2 41/80/2 37/73/2
f 55/107/3 57/111/3 56/109/3 67/129/3 69/132/3 68/131/3 61/119/3 63/122/3 62/120/3 49/93/3 51/97/3 50/95/3
f 46/88/4 48/91/4 47/89/4 34/67/4 36/71/4 35/69/4 28/54/4 30/58/4 29/56/4 40/78/4 42/81/4 41/80/4
f 26/50/5 28/55/5 35/70/5 31/62/5
f 32/64/6 34/68/6 47/90/6 43/84/6
f 62/121/1 64/125/1 53/103/1 49/94/1
f 68/131/2 70/134/2 65/126/2 61/119/2
f 79/153/3 81/157/3 80/155/3 91/175/3 93/178/3 92/177/3 85/165/3 87/168/3 86/166/3 73/139/3 75/143/3 74/141/3
f 70/134/4 72/137/4 71/135/4 58/113/4 60/117/4 59/115/4 52/100/4 54/104/4 53/102/4 64/124/4 66/127/4 65/126/4
f 50/96/5 52/101/5 59/116/5 55/108/5
f 56/110/6 58/114/6 71/136/6 67/130/6
f 86/167/1 88/171/1 77/149/1 73/140/1
f 92/177/2 94/180/2 89/172/2 85/165/2
f 103/199/3 105/203/3 104/201/3 115/221/3 117/224/3 116/223/3 109/211/3 111/214/3 110/212/3 97/185/3 99/189/3 98/187/3
f 94/180/4 96/183/4 95/181/4 82/159/4 84/163/4 83/161/4 76/146/4 78/150/4 77/148/4 88/170/4 90/173/4 89/172/4
f 74/142/5 76/147/5 83/162/5 79/154/5
f 80/156/6 82/160/6 95/182/6 91/176/6
f 110/213/1 112/217/1 101/195/1 97/186/1
f 116/223/2 118/226/2 113/218/2 109/211/2
f 118/226/4 120/229/4 119/227/4 106/205/4 108/209/4 107/207/4 100/192/4 102/196/4 101/194/4 112/216/4 114/219/4 113/218/4
f 98/188/5 100/193/5 107/208/5 103/200/5
f 104/202/6 106/206/6 119/228/6 115/222/6
f 1/1/7 5/11/7 6/13/7 3/5/7
f 3/6/8 6/14/8 4/9/8 2/3/8
f 10/22/9 8/17/9 9/19/9 12/26/9
f 12/26/10 9/19/10 7/15/10 11/24/10
f 22/42/11 20/39/11 21/40/11 24/46/11
f 24/46/12 21/40/12 19/37/12 23/44/12
f 16/33/13 14/28/13 15/30/13 18/36/13
f 18/36/14 15/30/14 13/27/14 17/34/14
f 25/48/7 29/57/7 30/59/7 27/52/7
f 27/53/8 30/60/8 28/55/8 26/50/8
f 34/68/9 32/64/9 33/66/9 36/72/9
f 36/72/10 33/66/10 31/62/10 35/70/10
f 46/88/11 44/85/11 45/87/11 48/92/11
f 48/92/12 45/87/12 43/84/12 47/90/12
f 40/79/13 38/75/13 39/77/13 42/82/13
f 42/82/14 39/77/14 37/73/14 41/80/14
f 49/94/7 53/103/7 54/105/7 51/98/7
f 51/99/8 54/106/8 52/101/8 50/96/8
f 58/114/9 56/110/9 57/112/9 60/118/9
f 60/118/10 57/112/10 55/108/10 59/116/10
f 70/134/11 68/131/11 69/133/11 72/138/11
f 72/138/12 69/133/12 67/130/12 71/136/12
f 64/125/13 62/121/13 63/123/13 66/128/13
f 66/128/14 63/123/14 61/119/14 65/126/14
f 73/140/7 77/149/7 78/151/7 75/144/7
f 75/145/8 78/152/8 76/147/8 74/142/8
f 82/160/9 80/156/9 81/158/9 84/164/9
f 84/164/10 81/158/10 79/154/10 83/162/10
f 94/180/11 92/177/11 93/179/11 96/184/11
f 96/184/12 93/179/12 91/176/12 95/182/12
f 88/171/13 86/167/13 87/169/13 90/174/13
f 90/174/14 87/169/14 85/165/14 89/172/14
f 97/186/7 101/195/7 102/197/7 99/190/7
f 99/191/8 102/198/8 100/193/8 98/188/8
f 106/206/9 104/202/9 105/204/9 108/210/9
f 108/210/10 105/204/10 103/200/10 107/208/10
f 118/226/11 116/223/11 117/225/11 120/230/11
f 120/230/12 117/225/12 115/222/12 119/228/12
f 112/217/13 110/213/13 111/215/13 114/220/13
f 114/220/14 111/215/14 109/211/14 113/218/14
f 7/16/3 9/20/3 8/18/3 19/38/3 21/41/3 20/39/3 13/27/3 15/31/3 14/29/3 1/2/3 3/7/3 2/4/3
f 121/231/4 123/234/4 124/236/4 125/238/4 126/240/4 127/242/4 128/244/4 122/232/4 153/291/4 155/295/4 156/297/4 157/299/4 158/301/4 159/303/4 160/305/4 154/293/4 169/323/4 171/327/4 172/329/4 173/331/4 174/333/4 175/336/4 176/338/4 170/325/4 137/261/4 139/264/4 140/266/4 141/268/4 142/270/4 143/272/4 144/274/4 138/263/4
f 162/310/1 153/292/1 122/233/1 129/247/1
f 178/343/2 169/324/2 154/294/2 161/308/2
f 146/278/6 137/262/6 170/326/6 177/341/6
f 161/307/3 163/311/3 164/313/3 165/315/3 166/317/3 167/319/3 168/321/3 162/309/3 129/246/3 131/249/3 132/251/3 133/253/3 134/255/3 135/257/3 136/259/3 130/248/3 145/276/3 147/279/3 148/281/3 149/283/3 150/285/3 151/287/3 152/289/3 146/277/3 177/340/3 179/344/3 180/346/3 181/348/3 182/351/3 183/353/3 184/355/3 178/342/3
f 121/231/15 130/248/15 136/260/15 123/235/15
f 123/235/16 136/260/16 135/258/16 124/237/16
f 124/237/17 135/258/17 134/256/17 125/239/17
f 125/239/18 134/256/18 133/254/18 126/241/18
f 126/241/19 133/254/19 132/252/19 127/243/19
f 127/243/20 132/252/20 131/250/20 128/245/20
f 128/245/21 131/250/21 129/247/21 122/233/21
f 153/292/22 162/310/22 168/322/22 155/296/22
f 155/296/23 168/322/23 167/320/23 156/298/23
f 156/298/24 167/320/24 166/318/24 157/300/24
f 157/300/25 166/318/25 165/316/25 158/302/25
f 158/302/26 165/316/26 164/314/26 159/304/26
f 159/304/27 164/314/27 163/312/27 160/306/27
f 160/306/28 163/312/28 161/308/28 154/294/28
f 177/341/29 170/326/29 176/339/29 179/345/29
f 179/345/30 176/339/30 175/337/30 180/347/30
f 180/347/31 175/337/31 174/334/31 181/349/31
f 181/350/32 174/335/32 173/332/32 182/352/32
f 182/352/33 173/332/33 172/330/33 183/354/33
f 183/354/34 172/330/34 171/328/34 184/356/34
f 184/356/35 171/328/35 169/324/35 178/343/35
f 137/262/36 146/278/36 152/290/36 139/265/36
f 139/265/37 152/290/37 151/288/37 140/267/37
f 140/267/38 151/288/38 150/286/38 141/269/38
f 141/269/39 150/286/39 149/284/39 142/271/39
f 142/271/40 149/284/40 148/282/40 143/273/40
f 143/273/41 148/282/41 147/280/41 144/275/41
f 144/275/42 147/280/42 145/276/42 138/263/42
f 130/248/5 121/231/5 138/263/5 145/276/5
