# Blender 3.4.1
# www.blender.org
mtllib table_rectangle_120x80.mtl
o Cube
v 0.406487 0.820394 0.199377
v 0.406487 0.740493 0.199377
v 0.406487 0.740493 -0.201942
v 0.406487 0.820394 -0.201942
v -0.394747 0.820394 0.199377
v -0.394747 0.820394 -0.201942
v -0.394747 0.740493 0.199377
v -0.394747 0.740493 -0.201942
v 0.607964 0.760493 -0.382468
v 0.587964 0.760493 -0.402468
v 0.593773 0.740493 -0.388375
v 0.604230 0.760493 -0.391374
v 0.607131 0.750506 -0.384337
v 0.603462 0.750929 -0.392810
v 0.589803 0.750506 -0.401665
v 0.596889 0.760493 -0.398715
v 0.598294 0.750929 -0.397978
v 0.601922 0.743165 -0.386505
v 0.591935 0.743165 -0.396492
v 0.599795 0.745760 -0.394336
v 0.587964 0.800394 -0.402468
v 0.607964 0.800394 -0.382468
v 0.587964 0.820394 -0.382468
v 0.597951 0.800394 -0.399796
v 0.587964 0.810381 -0.399796
v 0.597529 0.809958 -0.397200
v 0.605292 0.810381 -0.382468
v 0.605292 0.800394 -0.392454
v 0.602697 0.809958 -0.392032
v 0.587964 0.817722 -0.392454
v 0.597951 0.817722 -0.382468
v 0.597529 0.815127 -0.392032
v 0.587964 0.760493 0.399597
v 0.607964 0.760493 0.379597
v 0.593752 0.740493 0.385525
v 0.596893 0.760493 0.395841
v 0.589796 0.750506 0.398801
v 0.598291 0.750929 0.395110
v 0.607124 0.750506 0.381473
v 0.604234 0.760493 0.388499
v 0.603459 0.750929 0.389942
v 0.591920 0.743165 0.393636
v 0.601907 0.743165 0.383649
v 0.599786 0.745760 0.391474
v 0.607964 0.800394 0.379597
v 0.587964 0.800394 0.399597
v 0.587964 0.820394 0.379597
v 0.605292 0.800394 0.389583
v 0.605292 0.810381 0.379597
v 0.602697 0.809958 0.389161
v 0.587964 0.810381 0.396925
v 0.597951 0.800394 0.396925
v 0.597529 0.809958 0.394329
v 0.597951 0.817722 0.379597
v 0.587964 0.817722 0.389583
v 0.597529 0.815127 0.389161
v -0.574404 0.760493 -0.402468
v -0.594404 0.760493 -0.382468
v -0.580293 0.740493 -0.388295
v -0.583314 0.760493 -0.398730
v -0.576268 0.750506 -0.401640
v -0.584744 0.750929 -0.397968
v -0.593596 0.750506 -0.384312
v -0.590656 0.760493 -0.391389
v -0.589912 0.750929 -0.392799
v -0.578429 0.743165 -0.396438
v -0.588416 0.743165 -0.386451
v -0.586266 0.745760 -0.394305
v -0.574404 0.820394 -0.382468
v -0.594404 0.800394 -0.382468
v -0.574404 0.800394 -0.402468
v -0.584391 0.817722 -0.382468
v -0.574404 0.817722 -0.392454
v -0.583969 0.815127 -0.392032
v -0.591732 0.800394 -0.392454
v -0.591732 0.810381 -0.382468
v -0.589137 0.809958 -0.392032
v -0.574404 0.810381 -0.399796
v -0.584391 0.800394 -0.399796
v -0.583969 0.809958 -0.397200
v -0.594404 0.760493 0.379597
v -0.574404 0.760493 0.399597
v -0.580282 0.740493 0.385435
v -0.590658 0.760493 0.388516
v -0.593593 0.750506 0.381444
v -0.589911 0.750929 0.389930
v -0.576265 0.750506 0.398772
v -0.583316 0.760493 0.395857
v -0.584743 0.750929 0.395098
v -0.588409 0.743165 0.383587
v -0.578422 0.743165 0.393574
v -0.586262 0.745760 0.391438
v -0.574404 0.820394 0.379597
v -0.574404 0.800394 0.399597
v -0.594404 0.800394 0.379597
v -0.574404 0.817722 0.389583
v -0.584391 0.817722 0.379597
v -0.583969 0.815127 0.389161
v -0.584391 0.800394 0.396925
v -0.574404 0.810381 0.396925
v -0.583969 0.809958 0.394329
v -0.591732 0.810381 0.379597
v -0.591732 0.800394 0.389583
v -0.589137 0.809958 0.389161
v -0.594404 0.800394 0.199377
v -0.574404 0.820394 0.199377
v -0.591725 0.810394 0.199377
v -0.584404 0.817715 0.199377
v 0.607964 0.760493 0.199377
v 0.587964 0.740493 0.199377
v 0.605285 0.750493 0.199377
v 0.597964 0.743172 0.199377
v -0.574404 0.740493 0.199377
v -0.594404 0.760493 0.199377
v -0.584404 0.743172 0.199377
v -0.591725 0.750493 0.199377
v 0.587964 0.820394 0.199377
v 0.607964 0.800394 0.199377
v 0.597964 0.817715 0.199377
v 0.605285 0.810394 0.199377
v -0.594404 0.760493 -0.201942
v -0.574404 0.740493 -0.201942
v -0.591725 0.750493 -0.201942
v -0.584404 0.743172 -0.201942
v 0.607964 0.800394 -0.201942
v 0.587964 0.820394 -0.201942
v 0.605285 0.810394 -0.201942
v 0.597964 0.817715 -0.201942
v -0.594404 0.800394 -0.201942
v -0.574404 0.820394 -0.201942
v -0.591725 0.810394 -0.201942
v -0.584404 0.817715 -0.201942
v 0.607964 0.760493 -0.201942
v 0.587964 0.740493 -0.201942
v 0.605285 0.750493 -0.201942
v 0.597964 0.743172 -0.201942
v 0.406487 0.820394 -0.382468
v 0.406487 0.800394 -0.402468
v 0.406487 0.817715 -0.392468
v 0.406487 0.810394 -0.399788
v 0.406487 0.740493 0.379597
v 0.406487 0.760493 0.399597
v 0.406487 0.743172 0.389597
v 0.406487 0.750493 0.396917
v 0.406487 0.800394 0.399597
v 0.406487 0.820394 0.379597
v 0.406487 0.810394 0.396917
v 0.406487 0.817715 0.389597
v 0.406487 0.760493 -0.402468
v 0.406487 0.740493 -0.382468
v 0.406487 0.750493 -0.399788
v 0.406487 0.743172 -0.392468
v -0.394747 0.800394 -0.402468
v -0.394747 0.820394 -0.382468
v -0.394747 0.810394 -0.399788
v -0.394747 0.817715 -0.392468
v -0.394747 0.760493 0.399597
v -0.394747 0.740493 0.379597
v -0.394747 0.750493 0.396917
v -0.394747 0.743172 0.389597
v -0.394747 0.800394 0.399597
v -0.394747 0.820394 0.379597
v -0.394747 0.810394 0.396917
v -0.394747 0.817715 0.389597
v -0.394747 0.760493 -0.402468
v -0.394747 0.740493 -0.382468
v -0.394747 0.750493 -0.399788
v -0.394747 0.743172 -0.392468
v 0.507162 0.720493 0.219757
v 0.527162 0.740493 0.199682
v 0.487162 0.720493 0.199757
v 0.510115 0.730287 0.213360
v 0.504194 0.720493 0.209941
v 0.507648 0.729981 0.206652
v 0.521803 0.737813 0.199717
v 0.517368 0.737540 0.206079
v 0.513225 0.735475 0.203418
v 0.496979 0.720493 0.202725
v 0.507162 0.730493 0.199746
v 0.506522 0.730156 0.202339
v 0.507162 0.720493 0.279797
v 0.487162 0.720493 0.299797
v 0.521375 0.740493 0.313868
v 0.504194 0.720493 0.289614
v 0.509297 0.730363 0.292687
v 0.506573 0.730046 0.296160
v 0.500161 0.730365 0.301911
v 0.496978 0.720493 0.296829
v 0.503573 0.730048 0.299186
v 0.514513 0.737632 0.305111
v 0.512637 0.737635 0.307077
v 0.509340 0.735426 0.301902
v 0.426494 0.720493 0.199757
v 0.406142 0.740493 0.179760
v 0.406493 0.720493 0.219757
v 0.420008 0.730286 0.196805
v 0.416677 0.720493 0.202725
v 0.413338 0.729981 0.199272
v 0.406307 0.737813 0.185123
v 0.412627 0.737540 0.189552
v 0.410055 0.735475 0.193697
v 0.409461 0.720493 0.209941
v 0.406439 0.730493 0.199763
v 0.409039 0.730156 0.200399
v 0.426494 0.720493 0.299797
v 0.406493 0.720493 0.279797
v 0.406492 0.740493 0.319797
v 0.416677 0.720493 0.296829
v 0.420120 0.730287 0.302750
v 0.413401 0.729982 0.300283
v 0.406493 0.730493 0.299797
v 0.409461 0.720493 0.289613
v 0.409085 0.730156 0.299157
v 0.412866 0.737540 0.310003
v 0.406493 0.737813 0.314438
v 0.410181 0.735475 0.305860
v 0.426488 0.720493 -0.302006
v 0.406488 0.740493 -0.322006
v 0.406488 0.720493 -0.282006
v 0.420115 0.730287 -0.304959
v 0.416672 0.720493 -0.299038
v 0.413396 0.729982 -0.302492
v 0.406488 0.737813 -0.316647
v 0.412861 0.737540 -0.312212
v 0.410176 0.735475 -0.308069
v 0.409456 0.720493 -0.291822
v 0.406488 0.730493 -0.302006
v 0.409080 0.730156 -0.301366
v 0.486801 0.720493 -0.302006
v 0.506801 0.720493 -0.282006
v 0.520992 0.740493 -0.316099
v 0.496617 0.720493 -0.299038
v 0.499783 0.730365 -0.304123
v 0.503205 0.730048 -0.301398
v 0.508932 0.730364 -0.294912
v 0.503833 0.720493 -0.291822
v 0.506209 0.730046 -0.298376
v 0.512252 0.737634 -0.309297
v 0.514141 0.737633 -0.307344
v 0.508968 0.735426 -0.304122
v 0.506801 0.720493 -0.221988
v 0.486801 0.720493 -0.201988
v 0.526801 0.740493 -0.201979
v 0.503833 0.720493 -0.212171
v 0.509754 0.730287 -0.215612
v 0.507287 0.729982 -0.208894
v 0.506801 0.730493 -0.201986
v 0.496617 0.720493 -0.204955
v 0.506161 0.730156 -0.204579
v 0.517007 0.737540 -0.208355
v 0.521442 0.737813 -0.201983
v 0.512864 0.735475 -0.205673
v 0.426488 0.720493 -0.201988
v 0.406488 0.720493 -0.221988
v 0.405945 0.740493 -0.181995
v 0.416672 0.720493 -0.204955
v 0.419941 0.730286 -0.199037
v 0.413298 0.729981 -0.201504
v 0.406404 0.730493 -0.202002
v 0.409456 0.720493 -0.212171
v 0.409008 0.730156 -0.202633
v 0.412489 0.737541 -0.191785
v 0.406200 0.737813 -0.187363
v 0.409980 0.735475 -0.195931
v -0.414765 0.720493 0.300696
v -0.394761 0.740493 0.320696
v -0.394765 0.720493 0.280696
v -0.408390 0.730287 0.303649
v -0.404949 0.720493 0.297728
v -0.401672 0.729982 0.301182
v -0.394763 0.737813 0.315337
v -0.401136 0.737540 0.310902
v -0.398452 0.735475 0.306759
v -0.397733 0.720493 0.290512
v -0.394764 0.730493 0.300696
v -0.397357 0.730156 0.300056
v -0.475782 0.720493 0.300696
v -0.495782 0.720493 0.280696
v -0.509904 0.740493 0.314858
v -0.485598 0.720493 0.297728
v -0.488710 0.730364 0.302823
v -0.492162 0.730047 0.300099
v -0.497903 0.730365 0.293655
v -0.492814 0.720493 0.290512
v -0.495178 0.730047 0.297090
v -0.501153 0.737633 0.308021
v -0.503087 0.737634 0.306113
v -0.497913 0.735426 0.302848
v -0.495782 0.720493 0.219394
v -0.475782 0.720493 0.199394
v -0.515782 0.740493 0.199391
v -0.492814 0.720493 0.209578
v -0.498734 0.730287 0.213020
v -0.496268 0.729982 0.206302
v -0.495782 0.730493 0.199394
v -0.485598 0.720493 0.202362
v -0.495142 0.730156 0.201986
v -0.505987 0.737540 0.205766
v -0.510423 0.737813 0.199393
v -0.501844 0.735475 0.203081
v -0.414765 0.720493 0.199394
v -0.394765 0.720493 0.219394
v -0.380454 0.740493 0.185423
v -0.404949 0.720493 0.202362
v -0.401689 0.730367 0.197294
v -0.398319 0.730049 0.200021
v -0.392616 0.730362 0.206581
v -0.397733 0.720493 0.209578
v -0.395339 0.730045 0.203066
v -0.389177 0.737636 0.192164
v -0.387365 0.737631 0.194194
v -0.392535 0.735426 0.197341
v -0.494894 0.720493 -0.221948
v -0.514894 0.740493 -0.201947
v -0.474894 0.720493 -0.201948
v -0.497846 0.730287 -0.215574
v -0.491926 0.720493 -0.212131
v -0.495380 0.729982 -0.208856
v -0.509535 0.737813 -0.201947
v -0.505100 0.737540 -0.208321
v -0.500957 0.735475 -0.205635
v -0.484710 0.720493 -0.204915
v -0.494894 0.730493 -0.201948
v -0.494254 0.730156 -0.204540
v -0.494894 0.720493 -0.282525
v -0.474894 0.720493 -0.302525
v -0.509005 0.740493 -0.316698
v -0.491926 0.720493 -0.292342
v -0.497014 0.730365 -0.295493
v -0.494289 0.730047 -0.298923
v -0.487814 0.730364 -0.304654
v -0.484710 0.720493 -0.299558
v -0.491270 0.730047 -0.301930
v -0.502194 0.737634 -0.307955
v -0.500253 0.737633 -0.309856
v -0.497020 0.735426 -0.304683
v -0.414752 0.720493 -0.302525
v -0.394752 0.720493 -0.282525
v -0.394751 0.740493 -0.322526
v -0.404936 0.720493 -0.299558
v -0.408378 0.730287 -0.305478
v -0.401660 0.729982 -0.303012
v -0.394752 0.730493 -0.302525
v -0.397720 0.720493 -0.292342
v -0.397344 0.730156 -0.301886
v -0.401125 0.737540 -0.312731
v -0.394751 0.737813 -0.317167
v -0.398440 0.735475 -0.308588
v -0.414752 0.720493 -0.201948
v -0.382664 0.740493 -0.186014
v -0.394752 0.720493 -0.221948
v -0.403230 0.730337 -0.199569
v -0.404936 0.720493 -0.204915
v -0.399017 0.730024 -0.202257
v -0.388466 0.737670 -0.194344
v -0.391541 0.737604 -0.193741
v -0.393616 0.735430 -0.198822
v -0.397720 0.720493 -0.212131
v -0.392924 0.730395 -0.207462
v -0.395666 0.730073 -0.204880
v 0.507162 0.020421 0.219757
v 0.487162 0.020421 0.199757
v 0.487162 0.000421 0.219757
v 0.504490 0.020421 0.209770
v 0.504490 0.010434 0.219757
v 0.501895 0.010857 0.210193
v 0.487162 0.010434 0.202429
v 0.497149 0.020421 0.202429
v 0.496726 0.010857 0.205025
v 0.497149 0.003093 0.219757
v 0.487162 0.003093 0.209770
v 0.496726 0.005688 0.210193
v 0.507162 0.020421 0.279797
v 0.487162 0.000421 0.279797
v 0.487162 0.020421 0.299797
v 0.504490 0.010434 0.279797
v 0.504490 0.020421 0.289784
v 0.501895 0.010857 0.289361
v 0.487162 0.003093 0.289784
v 0.497149 0.003093 0.279797
v 0.496726 0.005688 0.289361
v 0.497149 0.020421 0.297125
v 0.487162 0.010434 0.297125
v 0.496726 0.010857 0.294530
v 0.426494 0.020421 0.199757
v 0.406493 0.020421 0.219757
v 0.426494 0.000421 0.219757
v 0.416507 0.020421 0.202429
v 0.426494 0.010434 0.202429
v 0.416929 0.010857 0.205025
v 0.409165 0.010434 0.219757
v 0.409165 0.020421 0.209770
v 0.411761 0.010857 0.210193
v 0.426494 0.003093 0.209770
v 0.416507 0.003093 0.219757
v 0.416929 0.005688 0.210193
v 0.426494 0.020421 0.299797
v 0.426494 0.000421 0.279797
v 0.406493 0.020421 0.279797
v 0.426494 0.010434 0.297125
v 0.416507 0.020421 0.297125
v 0.416929 0.010857 0.294530
v 0.416507 0.003093 0.279797
v 0.426494 0.003093 0.289784
v 0.416929 0.005688 0.289361
v 0.409165 0.020421 0.289784
v 0.409165 0.010434 0.279797
v 0.411761 0.010857 0.289361
v 0.426488 0.020421 -0.302006
v 0.406488 0.020421 -0.282006
v 0.426488 0.000421 -0.282006
v 0.416501 0.020421 -0.299334
v 0.426488 0.010434 -0.299334
v 0.416924 0.010857 -0.296738
v 0.409160 0.010434 -0.282006
v 0.409160 0.020421 -0.291993
v 0.411755 0.010857 -0.291570
v 0.426488 0.003093 -0.291993
v 0.416501 0.003093 -0.282006
v 0.416924 0.005688 -0.291570
v 0.486801 0.020421 -0.302006
v 0.486801 0.000421 -0.282006
v 0.506801 0.020421 -0.282006
v 0.486801 0.010434 -0.299334
v 0.496788 0.020421 -0.299334
v 0.496365 0.010857 -0.296738
v 0.496788 0.003093 -0.282006
v 0.486801 0.003093 -0.291993
v 0.496365 0.005688 -0.291570
v 0.504129 0.020421 -0.291993
v 0.504129 0.010434 -0.282006
v 0.501534 0.010857 -0.291570
v 0.506801 0.020421 -0.221988
v 0.486801 0.000421 -0.221988
v 0.486801 0.020421 -0.201988
v 0.504129 0.010434 -0.221988
v 0.504129 0.020421 -0.212001
v 0.501534 0.010857 -0.212424
v 0.486801 0.003093 -0.212001
v 0.496788 0.003093 -0.221988
v 0.496365 0.005688 -0.212424
v 0.496788 0.020421 -0.204660
v 0.486801 0.010434 -0.204660
v 0.496365 0.010857 -0.207255
v 0.426488 0.020421 -0.201988
v 0.426488 0.000421 -0.221988
v 0.406488 0.020421 -0.221988
v 0.426488 0.010434 -0.204660
v 0.416501 0.020421 -0.204660
v 0.416924 0.010857 -0.207255
v 0.416501 0.003093 -0.221988
v 0.426488 0.003093 -0.212001
v 0.416924 0.005688 -0.212424
v 0.409160 0.020421 -0.212001
v 0.409160 0.010434 -0.221988
v 0.411755 0.010857 -0.212424
v -0.414765 0.020421 0.300696
v -0.394765 0.020421 0.280696
v -0.414765 0.000421 0.280696
v -0.404778 0.020421 0.298024
v -0.414765 0.010434 0.298024
v -0.405201 0.010857 0.295428
v -0.397437 0.010434 0.280696
v -0.397437 0.020421 0.290683
v -0.400032 0.010857 0.290260
v -0.414765 0.003093 0.290683
v -0.404778 0.003093 0.280696
v -0.405201 0.005688 0.290260
v -0.475782 0.020421 0.300696
v -0.475782 0.000421 0.280696
v -0.495782 0.020421 0.280696
v -0.475782 0.010434 0.298024
v -0.485768 0.020421 0.298024
v -0.485346 0.010857 0.295428
v -0.485768 0.003093 0.280696
v -0.475782 0.003093 0.290683
v -0.485346 0.005688 0.290260
v -0.493110 0.020421 0.290683
v -0.493110 0.010434 0.280696
v -0.490514 0.010857 0.290260
v -0.495782 0.020421 0.219394
v -0.475782 0.000421 0.219394
v -0.475782 0.020421 0.199394
v -0.493110 0.010434 0.219394
v -0.493110 0.020421 0.209408
v -0.490514 0.010857 0.209830
v -0.475782 0.003093 0.209408
v -0.485768 0.003093 0.219394
v -0.485346 0.005688 0.209830
v -0.485768 0.020421 0.202066
v -0.475782 0.010434 0.202066
v -0.485346 0.010857 0.204662
v -0.414765 0.020421 0.199394
v -0.414765 0.000421 0.219394
v -0.394765 0.020421 0.219394
v -0.414765 0.010434 0.202066
v -0.404778 0.020421 0.202066
v -0.405201 0.010857 0.204662
v -0.404778 0.003093 0.219394
v -0.414765 0.003093 0.209408
v -0.405201 0.005688 0.209830
v -0.397437 0.020421 0.209408
v -0.397437 0.010434 0.219394
v -0.400032 0.010857 0.209830
v -0.494894 0.020421 -0.221948
v -0.474894 0.020421 -0.201948
v -0.474894 0.000421 -0.221948
v -0.492222 0.020421 -0.211961
v -0.492222 0.010434 -0.221948
v -0.489626 0.010857 -0.212384
v -0.474894 0.010434 -0.204620
v -0.484881 0.020421 -0.204620
v -0.484458 0.010857 -0.207215
v -0.484881 0.003093 -0.221948
v -0.474894 0.003093 -0.211961
v -0.484458 0.005688 -0.212384
v -0.494894 0.020421 -0.282525
v -0.474894 0.000421 -0.282525
v -0.474894 0.020421 -0.302525
v -0.492222 0.010434 -0.282525
v -0.492222 0.020421 -0.292512
v -0.489626 0.010857 -0.292090
v -0.474894 0.003093 -0.292512
v -0.484881 0.003093 -0.282525
v -0.484458 0.005688 -0.292090
v -0.484881 0.020421 -0.299854
v -0.474894 0.010434 -0.299854
v -0.484458 0.010857 -0.297258
v -0.414752 0.020421 -0.302525
v -0.414752 0.000421 -0.282525
v -0.394752 0.020421 -0.282525
v -0.414752 0.010434 -0.299854
v -0.404765 0.020421 -0.299854
v -0.405188 0.010857 -0.297258
v -0.404765 0.003093 -0.282525
v -0.414752 0.003093 -0.292512
v -0.405188 0.005688 -0.292090
v -0.397424 0.020421 -0.292512
v -0.397424 0.010434 -0.282525
v -0.400019 0.010857 -0.292090
v -0.414752 0.020421 -0.201948
v -0.394752 0.020421 -0.221948
v -0.414752 0.000421 -0.221948
v -0.404765 0.020421 -0.204620
v -0.414752 0.010434 -0.204620
v -0.405188 0.010857 -0.207215
v -0.397424 0.010434 -0.221948
v -0.397424 0.020421 -0.211961
v -0.400019 0.010857 -0.212384
v -0.414752 0.003093 -0.211961
v -0.404765 0.003093 -0.221948
v -0.405188 0.005688 -0.212384
vn -0.0000 -1.0000 -0.0000
vn -0.0000 1.0000 -0.0000
vn -0.0000 -0.0000 1.0000
vn -0.0000 -0.0000 -1.0000
vn -1.0000 -0.0000 -0.0000
vn 1.0000 -0.0000 -0.0000
vn -0.9199 0.0091 0.3921
vn -0.7062 -0.0493 0.7062
vn -0.3930 0.0072 0.9195
vn -0.3729 0.4597 0.8060
vn -0.3733 0.8493 0.3733
vn -0.8054 0.4617 0.3718
vn -0.6786 0.2811 0.6786
vn -0.2566 -0.2566 0.9318
vn -0.6901 -0.2178 0.6901
vn -0.9318 -0.2566 0.2566
vn -0.6901 -0.6901 0.2178
vn -0.2566 -0.9318 0.2566
vn -0.2178 -0.6901 0.6901
vn -0.5774 -0.5773 0.5774
vn -0.3932 0.0068 -0.9194
vn -0.7063 -0.0493 -0.7062
vn -0.9200 0.0095 -0.3919
vn -0.8053 0.4621 -0.3715
vn -0.3733 0.8493 -0.3733
vn -0.3731 0.4592 -0.8062
vn -0.6786 0.2811 -0.6786
vn -0.9318 -0.2566 -0.2566
vn -0.6901 -0.2178 -0.6901
vn -0.2566 -0.2566 -0.9318
vn -0.2178 -0.6901 -0.6901
vn -0.2566 -0.9318 -0.2566
vn -0.6901 -0.6901 -0.2178
vn -0.5774 -0.5773 -0.5774
vn 0.3922 0.0087 0.9198
vn 0.7062 -0.0493 0.7062
vn 0.9196 0.0076 0.3928
vn 0.8059 0.4600 0.3727
vn 0.3733 0.8493 0.3733
vn 0.3720 0.4613 0.8055
vn 0.6786 0.2811 0.6786
vn 0.2566 -0.9318 0.2566
vn 0.6901 -0.6901 0.2178
vn 0.9318 -0.2566 0.2566
vn 0.6901 -0.2178 0.6901
vn 0.2566 -0.2566 0.9318
vn 0.2178 -0.6901 0.6901
vn 0.5774 -0.5773 0.5773
vn 0.9196 0.0078 -0.3927
vn 0.7062 -0.0493 -0.7062
vn 0.3923 0.0085 -0.9198
vn 0.3721 0.4611 -0.8056
vn 0.3733 0.8493 -0.3733
vn 0.8058 0.4603 -0.3725
vn 0.6786 0.2811 -0.6786
vn 0.2566 -0.9318 -0.2566
vn 0.2178 -0.6901 -0.6901
vn 0.2566 -0.2566 -0.9318
vn 0.6901 -0.2178 -0.6901
vn 0.9318 -0.2566 -0.2566
vn 0.6901 -0.6901 -0.2178
vn 0.5773 -0.5774 -0.5774
vn -0.8622 0.4249 0.2757
vn -0.5907 0.7762 0.2203
vn -0.3835 0.8947 -0.2289
vn -0.4674 0.8173 -0.3371
vn -0.3952 0.6077 0.6889
vn -0.6721 0.5510 0.4947
vn -0.6288 0.7528 0.1946
vn -0.7938 0.5124 -0.3277
vn -0.5905 0.5517 -0.5890
vn -0.3287 0.5138 -0.7924
vn -0.4643 0.8416 -0.2759
vn -0.2064 0.9582 -0.1981
vn -0.2841 0.8409 -0.4607
vn -0.4735 0.7450 -0.4698
vn 0.2760 0.4267 0.8613
vn 0.2216 0.7775 0.5885
vn -0.2324 0.8925 0.3866
vn -0.3371 0.8161 0.4694
vn 0.6876 0.6094 0.3946
vn 0.4946 0.5524 0.6710
vn 0.1952 0.7536 0.6277
vn 0.2756 0.4245 -0.8625
vn 0.4947 0.5506 -0.6724
vn 0.6893 0.6071 -0.3953
vn -0.3370 0.8176 -0.4669
vn -0.2279 0.8953 -0.3827
vn 0.2200 0.7759 -0.5913
vn 0.1945 0.7526 -0.6291
vn 0.2756 0.4245 0.8625
vn 0.2200 0.7759 0.5913
vn -0.2279 0.8953 0.3827
vn -0.3370 0.8176 0.4669
vn 0.6893 0.6071 0.3953
vn 0.4947 0.5506 0.6724
vn 0.1945 0.7526 0.6291
vn -0.3285 0.5136 0.7926
vn -0.5903 0.5517 0.5892
vn -0.7936 0.5126 0.3279
vn -0.2829 0.8410 0.4612
vn -0.2052 0.9582 0.1993
vn -0.4637 0.8415 0.2771
vn -0.4730 0.7450 0.4704
vn -0.8625 0.4245 -0.2756
vn -0.6723 0.5507 -0.4947
vn -0.3953 0.6072 -0.6892
vn -0.4669 0.8175 0.3370
vn -0.3828 0.8953 0.2280
vn -0.5912 0.7759 -0.2200
vn -0.6290 0.7526 -0.1945
vn 0.2762 0.4279 -0.8606
vn 0.4945 0.5533 -0.6703
vn 0.6869 0.6105 -0.3942
vn -0.3368 0.8154 -0.4708
vn -0.2347 0.8910 -0.3887
vn 0.2225 0.7784 -0.5870
vn 0.1958 0.7541 -0.6269
vn -0.2756 0.4245 -0.8625
vn -0.2200 0.7759 -0.5912
vn 0.2279 0.8953 -0.3827
vn 0.3370 0.8176 -0.4669
vn -0.6893 0.6072 -0.3953
vn -0.4947 0.5506 -0.6724
vn -0.1945 0.7526 -0.6291
vn 0.3281 0.5129 -0.7933
vn 0.5896 0.5517 -0.5900
vn 0.7929 0.5133 -0.3283
vn 0.2788 0.8414 -0.4630
vn 0.2011 0.9582 -0.2034
vn 0.4620 0.8412 -0.2812
vn 0.4711 0.7450 -0.4722
vn 0.8625 0.4245 0.2756
vn 0.6724 0.5506 0.4947
vn 0.3953 0.6071 0.6893
vn 0.4669 0.8176 -0.3370
vn 0.3827 0.8953 -0.2280
vn 0.5913 0.7759 0.2200
vn 0.6291 0.7526 0.1946
vn -0.3294 0.5149 0.7915
vn -0.5915 0.5517 0.5880
vn -0.7947 0.5113 0.3270
vn -0.2898 0.8404 0.4581
vn -0.2122 0.9581 0.1921
vn -0.4668 0.8421 0.2700
vn -0.4761 0.7450 0.4672
vn 0.8625 0.4245 -0.2756
vn 0.5913 0.7759 -0.2200
vn 0.3827 0.8953 0.2279
vn 0.4669 0.8176 0.3370
vn 0.3953 0.6071 -0.6893
vn 0.6724 0.5506 -0.4947
vn 0.6291 0.7526 -0.1945
vn 0.7928 0.5134 0.3284
vn 0.5894 0.5517 0.5901
vn 0.3280 0.5128 0.7934
vn 0.4617 0.8411 0.2818
vn 0.2005 0.9582 0.2041
vn 0.2782 0.8414 0.4633
vn 0.4709 0.7450 0.4725
vn -0.2756 0.4245 0.8625
vn -0.4947 0.5506 0.6724
vn -0.6893 0.6071 0.3953
vn 0.3370 0.8176 0.4669
vn 0.2279 0.8953 0.3827
vn -0.2200 0.7759 0.5913
vn -0.1945 0.7526 0.6291
vn -0.3155 0.4945 -0.8099
vn -0.4102 0.8298 -0.3784
vn -0.0804 0.9486 -0.3062
vn -0.1535 0.8483 -0.5067
vn -0.7724 0.5353 -0.3418
vn -0.5692 0.5530 -0.6085
vn -0.4171 0.7462 -0.5188
vn -0.9318 0.2566 0.2566
vn -0.6901 0.2178 0.6901
vn -0.2566 0.2566 0.9318
vn -0.2178 0.6901 0.6901
vn -0.2566 0.9318 0.2566
vn -0.6901 0.6901 0.2178
vn -0.5774 0.5773 0.5773
vn -0.9318 0.2566 -0.2566
vn -0.6901 0.6901 -0.2178
vn -0.2566 0.9318 -0.2566
vn -0.2178 0.6901 -0.6901
vn -0.2566 0.2566 -0.9318
vn -0.6901 0.2178 -0.6901
vn -0.5774 0.5773 -0.5773
vn 0.2566 0.2566 0.9318
vn 0.6901 0.2178 0.6901
vn 0.9318 0.2566 0.2566
vn 0.6901 0.6901 0.2178
vn 0.2566 0.9318 0.2566
vn 0.2178 0.6901 0.6901
vn 0.5774 0.5774 0.5773
vn 0.2566 0.2566 -0.9318
vn 0.2178 0.6901 -0.6901
vn 0.2566 0.9318 -0.2566
vn 0.6901 0.6901 -0.2178
vn 0.9318 0.2566 -0.2566
vn 0.6901 0.2178 -0.6901
vn 0.5773 0.5774 -0.5773
vn 0.5774 0.5773 0.5773
vn -0.5774 0.5774 0.5773
vn -0.5774 0.5774 -0.5773
vn 0.5774 0.5774 -0.5773
vn -0.5773 0.5774 -0.5773
vn -0.5773 0.5774 0.5774
vn 0.2586 -0.9660 -0.0000
vn 0.7071 -0.7071 -0.0000
vn 0.9660 -0.2586 -0.0000
vn -0.0000 -0.9660 0.2586
vn -0.0000 -0.7071 0.7071
vn -0.0000 -0.2586 0.9660
vn -0.9469 0.0170 0.3211
vn -0.7066 0.0379 0.7066
vn -0.3216 0.0171 0.9467
vn 0.3212 0.0170 -0.9469
vn 0.7066 0.0379 -0.7066
vn 0.9468 0.0171 -0.3214
vn -0.3217 0.0171 -0.9467
vn -0.7066 0.0379 -0.7066
vn -0.9469 0.0169 -0.3209
vn 0.3212 0.0170 0.9469
vn 0.7066 0.0379 0.7066
vn 0.9468 0.0171 0.3215
vn -0.0075 0.9593 -0.2822
vn -0.0121 0.6503 -0.7596
vn -0.0051 0.1731 -0.9849
vn -0.2820 0.9594 0.0074
vn -0.7591 0.6509 0.0120
vn -0.9848 0.1739 0.0050
vn -0.0000 -0.9660 -0.2586
vn -0.0000 -0.7071 -0.7071
vn -0.0000 -0.2586 -0.9660
vn 0.2825 0.9592 -0.0076
vn 0.7600 0.6498 -0.0122
vn 0.9850 0.1724 -0.0051
vn 0.0075 0.9592 0.2826
vn 0.0122 0.6496 0.7602
vn 0.0051 0.1721 0.9851
vn -0.2586 -0.9660 -0.0000
vn -0.7071 -0.7071 -0.0000
vn -0.9660 -0.2586 -0.0000
vn 0.2588 -0.9659 -0.0000
vn 0.9659 -0.2588 -0.0000
vn -0.2588 0.9659 -0.0000
vn -0.7071 0.7071 -0.0000
vn -0.9659 0.2588 -0.0000
vn 0.2824 0.9593 0.0076
vn 0.7599 0.6499 0.0122
vn 0.9850 0.1725 0.0051
vn 0.2588 0.9659 -0.0000
vn 0.7071 0.7071 -0.0000
vn 0.9659 0.2588 -0.0000
vn -0.2588 -0.9659 -0.0000
vn -0.9659 -0.2588 -0.0000
vn -0.2821 0.9594 -0.0074
vn -0.7593 0.6506 -0.0120
vn -0.9848 0.1736 -0.0050
vn 0.0076 0.9592 -0.2827
vn 0.0122 0.6493 -0.7604
vn 0.0051 0.1718 -0.9851
vn -0.0000 -0.9659 -0.2588
vn -0.0000 -0.2588 -0.9659
vn -0.0000 0.9659 0.2588
vn -0.0000 0.7071 0.7071
vn -0.0000 0.2588 0.9659
vn -0.0000 -0.9659 0.2588
vn -0.0000 -0.2588 0.9659
vn -0.0000 0.9659 -0.2588
vn -0.0000 0.7071 -0.7071
vn -0.0000 0.2588 -0.9659
vn -0.0075 0.9593 0.2822
vn -0.0121 0.6504 0.7595
vn -0.0050 0.1733 0.9849
vn -0.9676 0.2522 -0.0058
vn -0.7558 0.6547 -0.0162
vn -0.3278 0.9447 -0.0137
vn -0.0199 0.1613 0.9867
vn -0.0599 0.4698 0.8807
vn -0.0666 0.8624 0.5018
vn -0.0059 0.2514 -0.9679
vn -0.0165 0.6532 -0.7570
vn -0.0140 0.9443 -0.3288
vn 0.9995 0.0309 -0.0020
vn 1.0000 0.0091 -0.0010
vn 1.0000 0.0027 -0.0003
vn -0.0059 0.2515 0.9678
vn -0.0165 0.6535 0.7568
vn -0.0140 0.9443 0.3287
vn -0.9677 0.2521 0.0058
vn -0.7559 0.6545 0.0163
vn -0.3279 0.9446 0.0138
vn -0.0671 0.8614 -0.5034
vn -0.0603 0.4685 -0.8814
vn -0.0200 0.1608 -0.9868
vn 0.9989 0.0476 0.0031
vn 0.9999 0.0140 0.0016
vn 1.0000 0.0042 0.0005
vn 0.0058 0.2519 -0.9677
vn 0.0162 0.6541 -0.7562
vn 0.0137 0.9445 -0.3281
vn 0.9678 0.2517 -0.0058
vn 0.7566 0.6537 -0.0162
vn 0.3285 0.9444 -0.0138
vn 0.0135 0.1098 0.9939
vn 0.0412 0.3368 0.9407
vn 0.0542 0.7583 0.6496
vn -0.9936 0.1125 -0.0138
vn -0.9380 0.3442 -0.0421
vn -0.6409 0.7657 -0.0548
vn 0.9678 0.2516 0.0059
vn 0.7566 0.6537 0.0164
vn 0.3285 0.9444 0.0139
vn 0.0059 0.2520 0.9677
vn 0.0163 0.6543 0.7561
vn 0.0138 0.9446 0.3280
vn 0.0587 0.7971 -0.6011
vn 0.0473 0.3789 -0.9242
vn 0.0157 0.1256 -0.9920
vn -0.9954 0.0947 0.0118
vn -0.9547 0.2953 0.0359
vn -0.7006 0.7118 0.0500
vn -0.2585 0.9660 -0.0000
vn -0.9660 0.2585 -0.0000
vn -0.0000 0.9660 0.2585
vn -0.0000 0.2585 0.9660
vn -0.0000 0.9660 -0.2585
vn -0.0000 0.2585 -0.9660
vn 0.9660 0.2585 -0.0000
vn 0.2585 0.9660 -0.0000
vn -0.2739 -0.0002 0.9618
vn -0.7071 -0.0005 0.7071
vn -0.9618 -0.0002 0.2739
vn -0.2739 -0.0002 -0.9618
vn -0.7071 -0.0005 -0.7071
vn -0.9618 -0.0002 -0.2739
vn 0.9618 -0.0002 0.2739
vn 0.7071 -0.0005 0.7071
vn 0.2739 -0.0002 0.9618
vn 0.9618 -0.0002 -0.2739
vn 0.7071 -0.0005 -0.7071
vn 0.2739 -0.0002 -0.9618
vt 0.250000 0.625000
vt 0.750000 0.625000
vt 0.750000 0.524621
vt 0.250000 0.524621
vt 0.187500 0.625000
vt 0.187500 0.524621
vt 0.812500 0.625000
vt 0.812500 0.524621
vt 0.562423 0.502456
vt 0.562423 0.487592
vt 0.625000 0.500000
vt 0.562423 0.501362
vt 0.593670 0.502226
vt 0.592348 0.501186
vt 0.593670 0.488732
vt 0.562423 0.493129
vt 0.592348 0.494000
vt 0.625000 0.501268
vt 0.625000 0.498647
vt 0.625000 0.493566
vt 0.625000 0.500002
vt 0.437577 0.487592
vt 0.437577 0.502456
vt 0.362592 0.502456
vt 0.437577 0.493788
vt 0.406330 0.487592
vt 0.407652 0.493525
vt 0.406330 0.502456
vt 0.437577 0.501229
vt 0.407652 0.501281
vt 0.407652 0.496732
vt 0.362592 0.500000
vt 0.375000 0.487592
vt 0.368788 0.502456
vt 0.368526 0.500000
vt 0.375000 0.493525
vt 0.562423 0.762408
vt 0.562423 0.737514
vt 0.625000 0.750000
vt 0.562423 0.756869
vt 0.593670 0.761272
vt 0.592348 0.756002
vt 0.593670 0.738685
vt 0.562423 0.743072
vt 0.592348 0.743972
vt 0.625000 0.756440
vt 0.625000 0.743098
vt 0.625000 0.743560
vt 0.625000 0.749982
vt 0.437577 0.737514
vt 0.437577 0.762408
vt 0.362592 0.737514
vt 0.437577 0.743749
vt 0.406330 0.737514
vt 0.407652 0.743485
vt 0.407652 0.753268
vt 0.406330 0.762408
vt 0.437577 0.756212
vt 0.407652 0.756474
vt 0.368788 0.737514
vt 0.362592 0.750000
vt 0.375000 0.762408
vt 0.368525 0.750000
vt 0.375000 0.756475
vt 0.562423 0.256261
vt 0.562423 0.247544
vt 0.625000 0.250000
vt 0.562423 0.253472
vt 0.593670 0.255677
vt 0.592348 0.253024
vt 0.593670 0.247771
vt 0.562423 0.248640
vt 0.592348 0.248813
vt 0.625000 0.253234
vt 0.625000 0.246547
vt 0.625000 0.248728
vt 0.625000 0.250004
vt 0.131261 0.502456
vt 0.437577 0.247544
vt 0.437577 0.256261
vt 0.125000 0.502456
vt 0.375000 0.247544
vt 0.131261 0.500000
vt 0.375000 0.256261
vt 0.125000 0.501281
vt 0.375000 0.250000
vt 0.375000 0.248719
vt 0.437577 0.248771
vt 0.406330 0.247544
vt 0.407652 0.248719
vt 0.406330 0.256261
vt 0.437577 0.253134
vt 0.407652 0.253267
vt 0.407652 0.249353
vt 0.562423 0.012486
vt 0.562423 0.993739
vt 0.625000 1.000000
vt 0.625000 0.000000
vt 0.562423 0.006918
vt 0.593670 0.011333
vt 0.592348 0.006035
vt 0.593670 0.994322
vt 0.562423 1.000000
vt 0.562423 0.000000
vt 0.592348 1.000000
vt 0.592348 0.000000
vt 0.625000 0.006464
vt 0.625000 -0.006910
vt 0.625000 0.996765
vt 0.625000 -0.000005
vt 0.608519 0.005093
vt 0.131261 0.737514
vt 0.437577 0.993739
vt 0.437577 0.012486
vt 0.131261 0.750000
vt 0.375000 0.993739
vt 0.125000 0.737514
vt 0.375000 0.012486
vt 0.125000 0.743485
vt 0.375000 1.000000
vt 0.375000 0.006515
vt 0.437577 1.000000
vt 0.437577 0.000000
vt 0.406330 0.993739
vt 0.407652 1.000000
vt 0.407652 0.000000
vt 0.406330 0.012486
vt 0.437577 0.006251
vt 0.407652 0.006515
vt 0.437577 0.125000
vt 0.131261 0.625000
vt 0.406289 0.125000
vt 0.125000 0.625000
vt 0.375000 0.125000
vt 0.562423 0.625000
vt 0.625000 0.624937
vt 0.637408 0.625000
vt 0.593711 0.625000
vt 0.628102 0.624985
vt 0.625000 0.125003
vt 0.868739 0.625000
vt 0.562423 0.125000
vt 0.625000 0.125001
vt 0.871870 0.625000
vt 0.593711 0.125000
vt 0.875000 0.625000
vt 0.625000 0.125000
vt 0.362592 0.625000
vt 0.437577 0.625000
vt 0.368796 0.625000
vt 0.406289 0.625000
vt 0.562423 0.225379
vt 0.625000 0.225379
vt 0.868739 0.524621
vt 0.593711 0.225379
vt 0.875000 0.524621
vt 0.625000 0.225379
vt 0.625000 0.225379
vt 0.871870 0.524621
vt 0.437577 0.524621
vt 0.362592 0.524621
vt 0.406289 0.524621
vt 0.368796 0.524621
vt 0.437577 0.225379
vt 0.131261 0.524621
vt 0.406289 0.225379
vt 0.125000 0.524621
vt 0.375000 0.225379
vt 0.562423 0.524621
vt 0.637408 0.524621
vt 0.625000 0.524623
vt 0.593711 0.524621
vt 0.628102 0.524622
vt 0.250000 0.502456
vt 0.437577 0.375000
vt 0.250000 0.500000
vt 0.375000 0.375000
vt 0.406289 0.375000
vt 0.625000 0.875001
vt 0.750000 0.737514
vt 0.562423 0.875000
vt 0.625000 0.875000
vt 0.750000 0.743757
vt 0.593711 0.875000
vt 0.750000 0.750000
vt 0.625000 0.875000
vt 0.437577 0.875000
vt 0.250000 0.737514
vt 0.406289 0.875000
vt 0.250000 0.750000
vt 0.375000 0.875000
vt 0.562423 0.375000
vt 0.750000 0.500000
vt 0.625000 0.375000
vt 0.750000 0.502456
vt 0.593711 0.375000
vt 0.750000 0.500000
vt 0.625000 0.375000
vt 0.625000 0.375000
vt 0.750000 0.501228
vt 0.437577 0.312500
vt 0.187500 0.502456
vt 0.406289 0.312500
vt 0.187500 0.500000
vt 0.375000 0.312500
vt 0.562423 0.937500
vt 0.625000 0.937499
vt 0.812500 0.737514
vt 0.593711 0.937500
vt 0.812500 0.750000
vt 0.625000 0.937500
vt 0.625000 0.937499
vt 0.812500 0.743757
vt 0.437577 0.937500
vt 0.187500 0.737514
vt 0.406289 0.937500
vt 0.187500 0.750000
vt 0.375000 0.937500
vt 0.562423 0.312500
vt 0.812500 0.502456
vt 0.625000 0.312500
vt 0.812500 0.500000
vt 0.625000 0.312500
vt 0.593711 0.312500
vt 0.812500 0.501228
vt 0.625000 0.312500
vt 0.625000 0.649990
vt 0.625000 0.625000
vt 0.649834 0.625000
vt 0.625000 0.641997
vt 0.625000 0.637724
vt 0.625000 0.633614
vt 0.622505 0.625000
vt -0.412971 0.625000
vt 0.625000 0.631698
vt 0.021819 0.625000
vt 0.637645 0.625000
vt 0.625000 0.625000
vt 0.625795 0.625000
vt 0.625000 0.725010
vt 0.625000 0.774834
vt 0.625000 0.750000
vt 0.625000 0.737276
vt 0.625000 0.741116
vt 0.625000 0.745455
vt 0.625000 0.758693
vt 0.625000 0.762645
vt 0.625000 0.754456
vt 0.625000 0.748425
vt 0.625000 0.751489
vt 0.625000 0.749959
vt 0.725166 0.625000
vt 1.301758 0.624997
vt 0.749996 0.127586
vt 0.750000 0.649990
vt 0.733219 0.625000
vt 0.737355 0.625000
vt 0.741501 0.625000
vt 0.750000 0.417898
vt 0.750000 6.087463
vt 0.928079 0.625000
vt 0.749969 2.522400
vt 0.750000 0.637724
vt 0.750000 0.625007
vt 0.750000 0.625802
vt 0.625000 0.850166
vt 0.750000 0.725010
vt 0.625000 0.875000
vt 0.750000 0.750000
vt 0.750000 0.750000
vt 0.625000 0.875000
vt 0.625000 0.858080
vt 0.625000 0.875000
vt 0.750000 0.750000
vt 0.750000 0.750000
vt 0.750000 0.737276
vt 0.750000 0.749200
vt 0.625000 0.868330
vt 0.625000 0.875000
vt 0.750000 0.752743
vt 0.625000 0.871106
vt 0.750000 0.757575
vt 0.625000 0.399922
vt 0.625000 0.375000
vt 0.750000 0.500000
vt 0.750000 0.504923
vt 0.625000 0.391980
vt 0.750000 0.500000
vt 0.625000 0.375000
vt 0.625000 0.375000
vt 0.750000 0.500000
vt 0.750000 0.500000
vt 0.750000 -61.770752
vt 0.625000 0.381692
vt 0.750000 -35.665527
vt 0.750000 0.498508
vt 0.750000 0.502507
vt 0.750000 0.500000
vt 0.750000 0.500158
vt 0.625000 0.475078
vt 0.625000 0.504923
vt 0.625000 0.500000
vt 0.625000 0.487310
vt 0.625000 0.491255
vt 0.625000 0.495519
vt 0.625000 0.501746
vt 0.625000 0.502507
vt 0.625000 0.500894
vt 0.625000 0.498496
vt 0.625000 0.501517
vt 0.625000 0.500308
vt 0.625000 0.500029
vt 0.625000 0.519698
vt 0.649922 0.524621
vt 0.625000 0.524621
vt 0.625000 0.522114
vt 0.625000 0.521267
vt 0.625000 0.522921
vt 0.625000 0.524621
vt 0.637690 0.524621
vt 0.625797 0.524621
vt 0.625000 0.523298
vt 0.625000 0.524621
vt 0.622538 0.524621
vt 0.625000 0.523849
vt 0.725078 0.524621
vt 0.750000 0.519698
vt 5.401550 0.524628
vt 0.749989 1.342964
vt 0.737310 0.524621
vt 0.733237 0.524621
vt 0.741514 0.524621
vt 0.750000 0.524618
vt 0.750000 0.522114
vt 0.750000 0.524462
vt 2.305710 0.524612
vt 3.342194 0.524628
vt 0.750006 0.865243
vt 1.303055 0.524624
vt 0.625000 0.949874
vt 0.625000 0.937500
vt 0.812500 0.750000
vt 0.812500 0.725321
vt 0.625000 0.945930
vt 0.625000 0.943801
vt 0.625000 0.941774
vt 0.812500 0.752443
vt 0.812500 22.943985
vt 0.625000 0.940831
vt 0.812500 13.637543
vt 0.625000 0.939781
vt 0.812500 0.750000
vt 0.625000 0.937500
vt 0.812500 0.750000
vt 0.812500 0.750000
vt 0.625000 0.937500
vt 0.625000 0.987626
vt 0.625000 0.024679
vt 0.625000 1.000000
vt 0.625000 0.000000
vt 0.625000 0.000000
vt 0.625000 1.000000
vt 0.625000 0.995625
vt 0.625000 1.000000
vt 0.625000 0.000000
vt 0.625000 0.008688
vt 0.625000 0.012566
vt 0.625000 0.004450
vt 0.625000 0.999229
vt 0.625000 1.000737
vt 0.625000 0.001515
vt 0.625000 0.999994
vt 0.625000 -0.002656
vt 0.625000 0.100321
vt 0.862626 0.625000
vt 0.625000 0.125000
vt 0.875000 0.625000
vt 0.625000 0.112434
vt 0.625000 0.108187
vt 0.625000 0.116477
vt 0.875000 0.625000
vt 0.875000 0.625000
vt 0.625000 0.125000
vt 0.875000 0.625000
vt 0.625000 0.125000
vt 0.625000 0.118359
vt 0.625000 0.124999
vt 0.876260 0.625000
vt 0.625000 0.121123
vt 0.625000 0.120451
vt 0.824874 0.625000
vt 0.812500 0.649679
vt -3.042053 0.625000
vt 0.812515 -7.428421
vt 0.818801 0.625000
vt 0.816784 0.625000
vt 0.814699 0.625000
vt 0.812500 0.633867
vt 0.812500 0.637566
vt 0.812500 0.629531
vt -0.242767 0.625015
vt 0.068146 0.625000
vt 0.812494 -1.463156
vt 0.706642 0.625000
vt 0.625000 0.230275
vt 0.625000 0.225379
vt 0.875000 0.524621
vt 0.862518 0.524621
vt 0.625000 0.228714
vt 0.625000 0.227872
vt 0.625000 0.227070
vt 0.876207 0.524621
vt 33.417725 0.524658
vt 0.625000 0.226695
vt 19.772125 0.524658
vt 0.625000 0.226281
vt 0.875000 0.524621
vt 0.625000 0.225379
vt 0.875000 0.524621
vt 0.875000 0.524621
vt 0.625000 0.225379
vt 0.625000 0.245104
vt 0.625000 0.262482
vt 0.625000 0.250000
vt 0.625000 0.247507
vt 0.625000 0.248279
vt 0.625000 0.249118
vt 0.625000 0.254418
vt 0.625000 0.256356
vt 0.625000 0.252262
vt 0.625000 0.249702
vt 0.625000 0.250297
vt 0.625000 0.250777
vt 0.625000 0.250004
vt 0.625000 0.300018
vt 0.812500 0.504896
vt 0.625000 0.312500
vt 0.812500 0.500000
vt 0.625000 0.306144
vt 0.625000 0.303996
vt 0.625000 0.308189
vt 0.812500 0.500000
vt 0.812500 0.500000
vt 0.625000 0.312500
vt 0.812500 0.500000
vt 0.625000 0.312500
vt 0.625000 0.309144
vt 0.625000 0.312500
vt 0.812500 0.500000
vt 0.625000 0.310540
vt 0.625000 0.310198
vt 0.824982 0.524621
vt -11.725433 0.524628
vt 0.812256 5.950317
vt 0.812500 0.519725
vt 0.817791 0.524621
vt 0.818856 0.524621
vt 0.815162 0.524621
vt 0.812439 1.980408
vt 0.812500 1.191895
vt -2.588417 0.524578
vt 0.812485 0.620422
vt 0.812500 0.522128
vt 0.812500 0.523271
vt 0.812500 0.523903
vt 0.625000 0.649990
vt 0.649834 0.625000
vt 0.649834 0.649990
vt 0.625000 0.637511
vt 0.625000 0.649990
vt 0.625000 0.638040
vt 0.649834 0.625000
vt 0.637433 0.625000
vt 0.637958 0.625000
vt 0.637433 0.649990
vt 0.649834 0.637511
vt 0.637958 0.638040
vt 0.625000 0.725010
vt 0.649834 0.725010
vt 0.625000 0.774834
vt 0.625000 0.725010
vt 0.625000 0.737489
vt 0.625000 0.736960
vt 0.631540 0.736960
vt 0.649834 0.737489
vt 0.637433 0.725010
vt 0.637958 0.736960
vt 0.625000 0.762433
vt 0.649834 0.750000
vt 0.625000 0.774834
vt 0.625000 0.762958
vt 0.637958 0.750000
vt 0.725166 0.625000
vt 0.750000 0.649990
vt 0.725166 0.649990
vt 0.737567 0.625000
vt 0.725166 0.625000
vt 0.737042 0.625000
vt 0.750000 0.649990
vt 0.750000 0.637511
vt 0.750000 0.638040
vt 0.725166 0.637511
vt 0.737567 0.649990
vt 0.737042 0.638040
vt 0.625000 0.850166
vt 0.725166 0.725010
vt 0.750000 0.725010
vt 0.725166 0.750000
vt 0.625000 0.850166
vt 0.750000 0.750000
vt 0.625000 0.875000
vt 0.625000 0.862042
vt 0.750000 0.750000
vt 0.737042 0.750000
vt 0.737567 0.725010
vt 0.725166 0.737489
vt 0.737042 0.736960
vt 0.750000 0.737488
vt 0.750000 0.725010
vt 0.750000 0.736960
vt 0.743459 0.736960
vt 0.625000 0.399922
vt 0.750000 0.504923
vt 0.725078 0.504923
vt 0.750000 0.500000
vt 0.625000 0.375000
vt 0.725078 0.500000
vt 0.625000 0.399922
vt 0.625000 0.388004
vt 0.750000 0.500000
vt 0.736996 0.500000
vt 0.750000 0.504923
vt 0.750000 0.502465
vt 0.750000 0.502569
vt 0.743436 0.502569
vt 0.725078 0.502465
vt 0.737523 0.504923
vt 0.736996 0.502569
vt 0.625000 0.475078
vt 0.649922 0.504923
vt 0.625000 0.504923
vt 0.649922 0.500000
vt 0.625000 0.475078
vt 0.625000 0.487523
vt 0.625000 0.486996
vt 0.638004 0.500000
vt 0.637477 0.504923
vt 0.649922 0.502465
vt 0.638004 0.502569
vt 0.625000 0.502465
vt 0.625000 0.504923
vt 0.625000 0.502569
vt 0.631564 0.502569
vt 0.625000 0.519698
vt 0.649922 0.519698
vt 0.649922 0.524621
vt 0.625000 0.519698
vt 0.625000 0.522156
vt 0.625000 0.522052
vt 0.649922 0.522156
vt 0.637477 0.519698
vt 0.638004 0.522052
vt 0.637477 0.524621
vt 0.649922 0.524621
vt 0.638004 0.524621
vt 0.725078 0.524621
vt 0.725078 0.519698
vt 0.750000 0.519698
vt 0.725078 0.524621
vt 0.737523 0.524621
vt 0.736996 0.524621
vt 0.737523 0.519698
vt 0.725078 0.522156
vt 0.736996 0.522052
vt 0.750000 0.522156
vt 0.750000 0.519698
vt 0.750000 0.522052
vt 0.625000 0.949874
vt 0.812500 0.725321
vt 0.824874 0.725321
vt 0.625000 0.943695
vt 0.824874 0.750000
vt 0.625000 0.949874
vt 0.625000 0.943957
vt 0.818957 0.750000
vt 0.812500 0.725321
vt 0.812500 0.750000
vt 0.625000 0.937500
vt 0.625000 0.940759
vt 0.812500 0.737123
vt 0.815759 0.737123
vt 0.824874 0.737644
vt 0.818695 0.725321
vt 0.818957 0.737123
vt 0.625000 0.987626
vt 0.862626 0.725321
vt 0.625000 0.024679
vt 0.862626 0.750000
vt 0.625000 0.987626
vt 0.625000 0.000000
vt 0.625000 1.000000
vt 0.625000 0.993543
vt 0.625000 0.000000
vt 0.868543 0.750000
vt 0.868805 0.725321
vt 0.862626 0.737644
vt 0.868543 0.737123
vt 0.625000 0.012356
vt 0.875000 0.725321
vt 0.625000 0.024679
vt 0.625000 0.012877
vt 0.875000 0.737123
vt 0.625000 0.100321
vt 0.862626 0.649679
vt 0.862626 0.625000
vt 0.875000 0.649679
vt 0.625000 0.100321
vt 0.625000 0.112644
vt 0.625000 0.112123
vt 0.875000 0.637877
vt 0.862626 0.637356
vt 0.868805 0.649679
vt 0.868543 0.637877
vt 0.875000 0.625000
vt 0.625000 0.125000
vt 0.862626 0.625000
vt 0.868543 0.625000
vt 0.625000 0.118500
vt 0.868543 0.631500
vt 0.824874 0.625000
vt 0.824874 0.649679
vt 0.812500 0.649679
vt 0.824874 0.625000
vt 0.818695 0.625000
vt 0.818957 0.625000
vt 0.818695 0.649679
vt 0.824874 0.637356
vt 0.818957 0.637877
vt 0.812500 0.637356
vt 0.812500 0.649679
vt 0.812500 0.637877
vt 0.625000 0.230275
vt 0.862518 0.524621
vt 0.862518 0.519725
vt 0.625000 0.227830
vt 0.875000 0.519725
vt 0.625000 0.230275
vt 0.625000 0.227933
vt 0.875000 0.522067
vt 0.862518 0.524621
vt 0.875000 0.524621
vt 0.625000 0.225379
vt 0.625000 0.226668
vt 0.868487 0.524621
vt 0.868487 0.523332
vt 0.868751 0.519725
vt 0.862518 0.522170
vt 0.868487 0.522067
vt 0.625000 0.245104
vt 0.862518 0.504896
vt 0.625000 0.262482
vt 0.875000 0.504896
vt 0.625000 0.245104
vt 0.625000 0.247549
vt 0.625000 0.247445
vt 0.875000 0.502555
vt 0.862518 0.502451
vt 0.868751 0.504896
vt 0.868487 0.502555
vt 0.625000 0.256249
vt 0.862518 0.500000
vt 0.625000 0.262482
vt 0.625000 0.256513
vt 0.868487 0.500000
vt 0.625000 0.300018
vt 0.824982 0.504896
vt 0.812500 0.504896
vt 0.824982 0.500000
vt 0.625000 0.300018
vt 0.625000 0.306251
vt 0.625000 0.305987
vt 0.819013 0.500000
vt 0.818749 0.504896
vt 0.824982 0.502451
vt 0.819013 0.502555
vt 0.812500 0.500000
vt 0.625000 0.312500
vt 0.812500 0.504896
vt 0.812500 0.502555
vt 0.625000 0.309213
vt 0.815787 0.502555
vt 0.824982 0.524621
vt 0.812500 0.519725
vt 0.824982 0.519725
vt 0.818749 0.524621
vt 0.824982 0.524621
vt 0.819013 0.524621
vt 0.812500 0.519725
vt 0.812500 0.522170
vt 0.812500 0.522067
vt 0.824982 0.522170
vt 0.818749 0.519725
vt 0.819013 0.522067
s 0
usemtl Material
f 106/131/1 5/5/1 162/215/1 93/112/1
f 83/97/2 158/207/2 266/341/2 279/359/2
f 59/67/2 122/153/2 314/406/2 327/424/2
f 71/80/3 57/65/3 165/219/3 153/201/3
f 35/39/2 110/136/2 170/228/2 183/242/2
f 11/11/2 150/194/2 218/284/2 231/302/2
f 110/137/1 2/2/1 194/253/1 170/228/1
f 122/154/1 8/8/1 350/453/1 314/407/1
f 113/140/2 83/98/2 279/360/2 291/376/2
f 7/7/1 113/141/1 291/377/1 303/393/1
f 69/78/1 154/202/1 6/6/1 130/165/1
f 46/51/4 33/37/4 142/181/4 145/187/4
f 134/171/2 11/11/2 231/302/2 243/315/2
f 134/170/2 3/3/2 2/2/2 110/137/2
f 153/201/3 165/219/3 149/192/3 138/175/3
f 137/174/1 23/24/1 126/161/1 4/4/1
f 125/160/5 133/169/5 109/135/5 118/149/5
f 6/6/1 4/4/1 1/1/1 5/5/1
f 145/187/4 142/181/4 157/206/4 161/214/4
f 150/195/2 166/220/2 8/8/2 3/3/2
f 141/179/2 35/39/2 183/242/2 207/268/2
f 2/2/2 7/7/2 158/208/2 141/180/2
f 130/165/1 6/6/1 5/5/1 106/131/1
f 166/221/2 59/67/2 327/424/2 339/437/2
f 105/130/6 114/142/6 121/152/6 129/164/6
f 95/114/6 81/95/6 114/142/6 105/130/6
f 150/193/1 3/3/1 255/329/1 218/285/1
f 3/3/2 8/8/2 7/7/2 2/2/2
f 2/2/1 141/180/1 207/269/1 194/254/1
f 5/5/1 1/1/1 146/188/1 162/215/1
f 267/343/5 302/392/5 495/632/5 458/579/5
f 8/8/2 122/154/2 113/141/2 7/7/2
f 1/1/1 117/148/1 47/52/1 146/188/1
f 118/149/5 109/135/5 34/38/5 45/50/5
f 205/266/4 182/241/4 375/480/4 397/505/4
f 158/208/1 7/7/1 303/394/1 266/342/1
f 154/202/1 137/174/1 4/4/1 6/6/1
f 138/175/3 149/192/3 10/10/3 21/22/3
f 219/286/6 254/327/6 447/568/6 410/523/6
f 4/4/1 126/161/1 117/148/1 1/1/1
f 8/8/1 166/220/1 339/438/1 350/454/1
f 161/214/4 157/206/4 82/96/4 94/113/4
f 171/229/3 193/252/3 385/493/3 362/467/3
f 3/3/1 134/170/1 243/315/1 255/328/1
f 129/164/6 121/152/6 58/66/6 70/79/6
f 181/240/5 169/227/5 361/466/5 373/478/5
f 422/540/2 411/524/2 446/567/2 434/555/2
f 494/631/2 482/614/2 470/596/2 459/580/2
f 530/676/2 518/660/2 507/644/2 543/694/2
f 253/326/4 242/314/4 435/556/4 445/566/4
f 315/408/4 349/452/4 541/692/4 506/643/4
f 195/255/6 206/267/6 399/507/6 386/494/6
f 301/391/3 290/375/3 483/615/3 493/630/3
f 277/357/4 265/340/4 457/578/4 469/595/4
f 351/455/5 338/436/5 531/677/5 542/693/5
f 229/300/3 217/283/3 409/522/3 421/539/3
f 325/422/6 313/405/6 505/642/6 517/659/6
f 241/313/5 230/301/5 423/541/5 433/554/5
f 337/435/3 326/423/3 519/661/3 529/675/3
f 289/374/6 278/358/6 471/597/6 481/613/6
f 363/468/2 387/495/2 398/506/2 374/479/2
f 9/9/7 12/12/7 14/14/7 13/13/7
f 12/12/8 16/16/8 17/17/8 14/14/8
f 10/10/9 15/15/9 17/17/9 16/16/9
f 15/15/10 19/19/10 20/21/10 17/17/10
f 11/11/11 18/18/11 20/21/11 19/19/11
f 18/18/12 13/13/12 14/14/12 20/21/12
f 14/14/13 17/17/13 20/21/13
f 21/22/14 24/25/14 26/27/14 25/26/14
f 24/25/15 28/29/15 29/30/15 26/27/15
f 22/23/16 27/28/16 29/30/16 28/29/16
f 27/28/17 31/34/17 32/35/17 29/30/17
f 23/24/18 30/32/18 32/35/18 31/34/18
f 30/33/19 25/26/19 26/27/19 32/36/19
f 26/27/20 29/31/20 32/36/20
f 33/37/21 36/40/21 38/42/21 37/41/21
f 36/40/22 40/44/22 41/45/22 38/42/22
f 34/38/23 39/43/23 41/45/23 40/44/23
f 39/43/24 43/47/24 44/49/24 41/45/24
f 35/39/25 42/46/25 44/49/25 43/47/25
f 42/46/26 37/41/26 38/42/26 44/49/26
f 38/42/27 41/45/27 44/49/27
f 45/50/28 48/53/28 50/55/28 49/54/28
f 48/53/29 52/58/29 53/59/29 50/55/29
f 46/51/30 51/57/30 53/59/30 52/58/30
f 51/57/31 55/62/31 56/64/31 53/59/31
f 47/52/32 54/60/32 56/63/32 55/61/32
f 54/60/33 49/54/33 50/55/33 56/63/33
f 50/56/34 53/59/34 56/64/34
f 57/65/35 60/68/35 62/70/35 61/69/35
f 60/68/36 64/72/36 65/73/36 62/70/36
f 58/66/37 63/71/37 65/73/37 64/72/37
f 63/71/38 67/75/38 68/77/38 65/73/38
f 59/67/39 66/74/39 68/77/39 67/75/39
f 66/74/40 61/69/40 62/70/40 68/77/40
f 62/70/41 65/73/41 68/77/41
f 69/78/42 72/81/42 74/85/42 73/83/42
f 72/82/43 76/89/43 77/90/43 74/87/43
f 70/79/44 75/88/44 77/90/44 76/89/44
f 75/88/45 79/92/45 80/93/45 77/90/45
f 71/80/46 78/91/46 80/93/46 79/92/46
f 78/91/47 73/84/47 74/86/47 80/93/47
f 74/87/48 77/90/48 80/94/48
f 81/95/49 84/99/49 86/101/49 85/100/49
f 84/99/50 88/104/50 89/106/50 86/101/50
f 82/96/51 87/102/51 89/105/51 88/103/51
f 87/102/52 91/108/52 92/110/52 89/105/52
f 83/98/53 90/107/53 92/110/53 91/108/53
f 90/107/54 85/100/54 86/101/54 92/110/54
f 86/101/55 89/106/55 92/111/55
f 93/112/56 96/115/56 98/119/56 97/117/56
f 96/116/57 100/124/57 101/125/57 98/120/57
f 94/113/58 99/122/58 101/125/58 100/124/58
f 99/123/59 103/128/59 104/129/59 101/126/59
f 95/114/60 102/127/60 104/129/60 103/128/60
f 102/127/61 97/118/61 98/121/61 104/129/61
f 98/121/62 101/126/62 104/129/62
f 169/227/63 172/230/63 174/232/63 173/231/63
f 172/230/64 176/234/64 177/236/64 174/232/64
f 170/228/65 175/233/65 177/236/65 176/234/65
f 175/233/66 179/238/66 180/239/66 177/236/66
f 171/229/67 178/237/67 180/239/67 179/238/67
f 178/237/68 173/231/68 174/232/68 180/239/68
f 174/232/69 177/236/69 180/239/69
f 181/240/70 184/243/70 186/245/70 185/244/70
f 184/243/71 188/247/71 189/248/71 186/245/71
f 182/241/72 187/246/72 189/248/72 188/247/72
f 187/246/73 191/250/73 192/251/73 189/248/73
f 183/242/74 190/249/74 192/251/74 191/250/74
f 190/249/75 185/244/75 186/245/75 192/251/75
f 186/245/76 189/248/76 192/251/76
f 193/252/77 196/256/77 198/258/77 197/257/77
f 196/256/78 200/260/78 201/262/78 198/258/78
f 194/254/79 199/259/79 201/262/79 200/260/79
f 199/259/80 203/264/80 204/265/80 201/262/80
f 195/255/81 202/263/81 204/265/81 203/264/81
f 202/263/82 197/257/82 198/258/82 204/265/82
f 198/258/83 201/262/83 204/265/83
f 205/266/84 208/271/84 210/273/84 209/272/84
f 208/270/85 212/276/85 213/277/85 210/274/85
f 206/267/86 211/275/86 213/277/86 212/276/86
f 211/275/87 215/279/87 216/281/87 213/277/87
f 207/268/88 214/278/88 216/281/88 215/279/88
f 214/278/89 209/272/89 210/273/89 216/281/89
f 210/274/90 213/277/90 216/282/90
f 217/283/91 220/287/91 222/290/91 221/289/91
f 220/287/92 224/293/92 225/295/92 222/290/92
f 218/285/93 223/292/93 225/295/93 224/293/93
f 223/292/94 227/298/94 228/299/94 225/295/94
f 219/286/95 226/297/95 228/299/95 227/298/95
f 226/297/96 221/288/96 222/291/96 228/299/96
f 222/291/97 225/296/97 228/299/97
f 229/300/98 232/303/98 234/305/98 233/304/98
f 232/303/99 236/307/99 237/308/99 234/305/99
f 230/301/100 235/306/100 237/308/100 236/307/100
f 235/306/101 239/310/101 240/312/101 237/308/101
f 231/302/102 238/309/102 240/312/102 239/310/102
f 238/309/103 233/304/103 234/305/103 240/312/103
f 234/305/104 237/308/104 240/312/104
f 241/313/105 244/316/105 246/318/105 245/317/105
f 244/316/106 248/320/106 249/321/106 246/318/106
f 242/314/107 247/319/107 249/321/107 248/320/107
f 247/319/108 251/323/108 252/325/108 249/321/108
f 243/315/109 250/322/109 252/325/109 251/323/109
f 250/322/110 245/317/110 246/318/110 252/325/110
f 246/318/111 249/321/111 252/325/111
f 253/326/112 256/330/112 258/332/112 257/331/112
f 256/330/113 260/334/113 261/335/113 258/332/113
f 254/327/114 259/333/114 261/335/114 260/334/114
f 259/333/115 263/337/115 264/339/115 261/335/115
f 255/328/116 262/336/116 264/339/116 263/337/116
f 262/336/117 257/331/117 258/332/117 264/339/117
f 258/332/118 261/335/118 264/339/118
f 265/340/119 268/344/119 270/346/119 269/345/119
f 268/344/120 272/348/120 273/350/120 270/346/120
f 266/342/121 271/347/121 273/350/121 272/348/121
f 271/347/122 275/354/122 276/355/122 273/350/122
f 267/343/123 274/352/123 276/355/123 275/354/123
f 274/353/124 269/345/124 270/346/124 276/356/124
f 270/346/125 273/351/125 276/356/125
f 277/357/126 280/362/126 282/364/126 281/363/126
f 280/361/127 284/367/127 285/368/127 282/365/127
f 278/358/128 283/366/128 285/368/128 284/367/128
f 283/366/129 287/370/129 288/372/129 285/368/129
f 279/359/130 286/369/130 288/372/130 287/370/130
f 286/369/131 281/363/131 282/364/131 288/372/131
f 282/365/132 285/368/132 288/373/132
f 289/374/133 292/378/133 294/380/133 293/379/133
f 292/378/134 296/383/134 297/385/134 294/380/134
f 290/375/135 295/381/135 297/384/135 296/382/135
f 295/381/136 299/387/136 300/389/136 297/384/136
f 291/376/137 298/386/137 300/389/137 299/387/137
f 298/386/138 293/379/138 294/380/138 300/389/138
f 294/380/139 297/385/139 300/390/139
f 301/391/140 304/395/140 306/397/140 305/396/140
f 304/395/141 308/399/141 309/400/141 306/397/141
f 302/392/142 307/398/142 309/400/142 308/399/142
f 307/398/143 311/402/143 312/404/143 309/400/143
f 303/393/144 310/401/144 312/404/144 311/402/144
f 310/401/145 305/396/145 306/397/145 312/404/145
f 306/397/146 309/400/146 312/404/146
f 313/405/147 316/409/147 318/411/147 317/410/147
f 316/409/148 320/413/148 321/415/148 318/411/148
f 314/407/149 319/412/149 321/415/149 320/413/149
f 319/412/150 323/419/150 324/420/150 321/415/150
f 315/408/151 322/417/151 324/420/151 323/419/151
f 322/418/152 317/410/152 318/411/152 324/421/152
f 318/411/153 321/416/153 324/421/153
f 325/422/154 328/425/154 330/427/154 329/426/154
f 328/425/155 332/429/155 333/430/155 330/427/155
f 326/423/156 331/428/156 333/430/156 332/429/156
f 331/428/157 335/432/157 336/434/157 333/430/157
f 327/424/158 334/431/158 336/434/158 335/432/158
f 334/431/159 329/426/159 330/427/159 336/434/159
f 330/427/160 333/430/160 336/434/160
f 337/435/161 340/439/161 342/441/161 341/440/161
f 340/439/162 344/444/162 345/446/162 342/441/162
f 338/436/163 343/442/163 345/445/163 344/443/163
f 343/442/164 347/448/164 348/450/164 345/445/164
f 339/437/165 346/447/165 348/450/165 347/448/165
f 346/447/166 341/440/166 342/441/166 348/450/166
f 342/441/167 345/446/167 348/451/167
f 349/452/168 352/456/168 354/458/168 353/457/168
f 352/456/169 356/460/169 357/462/169 354/458/169
f 350/454/170 355/459/170 357/462/170 356/460/170
f 355/459/171 359/464/171 360/465/171 357/462/171
f 351/455/172 358/463/172 360/465/172 359/464/172
f 358/463/173 353/457/173 354/458/173 360/465/173
f 354/458/174 357/462/174 360/465/174
f 361/466/175 364/469/175 366/471/175 365/470/175
f 364/469/176 368/473/176 369/474/176 366/471/176
f 362/467/177 367/472/177 369/474/177 368/473/177
f 367/472/178 371/476/178 372/477/178 369/474/178
f 363/468/179 370/475/179 372/477/179 371/476/179
f 370/475/180 365/470/180 366/471/180 372/477/180
f 366/471/181 369/474/181 372/477/181
f 373/478/182 376/481/182 378/483/182 377/482/182
f 376/481/183 380/486/183 381/487/183 378/483/183
f 374/479/184 379/485/184 381/487/184 380/486/184
f 379/485/185 383/489/185 384/492/185 381/487/185
f 375/480/186 382/488/186 384/491/186 383/490/186
f 382/488/187 377/482/187 378/483/187 384/491/187
f 378/484/188 381/487/188 384/492/188
f 385/493/189 388/496/189 390/498/189 389/497/189
f 388/496/190 392/500/190 393/501/190 390/498/190
f 386/494/191 391/499/191 393/501/191 392/500/191
f 391/499/192 395/503/192 396/504/192 393/501/192
f 387/495/193 394/502/193 396/504/193 395/503/193
f 394/502/194 389/497/194 390/498/194 396/504/194
f 390/498/195 393/501/195 396/504/195
f 397/505/196 400/509/196 402/512/196 401/511/196
f 400/508/197 404/516/197 405/517/197 402/514/197
f 398/506/198 403/515/198 405/517/198 404/516/198
f 403/515/199 407/519/199 408/520/199 405/517/199
f 399/507/200 406/518/200 408/520/200 407/519/200
f 406/518/201 401/510/201 402/513/201 408/520/201
f 402/514/202 405/517/202 408/521/202
f 409/522/189 412/526/189 414/529/189 413/528/189
f 412/525/190 416/533/190 417/534/190 414/530/190
f 410/523/191 415/532/191 417/534/191 416/533/191
f 415/532/192 419/537/192 420/538/192 417/534/192
f 411/524/193 418/536/193 420/538/193 419/537/193
f 418/536/194 413/527/194 414/531/194 420/538/194
f 414/531/203 417/535/203 420/538/203
f 421/539/177 424/543/177 426/545/177 425/544/177
f 424/542/178 428/548/178 429/549/178 426/546/178
f 422/540/179 427/547/179 429/549/179 428/548/179
f 427/547/180 431/551/180 432/552/180 429/549/180
f 423/541/175 430/550/175 432/552/175 431/551/175
f 430/550/176 425/544/176 426/545/176 432/552/176
f 426/546/204 429/549/204 432/553/204
f 433/554/182 436/557/182 438/559/182 437/558/182
f 436/557/183 440/561/183 441/562/183 438/559/183
f 434/555/184 439/560/184 441/562/184 440/561/184
f 439/560/185 443/564/185 444/565/185 441/562/185
f 435/556/186 442/563/186 444/565/186 443/564/186
f 442/563/187 437/558/187 438/559/187 444/565/187
f 438/559/205 441/562/205 444/565/205
f 445/566/196 448/569/196 450/571/196 449/570/196
f 448/569/197 452/573/197 453/574/197 450/571/197
f 446/567/198 451/572/198 453/574/198 452/573/198
f 451/572/199 455/576/199 456/577/199 453/574/199
f 447/568/200 454/575/200 456/577/200 455/576/200
f 454/575/201 449/570/201 450/571/201 456/577/201
f 450/571/206 453/574/206 456/577/206
f 457/578/186 460/581/186 462/584/186 461/583/186
f 460/581/187 464/588/187 465/589/187 462/584/187
f 458/579/182 463/586/182 465/590/182 464/587/182
f 463/586/183 467/593/183 468/594/183 465/590/183
f 459/580/184 466/592/184 468/594/184 467/593/184
f 466/592/185 461/582/185 462/585/185 468/594/185
f 462/585/207 465/591/207 468/594/207
f 469/595/196 472/599/196 474/602/196 473/601/196
f 472/598/197 476/606/197 477/607/197 474/604/197
f 470/596/198 475/605/198 477/607/198 476/606/198
f 475/605/199 479/609/199 480/612/199 477/607/199
f 471/597/200 478/608/200 480/611/200 479/610/200
f 478/608/201 473/600/201 474/603/201 480/611/201
f 474/604/202 477/607/202 480/612/202
f 481/613/191 484/617/191 486/619/191 485/618/191
f 484/616/192 488/622/192 489/623/192 486/620/192
f 482/614/193 487/621/193 489/623/193 488/622/193
f 487/621/194 491/626/194 492/627/194 489/623/194
f 483/615/189 490/624/189 492/627/189 491/626/189
f 490/625/190 485/618/190 486/619/190 492/628/190
f 486/620/195 489/623/195 492/629/195
f 493/630/177 496/633/177 498/635/177 497/634/177
f 496/633/178 500/637/178 501/638/178 498/635/178
f 494/631/179 499/636/179 501/638/179 500/637/179
f 499/636/180 503/640/180 504/641/180 501/638/180
f 495/632/175 502/639/175 504/641/175 503/640/175
f 502/639/176 497/634/176 498/635/176 504/641/176
f 498/635/204 501/638/204 504/641/204
f 505/642/200 508/645/200 510/648/200 509/647/200
f 508/645/201 512/652/201 513/653/201 510/648/201
f 506/643/196 511/650/196 513/654/196 512/651/196
f 511/650/197 515/657/197 516/658/197 513/654/197
f 507/644/198 514/656/198 516/658/198 515/657/198
f 514/656/199 509/646/199 510/649/199 516/658/199
f 510/649/206 513/655/206 516/658/206
f 517/659/191 520/663/191 522/665/191 521/664/191
f 520/662/192 524/668/192 525/669/192 522/666/192
f 518/660/193 523/667/193 525/669/193 524/668/193
f 523/667/194 527/671/194 528/674/194 525/669/194
f 519/661/189 526/670/189 528/673/189 527/672/189
f 526/670/190 521/664/190 522/665/190 528/673/190
f 522/666/195 525/669/195 528/674/195
f 529/675/177 532/679/177 534/681/177 533/680/177
f 532/678/178 536/684/178 537/685/178 534/682/178
f 530/676/179 535/683/179 537/685/179 536/684/179
f 535/683/180 539/688/180 540/689/180 537/685/180
f 531/677/175 538/686/175 540/689/175 539/688/175
f 538/687/176 533/680/176 534/681/176 540/690/176
f 534/682/208 537/685/208 540/691/208
f 541/692/186 544/695/186 546/697/186 545/696/186
f 544/695/187 548/699/187 549/700/187 546/697/187
f 542/693/182 547/698/182 549/700/182 548/699/182
f 547/698/183 551/702/183 552/703/183 549/700/183
f 543/694/184 550/701/184 552/703/184 551/702/184
f 550/701/185 545/696/185 546/697/185 552/703/185
f 546/697/188 549/700/188 552/703/188
f 106/131/209 93/112/209 97/117/209 108/133/209
f 108/134/210 97/118/210 102/127/210 107/132/210
f 107/132/211 102/127/211 95/114/211 105/130/211
f 154/202/212 69/78/212 73/83/212 156/204/212
f 156/205/213 73/84/213 78/91/213 155/203/213
f 155/203/214 78/91/214 71/80/214 153/201/214
f 9/9/215 22/23/215 28/29/215 12/12/215
f 12/12/216 28/29/216 24/25/216 16/16/216
f 16/16/217 24/25/217 21/22/217 10/10/217
f 94/113/218 82/96/218 88/103/218 99/122/218
f 99/123/219 88/104/219 84/99/219 103/128/219
f 103/128/220 84/99/220 81/95/220 95/114/220
f 33/37/221 46/51/221 52/58/221 36/40/221
f 36/40/222 52/58/222 48/53/222 40/44/222
f 40/44/223 48/53/223 45/50/223 34/38/223
f 57/65/224 71/80/224 79/92/224 60/68/224
f 60/68/225 79/92/225 75/88/225 64/72/225
f 64/72/226 75/88/226 70/79/226 58/66/226
f 158/207/227 83/97/227 91/109/227 160/212/227
f 160/212/228 91/109/228 87/102/228 159/209/228
f 159/209/229 87/102/229 82/96/229 157/206/229
f 110/136/230 35/39/230 43/48/230 112/139/230
f 112/139/231 43/48/231 39/43/231 111/138/231
f 111/138/232 39/43/232 34/38/232 109/135/232
f 146/188/233 47/52/233 55/61/233 148/190/233
f 148/191/234 55/62/234 51/57/234 147/189/234
f 147/189/235 51/57/235 46/51/235 145/187/235
f 122/153/236 59/67/236 67/76/236 124/158/236
f 124/158/237 67/76/237 63/71/237 123/155/237
f 123/155/238 63/71/238 58/66/238 121/152/238
f 150/194/239 11/11/239 19/20/239 152/199/239
f 152/199/240 19/20/240 15/15/240 151/196/240
f 151/196/241 15/15/241 10/10/241 149/192/241
f 126/161/242 23/24/242 31/34/242 128/163/242
f 128/163/243 31/34/243 27/28/243 127/162/243
f 127/162/244 27/28/244 22/23/244 125/160/244
f 130/165/245 106/131/245 108/133/245 132/167/245
f 132/168/210 108/134/210 107/132/210 131/166/210
f 131/166/246 107/132/246 105/130/246 129/164/246
f 134/170/247 110/137/247 112/139/247 136/173/247
f 136/173/248 112/139/248 111/138/248 135/172/248
f 135/172/249 111/138/249 109/135/249 133/169/249
f 83/98/250 113/140/250 115/143/250 90/107/250
f 90/107/251 115/143/251 116/145/251 85/100/251
f 85/100/252 116/145/252 114/142/252 81/95/252
f 47/52/242 117/148/242 119/150/242 54/60/242
f 54/60/243 119/150/243 120/151/243 49/54/243
f 49/54/244 120/151/244 118/149/244 45/50/244
f 113/141/253 122/154/253 124/159/253 115/144/253
f 115/144/254 124/159/254 123/156/254 116/146/254
f 116/147/255 123/157/255 121/152/255 114/142/255
f 117/148/256 126/161/256 128/163/256 119/150/256
f 119/150/243 128/163/243 127/162/243 120/151/243
f 120/151/257 127/162/257 125/160/257 118/149/257
f 69/78/209 130/165/209 132/167/209 72/81/209
f 72/82/210 132/168/210 131/166/210 76/89/210
f 76/89/211 131/166/211 129/164/211 70/79/211
f 11/11/258 134/171/258 136/173/258 18/18/258
f 18/18/259 136/173/259 135/172/259 13/13/259
f 13/13/260 135/172/260 133/169/260 9/9/260
f 23/24/212 137/174/212 139/176/212 30/32/212
f 30/33/213 139/177/213 140/178/213 25/26/213
f 25/26/214 140/178/214 138/175/214 21/22/214
f 35/39/261 141/179/261 143/182/261 42/46/261
f 42/46/262 143/182/262 144/184/262 37/41/262
f 37/41/263 144/184/263 142/181/263 33/37/263
f 162/215/264 146/188/264 148/190/264 164/217/264
f 164/218/234 148/191/234 147/189/234 163/216/234
f 163/216/265 147/189/265 145/187/265 161/214/265
f 166/220/266 150/195/266 152/200/266 168/225/266
f 168/225/267 152/200/267 151/197/267 167/222/267
f 167/223/268 151/198/268 149/192/268 165/219/268
f 137/174/269 154/202/269 156/204/269 139/176/269
f 139/177/213 156/205/213 155/203/213 140/178/213
f 140/178/270 155/203/270 153/201/270 138/175/270
f 141/180/271 158/208/271 160/213/271 143/183/271
f 143/183/272 160/213/272 159/210/272 144/185/272
f 144/186/273 159/211/273 157/206/273 142/181/273
f 93/112/233 162/215/233 164/217/233 96/115/233
f 96/116/234 164/218/234 163/216/234 100/124/234
f 100/124/235 163/216/235 161/214/235 94/113/235
f 59/67/274 166/221/274 168/226/274 66/74/274
f 66/74/275 168/226/275 167/224/275 61/69/275
f 61/69/276 167/224/276 165/219/276 57/65/276
f 169/227/277 181/240/277 185/244/277 172/230/277
f 172/230/278 185/244/278 190/249/278 176/235/278
f 176/235/279 190/249/279 183/242/279 170/228/279
f 193/252/280 171/229/280 179/238/280 196/256/280
f 196/256/281 179/238/281 175/233/281 200/261/281
f 200/261/282 175/233/282 170/228/282 194/253/282
f 182/241/283 205/266/283 209/272/283 187/246/283
f 187/246/284 209/272/284 214/278/284 191/250/284
f 191/250/285 214/278/285 207/268/285 183/242/285
f 194/254/286 207/269/286 215/280/286 199/259/286
f 199/259/287 215/280/287 211/275/287 203/264/287
f 203/264/288 211/275/288 206/267/288 195/255/288
f 217/283/289 229/300/289 233/304/289 220/287/289
f 220/287/290 233/304/290 238/309/290 224/294/290
f 224/294/291 238/309/291 231/302/291 218/284/291
f 230/301/292 241/313/292 245/317/292 235/306/292
f 235/306/293 245/317/293 250/322/293 239/311/293
f 239/311/294 250/322/294 243/315/294 231/302/294
f 255/328/295 243/315/295 251/324/295 262/336/295
f 262/336/296 251/324/296 247/319/296 257/331/296
f 257/331/297 247/319/297 242/314/297 253/326/297
f 218/285/298 255/329/298 263/338/298 223/292/298
f 223/292/299 263/338/299 259/333/299 227/298/299
f 227/298/300 259/333/300 254/327/300 219/286/300
f 265/340/301 277/357/301 281/363/301 268/344/301
f 268/344/302 281/363/302 286/369/302 272/349/302
f 272/349/303 286/369/303 279/359/303 266/341/303
f 278/358/304 289/374/304 293/379/304 283/366/304
f 283/366/305 293/379/305 298/386/305 287/371/305
f 287/371/306 298/386/306 291/376/306 279/360/306
f 290/375/307 301/391/307 305/396/307 295/381/307
f 295/381/308 305/396/308 310/401/308 299/388/308
f 299/388/309 310/401/309 303/393/309 291/377/309
f 302/392/310 267/343/310 275/354/310 307/398/310
f 307/398/311 275/354/311 271/347/311 311/403/311
f 311/403/312 271/347/312 266/342/312 303/394/312
f 313/405/313 325/422/313 329/426/313 316/409/313
f 316/409/314 329/426/314 334/431/314 320/414/314
f 320/414/315 334/431/315 327/424/315 314/406/315
f 326/423/316 337/435/316 341/440/316 331/428/316
f 331/428/317 341/440/317 346/447/317 335/433/317
f 335/433/318 346/447/318 339/437/318 327/424/318
f 314/407/319 350/453/319 356/461/319 319/412/319
f 319/412/320 356/461/320 352/456/320 323/419/320
f 323/419/321 352/456/321 349/452/321 315/408/321
f 338/436/322 351/455/322 359/464/322 343/442/322
f 343/442/323 359/464/323 355/459/323 347/449/323
f 347/449/324 355/459/324 350/454/324 339/438/324
f 363/468/325 374/479/325 380/486/325 370/475/325
f 370/475/248 380/486/248 376/481/248 365/470/248
f 365/470/326 376/481/326 373/478/326 361/466/326
f 387/495/327 363/468/327 371/476/327 394/502/327
f 394/502/267 371/476/267 367/472/267 389/497/267
f 389/497/328 367/472/328 362/467/328 385/493/328
f 374/479/329 398/506/329 404/516/329 379/485/329
f 379/485/272 404/516/272 400/508/272 383/489/272
f 383/490/330 400/509/330 397/505/330 375/480/330
f 386/494/331 399/507/331 407/519/331 391/499/331
f 391/499/254 407/519/254 403/515/254 395/503/254
f 395/503/332 403/515/332 398/506/332 387/495/332
f 411/524/327 422/540/327 428/548/327 418/536/327
f 418/536/267 428/548/267 424/542/267 413/527/267
f 413/528/328 424/543/328 421/539/328 409/522/328
f 422/540/325 434/555/325 440/561/325 427/547/325
f 427/547/248 440/561/248 436/557/248 431/551/248
f 431/551/326 436/557/326 433/554/326 423/541/326
f 445/566/330 435/556/330 443/564/330 448/569/330
f 448/569/272 443/564/272 439/560/272 452/573/272
f 452/573/329 439/560/329 434/555/329 446/567/329
f 410/523/331 447/568/331 455/576/331 415/532/331
f 415/532/254 455/576/254 451/572/254 419/537/254
f 419/537/332 451/572/332 446/567/332 411/524/332
f 459/580/329 470/596/329 476/606/329 466/592/329
f 466/592/272 476/606/272 472/598/272 461/582/272
f 461/583/330 472/599/330 469/595/330 457/578/330
f 470/596/332 482/614/332 488/622/332 475/605/332
f 475/605/254 488/622/254 484/616/254 479/609/254
f 479/610/331 484/617/331 481/613/331 471/597/331
f 482/614/327 494/631/327 500/637/327 487/621/327
f 487/621/267 500/637/267 496/633/267 491/626/267
f 491/626/328 496/633/328 493/630/328 483/615/328
f 494/631/325 459/580/325 467/593/325 499/636/325
f 499/636/248 467/593/248 463/586/248 503/640/248
f 503/640/326 463/586/326 458/579/326 495/632/326
f 507/644/332 518/660/332 524/668/332 514/656/332
f 514/656/254 524/668/254 520/662/254 509/646/254
f 509/647/331 520/663/331 517/659/331 505/642/331
f 518/660/327 530/676/327 536/684/327 523/667/327
f 523/667/267 536/684/267 532/678/267 527/671/267
f 527/672/328 532/679/328 529/675/328 519/661/328
f 506/643/330 541/692/330 545/696/330 511/650/330
f 511/650/272 545/696/272 550/701/272 515/657/272
f 515/657/329 550/701/329 543/694/329 507/644/329
f 530/676/325 543/694/325 551/702/325 535/683/325
f 535/683/248 551/702/248 547/698/248 539/688/248
f 539/688/326 547/698/326 542/693/326 531/677/326
f 171/229/333 362/467/333 368/473/333 178/237/333
f 178/237/334 368/473/334 364/469/334 173/231/334
f 173/231/335 364/469/335 361/466/335 169/227/335
f 375/480/336 182/241/336 188/247/336 382/488/336
f 382/488/337 188/247/337 184/243/337 377/482/337
f 377/482/338 184/243/338 181/240/338 373/478/338
f 219/286/339 410/523/339 416/533/339 226/297/339
f 226/297/340 416/533/340 412/525/340 221/288/340
f 221/289/341 412/526/341 409/522/341 217/283/341
f 423/541/335 230/301/335 236/307/335 430/550/335
f 430/550/334 236/307/334 232/303/334 425/544/334
f 425/544/333 232/303/333 229/300/333 421/539/333
f 195/255/339 386/494/339 392/500/339 202/263/339
f 202/263/340 392/500/340 388/496/340 197/257/340
f 197/257/341 388/496/341 385/493/341 193/252/341
f 267/343/338 458/579/338 464/587/338 274/352/338
f 274/353/337 464/588/337 460/581/337 269/345/337
f 269/345/336 460/581/336 457/578/336 265/340/336
f 471/597/342 278/358/342 284/367/342 478/608/342
f 478/608/343 284/367/343 280/361/343 473/600/343
f 473/601/344 280/362/344 277/357/344 469/595/344
f 435/556/336 242/314/336 248/320/336 442/563/336
f 442/563/337 248/320/337 244/316/337 437/558/337
f 437/558/338 244/316/338 241/313/338 433/554/338
f 315/408/344 506/643/344 512/651/344 322/417/344
f 322/418/343 512/652/343 508/645/343 317/410/343
f 317/410/342 508/645/342 505/642/342 313/405/342
f 519/661/341 326/423/341 332/429/341 526/670/341
f 526/670/340 332/429/340 328/425/340 521/664/340
f 521/664/339 328/425/339 325/422/339 517/659/339
f 399/507/342 206/267/342 212/276/342 406/518/342
f 406/518/343 212/276/343 208/270/343 401/510/343
f 401/511/344 208/271/344 205/266/344 397/505/344
f 483/615/341 290/375/341 296/382/341 490/624/341
f 490/625/340 296/383/340 292/378/340 485/618/340
f 485/618/339 292/378/339 289/374/339 481/613/339
f 447/568/342 254/327/342 260/334/342 454/575/342
f 454/575/343 260/334/343 256/330/343 449/570/343
f 449/570/344 256/330/344 253/326/344 445/566/344
f 531/677/335 338/436/335 344/443/335 538/686/335
f 538/687/334 344/444/334 340/439/334 533/680/334
f 533/680/333 340/439/333 337/435/333 529/675/333
f 495/632/335 302/392/335 308/399/335 502/639/335
f 502/639/334 308/399/334 304/395/334 497/634/334
f 497/634/333 304/395/333 301/391/333 493/630/333
f 351/455/338 542/693/338 548/699/338 358/463/338
f 358/463/337 548/699/337 544/695/337 353/457/337
f 353/457/336 544/695/336 541/692/336 349/452/336
f 22/23/5 9/9/5 133/169/5 125/160/5
