# Blender 3.4.1
# www.blender.org
mtllib table_oval130.mtl
g Cube_Меш
v 0.324978 0.618593 -0.349793
v 0.324978 0.618593 0.349793
v -0.324978 0.618593 0.349793
v -0.324978 0.618593 -0.349793
v -0.325143 0.539120 -0.349671
v -0.325143 0.539120 0.349671
v 0.325143 0.539120 0.349671
v 0.325143 0.539120 -0.349671
v 0.425417 0.618593 -0.379394
v 0.354993 0.618593 -0.449818
v 0.375517 0.618593 -0.400124
v 0.415982 0.618593 -0.414606
v 0.390205 0.618593 -0.440382
v 0.354993 0.539120 -0.449818
v 0.425417 0.539120 -0.379394
v 0.375588 0.539120 -0.400052
v 0.390205 0.539120 -0.440382
v 0.415982 0.539120 -0.414606
v 0.354993 0.618593 0.449818
v 0.425417 0.618593 0.379394
v 0.375517 0.618593 0.400124
v 0.390205 0.618593 0.440382
v 0.415982 0.618593 0.414606
v 0.425417 0.539120 0.379394
v 0.354993 0.539120 0.449818
v 0.375588 0.539120 0.400052
v 0.415982 0.539120 0.414606
v 0.390205 0.539120 0.440382
v -0.354993 0.618593 -0.449818
v -0.425417 0.618593 -0.379394
v -0.375517 0.618593 -0.400124
v -0.390205 0.618593 -0.440382
v -0.415982 0.618593 -0.414606
v -0.425417 0.539120 -0.379394
v -0.354993 0.539120 -0.449818
v -0.375588 0.539120 -0.400052
v -0.415982 0.539120 -0.414606
v -0.390205 0.539120 -0.440382
v -0.425417 0.618593 0.379394
v -0.354993 0.618593 0.449818
v -0.375517 0.618593 0.400124
v -0.415982 0.618593 0.414606
v -0.390205 0.618593 0.440382
v -0.354993 0.539120 0.449818
v -0.425417 0.539120 0.379394
v -0.375588 0.539120 0.400052
v -0.390205 0.539120 0.440382
v -0.415982 0.539120 0.414606
v -0.399063 0.003764 -0.353820
v -0.399063 0.544195 -0.353820
v -0.399063 0.003764 -0.423810
v -0.399063 0.544195 -0.423810
v -0.329074 0.003764 -0.353820
v -0.329074 0.544195 -0.353820
v -0.329074 0.003764 -0.423810
v -0.329074 0.544195 -0.423810
v -0.399077 0.000209 0.421805
v -0.399077 0.540093 0.421805
v -0.399077 0.000209 0.351805
v -0.399077 0.540093 0.351805
v -0.329077 0.000209 0.421805
v -0.329077 0.540093 0.421805
v -0.329077 0.000209 0.351805
v -0.329077 0.540093 0.351805
v 0.328837 0.001323 0.421937
v 0.328837 0.541461 0.421937
v 0.328837 0.001323 0.351937
v 0.328837 0.541461 0.351937
v 0.398837 0.001323 0.421937
v 0.398837 0.541461 0.421937
v 0.398837 0.001323 0.351937
v 0.398837 0.541461 0.351937
v 0.328764 0.000356 -0.353927
v 0.328764 0.540830 -0.353927
v 0.328764 0.000356 -0.423927
v 0.328764 0.540830 -0.423927
v 0.398764 0.000356 -0.353927
v 0.398764 0.540830 -0.353927
v 0.398764 0.000356 -0.423927
v 0.398764 0.540830 -0.423927
v -0.034094 0.617274 0.650000
v -0.501092 0.617274 0.183002
v -0.125201 0.617274 0.641027
v -0.212806 0.617274 0.614452
v -0.293544 0.617274 0.571297
v -0.364311 0.617274 0.513219
v -0.422388 0.617274 0.442452
v -0.465544 0.617274 0.361714
v -0.492119 0.617274 0.274109
v -0.501092 0.687246 0.183002
v -0.034094 0.687246 0.650000
v -0.492119 0.687246 0.274109
v -0.465544 0.687246 0.361714
v -0.422388 0.687246 0.442452
v -0.364311 0.687246 0.513219
v -0.293544 0.687246 0.571297
v -0.212806 0.687246 0.614452
v -0.125201 0.687246 0.641027
v -0.501092 0.617274 -0.183002
v -0.034094 0.617274 -0.650000
v -0.492119 0.617274 -0.274109
v -0.465544 0.617274 -0.361714
v -0.422388 0.617274 -0.442452
v -0.364311 0.617274 -0.513219
v -0.293544 0.617274 -0.571297
v -0.212806 0.617274 -0.614452
v -0.125201 0.617274 -0.641027
v -0.034094 0.687246 -0.650000
v -0.501092 0.687246 -0.183002
v -0.125201 0.687246 -0.641027
v -0.212806 0.687246 -0.614452
v -0.293544 0.687246 -0.571297
v -0.364311 0.687246 -0.513219
v -0.422388 0.687246 -0.442452
v -0.465544 0.687246 -0.361714
v -0.492119 0.687246 -0.274109
v 0.501092 0.617274 0.183002
v 0.034094 0.617274 0.650000
v 0.492119 0.617274 0.274109
v 0.465544 0.617274 0.361714
v 0.422388 0.617274 0.442452
v 0.364311 0.617274 0.513219
v 0.293544 0.617274 0.571297
v 0.212806 0.617274 0.614452
v 0.125201 0.617274 0.641027
v 0.034094 0.687246 0.650000
v 0.501092 0.687246 0.183002
v 0.125201 0.687246 0.641027
v 0.212806 0.687246 0.614452
v 0.293544 0.687246 0.571297
v 0.364311 0.687246 0.513219
v 0.422388 0.687246 0.442452
v 0.465544 0.687246 0.361714
v 0.492119 0.687246 0.274109
v 0.034094 0.617274 -0.650000
v 0.501092 0.617274 -0.183002
v 0.125201 0.617274 -0.641027
v 0.212806 0.617274 -0.614452
v 0.293544 0.617274 -0.571297
v 0.364311 0.617274 -0.513219
v 0.422388 0.617274 -0.442452
v 0.465544 0.617274 -0.361714
v 0.492119 0.617274 -0.274109
v 0.501092 0.687246 -0.183002
v 0.034094 0.687246 -0.650000
v 0.492119 0.687246 -0.274109
v 0.465544 0.687246 -0.361714
v 0.422388 0.687246 -0.442452
v 0.364311 0.687246 -0.513219
v 0.293544 0.687246 -0.571297
v 0.212806 0.687246 -0.614452
v 0.125201 0.687246 -0.641027
vn -0.0000 1.0000 -0.0000
vn -0.0000 -0.0000 -1.0000
vn -0.0000 -1.0000 -0.0000
vn 1.0000 -0.0000 -0.0000
vn 1.0000 -0.0021 -0.0000
vn -0.0000 -0.0000 1.0000
vn -0.0000 0.0015 -1.0000
vn -1.0000 -0.0000 -0.0000
vn -1.0000 -0.0021 -0.0000
vn -0.0000 0.0015 1.0000
vn -0.2588 -0.0000 0.9659
vn -0.7071 -0.0000 0.7071
vn -0.9659 -0.0000 0.2588
vn 0.9659 -0.0000 -0.2588
vn 0.7071 -0.0000 -0.7071
vn 0.2588 -0.0000 -0.9659
vn -0.2588 -0.0000 -0.9659
vn -0.7071 -0.0000 -0.7071
vn -0.9659 -0.0000 -0.2588
vn 0.2588 -0.0000 0.9659
vn 0.7071 -0.0000 0.7071
vn 0.9659 -0.0000 0.2588
vn -0.0980 -0.0000 0.9952
vn -0.2903 -0.0000 0.9569
vn -0.4714 -0.0000 0.8819
vn -0.6344 -0.0000 0.7730
vn -0.7730 -0.0000 0.6344
vn -0.8819 -0.0000 0.4714
vn -0.9569 -0.0000 0.2903
vn -0.9952 -0.0000 0.0980
vn -0.0980 -0.0000 -0.9952
vn -0.2903 -0.0000 -0.9569
vn -0.4714 -0.0000 -0.8819
vn -0.6344 -0.0000 -0.7730
vn -0.7730 -0.0000 -0.6344
vn -0.8819 -0.0000 -0.4714
vn -0.9569 -0.0000 -0.2903
vn -0.9952 -0.0000 -0.0980
vn 0.9952 -0.0000 -0.0980
vn 0.9569 -0.0000 -0.2903
vn 0.8819 -0.0000 -0.4714
vn 0.7730 -0.0000 -0.6344
vn 0.6344 -0.0000 -0.7730
vn 0.4714 -0.0000 -0.8819
vn 0.2903 -0.0000 -0.9569
vn 0.0980 -0.0000 -0.9952
vn 0.0980 -0.0000 0.9952
vn 0.2903 -0.0000 0.9569
vn 0.4714 -0.0000 0.8819
vn 0.6344 -0.0000 0.7730
vn 0.7730 -0.0000 0.6344
vn 0.8819 -0.0000 0.4714
vn 0.9569 -0.0000 0.2903
vn 0.9952 -0.0000 0.0980
vt 0.625000 0.500000
vt 0.625000 0.750000
vt 0.625000 0.000000
vt 0.625000 1.000000
vt 0.625000 0.250000
vt 0.375000 0.250000
vt 0.375000 0.000000
vt 0.375000 1.000000
vt 0.375000 0.750000
vt 0.375000 0.500000
vt 0.625000 0.513547
vt 0.625000 0.500000
vt 0.625000 0.479307
vt 0.625000 0.500000
vt 0.625000 0.506773
vt 0.625000 0.501815
vt 0.625000 0.489654
vt 0.375000 0.479307
vt 0.375000 0.500000
vt 0.375000 0.513547
vt 0.375000 0.500000
vt 0.375000 0.489654
vt 0.375000 0.497228
vt 0.375000 0.506773
vt 0.625000 0.770693
vt 0.625000 0.750000
vt 0.625000 0.736453
vt 0.625000 0.750000
vt 0.625000 0.760346
vt 0.625000 0.752772
vt 0.625000 0.743227
vt 0.375000 0.736453
vt 0.375000 0.750000
vt 0.375000 0.770693
vt 0.375000 0.750000
vt 0.375000 0.743227
vt 0.375000 0.748185
vt 0.375000 0.760346
vt 0.625000 0.270693
vt 0.625000 0.250000
vt 0.625000 0.236453
vt 0.625000 0.250000
vt 0.625000 0.260346
vt 0.625000 0.252772
vt 0.625000 0.243227
vt 0.375000 0.236453
vt 0.375000 0.250000
vt 0.375000 0.270693
vt 0.375000 0.250000
vt 0.375000 0.243227
vt 0.375000 0.248185
vt 0.375000 0.260346
vt 0.625000 0.013547
vt 0.625000 0.000000
vt 0.625000 0.979307
vt 0.625000 0.000000
vt 0.625000 1.000000
vt 0.625000 0.006773
vt 0.625000 1.000000
vt 0.625000 0.000000
vt 0.375000 0.000000
vt 0.375000 0.979307
vt 0.375000 0.013547
vt 0.375000 1.000000
vt 0.375000 0.000000
vt 0.375000 0.000000
vt 0.375000 1.000000
vt 0.375000 0.006773
vt 0.375000 0.000000
vt 0.375000 1.000000
vt 0.125000 0.750000
vt 0.625000 0.000000
vt 0.625000 1.000000
vt 0.875000 0.750000
vt 0.125000 0.500000
vt 0.375000 0.250000
vt 0.625000 0.250000
vt 0.875000 0.500000
vt 0.375000 0.750000
vt 0.625000 0.750000
vt 0.375000 0.500000
vt 0.625000 0.500000
vt 0.375000 0.000000
vt 0.375000 1.000000
vt 0.125000 0.750000
vt 0.625000 0.000000
vt 0.625000 1.000000
vt 0.875000 0.750000
vt 0.125000 0.500000
vt 0.375000 0.250000
vt 0.625000 0.250000
vt 0.875000 0.500000
vt 0.375000 0.750000
vt 0.625000 0.750000
vt 0.375000 0.500000
vt 0.625000 0.500000
vt 0.375000 0.000000
vt 0.375000 1.000000
vt 0.125000 0.750000
vt 0.625000 0.000000
vt 0.625000 1.000000
vt 0.875000 0.750000
vt 0.125000 0.500000
vt 0.375000 0.250000
vt 0.625000 0.250000
vt 0.875000 0.500000
vt 0.375000 0.750000
vt 0.625000 0.750000
vt 0.375000 0.500000
vt 0.625000 0.500000
vt 0.375000 0.000000
vt 0.375000 1.000000
vt 0.125000 0.750000
vt 0.625000 0.000000
vt 0.625000 1.000000
vt 0.875000 0.750000
vt 0.125000 0.500000
vt 0.375000 0.250000
vt 0.625000 0.250000
vt 0.875000 0.500000
vt 0.375000 0.750000
vt 0.625000 0.750000
vt 0.375000 0.500000
vt 0.625000 0.500000
vt 0.000000 0.000000
vt 0.000000 0.000000
vt 0.000000 0.000000
vt 0.000000 0.000000
vt 0.000000 0.000000
vt 0.000000 0.000000
vt 0.000000 0.000000
vt 0.000000 0.000000
vt 0.000000 0.000000
vt 0.000000 0.000000
vt 0.000000 0.000000
vt 0.000000 0.000000
vt 0.000000 0.000000
vt 0.000000 0.000000
vt 0.000000 0.000000
vt 0.000000 0.000000
vt 0.000000 0.000000
vt 0.000000 0.000000
vt 0.000000 0.000000
vt 0.000000 0.000000
vt 0.000000 0.000000
vt 0.000000 0.000000
vt 0.000000 0.000000
vt 0.000000 0.000000
vt 0.000000 0.000000
vt 0.000000 0.000000
vt 0.000000 0.000000
vt 0.000000 0.000000
vt 0.000000 0.000000
vt 0.000000 0.000000
vt 0.000000 0.000000
vt 0.000000 0.000000
vt 0.000000 0.000000
vt 0.000000 0.000000
vt 0.000000 0.000000
vt 0.000000 0.000000
vt 0.000000 0.000000
vt 0.000000 0.000000
vt 0.000000 0.000000
vt 0.000000 0.000000
vt 0.000000 0.000000
vt 0.000000 0.000000
vt 0.000000 0.000000
vt 0.000000 0.000000
vt 0.000000 0.000000
vt 0.000000 0.000000
vt 0.000000 0.000000
vt 0.000000 0.000000
vt 0.000000 0.000000
vt 0.000000 0.000000
vt 0.000000 0.000000
vt 0.000000 0.000000
vt 0.000000 0.000000
vt 0.000000 0.000000
vt 0.000000 0.000000
vt 0.000000 0.000000
vt 0.000000 0.000000
vt 0.000000 0.000000
vt 0.000000 0.000000
vt 0.000000 0.000000
vt 0.000000 0.000000
vt 0.000000 0.000000
vt 0.000000 0.000000
vt 0.000000 0.000000
vt 0.000000 0.000000
vt 0.000000 0.000000
vt 0.000000 0.000000
vt 0.000000 0.000000
vt 0.000000 0.000000
vt 0.000000 0.000000
vt 0.000000 0.000000
vt 0.000000 0.000000
s 0
g off
g Cube_Material
usemtl Material
f 30/41/1 41/56/1 4/5/1
f 10/13/1 31/42/1 1/1/1
f 29/39/2 14/18/2 35/48/2
f 25/34/3 46/64/3 7/9/3
f 15/20/3 26/35/3 8/10/3
f 9/11/4 24/32/4 15/20/4
f 6/7/5 4/5/5 3/3/5
f 35/48/3 16/21/3 5/6/3
f 19/25/6 44/62/6 25/34/6
f 45/63/3 36/49/3 6/7/3
f 7/9/7 3/3/7 2/2/7
f 40/55/1 21/28/1 3/4/1
f 39/53/8 34/46/8 45/63/8
f 8/10/9 2/2/9 1/1/9
f 5/6/10 1/1/10 4/5/10
f 9/11/1 12/15/1 11/14/1
f 12/15/1 13/16/1 11/14/1
f 13/16/1 10/12/1 11/14/1
f 14/18/3 17/22/3 16/21/3
f 17/22/3 18/23/3 16/21/3
f 18/23/3 15/19/3 16/21/3
f 19/25/1 22/29/1 21/28/1
f 22/29/1 23/30/1 21/28/1
f 23/30/1 20/26/1 21/28/1
f 24/32/3 27/36/3 26/35/3
f 27/36/3 28/37/3 26/35/3
f 28/37/3 25/33/3 26/35/3
f 29/39/1 32/43/1 31/42/1
f 32/43/1 33/44/1 31/42/1
f 33/44/1 30/40/1 31/42/1
f 34/46/3 37/50/3 36/49/3
f 37/50/3 38/51/3 36/49/3
f 38/51/3 35/47/3 36/49/3
f 39/53/1 42/58/1 41/56/1
f 42/58/1 43/60/1 41/56/1
f 43/60/1 40/54/1 41/56/1
f 44/61/3 47/66/3 46/65/3
f 47/66/3 48/68/3 46/65/3
f 48/68/3 45/63/3 46/65/3
f 40/55/11 47/67/11 44/62/11
f 43/60/12 48/68/12 47/66/12
f 42/58/13 45/63/13 48/68/13
f 15/20/14 12/15/14 9/11/14
f 18/24/15 13/17/15 12/15/15
f 17/22/16 10/13/16 13/17/16
f 35/48/17 32/43/17 29/39/17
f 38/52/18 33/45/18 32/43/18
f 37/50/19 30/41/19 33/45/19
f 25/34/20 22/29/20 19/25/20
f 28/38/21 23/31/21 22/29/21
f 27/36/22 20/27/22 23/31/22
f 20/27/1 11/14/1 2/2/1
f 50/72/8 51/76/8 49/69/8
f 52/77/2 55/81/2 51/76/2
f 56/82/4 53/79/4 55/81/4
f 54/80/6 49/70/6 53/79/6
f 55/81/3 49/71/3 51/75/3
f 52/78/1 54/80/1 56/82/1
f 58/86/8 59/90/8 57/83/8
f 60/91/2 63/95/2 59/90/2
f 64/96/4 61/93/4 63/95/4
f 62/94/6 57/84/6 61/93/6
f 63/95/3 57/85/3 59/89/3
f 60/92/1 62/94/1 64/96/1
f 66/100/8 67/104/8 65/97/8
f 68/105/2 71/109/2 67/104/2
f 72/110/4 69/107/4 71/109/4
f 70/108/6 65/98/6 69/107/6
f 71/109/3 65/99/3 67/103/3
f 68/106/1 70/108/1 72/110/1
f 74/114/8 75/118/8 73/111/8
f 76/119/2 79/123/2 75/118/2
f 80/124/4 77/121/4 79/123/4
f 78/122/6 73/112/6 77/121/6
f 79/123/3 73/113/3 75/117/3
f 76/120/1 78/122/1 80/124/1
f 118/162/6 91/135/6 81/125/6
f 144/188/4 117/161/4 136/180/4
f 152/196/1 96/140/1 131/175/1
f 90/134/8 99/143/8 82/126/8
f 100/144/2 145/189/2 135/179/2
f 81/125/23 98/142/23 83/127/23
f 98/142/24 84/128/24 83/127/24
f 97/141/25 85/129/25 84/128/25
f 96/140/26 86/130/26 85/129/26
f 95/139/27 87/131/27 86/130/27
f 94/138/28 88/132/28 87/131/28
f 93/137/29 89/133/29 88/132/29
f 89/133/30 90/134/30 82/126/30
f 108/152/31 107/151/31 110/154/31
f 107/151/32 111/155/32 110/154/32
f 106/150/33 112/156/33 111/155/33
f 105/149/34 113/157/34 112/156/34
f 104/148/35 114/158/35 113/157/35
f 103/147/36 115/159/36 114/158/36
f 102/146/37 116/160/37 115/159/37
f 116/160/38 99/143/38 109/153/38
f 144/188/39 143/187/39 146/190/39
f 143/187/40 147/191/40 146/190/40
f 142/186/41 148/192/41 147/191/41
f 141/185/42 149/193/42 148/192/42
f 140/184/43 150/194/43 149/193/43
f 139/183/44 151/195/44 150/194/44
f 138/182/45 152/196/45 151/195/45
f 152/196/46 135/179/46 145/189/46
f 126/170/47 125/169/47 128/172/47
f 125/169/48 129/173/48 128/172/48
f 124/168/49 130/174/49 129/173/49
f 123/167/50 131/175/50 130/174/50
f 122/166/51 132/176/51 131/175/51
f 121/165/52 133/177/52 132/176/52
f 120/164/53 134/178/53 133/177/53
f 134/178/54 117/161/54 127/171/54
f 107/151/3 123/167/3 86/130/3
f 4/5/1 31/42/1 30/41/1
f 30/41/1 39/53/1 41/56/1
f 41/56/1 3/3/1 4/5/1
f 1/1/1 11/14/1 10/13/1
f 10/13/1 29/39/1 31/42/1
f 31/42/1 4/5/1 1/1/1
f 29/39/2 10/13/2 14/18/2
f 7/9/3 26/35/3 25/34/3
f 25/34/3 44/62/3 46/64/3
f 46/64/3 6/8/3 7/9/3
f 8/10/3 16/21/3 15/20/3
f 15/20/3 24/32/3 26/35/3
f 26/35/3 7/9/3 8/10/3
f 9/11/4 20/27/4 24/32/4
f 6/7/5 5/6/5 4/5/5
f 5/6/3 36/49/3 35/48/3
f 35/48/3 14/18/3 16/21/3
f 16/21/3 8/10/3 5/6/3
f 19/25/6 40/55/6 44/62/6
f 6/7/3 46/65/3 45/63/3
f 45/63/3 34/46/3 36/49/3
f 36/49/3 5/6/3 6/7/3
f 7/9/7 6/8/7 3/3/7
f 3/4/1 41/57/1 40/55/1
f 40/55/1 19/25/1 21/28/1
f 21/28/1 2/2/1 3/4/1
f 39/53/8 30/41/8 34/46/8
f 8/10/9 7/9/9 2/2/9
f 5/6/10 8/10/10 1/1/10
f 40/55/11 43/59/11 47/67/11
f 43/60/12 42/58/12 48/68/12
f 42/58/13 39/53/13 45/63/13
f 15/20/14 18/24/14 12/15/14
f 18/24/15 17/22/15 13/17/15
f 17/22/16 14/18/16 10/13/16
f 35/48/17 38/52/17 32/43/17
f 38/52/18 37/50/18 33/45/18
f 37/50/19 34/46/19 30/41/19
f 25/34/20 28/38/20 22/29/20
f 28/38/21 27/36/21 23/31/21
f 27/36/22 24/32/22 20/27/22
f 2/2/1 21/28/1 20/27/1
f 20/27/1 9/11/1 11/14/1
f 11/14/1 1/1/1 2/2/1
f 50/72/8 52/77/8 51/76/8
f 52/77/2 56/82/2 55/81/2
f 56/82/4 54/80/4 53/79/4
f 54/80/6 50/73/6 49/70/6
f 55/81/3 53/79/3 49/71/3
f 52/78/1 50/74/1 54/80/1
f 58/86/8 60/91/8 59/90/8
f 60/91/2 64/96/2 63/95/2
f 64/96/4 62/94/4 61/93/4
f 62/94/6 58/87/6 57/84/6
f 63/95/3 61/93/3 57/85/3
f 60/92/1 58/88/1 62/94/1
f 66/100/8 68/105/8 67/104/8
f 68/105/2 72/110/2 71/109/2
f 72/110/4 70/108/4 69/107/4
f 70/108/6 66/101/6 65/98/6
f 71/109/3 69/107/3 65/99/3
f 68/106/1 66/102/1 70/108/1
f 74/114/8 76/119/8 75/118/8
f 76/119/2 80/124/2 79/123/2
f 80/124/4 78/122/4 77/121/4
f 78/122/6 74/115/6 73/112/6
f 79/123/3 77/121/3 73/113/3
f 76/120/1 74/116/1 78/122/1
f 118/162/6 126/170/6 91/135/6
f 144/188/4 127/171/4 117/161/4
f 127/171/1 144/188/1 146/190/1
f 146/190/1 147/191/1 148/192/1
f 148/192/1 149/193/1 150/194/1
f 150/194/1 151/195/1 152/196/1
f 152/196/1 145/189/1 108/152/1
f 108/152/1 110/154/1 111/155/1
f 111/155/1 112/156/1 113/157/1
f 113/157/1 114/158/1 115/159/1
f 115/159/1 116/160/1 109/153/1
f 109/153/1 90/134/1 92/136/1
f 92/136/1 93/137/1 94/138/1
f 94/138/1 95/139/1 96/140/1
f 96/140/1 97/141/1 98/142/1
f 98/142/1 91/135/1 126/170/1
f 126/170/1 128/172/1 129/173/1
f 129/173/1 130/174/1 131/175/1
f 131/175/1 132/176/1 133/177/1
f 133/177/1 134/178/1 127/171/1
f 127/171/1 146/190/1 148/192/1
f 148/192/1 150/194/1 152/196/1
f 152/196/1 108/152/1 111/155/1
f 111/155/1 113/157/1 115/159/1
f 115/159/1 109/153/1 92/136/1
f 92/136/1 94/138/1 96/140/1
f 96/140/1 98/142/1 126/170/1
f 126/170/1 129/173/1 131/175/1
f 131/175/1 133/177/1 127/171/1
f 127/171/1 148/192/1 152/196/1
f 152/196/1 111/155/1 115/159/1
f 115/159/1 92/136/1 96/140/1
f 96/140/1 126/170/1 131/175/1
f 131/175/1 127/171/1 152/196/1
f 152/196/1 115/159/1 96/140/1
f 90/134/8 109/153/8 99/143/8
f 100/144/2 108/152/2 145/189/2
f 81/125/23 91/135/23 98/142/23
f 98/142/24 97/141/24 84/128/24
f 97/141/25 96/140/25 85/129/25
f 96/140/26 95/139/26 86/130/26
f 95/139/27 94/138/27 87/131/27
f 94/138/28 93/137/28 88/132/28
f 93/137/29 92/136/29 89/133/29
f 89/133/30 92/136/30 90/134/30
f 108/152/31 100/144/31 107/151/31
f 107/151/32 106/150/32 111/155/32
f 106/150/33 105/149/33 112/156/33
f 105/149/34 104/148/34 113/157/34
f 104/148/35 103/147/35 114/158/35
f 103/147/36 102/146/36 115/159/36
f 102/146/37 101/145/37 116/160/37
f 116/160/38 101/145/38 99/143/38
f 144/188/39 136/180/39 143/187/39
f 143/187/40 142/186/40 147/191/40
f 142/186/41 141/185/41 148/192/41
f 141/185/42 140/184/42 149/193/42
f 140/184/43 139/183/43 150/194/43
f 139/183/44 138/182/44 151/195/44
f 138/182/45 137/181/45 152/196/45
f 152/196/46 137/181/46 135/179/46
f 126/170/47 118/162/47 125/169/47
f 125/169/48 124/168/48 129/173/48
f 124/168/49 123/167/49 130/174/49
f 123/167/50 122/166/50 131/175/50
f 122/166/51 121/165/51 132/176/51
f 121/165/52 120/164/52 133/177/52
f 120/164/53 119/163/53 134/178/53
f 134/178/54 119/163/54 117/161/54
f 82/126/3 99/143/3 101/145/3
f 101/145/3 102/146/3 103/147/3
f 103/147/3 104/148/3 105/149/3
f 105/149/3 106/150/3 107/151/3
f 107/151/3 100/144/3 135/179/3
f 135/179/3 137/181/3 138/182/3
f 138/182/3 139/183/3 140/184/3
f 140/184/3 141/185/3 142/186/3
f 142/186/3 143/187/3 136/180/3
f 136/180/3 117/161/3 119/163/3
f 119/163/3 120/164/3 121/165/3
f 121/165/3 122/166/3 123/167/3
f 123/167/3 124/168/3 125/169/3
f 125/169/3 118/162/3 81/125/3
f 81/125/3 83/127/3 84/128/3
f 84/128/3 85/129/3 86/130/3
f 86/130/3 87/131/3 88/132/3
f 88/132/3 89/133/3 82/126/3
f 82/126/3 101/145/3 103/147/3
f 103/147/3 105/149/3 107/151/3
f 107/151/3 135/179/3 138/182/3
f 138/182/3 140/184/3 142/186/3
f 142/186/3 136/180/3 119/163/3
f 119/163/3 121/165/3 123/167/3
f 123/167/3 125/169/3 81/125/3
f 81/125/3 84/128/3 86/130/3
f 86/130/3 88/132/3 82/126/3
f 82/126/3 103/147/3 107/151/3
f 107/151/3 138/182/3 142/186/3
f 142/186/3 119/163/3 123/167/3
f 123/167/3 81/125/3 86/130/3
f 86/130/3 82/126/3 107/151/3
f 107/151/3 142/186/3 123/167/3
