# Blender 3.4.1
# www.blender.org
mtllib table_cir120.mtl
o Куб
v -0.349949 0.620202 0.360841
v -0.364949 0.620202 0.345841
v -0.360556 0.620202 0.356447
v -0.364949 0.670175 0.345841
v -0.349949 0.670175 0.360841
v -0.360556 0.670175 0.356447
v -0.364949 0.620202 -0.353875
v -0.349949 0.620202 -0.368875
v -0.360556 0.620202 -0.364482
v -0.349949 0.670175 -0.368875
v -0.364949 0.670175 -0.353875
v -0.360556 0.670175 -0.364482
v 0.365278 0.620202 0.345841
v 0.350278 0.620202 0.360841
v 0.360884 0.620202 0.356447
v 0.350278 0.670175 0.360841
v 0.365278 0.670175 0.345841
v 0.360884 0.670175 0.356447
v 0.350278 0.620202 -0.368875
v 0.365278 0.620202 -0.353875
v 0.360884 0.620202 -0.364482
v 0.365278 0.670175 -0.353875
v 0.350278 0.670175 -0.368875
v 0.360884 0.670175 -0.364482
v -0.349948 0.000239 0.360840
v -0.364948 0.000239 0.345840
v -0.360554 0.000239 0.356447
v -0.364948 0.620204 0.345840
v -0.349948 0.620204 0.360840
v -0.360554 0.620204 0.356447
v -0.364948 0.000239 0.275840
v -0.349948 0.000239 0.260840
v -0.360554 0.000239 0.265233
v -0.349948 0.620204 0.260840
v -0.364948 0.620204 0.275840
v -0.360554 0.620204 0.265233
v -0.264948 0.000239 0.345840
v -0.279947 0.000239 0.360840
v -0.269341 0.000239 0.356447
v -0.279947 0.620204 0.360840
v -0.264948 0.620204 0.345840
v -0.269341 0.620204 0.356447
v -0.279947 0.000239 0.260840
v -0.264948 0.000239 0.275840
v -0.269341 0.000239 0.265233
v -0.264948 0.620204 0.275840
v -0.279947 0.620204 0.260840
v -0.269341 0.620204 0.265233
v -0.349948 0.000352 -0.268824
v -0.364948 0.000352 -0.283824
v -0.360554 0.000352 -0.273217
v -0.364948 0.620202 -0.283824
v -0.349948 0.620202 -0.268824
v -0.360554 0.620202 -0.273217
v -0.364948 0.000352 -0.353824
v -0.349948 0.000352 -0.368823
v -0.360554 0.000352 -0.364430
v -0.349948 0.620202 -0.368823
v -0.364948 0.620202 -0.353824
v -0.360554 0.620202 -0.364430
v -0.264948 0.000352 -0.283824
v -0.279948 0.000352 -0.268824
v -0.269341 0.000352 -0.273217
v -0.279948 0.620202 -0.268824
v -0.264948 0.620202 -0.283824
v -0.269341 0.620202 -0.273217
v -0.279948 0.000352 -0.368823
v -0.264948 0.000352 -0.353824
v -0.269341 0.000352 -0.364430
v -0.264948 0.620202 -0.353824
v -0.279948 0.620202 -0.368823
v -0.269341 0.620202 -0.364430
v 0.280277 -0.000038 0.360839
v 0.265277 -0.000038 0.345839
v 0.269671 -0.000038 0.356445
v 0.265277 0.620207 0.345839
v 0.280277 0.620207 0.360839
v 0.269671 0.620207 0.356445
v 0.265277 -0.000038 0.275839
v 0.280277 -0.000038 0.260839
v 0.269671 -0.000038 0.265232
v 0.280277 0.620207 0.260839
v 0.265277 0.620207 0.275839
v 0.269671 0.620207 0.265232
v 0.365277 -0.000038 0.345839
v 0.350277 -0.000038 0.360839
v 0.360884 -0.000038 0.356445
v 0.350277 0.620207 0.360839
v 0.365277 0.620207 0.345839
v 0.360884 0.620207 0.356445
v 0.350277 -0.000038 0.260839
v 0.365277 -0.000038 0.275839
v 0.360884 -0.000038 0.265232
v 0.365277 0.620207 0.275839
v 0.350277 0.620207 0.260839
v 0.360884 0.620207 0.265232
v 0.280278 0.000421 -0.268823
v 0.265278 0.000421 -0.283823
v 0.269671 0.000421 -0.273217
v 0.265278 0.620206 -0.283823
v 0.280278 0.620206 -0.268823
v 0.269671 0.620206 -0.273217
v 0.265278 0.000421 -0.353823
v 0.280278 0.000421 -0.368823
v 0.269671 0.000421 -0.364430
v 0.280278 0.620206 -0.368823
v 0.265278 0.620206 -0.353823
v 0.269671 0.620206 -0.364430
v 0.365278 0.000421 -0.283823
v 0.350278 0.000421 -0.268823
v 0.360884 0.000421 -0.273217
v 0.350278 0.620206 -0.268823
v 0.365278 0.620206 -0.283823
v 0.360884 0.620206 -0.273217
v 0.350278 0.000421 -0.368823
v 0.365278 0.000421 -0.353823
v 0.360884 0.000421 -0.364430
v 0.365278 0.620206 -0.353823
v 0.350278 0.620206 -0.368823
v 0.360884 0.620206 -0.364430
v 0.600000 0.740067 -0.044113
v 0.044113 0.740067 -0.600000
v 0.591555 0.740067 -0.140642
v 0.566476 0.740067 -0.234238
v 0.525525 0.740067 -0.322057
v 0.469947 0.740067 -0.401430
v 0.401430 0.740067 -0.469947
v 0.322057 0.740067 -0.525525
v 0.234238 0.740067 -0.566476
v 0.140642 0.740067 -0.591555
v 0.044113 0.670085 -0.600000
v 0.600000 0.670085 -0.044113
v 0.140642 0.670085 -0.591555
v 0.234238 0.670085 -0.566476
v 0.322057 0.670085 -0.525525
v 0.401430 0.670085 -0.469947
v 0.469947 0.670085 -0.401430
v 0.525525 0.670085 -0.322057
v 0.566476 0.670085 -0.234238
v 0.591555 0.670085 -0.140642
v 0.044113 0.740067 0.600000
v 0.600000 0.740067 0.044113
v 0.140642 0.740067 0.591555
v 0.234238 0.740067 0.566476
v 0.322057 0.740067 0.525525
v 0.401430 0.740067 0.469947
v 0.469947 0.740067 0.401430
v 0.525525 0.740067 0.322057
v 0.566476 0.740067 0.234238
v 0.591555 0.740067 0.140642
v 0.600000 0.670085 0.044113
v 0.044113 0.670085 0.600000
v 0.591555 0.670085 0.140642
v 0.566476 0.670085 0.234238
v 0.525525 0.670085 0.322057
v 0.469947 0.670085 0.401430
v 0.401430 0.670085 0.469947
v 0.322057 0.670085 0.525525
v 0.234238 0.670085 0.566476
v 0.140642 0.670085 0.591555
v -0.044113 0.740067 -0.600000
v -0.600000 0.740067 -0.044113
v -0.140642 0.740067 -0.591555
v -0.234238 0.740067 -0.566476
v -0.322057 0.740067 -0.525525
v -0.401430 0.740067 -0.469947
v -0.469947 0.740067 -0.401430
v -0.525525 0.740067 -0.322057
v -0.566476 0.740067 -0.234238
v -0.591555 0.740067 -0.140642
v -0.600000 0.670085 -0.044113
v -0.044113 0.670085 -0.600000
v -0.591555 0.670085 -0.140642
v -0.566476 0.670085 -0.234238
v -0.525525 0.670085 -0.322057
v -0.469947 0.670085 -0.401430
v -0.401430 0.670085 -0.469947
v -0.322057 0.670085 -0.525525
v -0.234238 0.670085 -0.566476
v -0.140642 0.670085 -0.591555
v -0.600000 0.740067 0.044113
v -0.044113 0.740067 0.600000
v -0.591555 0.740067 0.140642
v -0.566476 0.740067 0.234238
v -0.525525 0.740067 0.322057
v -0.469947 0.740067 0.401430
v -0.401430 0.740067 0.469947
v -0.322057 0.740067 0.525525
v -0.234238 0.740067 0.566476
v -0.140642 0.740067 0.591555
v -0.044113 0.670085 0.600000
v -0.600000 0.670085 0.044113
v -0.140642 0.670085 0.591555
v -0.234238 0.670085 0.566476
v -0.322057 0.670085 0.525525
v -0.401430 0.670085 0.469947
v -0.469947 0.670085 0.401430
v -0.525525 0.670085 0.322057
v -0.566476 0.670085 0.234238
v -0.591555 0.670085 0.140642
vn -0.0000 -0.0000 1.0000
vn 1.0000 -0.0000 -0.0000
vn -0.0000 -1.0000 -0.0000
vn -0.0000 1.0000 -0.0000
vn -1.0000 -0.0000 -0.0000
vn -0.0000 -0.0000 -1.0000
vn -0.3827 -0.0000 0.9239
vn -0.9239 -0.0000 0.3827
vn -0.3827 -0.0000 -0.9239
vn -0.9239 -0.0000 -0.3827
vn 0.9239 -0.0000 -0.3827
vn 0.3827 -0.0000 -0.9239
vn 0.3827 -0.0000 0.9239
vn 0.9239 -0.0000 0.3827
vn -0.0872 -0.0000 0.9962
vn -0.2588 -0.0000 0.9659
vn -0.4226 -0.0000 0.9063
vn -0.5736 -0.0000 0.8192
vn -0.7071 -0.0000 0.7071
vn -0.8192 -0.0000 0.5736
vn -0.9063 -0.0000 0.4226
vn -0.9659 -0.0000 0.2588
vn -0.9962 -0.0000 0.0872
vn -0.0872 -0.0000 -0.9962
vn -0.2588 -0.0000 -0.9659
vn -0.4226 -0.0000 -0.9063
vn -0.5736 -0.0000 -0.8192
vn -0.7071 -0.0000 -0.7071
vn -0.8192 -0.0000 -0.5736
vn -0.9063 -0.0000 -0.4226
vn -0.9659 -0.0000 -0.2588
vn -0.9962 -0.0000 -0.0872
vn 0.9962 -0.0000 -0.0872
vn 0.9659 -0.0000 -0.2588
vn 0.9063 -0.0000 -0.4226
vn 0.8192 -0.0000 -0.5736
vn 0.7071 -0.0000 -0.7071
vn 0.5736 -0.0000 -0.8192
vn 0.4226 -0.0000 -0.9063
vn 0.2588 -0.0000 -0.9659
vn 0.0872 -0.0000 -0.9962
vn 0.0872 -0.0000 0.9962
vn 0.2588 -0.0000 0.9659
vn 0.4226 -0.0000 0.9063
vn 0.5736 -0.0000 0.8192
vn 0.7071 -0.0000 0.7071
vn 0.8192 -0.0000 0.5736
vn 0.9063 -0.0000 0.4226
vn 0.9659 -0.0000 0.2588
vn 0.9962 -0.0000 0.0872
vt 0.375000 0.995833
vt 0.129167 0.750000
vt 0.375000 0.001875
vt 0.125000 0.748125
vt 0.375000 1.000000
vt 0.375000 0.000000
vt 0.126220 0.749451
vt 0.875000 0.748125
vt 0.625000 0.001875
vt 0.870833 0.750000
vt 0.625000 0.995833
vt 0.873780 0.749451
vt 0.625000 1.000000
vt 0.625000 0.000000
vt 0.375000 0.248125
vt 0.125000 0.501875
vt 0.375000 0.254167
vt 0.129167 0.500000
vt 0.375000 0.250000
vt 0.126220 0.500549
vt 0.870833 0.500000
vt 0.625000 0.254167
vt 0.875000 0.501875
vt 0.625000 0.248125
vt 0.873780 0.500549
vt 0.625000 0.250000
vt 0.375000 0.748125
vt 0.375000 0.754167
vt 0.370833 0.750000
vt 0.375000 0.750000
vt 0.373780 0.749451
vt 0.629167 0.750000
vt 0.625000 0.754167
vt 0.625000 0.748125
vt 0.626220 0.749451
vt 0.625000 0.750000
vt 0.375000 0.495833
vt 0.370833 0.500000
vt 0.375000 0.501875
vt 0.375000 0.500000
vt 0.373780 0.500549
vt 0.625000 0.501875
vt 0.629167 0.500000
vt 0.625000 0.495833
vt 0.626220 0.500549
vt 0.625000 0.500000
vt 0.162500 0.750000
vt 0.375000 0.962500
vt 0.125000 0.712500
vt 0.375000 0.037500
vt 0.135983 0.739016
vt 0.375000 1.000000
vt 0.375000 0.000000
vt 0.875000 0.712500
vt 0.625000 0.037500
vt 0.837500 0.750000
vt 0.625000 0.962500
vt 0.864016 0.739016
vt 0.625000 1.000000
vt 0.625000 0.000000
vt 0.125000 0.537500
vt 0.375000 0.212500
vt 0.162500 0.500000
vt 0.375000 0.287500
vt 0.135983 0.510983
vt 0.375000 0.250000
vt 0.837500 0.500000
vt 0.625000 0.287500
vt 0.875000 0.537500
vt 0.625000 0.212500
vt 0.864016 0.510983
vt 0.625000 0.250000
vt 0.375000 0.712500
vt 0.337500 0.750000
vt 0.375000 0.787500
vt 0.364017 0.739016
vt 0.375000 0.750000
vt 0.662500 0.750000
vt 0.625000 0.787500
vt 0.625000 0.712500
vt 0.635984 0.739016
vt 0.625000 0.750000
vt 0.337500 0.500000
vt 0.375000 0.462500
vt 0.375000 0.537500
vt 0.364016 0.510983
vt 0.375000 0.500000
vt 0.625000 0.537500
vt 0.662500 0.500000
vt 0.625000 0.462500
vt 0.635983 0.510983
vt 0.625000 0.500000
vt 0.162500 0.750000
vt 0.375000 0.962500
vt 0.125000 0.712500
vt 0.375000 0.037500
vt 0.135983 0.739016
vt 0.375000 1.000000
vt 0.375000 0.000000
vt 0.875000 0.712500
vt 0.625000 0.037500
vt 0.837500 0.750000
vt 0.625000 0.962500
vt 0.864016 0.739016
vt 0.625000 1.000000
vt 0.625000 0.000000
vt 0.125000 0.537500
vt 0.375000 0.212500
vt 0.162500 0.500000
vt 0.375000 0.287500
vt 0.135983 0.510983
vt 0.375000 0.250000
vt 0.837500 0.500000
vt 0.625000 0.287500
vt 0.875000 0.537500
vt 0.625000 0.212500
vt 0.864016 0.510983
vt 0.625000 0.250000
vt 0.375000 0.712500
vt 0.337500 0.750000
vt 0.375000 0.787500
vt 0.364017 0.739016
vt 0.375000 0.750000
vt 0.662500 0.750000
vt 0.625000 0.787500
vt 0.625000 0.712500
vt 0.635983 0.739016
vt 0.625000 0.750000
vt 0.337500 0.500000
vt 0.375000 0.462500
vt 0.375000 0.537500
vt 0.364016 0.510983
vt 0.375000 0.500000
vt 0.625000 0.537500
vt 0.662500 0.500000
vt 0.625000 0.462500
vt 0.635983 0.510983
vt 0.625000 0.500000
vt 0.162500 0.750000
vt 0.375000 0.962500
vt 0.125000 0.712500
vt 0.375000 0.037500
vt 0.135983 0.739016
vt 0.375000 1.000000
vt 0.375000 0.000000
vt 0.875000 0.712500
vt 0.625000 0.037500
vt 0.837500 0.750000
vt 0.625000 0.962500
vt 0.864016 0.739016
vt 0.625000 1.000000
vt 0.625000 0.000000
vt 0.125000 0.537500
vt 0.375000 0.212500
vt 0.162500 0.500000
vt 0.375000 0.287500
vt 0.135983 0.510983
vt 0.375000 0.250000
vt 0.837500 0.500000
vt 0.625000 0.287500
vt 0.875000 0.537500
vt 0.625000 0.212500
vt 0.864016 0.510983
vt 0.625000 0.250000
vt 0.375000 0.712500
vt 0.337500 0.750000
vt 0.375000 0.787500
vt 0.364017 0.739016
vt 0.375000 0.750000
vt 0.662500 0.750000
vt 0.625000 0.787500
vt 0.625000 0.712500
vt 0.635984 0.739016
vt 0.625000 0.750000
vt 0.337500 0.500000
vt 0.375000 0.462500
vt 0.375000 0.537500
vt 0.364016 0.510983
vt 0.375000 0.500000
vt 0.625000 0.537500
vt 0.662500 0.500000
vt 0.625000 0.462500
vt 0.635983 0.510983
vt 0.625000 0.500000
vt 0.162500 0.750000
vt 0.375000 0.962500
vt 0.125000 0.712500
vt 0.375000 0.037500
vt 0.135983 0.739016
vt 0.375000 1.000000
vt 0.375000 0.000000
vt 0.875000 0.712500
vt 0.625000 0.037500
vt 0.837500 0.750000
vt 0.625000 0.962500
vt 0.864016 0.739016
vt 0.625000 1.000000
vt 0.625000 0.000000
vt 0.125000 0.537500
vt 0.375000 0.212500
vt 0.162500 0.500000
vt 0.375000 0.287500
vt 0.135983 0.510983
vt 0.375000 0.250000
vt 0.837500 0.500000
vt 0.625000 0.287500
vt 0.875000 0.537500
vt 0.625000 0.212500
vt 0.864016 0.510983
vt 0.625000 0.250000
vt 0.375000 0.712500
vt 0.337500 0.750000
vt 0.375000 0.787500
vt 0.364017 0.739016
vt 0.375000 0.750000
vt 0.662500 0.750000
vt 0.625000 0.787500
vt 0.625000 0.712500
vt 0.635984 0.739016
vt 0.625000 0.750000
vt 0.337500 0.500000
vt 0.375000 0.462500
vt 0.375000 0.537500
vt 0.364016 0.510983
vt 0.375000 0.500000
vt 0.625000 0.537500
vt 0.662500 0.500000
vt 0.625000 0.462500
vt 0.635983 0.510983
vt 0.625000 0.500000
vt 0.375000 0.115810
vt 0.625000 0.865810
vt 0.490810 0.000000
vt 0.375000 0.634190
vt 0.376759 0.095700
vt 0.625000 0.845700
vt 0.381984 0.076200
vt 0.625000 0.826200
vt 0.390516 0.057905
vt 0.625000 0.807905
vt 0.402094 0.041369
vt 0.625000 0.791369
vt 0.416369 0.027094
vt 0.625000 0.750000
vt 0.375000 0.750000
vt 0.432905 0.015516
vt 0.375000 0.692095
vt 0.451200 0.006984
vt 0.375000 0.673800
vt 0.470700 0.001759
vt 0.375000 0.654300
vt 0.509190 0.250000
vt 0.125000 0.634190
vt 0.625000 0.365810
vt 0.375000 0.865810
vt 0.529300 0.251759
vt 0.125000 0.654300
vt 0.548799 0.256984
vt 0.125000 0.673800
vt 0.567095 0.265516
vt 0.125000 0.692095
vt 0.583631 0.277094
vt 0.375000 0.750000
vt 0.125000 0.750000
vt 0.597906 0.291369
vt 0.375000 0.791369
vt 0.609484 0.307905
vt 0.375000 0.807905
vt 0.618016 0.326200
vt 0.375000 0.826200
vt 0.623241 0.345700
vt 0.375000 0.845700
vt 0.490810 0.250000
vt 0.625000 0.615810
vt 0.375000 0.134190
vt 0.625000 0.884190
vt 0.470700 0.248241
vt 0.625000 0.595700
vt 0.451200 0.243016
vt 0.625000 0.576200
vt 0.432905 0.234484
vt 0.625000 0.557905
vt 0.416369 0.222906
vt 0.625000 0.541369
vt 0.402094 0.208631
vt 0.625000 0.500000
vt 0.625000 1.000000
vt 0.390516 0.192095
vt 0.625000 0.942095
vt 0.381984 0.173800
vt 0.625000 0.923800
vt 0.376759 0.154300
vt 0.625000 0.904300
vt 0.625000 0.384190
vt 0.375000 0.884190
vt 0.509190 0.500000
vt 0.375000 0.615810
vt 0.623241 0.404300
vt 0.375000 0.904300
vt 0.618016 0.423800
vt 0.375000 0.923800
vt 0.609484 0.442095
vt 0.375000 0.942095
vt 0.597906 0.458631
vt 0.375000 0.500000
vt 0.375000 1.000000
vt 0.583631 0.472906
vt 0.375000 0.541369
vt 0.567095 0.484484
vt 0.375000 0.557905
vt 0.548800 0.493016
vt 0.375000 0.576200
vt 0.529300 0.498241
vt 0.375000 0.595700
vt 0.509190 0.000000
vt 0.375000 0.615810
vt 0.625000 0.115810
vt 0.875000 0.634190
vt 0.529300 0.001759
vt 0.375000 0.595700
vt 0.548799 0.006984
vt 0.375000 0.576200
vt 0.567095 0.015516
vt 0.375000 0.557905
vt 0.583631 0.027094
vt 0.375000 0.541369
vt 0.597906 0.041369
vt 0.375000 0.500000
vt 0.875000 0.750000
vt 0.609484 0.057905
vt 0.875000 0.692095
vt 0.618016 0.076200
vt 0.875000 0.673800
vt 0.623241 0.095700
vt 0.875000 0.654300
vt 0.375000 0.365810
vt 0.625000 0.634190
vt 0.490810 0.250000
vt 0.125000 0.615810
vt 0.376759 0.345700
vt 0.625000 0.654300
vt 0.381984 0.326201
vt 0.625000 0.673800
vt 0.390516 0.307905
vt 0.625000 0.692095
vt 0.402094 0.291369
vt 0.125000 0.500000
vt 0.625000 0.750000
vt 0.416369 0.277094
vt 0.125000 0.541369
vt 0.432905 0.265516
vt 0.125000 0.557905
vt 0.451200 0.256984
vt 0.125000 0.576200
vt 0.470700 0.251759
vt 0.125000 0.595700
vt 0.625000 0.134190
vt 0.875000 0.615810
vt 0.509190 0.250000
vt 0.625000 0.634190
vt 0.623241 0.154300
vt 0.875000 0.595700
vt 0.618016 0.173800
vt 0.875000 0.576200
vt 0.609484 0.192095
vt 0.875000 0.557905
vt 0.597906 0.208631
vt 0.625000 0.750000
vt 0.875000 0.500000
vt 0.583631 0.222906
vt 0.625000 0.708631
vt 0.567095 0.234484
vt 0.625000 0.692095
vt 0.548800 0.243016
vt 0.625000 0.673800
vt 0.529300 0.248241
vt 0.625000 0.654300
vt 0.490810 0.500000
vt 0.375000 0.634190
vt 0.375000 0.384190
vt 0.625000 0.615810
vt 0.470700 0.498241
vt 0.375000 0.654300
vt 0.451200 0.493016
vt 0.375000 0.673800
vt 0.432905 0.484484
vt 0.375000 0.692095
vt 0.416369 0.472906
vt 0.375000 0.708631
vt 0.402094 0.458631
vt 0.375000 0.750000
vt 0.625000 0.500000
vt 0.390516 0.442095
vt 0.625000 0.557905
vt 0.381984 0.423800
vt 0.625000 0.576200
vt 0.376759 0.404300
vt 0.625000 0.595700
s 0
f 14/28/1 16/33/1 5/11/1 1/1/1
f 20/39/2 22/42/2 17/34/2 13/27/2
f 31/61/3 33/65/3 32/63/3 43/83/3 45/86/3 44/85/3 37/73/3 39/76/3 38/74/3 25/47/3 27/51/3 26/49/3
f 22/42/4 24/45/4 23/43/4 10/21/4 12/25/4 11/23/4 4/8/4 6/12/4 5/10/4 16/32/4 18/35/4 17/34/4
f 2/3/5 4/9/5 11/24/5 7/15/5
f 8/17/6 10/22/6 23/44/6 19/37/6
f 38/75/1 40/79/1 29/57/1 25/48/1
f 44/85/2 46/88/2 41/80/2 37/73/2
f 55/107/3 57/111/3 56/109/3 67/129/3 69/132/3 68/131/3 61/119/3 63/122/3 62/120/3 49/93/3 51/97/3 50/95/3
f 46/88/4 48/91/4 47/89/4 34/67/4 36/71/4 35/69/4 28/54/4 30/58/4 29/56/4 40/78/4 42/81/4 41/80/4
f 26/50/5 28/55/5 35/70/5 31/62/5
f 32/64/6 34/68/6 47/90/6 43/84/6
f 62/121/1 64/125/1 53/103/1 49/94/1
f 68/131/2 70/134/2 65/126/2 61/119/2
f 79/153/3 81/157/3 80/155/3 91/175/3 93/178/3 92/177/3 85/165/3 87/168/3 86/166/3 73/139/3 75/143/3 74/141/3
f 70/134/4 72/137/4 71/135/4 58/113/4 60/117/4 59/115/4 52/100/4 54/104/4 53/102/4 64/124/4 66/127/4 65/126/4
f 50/96/5 52/101/5 59/116/5 55/108/5
f 56/110/6 58/114/6 71/136/6 67/130/6
f 86/167/1 88/171/1 77/149/1 73/140/1
f 92/177/2 94/180/2 89/172/2 85/165/2
f 103/199/3 105/203/3 104/201/3 115/221/3 117/224/3 116/223/3 109/211/3 111/214/3 110/212/3 97/185/3 99/189/3 98/187/3
f 94/180/4 96/183/4 95/181/4 82/159/4 84/163/4 83/161/4 76/146/4 78/150/4 77/148/4 88/170/4 90/173/4 89/172/4
f 74/142/5 76/147/5 83/162/5 79/154/5
f 80/156/6 82/160/6 95/182/6 91/176/6
f 110/213/1 112/217/1 101/195/1 97/186/1
f 116/223/2 118/226/2 113/218/2 109/211/2
f 118/226/4 120/229/4 119/227/4 106/205/4 108/209/4 107/207/4 100/192/4 102/196/4 101/194/4 112/216/4 114/219/4 113/218/4
f 98/188/5 100/193/5 107/208/5 103/200/5
f 104/202/6 106/206/6 119/228/6 115/222/6
f 1/1/7 5/11/7 6/13/7 3/5/7
f 3/6/8 6/14/8 4/9/8 2/3/8
f 10/22/9 8/17/9 9/19/9 12/26/9
f 12/26/10 9/19/10 7/15/10 11/24/10
f 22/42/11 20/39/11 21/40/11 24/46/11
f 24/46/12 21/40/12 19/37/12 23/44/12
f 16/33/13 14/28/13 15/30/13 18/36/13
f 18/36/14 15/30/14 13/27/14 17/34/14
f 25/48/7 29/57/7 30/59/7 27/52/7
f 27/53/8 30/60/8 28/55/8 26/50/8
f 34/68/9 32/64/9 33/66/9 36/72/9
f 36/72/10 33/66/10 31/62/10 35/70/10
f 46/88/11 44/85/11 45/87/11 48/92/11
f 48/92/12 45/87/12 43/84/12 47/90/12
f 40/79/13 38/75/13 39/77/13 42/82/13
f 42/82/14 39/77/14 37/73/14 41/80/14
f 49/94/7 53/103/7 54/105/7 51/98/7
f 51/99/8 54/106/8 52/101/8 50/96/8
f 58/114/9 56/110/9 57/112/9 60/118/9
f 60/118/10 57/112/10 55/108/10 59/116/10
f 70/134/11 68/131/11 69/133/11 72/138/11
f 72/138/12 69/133/12 67/130/12 71/136/12
f 64/125/13 62/121/13 63/123/13 66/128/13
f 66/128/14 63/123/14 61/119/14 65/126/14
f 73/140/7 77/149/7 78/151/7 75/144/7
f 75/145/8 78/152/8 76/147/8 74/142/8
f 82/160/9 80/156/9 81/158/9 84/164/9
f 84/164/10 81/158/10 79/154/10 83/162/10
f 94/180/11 92/177/11 93/179/11 96/184/11
f 96/184/12 93/179/12 91/176/12 95/182/12
f 88/171/13 86/167/13 87/169/13 90/174/13
f 90/174/14 87/169/14 85/165/14 89/172/14
f 97/186/7 101/195/7 102/197/7 99/190/7
f 99/191/8 102/198/8 100/193/8 98/188/8
f 106/206/9 104/202/9 105/204/9 108/210/9
f 108/210/10 105/204/10 103/200/10 107/208/10
f 118/226/11 116/223/11 117/225/11 120/230/11
f 120/230/12 117/225/12 115/222/12 119/228/12
f 112/217/13 110/213/13 111/215/13 114/220/13
f 114/220/14 111/215/14 109/211/14 113/218/14
f 7/16/3 9/20/3 8/18/3 19/38/3 21/41/3 20/39/3 13/27/3 15/31/3 14/29/3 1/2/3 3/7/3 2/4/3
f 171/336/3 173/340/3 174/342/3 175/344/3 176/346/3 177/349/3 178/351/3 179/353/3 180/355/3 172/338/3 131/252/3 133/256/3 134/258/3 135/260/3 136/262/3 137/265/3 138/267/3 139/269/3 140/271/3 132/254/3 151/294/3 153/298/3 154/300/3 155/302/3 156/304/3 157/307/3 158/309/3 159/311/3 160/313/3 152/296/3 191/378/3 193/382/3 194/384/3 195/386/3 196/388/3 197/390/3 198/393/3 199/395/3 200/397/3 192/380/3
f 152/297/1 141/274/1 182/360/1 191/379/1
f 192/381/5 181/358/5 162/318/5 171/337/5
f 121/231/4 123/235/4 124/237/4 125/239/4 126/241/4 127/243/4 128/246/4 129/248/4 130/250/4 122/233/4 161/315/4 163/319/4 164/321/4 165/323/4 166/325/4 167/327/4 168/330/4 169/332/4 170/334/4 162/317/4 181/357/4 183/361/4 184/363/4 185/365/4 186/367/4 187/370/4 188/372/4 189/374/4 190/376/4 182/359/4 141/273/4 143/277/4 144/279/4 145/281/4 146/283/4 147/285/4 148/288/4 149/290/4 150/292/4 142/275/4
f 132/255/2 121/232/2 142/276/2 151/295/2
f 191/379/15 182/360/15 190/377/15 193/383/15
f 193/383/16 190/377/16 189/375/16 194/385/16
f 194/385/17 189/375/17 188/373/17 195/387/17
f 195/387/18 188/373/18 187/371/18 196/389/18
f 196/389/19 187/371/19 186/368/19 197/391/19
f 197/392/20 186/369/20 185/366/20 198/394/20
f 198/394/21 185/366/21 184/364/21 199/396/21
f 199/396/22 184/364/22 183/362/22 200/398/22
f 200/398/23 183/362/23 181/358/23 192/381/23
f 161/316/24 172/339/24 180/356/24 163/320/24
f 163/320/25 180/356/25 179/354/25 164/322/25
f 164/322/26 179/354/26 178/352/26 165/324/26
f 165/324/27 178/352/27 177/350/27 166/326/27
f 166/326/28 177/350/28 176/347/28 167/328/28
f 167/329/29 176/348/29 175/345/29 168/331/29
f 168/331/30 175/345/30 174/343/30 169/333/30
f 169/333/31 174/343/31 173/341/31 170/335/31
f 170/335/32 173/341/32 171/337/32 162/318/32
f 121/232/33 132/255/33 140/272/33 123/236/33
f 123/236/34 140/272/34 139/270/34 124/238/34
f 124/238/35 139/270/35 138/268/35 125/240/35
f 125/240/36 138/268/36 137/266/36 126/242/36
f 126/242/37 137/266/37 136/263/37 127/244/37
f 127/245/38 136/264/38 135/261/38 128/247/38
f 128/247/39 135/261/39 134/259/39 129/249/39
f 129/249/40 134/259/40 133/257/40 130/251/40
f 130/251/41 133/257/41 131/253/41 122/234/41
f 141/274/42 152/297/42 160/314/42 143/278/42
f 143/278/43 160/314/43 159/312/43 144/280/43
f 144/280/44 159/312/44 158/310/44 145/282/44
f 145/282/45 158/310/45 157/308/45 146/284/45
f 146/284/46 157/308/46 156/305/46 147/286/46
f 147/287/47 156/306/47 155/303/47 148/289/47
f 148/289/48 155/303/48 154/301/48 149/291/48
f 149/291/49 154/301/49 153/299/49 150/293/49
f 150/293/50 153/299/50 151/295/50 142/276/50
f 172/339/6 161/316/6 122/234/6 131/253/6
