# Blender 3.4.1
# www.blender.org
mtllib table_rectangle140.mtl
g Cube_Меш
v -0.536534 0.674845 0.328864
v -0.536534 0.004357 0.328864
v -0.536534 0.674845 0.399201
v -0.536534 0.004357 0.399201
v -0.606870 0.674845 0.328864
v -0.606870 0.004357 0.328864
v -0.606870 0.674845 0.399201
v -0.606870 0.004357 0.399201
v -0.705666 0.671393 0.502693
v -0.705666 0.741738 0.502693
v -0.705666 0.671393 -0.496585
v -0.705666 0.741738 -0.496585
v 0.691007 0.671393 0.502693
v 0.691007 0.741738 0.502693
v 0.691007 0.671393 -0.496585
v 0.691007 0.741738 -0.496585
v -0.606702 0.004356 -0.322925
v -0.606702 0.674846 -0.322925
v -0.606702 0.004356 -0.392925
v -0.606702 0.674846 -0.392925
v -0.536702 0.004356 -0.322925
v -0.536702 0.674846 -0.322925
v -0.536702 0.004356 -0.392925
v -0.536702 0.674846 -0.392925
v 0.524486 0.003803 -0.322925
v 0.524486 0.674134 -0.322925
v 0.524486 0.003803 -0.392925
v 0.524486 0.674134 -0.392925
v 0.594486 0.003803 -0.322925
v 0.594486 0.674134 -0.322925
v 0.594486 0.003803 -0.392925
v 0.594486 0.674134 -0.392925
v 0.524398 0.004578 0.399334
v 0.524398 0.674320 0.399334
v 0.524398 0.004578 0.329334
v 0.524398 0.674320 0.329334
v 0.594398 0.004578 0.399334
v 0.594398 0.674320 0.399334
v 0.594398 0.004578 0.329334
v 0.594398 0.674320 0.329334
vn -0.0000 1.0000 -0.0000
vn -0.0000 -0.0000 1.0000
vn -1.0000 -0.0000 -0.0000
vn -0.0000 -1.0000 -0.0000
vn 1.0000 -0.0000 -0.0000
vn -0.0000 -0.0000 -1.0000
vt 0.625000 0.500000
vt 0.375000 0.500000
vt 0.625000 0.750000
vt 0.375000 0.750000
vt 0.875000 0.500000
vt 0.625000 0.250000
vt 0.125000 0.500000
vt 0.375000 0.250000
vt 0.875000 0.750000
vt 0.625000 1.000000
vt 0.625000 0.000000
vt 0.375000 0.000000
vt 0.375000 1.000000
vt 0.125000 0.750000
vt 0.375000 0.000000
vt 0.375000 1.000000
vt 0.125000 0.750000
vt 0.625000 0.000000
vt 0.625000 1.000000
vt 0.875000 0.750000
vt 0.125000 0.500000
vt 0.375000 0.250000
vt 0.625000 0.250000
vt 0.875000 0.500000
vt 0.355120 0.769880
vt 0.644880 0.769880
vt 0.355120 0.480120
vt 0.644880 0.480120
vt 0.375000 0.000000
vt 0.375000 1.000000
vt 0.125000 0.750000
vt 0.625000 0.000000
vt 0.625000 1.000000
vt 0.875000 0.750000
vt 0.125000 0.500000
vt 0.375000 0.250000
vt 0.625000 0.250000
vt 0.875000 0.500000
vt 0.375000 0.750000
vt 0.625000 0.750000
vt 0.375000 0.500000
vt 0.625000 0.500000
vt 0.375000 0.000000
vt 0.375000 2.081977
vt -0.956977 0.750000
vt 0.625000 0.000000
vt 0.625000 2.081977
vt 1.956977 0.750000
vt -0.956977 0.500000
vt 0.375000 0.250000
vt 0.625000 0.250000
vt 1.956977 0.500000
vt -0.165988 1.290989
vt 1.165968 1.291009
vt -0.165988 -0.040988
vt 1.165988 -0.040988
vt 0.375000 0.000000
vt 0.375000 2.081976
vt -0.956976 0.750000
vt 0.625000 0.000000
vt 0.625000 2.081976
vt 1.956976 0.750000
vt -0.956976 0.500000
vt 0.375000 0.250000
vt 0.625000 0.250000
vt 1.956976 0.500000
vt -0.165989 1.290987
vt 1.165998 1.290978
vt -0.165988 -0.040988
vt 1.165978 -0.040998
s 0
g off
g Cube_Material
usemtl Material
f 5/5/1 3/3/1 1/1/1
f 3/3/2 8/13/2 4/4/2
f 7/11/3 6/8/3 8/12/3
f 2/2/4 8/14/4 6/7/4
f 1/1/5 4/4/5 2/2/5
f 5/6/6 2/2/6 6/8/6
f 10/18/3 11/22/3 9/15/3
f 12/23/6 15/27/6 11/22/6
f 16/28/5 13/25/5 15/27/5
f 14/26/2 9/16/2 13/25/2
f 15/27/4 9/17/4 11/21/4
f 12/24/1 14/26/1 16/28/1
f 18/32/3 19/36/3 17/29/3
f 20/37/6 23/41/6 19/36/6
f 24/42/5 21/39/5 23/41/5
f 22/40/2 17/30/2 21/39/2
f 23/41/4 17/31/4 19/35/4
f 20/38/1 22/40/1 24/42/1
f 26/46/3 27/50/3 25/43/3
f 28/51/6 31/55/6 27/50/6
f 32/56/5 29/53/5 31/55/5
f 30/54/2 25/44/2 29/53/2
f 31/55/4 25/45/4 27/49/4
f 28/52/1 30/54/1 32/56/1
f 34/60/3 35/64/3 33/57/3
f 36/65/6 39/69/6 35/64/6
f 40/70/5 37/67/5 39/69/5
f 38/68/2 33/58/2 37/67/2
f 39/69/4 33/59/4 35/63/4
f 36/66/1 38/68/1 40/70/1
f 5/5/1 7/9/1 3/3/1
f 3/3/2 7/10/2 8/13/2
f 7/11/3 5/6/3 6/8/3
f 2/2/4 4/4/4 8/14/4
f 1/1/5 3/3/5 4/4/5
f 5/6/6 1/1/6 2/2/6
f 10/18/3 12/23/3 11/22/3
f 12/23/6 16/28/6 15/27/6
f 16/28/5 14/26/5 13/25/5
f 14/26/2 10/19/2 9/16/2
f 15/27/4 13/25/4 9/17/4
f 12/24/1 10/20/1 14/26/1
f 18/32/3 20/37/3 19/36/3
f 20/37/6 24/42/6 23/41/6
f 24/42/5 22/40/5 21/39/5
f 22/40/2 18/33/2 17/30/2
f 23/41/4 21/39/4 17/31/4
f 20/38/1 18/34/1 22/40/1
f 26/46/3 28/51/3 27/50/3
f 28/51/6 32/56/6 31/55/6
f 32/56/5 30/54/5 29/53/5
f 30/54/2 26/47/2 25/44/2
f 31/55/4 29/53/4 25/45/4
f 28/52/1 26/48/1 30/54/1
f 34/60/3 36/65/3 35/64/3
f 36/65/6 40/70/6 39/69/6
f 40/70/5 38/68/5 37/67/5
f 38/68/2 34/61/2 33/58/2
f 39/69/4 37/67/4 33/59/4
f 36/66/1 34/62/1 38/68/1
