# Blender 3.4.1
# www.blender.org
mtllib window210x150.mtl
o ĞšÑƒĞ±
v -0.050046 -0.001673 0.677049
v -0.050046 1.497005 0.677049
v -0.050046 -0.001673 -0.722785
v -0.050046 1.497005 -0.722785
v 0.050046 -0.001673 0.677049
v 0.050046 1.497005 0.677049
v 0.050046 -0.001673 -0.722785
v 0.050046 1.497005 -0.722785
v -0.050046 -0.001673 -0.023092
v -0.050046 1.497005 -0.023092
v 0.050046 -0.001673 -0.023092
v 0.050046 1.497005 -0.023092
v 0.050046 1.414568 0.058421
v 0.050046 1.414568 0.598035
v 0.050046 0.080763 0.598035
v 0.050046 0.080763 0.058421
v 0.050046 1.416324 -0.643712
v 0.050046 0.079007 -0.643712
v 0.050046 0.079007 -0.104241
v 0.050046 1.416324 -0.104241
v -0.050046 1.414888 -0.103880
v -0.050046 1.414888 -0.644073
v -0.050046 0.080444 -0.644073
v -0.050046 0.080444 -0.103880
v -0.050046 0.081378 0.058466
v -0.050046 0.081378 0.597989
v -0.050046 1.413954 0.597989
v -0.050046 1.413954 0.058466
v -0.060431 0.710461 0.037919
v -0.060431 0.790444 0.037919
v -0.060431 0.710461 -0.002032
v -0.060431 0.790444 -0.002032
v -0.020401 0.710461 0.037919
v -0.020401 0.790444 0.037919
v -0.020401 0.710461 -0.002032
v -0.020401 0.790444 -0.002032
v -0.060431 0.740469 0.007968
v -0.060431 0.740469 0.027919
v -0.060431 0.760437 0.027919
v -0.060431 0.760437 0.007968
v -0.105341 0.740469 0.007968
v -0.105341 0.740469 0.027919
v -0.105341 0.760437 0.027919
v -0.105341 0.760437 0.007968
v -0.090325 0.740469 0.007968
v -0.090325 0.760437 0.007968
v -0.090325 0.760437 0.027919
v -0.090325 0.740469 0.027919
v -0.105341 0.740469 0.087914
v -0.105341 0.760437 0.087914
v -0.090325 0.760437 0.087914
v -0.090325 0.740469 0.087914
v -0.050046 -0.001673 1.377082
v -0.050046 1.497005 1.377082
v 0.050046 1.497005 1.377082
v 0.050046 -0.001673 1.377082
v -0.050046 0.078687 0.756959
v -0.050046 1.416644 0.756959
v -0.050046 0.078687 1.297172
v -0.050046 1.416644 1.297172
v 0.050046 1.404347 0.757075
v 0.050046 0.090984 0.757075
v 0.050046 1.404347 1.297056
v 0.050046 0.090984 1.297056
vn -1.0000 -0.0000 -0.0000
vn -0.0000 -0.0000 -1.0000
vn 1.0000 -0.0000 -0.0000
vn -0.0000 -1.0000 -0.0000
vn -0.0000 1.0000 -0.0000
vn -0.0036 -0.0000 1.0000
vn 0.0061 1.0000 -0.0000
vn 0.0005 -0.0000 1.0000
vn 0.0144 0.9999 -0.0000
vn 0.0005 -0.0000 -1.0000
vn 0.0061 -1.0000 -0.0000
vn -0.0036 -0.0000 -1.0000
vn 0.0144 -0.9999 -0.0000
vn -0.0000 -0.0000 1.0000
vn -0.0012 -0.0000 1.0000
vn -0.1219 -0.9925 -0.0000
vn -0.0012 -0.0000 -1.0000
vn -0.1219 0.9925 -0.0000
vt 0.375000 1.000000
vt 0.125000 0.750000
vt 0.625000 1.000000
vt 0.875000 0.750000
vt 0.375000 0.250000
vt 0.125000 0.500000
vt 0.875000 0.500000
vt 0.625000 0.250000
vt 0.375000 0.750000
vt 0.625000 0.750000
vt 0.375000 0.500000
vt 0.625000 0.500000
vt 0.375000 0.125000
vt 0.125000 0.625000
vt 0.625000 0.125000
vt 0.875000 0.625000
vt 0.375000 0.625000
vt 0.625000 0.625000
vt 0.625000 0.625000
vt 0.625000 0.750000
vt 0.375000 0.750000
vt 0.375000 0.625000
vt 0.625000 0.500000
vt 0.375000 0.500000
vt 0.375000 0.625000
vt 0.625000 0.625000
vt 0.625000 0.125000
vt 0.875000 0.625000
vt 0.875000 0.500000
vt 0.625000 0.250000
vt 0.375000 0.250000
vt 0.125000 0.500000
vt 0.375000 0.125000
vt 0.125000 0.625000
vt 0.375000 0.125000
vt 0.125000 0.625000
vt 0.125000 0.750000
vt 0.375000 1.000000
vt 0.625000 1.000000
vt 0.875000 0.750000
vt 0.875000 0.625000
vt 0.625000 0.125000
vt 0.125000 0.750000
vt 0.375000 1.000000
vt 0.875000 0.750000
vt 0.625000 1.000000
vt 0.125000 0.500000
vt 0.375000 0.250000
vt 0.875000 0.500000
vt 0.625000 0.250000
vt 0.375000 0.750000
vt 0.625000 0.750000
vt 0.375000 0.500000
vt 0.625000 0.500000
vt 0.125000 0.500000
vt 0.375000 0.250000
vt 0.125000 0.750000
vt 0.375000 1.000000
vt 0.875000 0.750000
vt 0.625000 1.000000
vt 0.875000 0.500000
vt 0.625000 0.250000
vt 0.375000 0.250000
vt 0.125000 0.500000
vt 0.375000 0.000000
vt 0.125000 0.750000
vt 0.625000 0.000000
vt 0.875000 0.750000
vt 0.625000 0.250000
vt 0.875000 0.500000
vt 0.125000 0.500000
vt 0.375000 0.250000
vt 0.875000 0.500000
vt 0.625000 0.250000
vt 0.625000 1.000000
vt 0.875000 0.750000
vt 0.375000 1.000000
vt 0.125000 0.750000
vt 0.375000 1.000000
vt 0.375000 0.000000
vt 0.125000 0.750000
vt 0.625000 1.000000
vt 0.625000 0.000000
vt 0.875000 0.750000
vt 0.625000 1.000000
vt 0.875000 0.750000
vt 0.375000 1.000000
vt 0.125000 0.750000
vt 0.125000 0.750000
vt 0.375000 1.000000
vt 0.875000 0.750000
vt 0.625000 1.000000
vt 0.625000 0.750000
vt 0.375000 0.750000
vt 0.125000 0.750000
vt 0.375000 1.000000
vt 0.875000 0.750000
vt 0.625000 1.000000
vt 0.125000 0.750000
vt 0.375000 1.000000
vt 0.625000 1.000000
vt 0.875000 0.750000
vt 0.625000 0.750000
vt 0.375000 0.750000
vt 0.625000 0.750000
vt 0.375000 0.750000
s 0
f 9/13/1 10/15/1 21/27/1 24/33/1
f 3/5/2 4/8/2 8/12/2 7/11/2
f 12/18/3 6/10/3 14/20/3 13/19/3
f 2/3/1 1/1/1 57/96/1 58/98/1
f 9/14/4 11/17/4 5/9/4 1/2/4
f 12/18/5 10/16/5 2/4/5 6/10/5
f 8/12/5 4/7/5 10/16/5 12/18/5
f 3/6/4 7/11/4 11/17/4 9/14/4
f 11/17/3 7/11/3 18/24/3 19/25/3
f 10/15/1 9/13/1 25/35/1 28/42/1
f 18/24/6 17/23/6 22/30/6 23/31/6
f 6/10/3 5/9/3 15/21/3 14/20/3
f 11/17/3 12/18/3 13/19/3 16/22/3
f 5/9/3 11/17/3 16/22/3 15/21/3
f 15/21/7 16/22/7 25/36/7 26/37/7
f 12/18/3 11/17/3 19/25/3 20/26/3
f 7/11/3 8/12/3 17/23/3 18/24/3
f 8/12/3 12/18/3 20/26/3 17/23/3
f 16/22/8 13/19/8 28/42/8 25/36/8
f 10/16/1 4/7/1 22/29/1 21/28/1
f 4/8/1 3/5/1 23/31/1 22/30/1
f 3/6/1 9/14/1 24/34/1 23/32/1
f 19/25/9 18/24/9 23/32/9 24/34/9
f 2/4/1 10/16/1 28/41/1 27/40/1
f 9/14/1 1/2/1 26/37/1 25/36/1
f 1/1/1 2/3/1 27/39/1 26/38/1
f 14/20/10 15/21/10 26/38/10 27/39/10
f 13/19/11 14/20/11 27/40/11 28/42/11
f 19/25/12 24/34/12 21/27/12 20/26/12
f 17/23/13 20/26/13 21/28/13 22/30/13
f 30/45/1 32/49/1 40/61/1 39/59/1
f 31/48/2 32/50/2 36/54/2 35/53/2
f 35/53/3 36/54/3 34/52/3 33/51/3
f 33/51/14 34/52/14 30/46/14 29/44/14
f 31/47/4 35/53/4 33/51/4 29/43/4
f 36/54/5 32/49/5 30/45/5 34/52/5
f 46/74/2 45/72/2 41/63/2 44/69/2
f 31/47/1 29/43/1 38/57/1 37/55/1
f 32/50/1 31/48/1 37/56/1 40/62/1
f 29/44/1 30/46/1 39/60/1 38/58/1
f 42/65/1 43/67/1 44/69/1 41/63/1
f 48/77/3 47/75/3 51/85/3 52/87/3
f 47/76/5 46/73/5 44/70/5 43/68/5
f 45/71/4 48/78/4 42/66/4 41/64/4
f 37/55/4 38/57/4 48/78/4 45/71/4
f 39/59/5 40/61/5 46/73/5 47/76/5
f 38/58/14 39/60/14 47/75/14 48/77/14
f 40/62/2 37/56/2 45/72/2 46/74/2
f 52/87/14 51/85/14 50/82/14 49/79/14
f 43/67/1 42/65/1 49/80/1 50/83/1
f 47/76/5 43/68/5 50/84/5 51/86/5
f 42/66/4 48/78/4 52/88/4 49/81/4
f 56/94/14 55/93/14 54/92/14 53/90/14
f 1/2/4 5/9/4 56/94/4 53/89/4
f 6/10/5 2/4/5 54/91/5 55/93/5
f 6/10/3 55/93/3 63/105/3 61/103/3
f 57/96/15 62/104/15 61/103/15 58/98/15
f 54/91/1 2/4/1 58/97/1 60/102/1
f 1/2/1 53/89/1 59/99/1 57/95/1
f 53/90/1 54/92/1 60/101/1 59/100/1
f 58/98/16 61/103/16 63/105/16 60/102/16
f 55/93/3 56/94/3 64/106/3 63/105/3
f 56/94/3 5/9/3 62/104/3 64/106/3
f 5/9/3 6/10/3 61/103/3 62/104/3
f 59/100/17 60/102/17 63/105/17 64/106/17
f 59/100/18 64/106/18 62/104/18 57/96/18
