# Blender 3.4.1
# www.blender.org
mtllib window12x142.mtl
o Cube
v 0.050232 1.421094 -0.601370
v 0.050232 -0.001094 -0.601370
v 0.050232 1.421094 0.601370
v 0.050232 -0.001094 0.601370
v -0.050232 1.421094 -0.601370
v -0.050232 -0.001094 -0.601370
v -0.050232 1.421094 0.601370
v -0.050232 -0.001094 0.601370
v 0.050232 1.339053 -0.531483
v 0.050232 0.080947 -0.531483
v 0.050232 1.339053 0.531483
v 0.050232 0.080947 0.531483
v -0.050232 0.080620 -0.531274
v -0.050232 0.080620 0.531274
v -0.050232 1.339380 0.531274
v -0.050232 1.339380 -0.531274
vn -0.0000 1.0000 -0.0000
vn -0.0000 -0.0000 1.0000
vn -1.0000 -0.0000 -0.0000
vn -0.0000 -1.0000 -0.0000
vn 1.0000 -0.0000 -0.0000
vn -0.0000 -0.0000 -1.0000
vn -0.0033 -1.0000 -0.0000
vn 0.0033 -0.9993 -0.0372
vn 0.0021 -0.0000 -1.0000
vn 0.0021 -0.0000 1.0000
vt 0.625000 0.500000
vt 0.375000 0.500000
vt 0.625000 0.750000
vt 0.375000 0.750000
vt 0.875000 0.500000
vt 0.625000 0.250000
vt 0.125000 0.500000
vt 0.375000 0.250000
vt 0.875000 0.750000
vt 0.625000 1.000000
vt 0.125000 0.750000
vt 0.375000 1.000000
vt 0.000000 0.000000
vt 0.625000 0.500000
vt 0.000000 0.000000
vt 0.375000 0.500000
vt 0.000000 0.000000
vt 0.625000 0.750000
vt 0.000000 0.000000
vt 0.375000 0.750000
vt 0.125000 0.500000
vt 0.375000 0.250000
vt 0.000000 0.000000
vt 0.125000 0.750000
vt 0.000000 0.000000
vt 0.375000 1.000000
vt 0.875000 0.750000
vt 0.625000 1.000000
vt 0.625000 0.000000
vt 0.875000 0.500000
vt 0.625000 0.250000
vt 0.000000 0.000000
s 0
usemtl Material
f 1/1/1 5/5/1 7/9/1 3/3/1
f 4/4/2 3/3/2 7/10/2 8/12/2
f 6/7/3 8/11/3 14/24/3 13/21/3
f 6/7/4 2/2/4 4/4/4 8/11/4
f 3/3/5 4/4/5 12/20/5 11/18/5
f 6/8/6 5/6/6 1/1/6 2/2/6
f 2/2/5 1/1/5 9/14/5 10/16/5
f 4/4/5 2/2/5 10/16/5 12/20/5
f 1/1/5 3/3/5 11/18/5 9/14/5
f 7/9/3 5/5/3 16/30/3 15/27/3
f 5/6/3 6/8/3 13/22/3 16/31/3
f 8/12/3 7/10/3 15/28/3 14/26/3
f 9/14/7 11/18/7 15/29/7 16/31/7
f 12/19/8 8/13/8 14/25/8 13/23/8 10/17/8
f 11/18/9 12/20/9 14/26/9 15/29/9
f 9/15/10 16/32/10 13/23/10 10/17/10
